G04 ================== begin FILE IDENTIFICATION RECORD ==================*
G04 Layout Name:  D:/Project/Circuit/KPRD/03v3/pcb/KPRD_03v3.brd*
G04 Film Name:    BOARD*
G04 File Format:  Gerber RS274X*
G04 File Origin:  Cadence Allegro 16.6-2015-S073*
G04 Origin Date:  Tue Aug 15 14:33:12 2017*
G04 *
G04 Layer:  BOARD GEOMETRY/NCROUTE_PATH*
G04 Layer:  BOARD GEOMETRY/OUTLINE*
G04 *
G04 Offset:    (0.000 0.000)*
G04 Mirror:    No*
G04 Mode:      Positive*
G04 Rotation:  0*
G04 FullContactRelief:  No*
G04 UndefLineWidth:     0.250*
G04 ================== end FILE IDENTIFICATION RECORD ====================*
%FSLAX34Y34*MOMM*%
%IR0*IPPOS*OFA0.00000B0.00000*MIA0B0*SFA1.00000B1.00000*%
%ADD10C,.25*%
G75*
%LPD*%
G75*
G54D10*
G01X-103800Y-105800D02*
Y2226700D01*
X924900D01*
Y-105800D01*
X-103800D01*
G01X164900Y135690D02*
Y186890D01*
G01X139900D02*
Y135690D01*
G01D02*
G03X152400Y123190I12500J0D01*
G01D02*
G03X164900Y135690I0J12500D01*
G01Y186890D02*
G03X152400Y199390I-12500J0D01*
G01D02*
G03X139900Y186890I0J-12500D01*
G01X140100Y288490D02*
Y237290D01*
G01X165100D02*
Y288490D01*
G01X152600Y224790D02*
G03X165100Y237290I0J12500D01*
G01X140100D02*
G03X152600Y224790I12500J0D01*
G01Y300990D02*
G03X140100Y288490I0J-12500D01*
G01X165100D02*
G03X152600Y300990I-12500J0D01*
G01Y326390D02*
G03X165100Y338890I0J12500D01*
G01X140100D02*
G03X152600Y326390I12500J0D01*
G01X140100Y390090D02*
Y338890D01*
G01X165100D02*
Y390090D01*
G01X152600Y402590D02*
G03X140100Y390090I0J-12500D01*
G01X165100D02*
G03X152600Y402590I-12500J0D01*
G01Y427990D02*
G03X165100Y440490I0J12500D01*
G01X140100D02*
G03X152600Y427990I12500J0D01*
G01X140100Y491690D02*
Y440490D01*
G01X165100D02*
Y491690D01*
G01X152600Y504190D02*
G03X140100Y491690I0J-12500D01*
G01X165100D02*
G03X152600Y504190I-12500J0D01*
G01Y529590D02*
G03X165100Y542090I0J12500D01*
G01X140100D02*
G03X152600Y529590I12500J0D01*
G01X140100Y593290D02*
Y542090D01*
G01X165100D02*
Y593290D01*
G01X152600Y605790D02*
G03X140100Y593290I0J-12500D01*
G01X165100D02*
G03X152600Y605790I-12500J0D01*
G01Y631190D02*
G03X165100Y643690I0J12500D01*
G01X140100D02*
G03X152600Y631190I12500J0D01*
G01X140100Y694890D02*
Y643690D01*
G01X165100D02*
Y694890D01*
G01X152600Y707390D02*
G03X140100Y694890I0J-12500D01*
G01X165100D02*
G03X152600Y707390I-12500J0D01*
G01Y732790D02*
G03X165100Y745290I0J12500D01*
G01X140100D02*
G03X152600Y732790I12500J0D01*
G01X140100Y796490D02*
Y745290D01*
G01X165100D02*
Y796490D01*
G01X152600Y808990D02*
G03X140100Y796490I0J-12500D01*
G01X165100D02*
G03X152600Y808990I-12500J0D01*
G01Y834390D02*
G03X165100Y846890I0J12500D01*
G01X140100D02*
G03X152600Y834390I12500J0D01*
G01X140100Y898090D02*
Y846890D01*
G01X165100D02*
Y898090D01*
G01X152600Y910590D02*
G03X140100Y898090I0J-12500D01*
G01X165100D02*
G03X152600Y910590I-12500J0D01*
G01X139900Y1260040D02*
Y1208840D01*
G01X164900D02*
Y1260040D01*
G01X152400Y1196340D02*
G03X164900Y1208840I0J12500D01*
G01X139900D02*
G03X152400Y1196340I12500J0D01*
G01Y1272540D02*
G03X139900Y1260040I0J-12500D01*
G01X164900D02*
G03X152400Y1272540I-12500J0D01*
G01X139900Y1361640D02*
Y1310440D01*
G01X164900D02*
Y1361640D01*
G01X152400Y1297940D02*
G03X164900Y1310440I0J12500D01*
G01X139900D02*
G03X152400Y1297940I12500J0D01*
G01Y1374140D02*
G03X139900Y1361640I0J-12500D01*
G01X164900D02*
G03X152400Y1374140I-12500J0D01*
G01X164900Y1412040D02*
Y1463240D01*
G01X139900D02*
Y1412040D01*
G01D02*
G03X152400Y1399540I12500J0D01*
G01D02*
G03X164900Y1412040I0J12500D01*
G01Y1463240D02*
G03X152400Y1475740I-12500J0D01*
G01D02*
G03X139900Y1463240I0J-12500D01*
G01X164900Y1513640D02*
Y1564840D01*
G01X139900D02*
Y1513640D01*
G01D02*
G03X152400Y1501140I12500J0D01*
G01D02*
G03X164900Y1513640I0J12500D01*
G01Y1564840D02*
G03X152400Y1577340I-12500J0D01*
G01D02*
G03X139900Y1564840I0J-12500D01*
G01X164900Y1615240D02*
Y1666440D01*
G01X139900D02*
Y1615240D01*
G01D02*
G03X152400Y1602740I12500J0D01*
G01D02*
G03X164900Y1615240I0J12500D01*
G01Y1666440D02*
G03X152400Y1678940I-12500J0D01*
G01D02*
G03X139900Y1666440I0J-12500D01*
G01X164900Y1716840D02*
Y1768040D01*
G01X139900D02*
Y1716840D01*
G01D02*
G03X152400Y1704340I12500J0D01*
G01D02*
G03X164900Y1716840I0J12500D01*
G01Y1768040D02*
G03X152400Y1780540I-12500J0D01*
G01D02*
G03X139900Y1768040I0J-12500D01*
G01X164900Y1818440D02*
Y1869640D01*
G01X139900D02*
Y1818440D01*
G01D02*
G03X152400Y1805940I12500J0D01*
G01D02*
G03X164900Y1818440I0J12500D01*
G01Y1869640D02*
G03X152400Y1882140I-12500J0D01*
G01D02*
G03X139900Y1869640I0J-12500D01*
G01X164900Y1920040D02*
Y1971240D01*
G01X139900D02*
Y1920040D01*
G01D02*
G03X152400Y1907540I12500J0D01*
G01D02*
G03X164900Y1920040I0J12500D01*
G01Y1971240D02*
G03X152400Y1983740I-12500J0D01*
G01D02*
G03X139900Y1971240I0J-12500D01*
M02*
