G04 ================== begin FILE IDENTIFICATION RECORD ==================*
G04 Layout Name:  D:/Project/Circuit/KPRD/03v3/pcb/KPRD_03v3.brd*
G04 Film Name:    BOTTOM*
G04 File Format:  Gerber RS274X*
G04 File Origin:  Cadence Allegro 16.6-2015-S073*
G04 Origin Date:  Tue Aug 15 14:33:12 2017*
G04 *
G04 Layer:  ETCH/BOTTOM*
G04 Layer:  PIN/BOTTOM*
G04 Layer:  VIA CLASS/BOTTOM*
G04 *
G04 Offset:    (0.000 0.000)*
G04 Mirror:    No*
G04 Mode:      Positive*
G04 Rotation:  0*
G04 FullContactRelief:  No*
G04 UndefLineWidth:     0.250*
G04 ================== end FILE IDENTIFICATION RECORD ====================*
%FSLAX34Y34*MOMM*%
%IR0*IPPOS*OFA0.00000B0.00000*MIA0B0*SFA1.00000B1.00000*%
%ADD22R,1.X.6*%
%ADD11C,1.*%
%ADD10C,4.*%
%ADD15R,1.4X.9*%
%ADD17C,1.5*%
%ADD28C,2.5*%
%ADD21R,.55X1.05*%
%ADD19O,1.8X.64*%
%ADD13C,1.7*%
%ADD26C,7.2*%
%ADD23R,1.8X.64*%
%ADD27R,2.5X2.5*%
%ADD12R,1.7X1.7*%
%ADD18R,2.7X1.2*%
%ADD24R,1.2X2.7*%
%ADD16R,1.45X1.2*%
%ADD25R,1.8X1.4*%
%ADD20R,1.2X1.45*%
%ADD29R,1.5X3.6*%
%ADD14C,.8*%
%ADD30C,.4*%
%ADD31C,.25*%
G75*
%LPD*%
G75*
G36*
G01X-65220Y-1030D02*
X-59300Y-7030D01*
X-50300Y0D01*
X-59300Y7030D01*
X-65220Y1030D01*
G03Y-1030I1720J-1030D01*
G37*
G36*
G01X-49770Y-14420D02*
X-43770Y-8500D01*
X-50800Y500D01*
X-57830Y-8500D01*
X-51830Y-14420D01*
G03X-49770I1030J1720D01*
G37*
G36*
G01X-43550Y33900D02*
X-50800D01*
X-51020Y25180D01*
X-42300Y25400D01*
Y32650D01*
G03X-43550Y33900I-1250J0D01*
G37*
G36*
G01Y84700D02*
X-50800D01*
X-51020Y75980D01*
X-42300Y76200D01*
Y83450D01*
G03X-43550Y84700I-1250J0D01*
G37*
G36*
G01Y110100D02*
X-50800D01*
X-51020Y101380D01*
X-42300Y101600D01*
Y108850D01*
G03X-43550Y110100I-1250J0D01*
G37*
G36*
G01Y59300D02*
X-50800D01*
X-51020Y50580D01*
X-42300Y50800D01*
Y58050D01*
G03X-43550Y59300I-1250J0D01*
G37*
G36*
G01Y160900D02*
X-50800D01*
X-51020Y152180D01*
X-42300Y152400D01*
Y159650D01*
G03X-43550Y160900I-1250J0D01*
G37*
G36*
G01Y135500D02*
X-50800D01*
X-51020Y126780D01*
X-42300Y127000D01*
Y134250D01*
G03X-43550Y135500I-1250J0D01*
G37*
G36*
G01X-49520Y1050590D02*
X-50920Y1049160D01*
X-48100Y1045850D01*
X-45280Y1049160D01*
X-46680Y1050590D01*
G03X-49520I-1420J-1410D01*
G37*
G36*
G01X-46580Y1087160D02*
X-45180Y1088590D01*
X-48000Y1091900D01*
X-50820Y1088590D01*
X-49420Y1087160D01*
G03X-46580I1420J1410D01*
G37*
G36*
G01X1030Y-14420D02*
X7030Y-8500D01*
X0Y500D01*
X-7030Y-8500D01*
X-1030Y-14420D01*
G03X1030I1030J1720D01*
G37*
G36*
G01X11130Y51680D02*
X6010Y56800D01*
X-310Y50800D01*
X6010Y44800D01*
X11130Y49920D01*
G03Y51680I-880J880D01*
G37*
G36*
G01Y26280D02*
X6010Y31400D01*
X-310Y25400D01*
X6010Y19400D01*
X11130Y24520D01*
G03Y26280I-880J880D01*
G37*
G36*
G01Y77080D02*
X6010Y82200D01*
X-310Y76200D01*
X6010Y70200D01*
X11130Y75320D01*
G03Y77080I-880J880D01*
G37*
G36*
G01Y102480D02*
X6010Y107600D01*
X-310Y101600D01*
X6010Y95600D01*
X11130Y100720D01*
G03Y102480I-880J880D01*
G37*
G36*
G01Y153280D02*
X6010Y158400D01*
X-310Y152400D01*
X6010Y146400D01*
X11130Y151520D01*
G03Y153280I-880J880D01*
G37*
G36*
G01Y127880D02*
X6010Y133000D01*
X-310Y127000D01*
X6010Y121000D01*
X11130Y126120D01*
G03Y127880I-880J880D01*
G37*
G36*
G01X-20470Y872340D02*
X-21870Y870910D01*
X-19050Y867600D01*
X-16230Y870910D01*
X-17630Y872340D01*
G03X-20470I-1420J-1410D01*
G37*
G36*
G01X-7770D02*
X-9170Y870910D01*
X-6350Y867600D01*
X-3530Y870910D01*
X-4930Y872340D01*
G03X-7770I-1420J-1410D01*
G37*
G36*
G01X-17630Y918360D02*
X-16230Y919790D01*
X-19050Y923100D01*
X-21870Y919790D01*
X-20470Y918360D01*
G03X-17630I1420J1410D01*
G37*
G36*
G01X-4930D02*
X-3530Y919790D01*
X-6350Y923100D01*
X-9170Y919790D01*
X-7770Y918360D01*
G03X-4930I1420J1410D01*
G37*
G36*
G01X-20470Y986290D02*
X-21870Y984860D01*
X-19050Y981550D01*
X-16230Y984860D01*
X-17630Y986290D01*
G03X-20470I-1420J-1410D01*
G37*
G36*
G01X-34100Y1096550D02*
Y1098550D01*
X-38450Y1098900D01*
X-38100Y1094550D01*
X-36100D01*
G03X-34100Y1096550I0J2000D01*
G37*
G36*
G01X47630Y722940D02*
G02X44550Y721540I-3327J3233D01*
G01X44260Y717300D01*
X48300Y718610D01*
G02X48920Y721940I4643J858D01*
G03X47630Y722940I-1227J-251D01*
G37*
G36*
G01X41700Y741730D02*
G02X38610Y740560I-3049J3388D01*
G01X37890Y736370D01*
X42000Y737450D01*
G02X42900Y740620I4519J430D01*
G03X41700Y741730I-1242J-139D01*
G37*
G36*
G01X35330Y760790D02*
G02X32250Y759610I-3073J3412D01*
G01X31540Y755420D01*
X35650Y756510D01*
G02X36540Y759690I4618J422D01*
G03X35330Y760790I-1241J-149D01*
G37*
G36*
G01X29000Y779830D02*
G02X25910Y778660I-3049J3388D01*
G01X25190Y774470D01*
X29300Y775550D01*
G02X30200Y778720I4519J430D01*
G03X29000Y779830I-1242J-139D01*
G37*
G36*
G01X119730Y130430D02*
X118330Y129000D01*
X121150Y125690D01*
X123970Y129000D01*
X122570Y130430D01*
G03X119730I-1420J-1410D01*
G37*
G36*
G01Y232030D02*
X118330Y230600D01*
X121150Y227290D01*
X123970Y230600D01*
X122570Y232030D01*
G03X119730I-1420J-1410D01*
G37*
G36*
G01Y333630D02*
X118330Y332200D01*
X121150Y328890D01*
X123970Y332200D01*
X122570Y333630D01*
G03X119730I-1420J-1410D01*
G37*
G36*
G01Y435230D02*
X118330Y433800D01*
X121150Y430490D01*
X123970Y433800D01*
X122570Y435230D01*
G03X119730I-1420J-1410D01*
G37*
G36*
G01Y536830D02*
X118330Y535400D01*
X121150Y532090D01*
X123970Y535400D01*
X122570Y536830D01*
G03X119730I-1420J-1410D01*
G37*
G36*
G01Y638430D02*
X118330Y637000D01*
X121150Y633690D01*
X123970Y637000D01*
X122570Y638430D01*
G03X119730I-1420J-1410D01*
G37*
G36*
G01Y740030D02*
X118330Y738600D01*
X121150Y735290D01*
X123970Y738600D01*
X122570Y740030D01*
G03X119730I-1420J-1410D01*
G37*
G36*
G01Y841630D02*
X118330Y840200D01*
X121150Y836890D01*
X123970Y840200D01*
X122570Y841630D01*
G03X119730I-1420J-1410D01*
G37*
G36*
G01Y1203580D02*
X118330Y1202150D01*
X121150Y1198840D01*
X123970Y1202150D01*
X122570Y1203580D01*
G03X119730I-1420J-1410D01*
G37*
G36*
G01Y1305180D02*
X118330Y1303750D01*
X121150Y1300440D01*
X123970Y1303750D01*
X122570Y1305180D01*
G03X119730I-1420J-1410D01*
G37*
G36*
G01Y1406780D02*
X118330Y1405350D01*
X121150Y1402040D01*
X123970Y1405350D01*
X122570Y1406780D01*
G03X119730I-1420J-1410D01*
G37*
G36*
G01Y1508380D02*
X118330Y1506950D01*
X121150Y1503640D01*
X123970Y1506950D01*
X122570Y1508380D01*
G03X119730I-1420J-1410D01*
G37*
G36*
G01Y1609980D02*
X118330Y1608550D01*
X121150Y1605240D01*
X123970Y1608550D01*
X122570Y1609980D01*
G03X119730I-1420J-1410D01*
G37*
G36*
G01Y1711580D02*
X118330Y1710150D01*
X121150Y1706840D01*
X123970Y1710150D01*
X122570Y1711580D01*
G03X119730I-1420J-1410D01*
G37*
G36*
G01Y1813180D02*
X118330Y1811750D01*
X121150Y1808440D01*
X123970Y1811750D01*
X122570Y1813180D01*
G03X119730I-1420J-1410D01*
G37*
G36*
G01Y1914780D02*
X118330Y1913350D01*
X121150Y1910040D01*
X123970Y1913350D01*
X122570Y1914780D01*
G03X119730I-1420J-1410D01*
G37*
G36*
G01X245120Y130790D02*
Y157010D01*
G03X243870Y158260I-1250J0D01*
G01X229330D01*
G03X228080Y157010I0J-1250D01*
G01Y150620D01*
G02X227530Y149590I-1249J5D01*
G01X225560Y148250D01*
X224950Y148180D01*
X224660Y148300D01*
G03X223300Y148680I-2425J-6055D01*
G01X222840Y148750D01*
X222250Y149450D01*
Y161190D01*
G02X222530Y161970I1249J-8D01*
G03X223290Y163010I-10580J8529D01*
G02X224630Y163530I1040J-694D01*
G03X228050Y163120I3414J14010D01*
G01X232130D01*
G02X232960Y162800I-5J-1250D01*
G03Y172480I4370J4840D01*
G02X232130Y172160I-835J930D01*
G01X228050D01*
G02X226450Y172400I-11J5381D01*
G02X225570Y173600I371J1195D01*
G01Y179920D01*
G02X226820Y181170I1250J0D01*
G01X226830D01*
G02X228080Y179920I0J-1250D01*
G01Y178270D01*
G03X229330Y177020I1250J0D01*
G01X243870D01*
G03X245120Y178270I0J1250D01*
G01Y204490D01*
G02X246370Y205740I1250J0D01*
G01X260350D01*
G02X266700Y199390I0J-6350D01*
G01Y135890D01*
G02X260350Y129540I-6350J0D01*
G01X246370D01*
G02X245120Y130790I0J1250D01*
G37*
G36*
G01X233090Y166220D02*
X234520Y164820D01*
X237830Y167640D01*
X234520Y170460D01*
X233090Y169060D01*
G03Y166220I1410J-1420D01*
G37*
G36*
G01X245120Y232390D02*
Y258610D01*
G03X243870Y259860I-1250J0D01*
G01X229330D01*
G03X228080Y258610I0J-1250D01*
G01Y252220D01*
G02X227530Y251190I-1249J5D01*
G01X225560Y249850D01*
X224950Y249780D01*
X224660Y249900D01*
G03X223300Y250280I-2425J-6055D01*
G01X222840Y250350D01*
X222250Y251050D01*
Y262790D01*
G02X222530Y263570I1249J-8D01*
G03X223290Y264610I-10580J8529D01*
G02X224630Y265130I1040J-694D01*
G03X228050Y264720I3414J14010D01*
G01X232130D01*
G02X232960Y264400I-5J-1250D01*
G03Y274080I4370J4840D01*
G02X232130Y273760I-835J930D01*
G01X228050D01*
G02X226450Y274000I-11J5381D01*
G02X225570Y275200I371J1195D01*
G01Y281520D01*
G02X226820Y282770I1250J0D01*
G01X226830D01*
G02X228080Y281520I0J-1250D01*
G01Y279870D01*
G03X229330Y278620I1250J0D01*
G01X243870D01*
G03X245120Y279870I0J1250D01*
G01Y306090D01*
G02X246370Y307340I1250J0D01*
G01X260350D01*
G02X266700Y300990I0J-6350D01*
G01Y237490D01*
G02X260350Y231140I-6350J0D01*
G01X246370D01*
G02X245120Y232390I0J1250D01*
G37*
G36*
G01X233090Y267820D02*
X234520Y266420D01*
X237830Y269240D01*
X234520Y272060D01*
X233090Y270660D01*
G03Y267820I1410J-1420D01*
G37*
G36*
G01X245120Y333990D02*
Y360210D01*
G03X243870Y361460I-1250J0D01*
G01X229330D01*
G03X228080Y360210I0J-1250D01*
G01Y353820D01*
G02X227530Y352790I-1249J5D01*
G01X225560Y351450D01*
X224950Y351380D01*
X224660Y351500D01*
G03X223300Y351880I-2425J-6056D01*
G01X222840Y351950D01*
X222250Y352650D01*
Y364390D01*
G02X222530Y365170I1249J-8D01*
G03X223290Y366210I-10580J8529D01*
G02X224630Y366730I1040J-694D01*
G03X228050Y366320I3414J14010D01*
G01X232130D01*
G02X232960Y366000I-5J-1250D01*
G03Y375680I4370J4840D01*
G02X232130Y375360I-835J930D01*
G01X228050D01*
G02X226450Y375600I-11J5381D01*
G02X225570Y376800I371J1195D01*
G01Y383120D01*
G02X226820Y384370I1250J0D01*
G01X226830D01*
G02X228080Y383120I0J-1250D01*
G01Y381470D01*
G03X229330Y380220I1250J0D01*
G01X243870D01*
G03X245120Y381470I0J1250D01*
G01Y407690D01*
G02X246370Y408940I1250J0D01*
G01X260350D01*
G02X266700Y402590I0J-6350D01*
G01Y339090D01*
G02X260350Y332740I-6350J0D01*
G01X246370D01*
G02X245120Y333990I0J1250D01*
G37*
G36*
G01X233090Y369420D02*
X234520Y368020D01*
X237830Y370840D01*
X234520Y373660D01*
X233090Y372260D01*
G03Y369420I1410J-1420D01*
G37*
G36*
G01X245120Y435590D02*
Y461810D01*
G03X243870Y463060I-1250J0D01*
G01X229330D01*
G03X228080Y461810I0J-1250D01*
G01Y455420D01*
G02X227530Y454390I-1249J5D01*
G01X225560Y453050D01*
X224950Y452980D01*
X224660Y453100D01*
G03X223300Y453480I-2425J-6056D01*
G01X222840Y453550D01*
X222250Y454250D01*
Y465990D01*
G02X222530Y466770I1249J-8D01*
G03X223290Y467810I-10580J8529D01*
G02X224630Y468330I1040J-694D01*
G03X228050Y467920I3414J14010D01*
G01X232130D01*
G02X232960Y467600I-5J-1250D01*
G03Y477280I4370J4840D01*
G02X232130Y476960I-835J930D01*
G01X228050D01*
G02X226450Y477200I-11J5381D01*
G02X225570Y478400I371J1195D01*
G01Y484720D01*
G02X226820Y485970I1250J0D01*
G01X226830D01*
G02X228080Y484720I0J-1250D01*
G01Y483070D01*
G03X229330Y481820I1250J0D01*
G01X243870D01*
G03X245120Y483070I0J1250D01*
G01Y509290D01*
G02X246370Y510540I1250J0D01*
G01X260350D01*
G02X266700Y504190I0J-6350D01*
G01Y440690D01*
G02X260350Y434340I-6350J0D01*
G01X246370D01*
G02X245120Y435590I0J1250D01*
G37*
G36*
G01X233090Y471020D02*
X234520Y469620D01*
X237830Y472440D01*
X234520Y475260D01*
X233090Y473860D01*
G03Y471020I1410J-1420D01*
G37*
G36*
G01X245120Y537190D02*
Y563410D01*
G03X243870Y564660I-1250J0D01*
G01X229330D01*
G03X228080Y563410I0J-1250D01*
G01Y557020D01*
G02X227530Y555990I-1249J5D01*
G01X225560Y554650D01*
X224950Y554580D01*
X224660Y554700D01*
G03X223300Y555080I-2425J-6056D01*
G01X222840Y555150D01*
X222250Y555850D01*
Y567590D01*
G02X222530Y568370I1249J-8D01*
G03X223290Y569410I-10580J8529D01*
G02X224630Y569930I1040J-694D01*
G03X228050Y569520I3414J14010D01*
G01X232130D01*
G02X232960Y569200I-5J-1250D01*
G03Y578880I4370J4840D01*
G02X232130Y578560I-835J930D01*
G01X228050D01*
G02X226450Y578800I-11J5381D01*
G02X225570Y580000I371J1195D01*
G01Y586320D01*
G02X226820Y587570I1250J0D01*
G01X226830D01*
G02X228080Y586320I0J-1250D01*
G01Y584670D01*
G03X229330Y583420I1250J0D01*
G01X243870D01*
G03X245120Y584670I0J1250D01*
G01Y610890D01*
G02X246370Y612140I1250J0D01*
G01X260350D01*
G02X266700Y605790I0J-6350D01*
G01Y542290D01*
G02X260350Y535940I-6350J0D01*
G01X246370D01*
G02X245120Y537190I0J1250D01*
G37*
G36*
G01X233090Y572620D02*
X234520Y571220D01*
X237830Y574040D01*
X234520Y576860D01*
X233090Y575460D01*
G03Y572620I1410J-1420D01*
G37*
G36*
G01X245120Y638790D02*
Y665010D01*
G03X243870Y666260I-1250J0D01*
G01X229330D01*
G03X228080Y665010I0J-1250D01*
G01Y658620D01*
G02X227530Y657590I-1249J5D01*
G01X225560Y656250D01*
X224950Y656180D01*
X224660Y656300D01*
G03X223300Y656680I-2425J-6056D01*
G01X222840Y656750D01*
X222250Y657450D01*
Y669190D01*
G02X222530Y669970I1249J-8D01*
G03X223290Y671010I-10580J8529D01*
G02X224630Y671530I1040J-694D01*
G03X228050Y671120I3414J14010D01*
G01X232130D01*
G02X232960Y670800I-5J-1250D01*
G03Y680480I4370J4840D01*
G02X232130Y680160I-835J930D01*
G01X228050D01*
G02X226450Y680400I-11J5381D01*
G02X225570Y681600I371J1195D01*
G01Y687920D01*
G02X226820Y689170I1250J0D01*
G01X226830D01*
G02X228080Y687920I0J-1250D01*
G01Y686270D01*
G03X229330Y685020I1250J0D01*
G01X243870D01*
G03X245120Y686270I0J1250D01*
G01Y712490D01*
G02X246370Y713740I1250J0D01*
G01X260350D01*
G02X266700Y707390I0J-6350D01*
G01Y643890D01*
G02X260350Y637540I-6350J0D01*
G01X246370D01*
G02X245120Y638790I0J1250D01*
G37*
G36*
G01X233090Y674220D02*
X234520Y672820D01*
X237830Y675640D01*
X234520Y678460D01*
X233090Y677060D01*
G03Y674220I1410J-1420D01*
G37*
G36*
G01X243870Y767860D02*
X229330D01*
G03X228080Y766610I0J-1250D01*
G01Y760220D01*
G02X227530Y759190I-1249J5D01*
G01X225560Y757850D01*
X224950Y757780D01*
X224660Y757900D01*
G03X223300Y758280I-2425J-6055D01*
G01X222840Y758350D01*
X222250Y759050D01*
Y770790D01*
G02X222530Y771570I1249J-8D01*
G03X223290Y772610I-10580J8529D01*
G02X224630Y773130I1040J-694D01*
G03X228050Y772720I3414J14010D01*
G01X232130D01*
G02X232960Y772400I-5J-1250D01*
G03Y782080I4370J4840D01*
G02X232130Y781760I-835J930D01*
G01X228050D01*
G02X226450Y782000I-11J5381D01*
G02X225570Y783200I371J1195D01*
G01Y789520D01*
G02X226820Y790770I1250J0D01*
G01X226830D01*
G02X228080Y789520I0J-1250D01*
G01Y787870D01*
G03X229330Y786620I1250J0D01*
G01X243870D01*
G03X245120Y787870I0J1250D01*
G01Y814090D01*
G02X246370Y815340I1250J0D01*
G01X260350D01*
G02X266700Y808990I0J-6350D01*
G01Y745490D01*
G02X260350Y739140I-6350J0D01*
G01X246370D01*
G02X245120Y740390I0J1250D01*
G01Y766610D01*
G03X243870Y767860I-1250J0D01*
G37*
G36*
G01X233090Y775820D02*
X234520Y774420D01*
X237830Y777240D01*
X234520Y780060D01*
X233090Y778660D01*
G03Y775820I1410J-1420D01*
G37*
G36*
G01X243870Y869460D02*
X229330D01*
G03X228080Y868210I0J-1250D01*
G01Y861820D01*
G02X227530Y860790I-1249J5D01*
G01X225560Y859450D01*
X224950Y859380D01*
X224660Y859500D01*
G03X223300Y859880I-2425J-6055D01*
G01X222840Y859950D01*
X222250Y860650D01*
Y872390D01*
G02X222530Y873170I1249J-8D01*
G03X223290Y874210I-10580J8529D01*
G02X224630Y874730I1040J-694D01*
G03X228050Y874320I3414J14010D01*
G01X232130D01*
G02X232960Y874000I-5J-1250D01*
G03Y883680I4370J4840D01*
G02X232130Y883360I-835J930D01*
G01X228050D01*
G02X226450Y883600I-11J5381D01*
G02X225570Y884800I371J1195D01*
G01Y891120D01*
G02X226820Y892370I1250J0D01*
G01X226830D01*
G02X228080Y891120I0J-1250D01*
G01Y889470D01*
G03X229330Y888220I1250J0D01*
G01X243870D01*
G03X245120Y889470I0J1250D01*
G01Y915690D01*
G02X246370Y916940I1250J0D01*
G01X260350D01*
G02X266700Y910590I0J-6350D01*
G01Y847090D01*
G02X260350Y840740I-6350J0D01*
G01X246370D01*
G02X245120Y841990I0J1250D01*
G01Y868210D01*
G03X243870Y869460I-1250J0D01*
G37*
G36*
G01X233090Y877420D02*
X234520Y876020D01*
X237830Y878840D01*
X234520Y881660D01*
X233090Y880260D01*
G03Y877420I1410J-1420D01*
G37*
G36*
G01X243870Y1231410D02*
X229330D01*
G03X228080Y1230160I0J-1250D01*
G01Y1223770D01*
G02X227530Y1222740I-1249J5D01*
G01X225560Y1221400D01*
X224950Y1221330D01*
X224660Y1221450D01*
G03X223300Y1221830I-2425J-6055D01*
G01X222840Y1221900D01*
X222250Y1222600D01*
Y1234340D01*
G02X222530Y1235120I1249J-8D01*
G03X223290Y1236160I-10580J8529D01*
G02X224630Y1236680I1040J-694D01*
G03X228050Y1236270I3414J14010D01*
G01X232130D01*
G02X232960Y1235950I-5J-1250D01*
G03Y1245630I4370J4840D01*
G02X232130Y1245310I-835J930D01*
G01X228050D01*
G02X226450Y1245550I-11J5381D01*
G02X225570Y1246750I371J1195D01*
G01Y1253070D01*
G02X226820Y1254320I1250J0D01*
G01X226830D01*
G02X228080Y1253070I0J-1250D01*
G01Y1251420D01*
G03X229330Y1250170I1250J0D01*
G01X243870D01*
G03X245120Y1251420I0J1250D01*
G01Y1277640D01*
G02X246370Y1278890I1250J0D01*
G01X260350D01*
G02X266700Y1272540I0J-6350D01*
G01Y1209040D01*
G02X260350Y1202690I-6350J0D01*
G01X246370D01*
G02X245120Y1203940I0J1250D01*
G01Y1230160D01*
G03X243870Y1231410I-1250J0D01*
G37*
G36*
G01X233090Y1239370D02*
X234520Y1237970D01*
X237830Y1240790D01*
X234520Y1243610D01*
X233090Y1242210D01*
G03Y1239370I1410J-1420D01*
G37*
G36*
G01X243870Y1333010D02*
X229330D01*
G03X228080Y1331760I0J-1250D01*
G01Y1325370D01*
G02X227530Y1324340I-1249J5D01*
G01X225560Y1323000D01*
X224950Y1322930D01*
X224660Y1323050D01*
G03X223300Y1323430I-2425J-6055D01*
G01X222840Y1323500D01*
X222250Y1324200D01*
Y1335940D01*
G02X222530Y1336720I1249J-8D01*
G03X223290Y1337760I-10580J8529D01*
G02X224630Y1338280I1040J-694D01*
G03X228050Y1337870I3414J14010D01*
G01X232130D01*
G02X232960Y1337550I-5J-1250D01*
G03Y1347230I4370J4840D01*
G02X232130Y1346910I-835J930D01*
G01X228050D01*
G02X226450Y1347150I-11J5381D01*
G02X225570Y1348350I371J1195D01*
G01Y1354670D01*
G02X226820Y1355920I1250J0D01*
G01X226830D01*
G02X228080Y1354670I0J-1250D01*
G01Y1353020D01*
G03X229330Y1351770I1250J0D01*
G01X243870D01*
G03X245120Y1353020I0J1250D01*
G01Y1379240D01*
G02X246370Y1380490I1250J0D01*
G01X260350D01*
G02X266700Y1374140I0J-6350D01*
G01Y1310640D01*
G02X260350Y1304290I-6350J0D01*
G01X246370D01*
G02X245120Y1305540I0J1250D01*
G01Y1331760D01*
G03X243870Y1333010I-1250J0D01*
G37*
G36*
G01X233090Y1340970D02*
X234520Y1339570D01*
X237830Y1342390D01*
X234520Y1345210D01*
X233090Y1343810D01*
G03Y1340970I1410J-1420D01*
G37*
G36*
G01X243870Y1434610D02*
X229330D01*
G03X228080Y1433360I0J-1250D01*
G01Y1426970D01*
G02X227530Y1425940I-1249J5D01*
G01X225560Y1424600D01*
X224950Y1424530D01*
X224660Y1424650D01*
G03X223300Y1425030I-2425J-6055D01*
G01X222840Y1425100D01*
X222250Y1425800D01*
Y1437540D01*
G02X222530Y1438320I1249J-8D01*
G03X223290Y1439360I-10580J8529D01*
G02X224630Y1439880I1040J-694D01*
G03X228050Y1439470I3414J14010D01*
G01X232130D01*
G02X232960Y1439150I-5J-1250D01*
G03Y1448830I4370J4840D01*
G02X232130Y1448510I-835J930D01*
G01X228050D01*
G02X226450Y1448750I-11J5381D01*
G02X225570Y1449950I371J1195D01*
G01Y1456270D01*
G02X226820Y1457520I1250J0D01*
G01X226830D01*
G02X228080Y1456270I0J-1250D01*
G01Y1454620D01*
G03X229330Y1453370I1250J0D01*
G01X243870D01*
G03X245120Y1454620I0J1250D01*
G01Y1480840D01*
G02X246370Y1482090I1250J0D01*
G01X260350D01*
G02X266700Y1475740I0J-6350D01*
G01Y1412240D01*
G02X260350Y1405890I-6350J0D01*
G01X246370D01*
G02X245120Y1407140I0J1250D01*
G01Y1433360D01*
G03X243870Y1434610I-1250J0D01*
G37*
G36*
G01X233090Y1442570D02*
X234520Y1441170D01*
X237830Y1443990D01*
X234520Y1446810D01*
X233090Y1445410D01*
G03Y1442570I1410J-1420D01*
G37*
G36*
G01X243870Y1536210D02*
X229330D01*
G03X228080Y1534960I0J-1250D01*
G01Y1528570D01*
G02X227530Y1527540I-1249J5D01*
G01X225560Y1526200D01*
X224950Y1526130D01*
X224660Y1526250D01*
G03X223300Y1526630I-2425J-6055D01*
G01X222840Y1526700D01*
X222250Y1527400D01*
Y1539140D01*
G02X222530Y1539920I1249J-8D01*
G03X223290Y1540960I-10580J8529D01*
G02X224630Y1541480I1040J-694D01*
G03X228050Y1541070I3414J14010D01*
G01X232130D01*
G02X232960Y1540750I-5J-1250D01*
G03Y1550430I4370J4840D01*
G02X232130Y1550110I-835J930D01*
G01X228050D01*
G02X226450Y1550350I-11J5381D01*
G02X225570Y1551550I371J1195D01*
G01Y1557870D01*
G02X226820Y1559120I1250J0D01*
G01X226830D01*
G02X228080Y1557870I0J-1250D01*
G01Y1556220D01*
G03X229330Y1554970I1250J0D01*
G01X243870D01*
G03X245120Y1556220I0J1250D01*
G01Y1582440D01*
G02X246370Y1583690I1250J0D01*
G01X260350D01*
G02X266700Y1577340I0J-6350D01*
G01Y1513840D01*
G02X260350Y1507490I-6350J0D01*
G01X246370D01*
G02X245120Y1508740I0J1250D01*
G01Y1534960D01*
G03X243870Y1536210I-1250J0D01*
G37*
G36*
G01X233090Y1544170D02*
X234520Y1542770D01*
X237830Y1545590D01*
X234520Y1548410D01*
X233090Y1547010D01*
G03Y1544170I1410J-1420D01*
G37*
G36*
G01X243870Y1637810D02*
X229330D01*
G03X228080Y1636560I0J-1250D01*
G01Y1630170D01*
G02X227530Y1629140I-1249J5D01*
G01X225560Y1627800D01*
X224950Y1627730D01*
X224660Y1627850D01*
G03X223300Y1628230I-2425J-6055D01*
G01X222840Y1628300D01*
X222250Y1629000D01*
Y1640740D01*
G02X222530Y1641520I1249J-8D01*
G03X223290Y1642560I-10580J8529D01*
G02X224630Y1643080I1040J-694D01*
G03X228050Y1642670I3414J14010D01*
G01X232130D01*
G02X232960Y1642350I-5J-1250D01*
G03Y1652030I4370J4840D01*
G02X232130Y1651710I-835J930D01*
G01X228050D01*
G02X226450Y1651950I-11J5381D01*
G02X225570Y1653150I371J1195D01*
G01Y1659470D01*
G02X226820Y1660720I1250J0D01*
G01X226830D01*
G02X228080Y1659470I0J-1250D01*
G01Y1657820D01*
G03X229330Y1656570I1250J0D01*
G01X243870D01*
G03X245120Y1657820I0J1250D01*
G01Y1684040D01*
G02X246370Y1685290I1250J0D01*
G01X260350D01*
G02X266700Y1678940I0J-6350D01*
G01Y1615440D01*
G02X260350Y1609090I-6350J0D01*
G01X246370D01*
G02X245120Y1610340I0J1250D01*
G01Y1636560D01*
G03X243870Y1637810I-1250J0D01*
G37*
G36*
G01X233090Y1645770D02*
X234520Y1644370D01*
X237830Y1647190D01*
X234520Y1650010D01*
X233090Y1648610D01*
G03Y1645770I1410J-1420D01*
G37*
G36*
G01X243870Y1739410D02*
X229330D01*
G03X228080Y1738160I0J-1250D01*
G01Y1731770D01*
G02X227530Y1730740I-1249J5D01*
G01X225560Y1729400D01*
X224950Y1729330D01*
X224660Y1729450D01*
G03X223300Y1729830I-2425J-6055D01*
G01X222840Y1729900D01*
X222250Y1730600D01*
Y1742340D01*
G02X222530Y1743120I1249J-8D01*
G03X223290Y1744160I-10580J8529D01*
G02X224630Y1744680I1040J-694D01*
G03X228050Y1744270I3414J14010D01*
G01X232130D01*
G02X232960Y1743950I-5J-1250D01*
G03Y1753630I4370J4840D01*
G02X232130Y1753310I-835J930D01*
G01X228050D01*
G02X226450Y1753550I-11J5381D01*
G02X225570Y1754750I371J1195D01*
G01Y1761070D01*
G02X226820Y1762320I1250J0D01*
G01X226830D01*
G02X228080Y1761070I0J-1250D01*
G01Y1759420D01*
G03X229330Y1758170I1250J0D01*
G01X243870D01*
G03X245120Y1759420I0J1250D01*
G01Y1785640D01*
G02X246370Y1786890I1250J0D01*
G01X260350D01*
G02X266700Y1780540I0J-6350D01*
G01Y1717040D01*
G02X260350Y1710690I-6350J0D01*
G01X246370D01*
G02X245120Y1711940I0J1250D01*
G01Y1738160D01*
G03X243870Y1739410I-1250J0D01*
G37*
G36*
G01X233090Y1747370D02*
X234520Y1745970D01*
X237830Y1748790D01*
X234520Y1751610D01*
X233090Y1750210D01*
G03Y1747370I1410J-1420D01*
G37*
G36*
G01X243870Y1841010D02*
X229330D01*
G03X228080Y1839760I0J-1250D01*
G01Y1833370D01*
G02X227530Y1832340I-1249J5D01*
G01X225560Y1831000D01*
X224950Y1830930D01*
X224660Y1831050D01*
G03X223300Y1831430I-2425J-6055D01*
G01X222840Y1831500D01*
X222250Y1832200D01*
Y1843940D01*
G02X222530Y1844720I1249J-8D01*
G03X223290Y1845760I-10580J8529D01*
G02X224630Y1846280I1040J-694D01*
G03X228050Y1845870I3414J14010D01*
G01X232130D01*
G02X232960Y1845550I-5J-1250D01*
G03Y1855230I4370J4840D01*
G02X232130Y1854910I-835J930D01*
G01X228050D01*
G02X226450Y1855150I-11J5381D01*
G02X225570Y1856350I371J1195D01*
G01Y1862670D01*
G02X226820Y1863920I1250J0D01*
G01X226830D01*
G02X228080Y1862670I0J-1250D01*
G01Y1861020D01*
G03X229330Y1859770I1250J0D01*
G01X243870D01*
G03X245120Y1861020I0J1250D01*
G01Y1887240D01*
G02X246370Y1888490I1250J0D01*
G01X260350D01*
G02X266700Y1882140I0J-6350D01*
G01Y1818640D01*
G02X260350Y1812290I-6350J0D01*
G01X246370D01*
G02X245120Y1813540I0J1250D01*
G01Y1839760D01*
G03X243870Y1841010I-1250J0D01*
G37*
G36*
G01X233090Y1848970D02*
X234520Y1847570D01*
X237830Y1850390D01*
X234520Y1853210D01*
X233090Y1851810D01*
G03Y1848970I1410J-1420D01*
G37*
G36*
G01X243870Y1942610D02*
X229330D01*
G03X228080Y1941360I0J-1250D01*
G01Y1934970D01*
G02X227530Y1933940I-1249J5D01*
G01X225560Y1932600D01*
X224950Y1932530D01*
X224660Y1932650D01*
G03X223300Y1933030I-2425J-6055D01*
G01X222840Y1933100D01*
X222250Y1933800D01*
Y1945540D01*
G02X222530Y1946320I1249J-8D01*
G03X223290Y1947360I-10580J8529D01*
G02X224630Y1947880I1040J-694D01*
G03X228050Y1947470I3414J14010D01*
G01X232130D01*
G02X232960Y1947150I-5J-1250D01*
G03Y1956830I4370J4840D01*
G02X232130Y1956510I-835J930D01*
G01X228050D01*
G02X226450Y1956750I-11J5381D01*
G02X225570Y1957950I371J1195D01*
G01Y1964270D01*
G02X226820Y1965520I1250J0D01*
G01X226830D01*
G02X228080Y1964270I0J-1250D01*
G01Y1962620D01*
G03X229330Y1961370I1250J0D01*
G01X243870D01*
G03X245120Y1962620I0J1250D01*
G01Y1988840D01*
G02X246370Y1990090I1250J0D01*
G01X260350D01*
G02X266700Y1983740I0J-6350D01*
G01Y1920240D01*
G02X260350Y1913890I-6350J0D01*
G01X246370D01*
G02X245120Y1915140I0J1250D01*
G01Y1941360D01*
G03X243870Y1942610I-1250J0D01*
G37*
G36*
G01X233090Y1950570D02*
X234520Y1949170D01*
X237830Y1951990D01*
X234520Y1954810D01*
X233090Y1953410D01*
G03Y1950570I1410J-1420D01*
G37*
G36*
G01X292620Y130790D02*
Y157010D01*
G03X291370Y158260I-1250J0D01*
G01X283490D01*
G02X282240Y159510I0J1250D01*
G01Y159880D01*
X282600Y160470D01*
X282930Y160630D01*
G02X285750Y161290I2820J-5695D01*
G01X298380D01*
G02X299630Y160040I0J-1250D01*
G01Y145520D01*
G03X300880Y144270I1250J0D01*
G01X321420D01*
G03X322670Y145520I0J1250D01*
G01Y160040D01*
G02X323920Y161290I1250J0D01*
G01X361950D01*
G02X368300Y154940I0J-6350D01*
G01Y135890D01*
G02X361950Y129540I-6350J0D01*
G01X347970D01*
G02X346720Y130790I0J1250D01*
G01Y157010D01*
G03X345470Y158260I-1250J0D01*
G01X330930D01*
G03X329680Y157010I0J-1250D01*
G01Y130790D01*
G02X328430Y129540I-1250J0D01*
G01X293870D01*
G02X292620Y130790I0J1250D01*
G37*
G36*
G01X285750Y173990D02*
G02X282930Y174650I0J6355D01*
G01X282600Y174810D01*
X282240Y175400D01*
Y175770D01*
G02X283490Y177020I1250J0D01*
G01X291370D01*
G03X292620Y178270I0J1250D01*
G01Y204490D01*
G02X293870Y205740I1250J0D01*
G01X328430D01*
G02X329680Y204490I0J-1250D01*
G01Y178270D01*
G03X330930Y177020I1250J0D01*
G01X345470D01*
G03X346720Y178270I0J1250D01*
G01Y204490D01*
G02X347970Y205740I1250J0D01*
G01X361950D01*
G02X368300Y199390I0J-6350D01*
G01Y180340D01*
G02X361950Y173990I-6350J0D01*
G01X323920D01*
G02X322670Y175240I0J1250D01*
G01Y189760D01*
G03X321420Y191010I-1250J0D01*
G01X300880D01*
G03X299630Y189760I0J-1250D01*
G01Y175240D01*
G02X298380Y173990I-1250J0D01*
G01X285750D01*
G37*
G36*
G01X292620Y232390D02*
Y258610D01*
G03X291370Y259860I-1250J0D01*
G01X283490D01*
G02X282240Y261110I0J1250D01*
G01Y261480D01*
X282600Y262070D01*
X282930Y262230D01*
G02X285750Y262890I2820J-5695D01*
G01X298380D01*
G02X299630Y261640I0J-1250D01*
G01Y247120D01*
G03X300880Y245870I1250J0D01*
G01X321420D01*
G03X322670Y247120I0J1250D01*
G01Y261640D01*
G02X323920Y262890I1250J0D01*
G01X361950D01*
G02X368300Y256540I0J-6350D01*
G01Y237490D01*
G02X361950Y231140I-6350J0D01*
G01X347970D01*
G02X346720Y232390I0J1250D01*
G01Y258610D01*
G03X345470Y259860I-1250J0D01*
G01X330930D01*
G03X329680Y258610I0J-1250D01*
G01Y232390D01*
G02X328430Y231140I-1250J0D01*
G01X293870D01*
G02X292620Y232390I0J1250D01*
G37*
G36*
G01X285750Y275590D02*
G02X282930Y276250I0J6355D01*
G01X282600Y276410D01*
X282240Y277000D01*
Y277370D01*
G02X283490Y278620I1250J0D01*
G01X291370D01*
G03X292620Y279870I0J1250D01*
G01Y306090D01*
G02X293870Y307340I1250J0D01*
G01X328430D01*
G02X329680Y306090I0J-1250D01*
G01Y279870D01*
G03X330930Y278620I1250J0D01*
G01X345470D01*
G03X346720Y279870I0J1250D01*
G01Y306090D01*
G02X347970Y307340I1250J0D01*
G01X361950D01*
G02X368300Y300990I0J-6350D01*
G01Y281940D01*
G02X361950Y275590I-6350J0D01*
G01X323920D01*
G02X322670Y276840I0J1250D01*
G01Y291360D01*
G03X321420Y292610I-1250J0D01*
G01X300880D01*
G03X299630Y291360I0J-1250D01*
G01Y276840D01*
G02X298380Y275590I-1250J0D01*
G01X285750D01*
G37*
G36*
G01X292620Y333990D02*
Y360210D01*
G03X291370Y361460I-1250J0D01*
G01X283490D01*
G02X282240Y362710I0J1250D01*
G01Y363080D01*
X282600Y363670D01*
X282930Y363830D01*
G02X285750Y364490I2820J-5695D01*
G01X298380D01*
G02X299630Y363240I0J-1250D01*
G01Y348720D01*
G03X300880Y347470I1250J0D01*
G01X321420D01*
G03X322670Y348720I0J1250D01*
G01Y363240D01*
G02X323920Y364490I1250J0D01*
G01X361950D01*
G02X368300Y358140I0J-6350D01*
G01Y339090D01*
G02X361950Y332740I-6350J0D01*
G01X347970D01*
G02X346720Y333990I0J1250D01*
G01Y360210D01*
G03X345470Y361460I-1250J0D01*
G01X330930D01*
G03X329680Y360210I0J-1250D01*
G01Y333990D01*
G02X328430Y332740I-1250J0D01*
G01X293870D01*
G02X292620Y333990I0J1250D01*
G37*
G36*
G01X285750Y377190D02*
G02X282930Y377850I0J6355D01*
G01X282600Y378010D01*
X282240Y378600D01*
Y378970D01*
G02X283490Y380220I1250J0D01*
G01X291370D01*
G03X292620Y381470I0J1250D01*
G01Y407690D01*
G02X293870Y408940I1250J0D01*
G01X328430D01*
G02X329680Y407690I0J-1250D01*
G01Y381470D01*
G03X330930Y380220I1250J0D01*
G01X345470D01*
G03X346720Y381470I0J1250D01*
G01Y407690D01*
G02X347970Y408940I1250J0D01*
G01X361950D01*
G02X368300Y402590I0J-6350D01*
G01Y383540D01*
G02X361950Y377190I-6350J0D01*
G01X323920D01*
G02X322670Y378440I0J1250D01*
G01Y392960D01*
G03X321420Y394210I-1250J0D01*
G01X300880D01*
G03X299630Y392960I0J-1250D01*
G01Y378440D01*
G02X298380Y377190I-1250J0D01*
G01X285750D01*
G37*
G36*
G01X292620Y435590D02*
Y461810D01*
G03X291370Y463060I-1250J0D01*
G01X283490D01*
G02X282240Y464310I0J1250D01*
G01Y464680D01*
X282600Y465270D01*
X282930Y465430D01*
G02X285750Y466090I2820J-5695D01*
G01X298380D01*
G02X299630Y464840I0J-1250D01*
G01Y450320D01*
G03X300880Y449070I1250J0D01*
G01X321420D01*
G03X322670Y450320I0J1250D01*
G01Y464840D01*
G02X323920Y466090I1250J0D01*
G01X361950D01*
G02X368300Y459740I0J-6350D01*
G01Y440690D01*
G02X361950Y434340I-6350J0D01*
G01X347970D01*
G02X346720Y435590I0J1250D01*
G01Y461810D01*
G03X345470Y463060I-1250J0D01*
G01X330930D01*
G03X329680Y461810I0J-1250D01*
G01Y435590D01*
G02X328430Y434340I-1250J0D01*
G01X293870D01*
G02X292620Y435590I0J1250D01*
G37*
G36*
G01X285750Y478790D02*
G02X282930Y479450I0J6355D01*
G01X282600Y479610D01*
X282240Y480200D01*
Y480570D01*
G02X283490Y481820I1250J0D01*
G01X291370D01*
G03X292620Y483070I0J1250D01*
G01Y509290D01*
G02X293870Y510540I1250J0D01*
G01X328430D01*
G02X329680Y509290I0J-1250D01*
G01Y483070D01*
G03X330930Y481820I1250J0D01*
G01X345470D01*
G03X346720Y483070I0J1250D01*
G01Y509290D01*
G02X347970Y510540I1250J0D01*
G01X361950D01*
G02X368300Y504190I0J-6350D01*
G01Y485140D01*
G02X361950Y478790I-6350J0D01*
G01X323920D01*
G02X322670Y480040I0J1250D01*
G01Y494560D01*
G03X321420Y495810I-1250J0D01*
G01X300880D01*
G03X299630Y494560I0J-1250D01*
G01Y480040D01*
G02X298380Y478790I-1250J0D01*
G01X285750D01*
G37*
G36*
G01X292620Y537190D02*
Y563410D01*
G03X291370Y564660I-1250J0D01*
G01X283490D01*
G02X282240Y565910I0J1250D01*
G01Y566280D01*
X282600Y566870D01*
X282930Y567030D01*
G02X285750Y567690I2820J-5695D01*
G01X298380D01*
G02X299630Y566440I0J-1250D01*
G01Y551920D01*
G03X300880Y550670I1250J0D01*
G01X321420D01*
G03X322670Y551920I0J1250D01*
G01Y566440D01*
G02X323920Y567690I1250J0D01*
G01X361950D01*
G02X368300Y561340I0J-6350D01*
G01Y542290D01*
G02X361950Y535940I-6350J0D01*
G01X347970D01*
G02X346720Y537190I0J1250D01*
G01Y563410D01*
G03X345470Y564660I-1250J0D01*
G01X330930D01*
G03X329680Y563410I0J-1250D01*
G01Y537190D01*
G02X328430Y535940I-1250J0D01*
G01X293870D01*
G02X292620Y537190I0J1250D01*
G37*
G36*
G01X285750Y580390D02*
G02X282930Y581050I0J6355D01*
G01X282600Y581210D01*
X282240Y581800D01*
Y582170D01*
G02X283490Y583420I1250J0D01*
G01X291370D01*
G03X292620Y584670I0J1250D01*
G01Y610890D01*
G02X293870Y612140I1250J0D01*
G01X328430D01*
G02X329680Y610890I0J-1250D01*
G01Y584670D01*
G03X330930Y583420I1250J0D01*
G01X345470D01*
G03X346720Y584670I0J1250D01*
G01Y610890D01*
G02X347970Y612140I1250J0D01*
G01X361950D01*
G02X368300Y605790I0J-6350D01*
G01Y586740D01*
G02X361950Y580390I-6350J0D01*
G01X323920D01*
G02X322670Y581640I0J1250D01*
G01Y596160D01*
G03X321420Y597410I-1250J0D01*
G01X300880D01*
G03X299630Y596160I0J-1250D01*
G01Y581640D01*
G02X298380Y580390I-1250J0D01*
G01X285750D01*
G37*
G36*
G01X292620Y638790D02*
Y665010D01*
G03X291370Y666260I-1250J0D01*
G01X283490D01*
G02X282240Y667510I0J1250D01*
G01Y667880D01*
X282600Y668470D01*
X282930Y668630D01*
G02X285750Y669290I2820J-5695D01*
G01X298380D01*
G02X299630Y668040I0J-1250D01*
G01Y653520D01*
G03X300880Y652270I1250J0D01*
G01X321420D01*
G03X322670Y653520I0J1250D01*
G01Y668040D01*
G02X323920Y669290I1250J0D01*
G01X361950D01*
G02X368300Y662940I0J-6350D01*
G01Y643890D01*
G02X361950Y637540I-6350J0D01*
G01X347970D01*
G02X346720Y638790I0J1250D01*
G01Y665010D01*
G03X345470Y666260I-1250J0D01*
G01X330930D01*
G03X329680Y665010I0J-1250D01*
G01Y638790D01*
G02X328430Y637540I-1250J0D01*
G01X293870D01*
G02X292620Y638790I0J1250D01*
G37*
G36*
G01X285750Y681990D02*
G02X282930Y682650I0J6355D01*
G01X282600Y682810D01*
X282240Y683400D01*
Y683770D01*
G02X283490Y685020I1250J0D01*
G01X291370D01*
G03X292620Y686270I0J1250D01*
G01Y712490D01*
G02X293870Y713740I1250J0D01*
G01X328430D01*
G02X329680Y712490I0J-1250D01*
G01Y686270D01*
G03X330930Y685020I1250J0D01*
G01X345470D01*
G03X346720Y686270I0J1250D01*
G01Y712490D01*
G02X347970Y713740I1250J0D01*
G01X361950D01*
G02X368300Y707390I0J-6350D01*
G01Y688340D01*
G02X361950Y681990I-6350J0D01*
G01X323920D01*
G02X322670Y683240I0J1250D01*
G01Y697760D01*
G03X321420Y699010I-1250J0D01*
G01X300880D01*
G03X299630Y697760I0J-1250D01*
G01Y683240D01*
G02X298380Y681990I-1250J0D01*
G01X285750D01*
G37*
G36*
G01X292620Y740390D02*
Y766610D01*
G03X291370Y767860I-1250J0D01*
G01X283490D01*
G02X282240Y769110I0J1250D01*
G01Y769480D01*
X282600Y770070D01*
X282930Y770230D01*
G02X285750Y770890I2820J-5695D01*
G01X298380D01*
G02X299630Y769640I0J-1250D01*
G01Y755120D01*
G03X300880Y753870I1250J0D01*
G01X321420D01*
G03X322670Y755120I0J1250D01*
G01Y769640D01*
G02X323920Y770890I1250J0D01*
G01X361950D01*
G02X368300Y764540I0J-6350D01*
G01Y745490D01*
G02X361950Y739140I-6350J0D01*
G01X347970D01*
G02X346720Y740390I0J1250D01*
G01Y766610D01*
G03X345470Y767860I-1250J0D01*
G01X330930D01*
G03X329680Y766610I0J-1250D01*
G01Y740390D01*
G02X328430Y739140I-1250J0D01*
G01X293870D01*
G02X292620Y740390I0J1250D01*
G37*
G36*
G01X285750Y783590D02*
G02X282930Y784250I0J6355D01*
G01X282600Y784410D01*
X282240Y785000D01*
Y785370D01*
G02X283490Y786620I1250J0D01*
G01X291370D01*
G03X292620Y787870I0J1250D01*
G01Y814090D01*
G02X293870Y815340I1250J0D01*
G01X328430D01*
G02X329680Y814090I0J-1250D01*
G01Y787870D01*
G03X330930Y786620I1250J0D01*
G01X345470D01*
G03X346720Y787870I0J1250D01*
G01Y814090D01*
G02X347970Y815340I1250J0D01*
G01X361950D01*
G02X368300Y808990I0J-6350D01*
G01Y789940D01*
G02X361950Y783590I-6350J0D01*
G01X323920D01*
G02X322670Y784840I0J1250D01*
G01Y799360D01*
G03X321420Y800610I-1250J0D01*
G01X300880D01*
G03X299630Y799360I0J-1250D01*
G01Y784840D01*
G02X298380Y783590I-1250J0D01*
G01X285750D01*
G37*
G36*
G01X292620Y841990D02*
Y868210D01*
G03X291370Y869460I-1250J0D01*
G01X283490D01*
G02X282240Y870710I0J1250D01*
G01Y871080D01*
X282600Y871670D01*
X282930Y871830D01*
G02X285750Y872490I2820J-5695D01*
G01X298380D01*
G02X299630Y871240I0J-1250D01*
G01Y856720D01*
G03X300880Y855470I1250J0D01*
G01X321420D01*
G03X322670Y856720I0J1250D01*
G01Y871240D01*
G02X323920Y872490I1250J0D01*
G01X361950D01*
G02X368300Y866140I0J-6350D01*
G01Y847090D01*
G02X361950Y840740I-6350J0D01*
G01X347970D01*
G02X346720Y841990I0J1250D01*
G01Y868210D01*
G03X345470Y869460I-1250J0D01*
G01X330930D01*
G03X329680Y868210I0J-1250D01*
G01Y841990D01*
G02X328430Y840740I-1250J0D01*
G01X293870D01*
G02X292620Y841990I0J1250D01*
G37*
G36*
G01X285750Y885190D02*
G02X282930Y885850I0J6355D01*
G01X282600Y886010D01*
X282240Y886600D01*
Y886970D01*
G02X283490Y888220I1250J0D01*
G01X291370D01*
G03X292620Y889470I0J1250D01*
G01Y915690D01*
G02X293870Y916940I1250J0D01*
G01X328430D01*
G02X329680Y915690I0J-1250D01*
G01Y889470D01*
G03X330930Y888220I1250J0D01*
G01X345470D01*
G03X346720Y889470I0J1250D01*
G01Y915690D01*
G02X347970Y916940I1250J0D01*
G01X361950D01*
G02X368300Y910590I0J-6350D01*
G01Y891540D01*
G02X361950Y885190I-6350J0D01*
G01X323920D01*
G02X322670Y886440I0J1250D01*
G01Y900960D01*
G03X321420Y902210I-1250J0D01*
G01X300880D01*
G03X299630Y900960I0J-1250D01*
G01Y886440D01*
G02X298380Y885190I-1250J0D01*
G01X285750D01*
G37*
G36*
G01X292620Y1203940D02*
Y1230160D01*
G03X291370Y1231410I-1250J0D01*
G01X283490D01*
G02X282240Y1232660I0J1250D01*
G01Y1233030D01*
X282600Y1233620D01*
X282930Y1233780D01*
G02X285750Y1234440I2820J-5695D01*
G01X298380D01*
G02X299630Y1233190I0J-1250D01*
G01Y1218670D01*
G03X300880Y1217420I1250J0D01*
G01X321420D01*
G03X322670Y1218670I0J1250D01*
G01Y1233190D01*
G02X323920Y1234440I1250J0D01*
G01X361950D01*
G02X368300Y1228090I0J-6350D01*
G01Y1209040D01*
G02X361950Y1202690I-6350J0D01*
G01X347970D01*
G02X346720Y1203940I0J1250D01*
G01Y1230160D01*
G03X345470Y1231410I-1250J0D01*
G01X330930D01*
G03X329680Y1230160I0J-1250D01*
G01Y1203940D01*
G02X328430Y1202690I-1250J0D01*
G01X293870D01*
G02X292620Y1203940I0J1250D01*
G37*
G36*
G01X285750Y1247140D02*
G02X282930Y1247800I0J6355D01*
G01X282600Y1247960D01*
X282240Y1248550D01*
Y1248920D01*
G02X283490Y1250170I1250J0D01*
G01X291370D01*
G03X292620Y1251420I0J1250D01*
G01Y1277640D01*
G02X293870Y1278890I1250J0D01*
G01X328430D01*
G02X329680Y1277640I0J-1250D01*
G01Y1251420D01*
G03X330930Y1250170I1250J0D01*
G01X345470D01*
G03X346720Y1251420I0J1250D01*
G01Y1277640D01*
G02X347970Y1278890I1250J0D01*
G01X361950D01*
G02X368300Y1272540I0J-6350D01*
G01Y1253490D01*
G02X361950Y1247140I-6350J0D01*
G01X323920D01*
G02X322670Y1248390I0J1250D01*
G01Y1262910D01*
G03X321420Y1264160I-1250J0D01*
G01X300880D01*
G03X299630Y1262910I0J-1250D01*
G01Y1248390D01*
G02X298380Y1247140I-1250J0D01*
G01X285750D01*
G37*
G36*
G01X292620Y1305540D02*
Y1331760D01*
G03X291370Y1333010I-1250J0D01*
G01X283490D01*
G02X282240Y1334260I0J1250D01*
G01Y1334630D01*
X282600Y1335220D01*
X282930Y1335380D01*
G02X285750Y1336040I2820J-5695D01*
G01X298380D01*
G02X299630Y1334790I0J-1250D01*
G01Y1320270D01*
G03X300880Y1319020I1250J0D01*
G01X321420D01*
G03X322670Y1320270I0J1250D01*
G01Y1334790D01*
G02X323920Y1336040I1250J0D01*
G01X361950D01*
G02X368300Y1329690I0J-6350D01*
G01Y1310640D01*
G02X361950Y1304290I-6350J0D01*
G01X347970D01*
G02X346720Y1305540I0J1250D01*
G01Y1331760D01*
G03X345470Y1333010I-1250J0D01*
G01X330930D01*
G03X329680Y1331760I0J-1250D01*
G01Y1305540D01*
G02X328430Y1304290I-1250J0D01*
G01X293870D01*
G02X292620Y1305540I0J1250D01*
G37*
G36*
G01X285750Y1348740D02*
G02X282930Y1349400I0J6355D01*
G01X282600Y1349560D01*
X282240Y1350150D01*
Y1350520D01*
G02X283490Y1351770I1250J0D01*
G01X291370D01*
G03X292620Y1353020I0J1250D01*
G01Y1379240D01*
G02X293870Y1380490I1250J0D01*
G01X328430D01*
G02X329680Y1379240I0J-1250D01*
G01Y1353020D01*
G03X330930Y1351770I1250J0D01*
G01X345470D01*
G03X346720Y1353020I0J1250D01*
G01Y1379240D01*
G02X347970Y1380490I1250J0D01*
G01X361950D01*
G02X368300Y1374140I0J-6350D01*
G01Y1355090D01*
G02X361950Y1348740I-6350J0D01*
G01X323920D01*
G02X322670Y1349990I0J1250D01*
G01Y1364510D01*
G03X321420Y1365760I-1250J0D01*
G01X300880D01*
G03X299630Y1364510I0J-1250D01*
G01Y1349990D01*
G02X298380Y1348740I-1250J0D01*
G01X285750D01*
G37*
G36*
G01X292620Y1407140D02*
Y1433360D01*
G03X291370Y1434610I-1250J0D01*
G01X283490D01*
G02X282240Y1435860I0J1250D01*
G01Y1436230D01*
X282600Y1436820D01*
X282930Y1436980D01*
G02X285750Y1437640I2820J-5695D01*
G01X298380D01*
G02X299630Y1436390I0J-1250D01*
G01Y1421870D01*
G03X300880Y1420620I1250J0D01*
G01X321420D01*
G03X322670Y1421870I0J1250D01*
G01Y1436390D01*
G02X323920Y1437640I1250J0D01*
G01X361950D01*
G02X368300Y1431290I0J-6350D01*
G01Y1412240D01*
G02X361950Y1405890I-6350J0D01*
G01X347970D01*
G02X346720Y1407140I0J1250D01*
G01Y1433360D01*
G03X345470Y1434610I-1250J0D01*
G01X330930D01*
G03X329680Y1433360I0J-1250D01*
G01Y1407140D01*
G02X328430Y1405890I-1250J0D01*
G01X293870D01*
G02X292620Y1407140I0J1250D01*
G37*
G36*
G01X285750Y1450340D02*
G02X282930Y1451000I0J6355D01*
G01X282600Y1451160D01*
X282240Y1451750D01*
Y1452120D01*
G02X283490Y1453370I1250J0D01*
G01X291370D01*
G03X292620Y1454620I0J1250D01*
G01Y1480840D01*
G02X293870Y1482090I1250J0D01*
G01X328430D01*
G02X329680Y1480840I0J-1250D01*
G01Y1454620D01*
G03X330930Y1453370I1250J0D01*
G01X345470D01*
G03X346720Y1454620I0J1250D01*
G01Y1480840D01*
G02X347970Y1482090I1250J0D01*
G01X361950D01*
G02X368300Y1475740I0J-6350D01*
G01Y1456690D01*
G02X361950Y1450340I-6350J0D01*
G01X323920D01*
G02X322670Y1451590I0J1250D01*
G01Y1466110D01*
G03X321420Y1467360I-1250J0D01*
G01X300880D01*
G03X299630Y1466110I0J-1250D01*
G01Y1451590D01*
G02X298380Y1450340I-1250J0D01*
G01X285750D01*
G37*
G36*
G01X292620Y1508740D02*
Y1534960D01*
G03X291370Y1536210I-1250J0D01*
G01X283490D01*
G02X282240Y1537460I0J1250D01*
G01Y1537830D01*
X282600Y1538420D01*
X282930Y1538580D01*
G02X285750Y1539240I2820J-5695D01*
G01X298380D01*
G02X299630Y1537990I0J-1250D01*
G01Y1523470D01*
G03X300880Y1522220I1250J0D01*
G01X321420D01*
G03X322670Y1523470I0J1250D01*
G01Y1537990D01*
G02X323920Y1539240I1250J0D01*
G01X361950D01*
G02X368300Y1532890I0J-6350D01*
G01Y1513840D01*
G02X361950Y1507490I-6350J0D01*
G01X347970D01*
G02X346720Y1508740I0J1250D01*
G01Y1534960D01*
G03X345470Y1536210I-1250J0D01*
G01X330930D01*
G03X329680Y1534960I0J-1250D01*
G01Y1508740D01*
G02X328430Y1507490I-1250J0D01*
G01X293870D01*
G02X292620Y1508740I0J1250D01*
G37*
G36*
G01X285750Y1551940D02*
G02X282930Y1552600I0J6355D01*
G01X282600Y1552760D01*
X282240Y1553350D01*
Y1553720D01*
G02X283490Y1554970I1250J0D01*
G01X291370D01*
G03X292620Y1556220I0J1250D01*
G01Y1582440D01*
G02X293870Y1583690I1250J0D01*
G01X328430D01*
G02X329680Y1582440I0J-1250D01*
G01Y1556220D01*
G03X330930Y1554970I1250J0D01*
G01X345470D01*
G03X346720Y1556220I0J1250D01*
G01Y1582440D01*
G02X347970Y1583690I1250J0D01*
G01X361950D01*
G02X368300Y1577340I0J-6350D01*
G01Y1558290D01*
G02X361950Y1551940I-6350J0D01*
G01X323920D01*
G02X322670Y1553190I0J1250D01*
G01Y1567710D01*
G03X321420Y1568960I-1250J0D01*
G01X300880D01*
G03X299630Y1567710I0J-1250D01*
G01Y1553190D01*
G02X298380Y1551940I-1250J0D01*
G01X285750D01*
G37*
G36*
G01X292620Y1610340D02*
Y1636560D01*
G03X291370Y1637810I-1250J0D01*
G01X283490D01*
G02X282240Y1639060I0J1250D01*
G01Y1639430D01*
X282600Y1640020D01*
X282930Y1640180D01*
G02X285750Y1640840I2820J-5695D01*
G01X298380D01*
G02X299630Y1639590I0J-1250D01*
G01Y1625070D01*
G03X300880Y1623820I1250J0D01*
G01X321420D01*
G03X322670Y1625070I0J1250D01*
G01Y1639590D01*
G02X323920Y1640840I1250J0D01*
G01X361950D01*
G02X368300Y1634490I0J-6350D01*
G01Y1615440D01*
G02X361950Y1609090I-6350J0D01*
G01X347970D01*
G02X346720Y1610340I0J1250D01*
G01Y1636560D01*
G03X345470Y1637810I-1250J0D01*
G01X330930D01*
G03X329680Y1636560I0J-1250D01*
G01Y1610340D01*
G02X328430Y1609090I-1250J0D01*
G01X293870D01*
G02X292620Y1610340I0J1250D01*
G37*
G36*
G01X285750Y1653540D02*
G02X282930Y1654200I0J6355D01*
G01X282600Y1654360D01*
X282240Y1654950D01*
Y1655320D01*
G02X283490Y1656570I1250J0D01*
G01X291370D01*
G03X292620Y1657820I0J1250D01*
G01Y1684040D01*
G02X293870Y1685290I1250J0D01*
G01X328430D01*
G02X329680Y1684040I0J-1250D01*
G01Y1657820D01*
G03X330930Y1656570I1250J0D01*
G01X345470D01*
G03X346720Y1657820I0J1250D01*
G01Y1684040D01*
G02X347970Y1685290I1250J0D01*
G01X361950D01*
G02X368300Y1678940I0J-6350D01*
G01Y1659890D01*
G02X361950Y1653540I-6350J0D01*
G01X323920D01*
G02X322670Y1654790I0J1250D01*
G01Y1669310D01*
G03X321420Y1670560I-1250J0D01*
G01X300880D01*
G03X299630Y1669310I0J-1250D01*
G01Y1654790D01*
G02X298380Y1653540I-1250J0D01*
G01X285750D01*
G37*
G36*
G01X292620Y1711940D02*
Y1738160D01*
G03X291370Y1739410I-1250J0D01*
G01X283490D01*
G02X282240Y1740660I0J1250D01*
G01Y1741030D01*
X282600Y1741620D01*
X282930Y1741780D01*
G02X285750Y1742440I2820J-5695D01*
G01X298380D01*
G02X299630Y1741190I0J-1250D01*
G01Y1726670D01*
G03X300880Y1725420I1250J0D01*
G01X321420D01*
G03X322670Y1726670I0J1250D01*
G01Y1741190D01*
G02X323920Y1742440I1250J0D01*
G01X361950D01*
G02X368300Y1736090I0J-6350D01*
G01Y1717040D01*
G02X361950Y1710690I-6350J0D01*
G01X347970D01*
G02X346720Y1711940I0J1250D01*
G01Y1738160D01*
G03X345470Y1739410I-1250J0D01*
G01X330930D01*
G03X329680Y1738160I0J-1250D01*
G01Y1711940D01*
G02X328430Y1710690I-1250J0D01*
G01X293870D01*
G02X292620Y1711940I0J1250D01*
G37*
G36*
G01X285750Y1755140D02*
G02X282930Y1755800I0J6355D01*
G01X282600Y1755960D01*
X282240Y1756550D01*
Y1756920D01*
G02X283490Y1758170I1250J0D01*
G01X291370D01*
G03X292620Y1759420I0J1250D01*
G01Y1785640D01*
G02X293870Y1786890I1250J0D01*
G01X328430D01*
G02X329680Y1785640I0J-1250D01*
G01Y1759420D01*
G03X330930Y1758170I1250J0D01*
G01X345470D01*
G03X346720Y1759420I0J1250D01*
G01Y1785640D01*
G02X347970Y1786890I1250J0D01*
G01X361950D01*
G02X368300Y1780540I0J-6350D01*
G01Y1761490D01*
G02X361950Y1755140I-6350J0D01*
G01X323920D01*
G02X322670Y1756390I0J1250D01*
G01Y1770910D01*
G03X321420Y1772160I-1250J0D01*
G01X300880D01*
G03X299630Y1770910I0J-1250D01*
G01Y1756390D01*
G02X298380Y1755140I-1250J0D01*
G01X285750D01*
G37*
G36*
G01X292620Y1813540D02*
Y1839760D01*
G03X291370Y1841010I-1250J0D01*
G01X283490D01*
G02X282240Y1842260I0J1250D01*
G01Y1842630D01*
X282600Y1843220D01*
X282930Y1843380D01*
G02X285750Y1844040I2820J-5695D01*
G01X298380D01*
G02X299630Y1842790I0J-1250D01*
G01Y1828270D01*
G03X300880Y1827020I1250J0D01*
G01X321420D01*
G03X322670Y1828270I0J1250D01*
G01Y1842790D01*
G02X323920Y1844040I1250J0D01*
G01X361950D01*
G02X368300Y1837690I0J-6350D01*
G01Y1818640D01*
G02X361950Y1812290I-6350J0D01*
G01X347970D01*
G02X346720Y1813540I0J1250D01*
G01Y1839760D01*
G03X345470Y1841010I-1250J0D01*
G01X330930D01*
G03X329680Y1839760I0J-1250D01*
G01Y1813540D01*
G02X328430Y1812290I-1250J0D01*
G01X293870D01*
G02X292620Y1813540I0J1250D01*
G37*
G36*
G01X285750Y1856740D02*
G02X282930Y1857400I0J6355D01*
G01X282600Y1857560D01*
X282240Y1858150D01*
Y1858520D01*
G02X283490Y1859770I1250J0D01*
G01X291370D01*
G03X292620Y1861020I0J1250D01*
G01Y1887240D01*
G02X293870Y1888490I1250J0D01*
G01X328430D01*
G02X329680Y1887240I0J-1250D01*
G01Y1861020D01*
G03X330930Y1859770I1250J0D01*
G01X345470D01*
G03X346720Y1861020I0J1250D01*
G01Y1887240D01*
G02X347970Y1888490I1250J0D01*
G01X361950D01*
G02X368300Y1882140I0J-6350D01*
G01Y1863090D01*
G02X361950Y1856740I-6350J0D01*
G01X323920D01*
G02X322670Y1857990I0J1250D01*
G01Y1872510D01*
G03X321420Y1873760I-1250J0D01*
G01X300880D01*
G03X299630Y1872510I0J-1250D01*
G01Y1857990D01*
G02X298380Y1856740I-1250J0D01*
G01X285750D01*
G37*
G36*
G01X292620Y1915140D02*
Y1941360D01*
G03X291370Y1942610I-1250J0D01*
G01X283490D01*
G02X282240Y1943860I0J1250D01*
G01Y1944230D01*
X282600Y1944820D01*
X282930Y1944980D01*
G02X285750Y1945640I2820J-5695D01*
G01X298380D01*
G02X299630Y1944390I0J-1250D01*
G01Y1929870D01*
G03X300880Y1928620I1250J0D01*
G01X321420D01*
G03X322670Y1929870I0J1250D01*
G01Y1944390D01*
G02X323920Y1945640I1250J0D01*
G01X361950D01*
G02X368300Y1939290I0J-6350D01*
G01Y1920240D01*
G02X361950Y1913890I-6350J0D01*
G01X347970D01*
G02X346720Y1915140I0J1250D01*
G01Y1941360D01*
G03X345470Y1942610I-1250J0D01*
G01X330930D01*
G03X329680Y1941360I0J-1250D01*
G01Y1915140D01*
G02X328430Y1913890I-1250J0D01*
G01X293870D01*
G02X292620Y1915140I0J1250D01*
G37*
G36*
G01X285750Y1958340D02*
G02X282930Y1959000I0J6355D01*
G01X282600Y1959160D01*
X282240Y1959750D01*
Y1960120D01*
G02X283490Y1961370I1250J0D01*
G01X291370D01*
G03X292620Y1962620I0J1250D01*
G01Y1988840D01*
G02X293870Y1990090I1250J0D01*
G01X328430D01*
G02X329680Y1988840I0J-1250D01*
G01Y1962620D01*
G03X330930Y1961370I1250J0D01*
G01X345470D01*
G03X346720Y1962620I0J1250D01*
G01Y1988840D01*
G02X347970Y1990090I1250J0D01*
G01X361950D01*
G02X368300Y1983740I0J-6350D01*
G01Y1964690D01*
G02X361950Y1958340I-6350J0D01*
G01X323920D01*
G02X322670Y1959590I0J1250D01*
G01Y1974110D01*
G03X321420Y1975360I-1250J0D01*
G01X300880D01*
G03X299630Y1974110I0J-1250D01*
G01Y1959590D01*
G02X298380Y1958340I-1250J0D01*
G01X285750D01*
G37*
G36*
G01X419100Y129540D02*
X406400D01*
G02X400050Y135890I0J6350D01*
G01Y148590D01*
G02X406400Y154940I6350J0D01*
G01X419100D01*
G02X425450Y148590I0J-6350D01*
G01Y135890D01*
G02X419100Y129540I-6350J0D01*
G37*
G36*
G01X406400Y180340D02*
G02X400050Y186690I0J6350D01*
G01Y199390D01*
G02X406400Y205740I6350J0D01*
G01X628650D01*
G02X632590Y204370I0J-6351D01*
G02X632990Y202980I-778J-976D01*
G01X632220Y200750D01*
G02X631040Y199910I-1181J410D01*
G01X613880D01*
G03X612630Y198660I0J-1250D01*
G01Y184120D01*
G03X613880Y182870I1250J0D01*
G01X629210D01*
G02X630460Y181620I0J-1250D01*
G01Y181140D01*
X629820Y180430D01*
X629340Y180380D01*
G02X628650Y180340I-712J6309D01*
G01X603510D01*
G02X602510Y180840I0J1250D01*
G01X601130Y182690D01*
X601030Y183270D01*
X601110Y183550D01*
G03X579990I-10560J3140D01*
G01X580070Y183270D01*
X579970Y182690D01*
X578590Y180840D01*
G02X577590Y180340I-1000J750D01*
G01X549380D01*
G02X548400Y180820I4J1250D01*
G03X531100I-8650J-6830D01*
G02X530120Y180340I-984J770D01*
G01X406400D01*
G37*
G36*
G01X419100Y231140D02*
X406400D01*
G02X400050Y237490I0J6350D01*
G01Y250190D01*
G02X406400Y256540I6350J0D01*
G01X419100D01*
G02X425450Y250190I0J-6350D01*
G01Y237490D01*
G02X419100Y231140I-6350J0D01*
G37*
G36*
G01X406400Y281940D02*
G02X400050Y288290I0J6350D01*
G01Y300990D01*
G02X406400Y307340I6350J0D01*
G01X628650D01*
G02X632590Y305970I0J-6351D01*
G02X632990Y304580I-778J-976D01*
G01X632220Y302350D01*
G02X631040Y301510I-1181J410D01*
G01X613880D01*
G03X612630Y300260I0J-1250D01*
G01Y285720D01*
G03X613880Y284470I1250J0D01*
G01X629210D01*
G02X630460Y283220I0J-1250D01*
G01Y282740D01*
X629820Y282030D01*
X629340Y281980D01*
G02X628650Y281940I-712J6309D01*
G01X603510D01*
G02X602510Y282440I0J1250D01*
G01X601130Y284290D01*
X601030Y284870D01*
X601110Y285150D01*
G03X579990I-10560J3140D01*
G01X580070Y284870D01*
X579970Y284290D01*
X578590Y282440D01*
G02X577590Y281940I-1000J750D01*
G01X549380D01*
G02X548400Y282420I4J1250D01*
G03X531100I-8650J-6830D01*
G02X530120Y281940I-984J770D01*
G01X406400D01*
G37*
G36*
G01X419100Y332740D02*
X406400D01*
G02X400050Y339090I0J6350D01*
G01Y351790D01*
G02X406400Y358140I6350J0D01*
G01X419100D01*
G02X425450Y351790I0J-6350D01*
G01Y339090D01*
G02X419100Y332740I-6350J0D01*
G37*
G36*
G01X406400Y383540D02*
G02X400050Y389890I0J6350D01*
G01Y402590D01*
G02X406400Y408940I6350J0D01*
G01X628650D01*
G02X632590Y407570I0J-6351D01*
G02X632990Y406180I-778J-976D01*
G01X632220Y403950D01*
G02X631040Y403110I-1181J410D01*
G01X613880D01*
G03X612630Y401860I0J-1250D01*
G01Y387320D01*
G03X613880Y386070I1250J0D01*
G01X629210D01*
G02X630460Y384820I0J-1250D01*
G01Y384340D01*
X629820Y383630D01*
X629340Y383580D01*
G02X628650Y383540I-712J6309D01*
G01X603510D01*
G02X602510Y384040I0J1250D01*
G01X601130Y385890D01*
X601030Y386470D01*
X601110Y386750D01*
G03X579990I-10560J3140D01*
G01X580070Y386470D01*
X579970Y385890D01*
X578590Y384040D01*
G02X577590Y383540I-1000J750D01*
G01X549380D01*
G02X548400Y384020I4J1250D01*
G03X531100I-8650J-6830D01*
G02X530120Y383540I-984J770D01*
G01X406400D01*
G37*
G36*
G01X419100Y434340D02*
X406400D01*
G02X400050Y440690I0J6350D01*
G01Y453390D01*
G02X406400Y459740I6350J0D01*
G01X419100D01*
G02X425450Y453390I0J-6350D01*
G01Y440690D01*
G02X419100Y434340I-6350J0D01*
G37*
G36*
G01X406400Y485140D02*
G02X400050Y491490I0J6350D01*
G01Y504190D01*
G02X406400Y510540I6350J0D01*
G01X628650D01*
G02X632590Y509170I0J-6351D01*
G02X632990Y507780I-778J-976D01*
G01X632220Y505550D01*
G02X631040Y504710I-1181J410D01*
G01X613880D01*
G03X612630Y503460I0J-1250D01*
G01Y488920D01*
G03X613880Y487670I1250J0D01*
G01X629210D01*
G02X630460Y486420I0J-1250D01*
G01Y485940D01*
X629820Y485230D01*
X629340Y485180D01*
G02X628650Y485140I-712J6309D01*
G01X603510D01*
G02X602510Y485640I0J1250D01*
G01X601130Y487490D01*
X601030Y488070D01*
X601110Y488350D01*
G03X579990I-10560J3140D01*
G01X580070Y488070D01*
X579970Y487490D01*
X578590Y485640D01*
G02X577590Y485140I-1000J750D01*
G01X549380D01*
G02X548400Y485620I4J1250D01*
G03X531100I-8650J-6830D01*
G02X530120Y485140I-984J770D01*
G01X406400D01*
G37*
G36*
G01X419100Y535940D02*
X406400D01*
G02X400050Y542290I0J6350D01*
G01Y554990D01*
G02X406400Y561340I6350J0D01*
G01X419100D01*
G02X425450Y554990I0J-6350D01*
G01Y542290D01*
G02X419100Y535940I-6350J0D01*
G37*
G36*
G01X406400Y586740D02*
G02X400050Y593090I0J6350D01*
G01Y605790D01*
G02X406400Y612140I6350J0D01*
G01X628650D01*
G02X632590Y610770I0J-6351D01*
G02X632990Y609380I-778J-976D01*
G01X632220Y607150D01*
G02X631040Y606310I-1181J410D01*
G01X613880D01*
G03X612630Y605060I0J-1250D01*
G01Y590520D01*
G03X613880Y589270I1250J0D01*
G01X629210D01*
G02X630460Y588020I0J-1250D01*
G01Y587540D01*
X629820Y586830D01*
X629340Y586780D01*
G02X628650Y586740I-712J6309D01*
G01X603510D01*
G02X602510Y587240I0J1250D01*
G01X601130Y589090D01*
X601030Y589670D01*
X601110Y589950D01*
G03X579990I-10560J3140D01*
G01X580070Y589670D01*
X579970Y589090D01*
X578590Y587240D01*
G02X577590Y586740I-1000J750D01*
G01X549380D01*
G02X548400Y587220I4J1250D01*
G03X531100I-8650J-6830D01*
G02X530120Y586740I-984J770D01*
G01X406400D01*
G37*
G36*
G01X419100Y637540D02*
X406400D01*
G02X400050Y643890I0J6350D01*
G01Y656590D01*
G02X406400Y662940I6350J0D01*
G01X419100D01*
G02X425450Y656590I0J-6350D01*
G01Y643890D01*
G02X419100Y637540I-6350J0D01*
G37*
G36*
G01X406400Y688340D02*
G02X400050Y694690I0J6350D01*
G01Y707390D01*
G02X406400Y713740I6350J0D01*
G01X628650D01*
G02X632590Y712370I0J-6351D01*
G02X632990Y710980I-778J-976D01*
G01X632220Y708750D01*
G02X631040Y707910I-1181J410D01*
G01X613880D01*
G03X612630Y706660I0J-1250D01*
G01Y692120D01*
G03X613880Y690870I1250J0D01*
G01X629210D01*
G02X630460Y689620I0J-1250D01*
G01Y689140D01*
X629820Y688430D01*
X629340Y688380D01*
G02X628650Y688340I-712J6309D01*
G01X603510D01*
G02X602510Y688840I0J1250D01*
G01X601130Y690690D01*
X601030Y691270D01*
X601110Y691550D01*
G03X579990I-10560J3140D01*
G01X580070Y691270D01*
X579970Y690690D01*
X578590Y688840D01*
G02X577590Y688340I-1000J750D01*
G01X549380D01*
G02X548400Y688820I4J1250D01*
G03X531100I-8650J-6830D01*
G02X530120Y688340I-984J770D01*
G01X406400D01*
G37*
G36*
G01X419100Y739140D02*
X406400D01*
G02X400050Y745490I0J6350D01*
G01Y758190D01*
G02X406400Y764540I6350J0D01*
G01X419100D01*
G02X425450Y758190I0J-6350D01*
G01Y745490D01*
G02X419100Y739140I-6350J0D01*
G37*
G36*
G01X406400Y789940D02*
G02X400050Y796290I0J6350D01*
G01Y808990D01*
G02X406400Y815340I6350J0D01*
G01X628650D01*
G02X635000Y808990I0J-6350D01*
G01Y796290D01*
G02X628650Y789940I-6350J0D01*
G01X603510D01*
G02X602510Y790440I0J1250D01*
G01X601130Y792290D01*
X601030Y792870D01*
X601110Y793150D01*
G03X579990I-10560J3140D01*
G01X580070Y792870D01*
X579970Y792290D01*
X578590Y790440D01*
G02X577590Y789940I-1000J750D01*
G01X549380D01*
G02X548400Y790420I4J1250D01*
G03X531100I-8650J-6830D01*
G02X530120Y789940I-984J770D01*
G01X406400D01*
G37*
G36*
G01X419100Y840740D02*
X406400D01*
G02X400050Y847090I0J6350D01*
G01Y859790D01*
G02X406400Y866140I6350J0D01*
G01X419100D01*
G02X425450Y859790I0J-6350D01*
G01Y847090D01*
G02X419100Y840740I-6350J0D01*
G37*
G36*
G01X406400Y891540D02*
G02X400050Y897890I0J6350D01*
G01Y910590D01*
G02X406400Y916940I6350J0D01*
G01X628650D01*
G02X632590Y915570I0J-6351D01*
G02X632990Y914180I-778J-976D01*
G01X632220Y911950D01*
G02X631040Y911110I-1181J410D01*
G01X613880D01*
G03X612630Y909860I0J-1250D01*
G01Y895320D01*
G03X613880Y894070I1250J0D01*
G01X629210D01*
G02X630460Y892820I0J-1250D01*
G01Y892340D01*
X629820Y891630D01*
X629340Y891580D01*
G02X628650Y891540I-712J6309D01*
G01X603510D01*
G02X602510Y892040I0J1250D01*
G01X601130Y893890D01*
X601030Y894470D01*
X601110Y894750D01*
G03X579990I-10560J3140D01*
G01X580070Y894470D01*
X579970Y893890D01*
X578590Y892040D01*
G02X577590Y891540I-1000J750D01*
G01X549380D01*
G02X548400Y892020I4J1250D01*
G03X531100I-8650J-6830D01*
G02X530120Y891540I-984J770D01*
G01X406400D01*
G37*
G36*
G01X419100Y1202690D02*
X406400D01*
G02X400050Y1209040I0J6350D01*
G01Y1221740D01*
G02X406400Y1228090I6350J0D01*
G01X419100D01*
G02X425450Y1221740I0J-6350D01*
G01Y1209040D01*
G02X419100Y1202690I-6350J0D01*
G37*
G36*
G01X406400Y1253490D02*
G02X400050Y1259840I0J6350D01*
G01Y1272540D01*
G02X406400Y1278890I6350J0D01*
G01X628650D01*
G02X632590Y1277520I0J-6351D01*
G02X632990Y1276130I-778J-976D01*
G01X632220Y1273900D01*
G02X631040Y1273060I-1181J410D01*
G01X613880D01*
G03X612630Y1271810I0J-1250D01*
G01Y1257270D01*
G03X613880Y1256020I1250J0D01*
G01X629210D01*
G02X630460Y1254770I0J-1250D01*
G01Y1254290D01*
X629820Y1253580D01*
X629340Y1253530D01*
G02X628650Y1253490I-712J6309D01*
G01X603510D01*
G02X602510Y1253990I0J1250D01*
G01X601130Y1255840D01*
X601030Y1256420D01*
X601110Y1256700D01*
G03X579990I-10560J3140D01*
G01X580070Y1256420D01*
X579970Y1255840D01*
X578590Y1253990D01*
G02X577590Y1253490I-1000J750D01*
G01X549380D01*
G02X548400Y1253970I4J1250D01*
G03X531100I-8650J-6830D01*
G02X530120Y1253490I-984J770D01*
G01X406400D01*
G37*
G36*
G01X419100Y1304290D02*
X406400D01*
G02X400050Y1310640I0J6350D01*
G01Y1323340D01*
G02X406400Y1329690I6350J0D01*
G01X419100D01*
G02X425450Y1323340I0J-6350D01*
G01Y1310640D01*
G02X419100Y1304290I-6350J0D01*
G37*
G36*
G01X406400Y1355090D02*
G02X400050Y1361440I0J6350D01*
G01Y1374140D01*
G02X406400Y1380490I6350J0D01*
G01X628650D01*
G02X632590Y1379120I0J-6351D01*
G02X632990Y1377730I-778J-976D01*
G01X632220Y1375500D01*
G02X631040Y1374660I-1181J410D01*
G01X613880D01*
G03X612630Y1373410I0J-1250D01*
G01Y1358870D01*
G03X613880Y1357620I1250J0D01*
G01X629210D01*
G02X630460Y1356370I0J-1250D01*
G01Y1355890D01*
X629820Y1355180D01*
X629340Y1355130D01*
G02X628650Y1355090I-712J6309D01*
G01X603510D01*
G02X602510Y1355590I0J1250D01*
G01X601130Y1357440D01*
X601030Y1358020D01*
X601110Y1358300D01*
G03X579990I-10560J3140D01*
G01X580070Y1358020D01*
X579970Y1357440D01*
X578590Y1355590D01*
G02X577590Y1355090I-1000J750D01*
G01X549380D01*
G02X548400Y1355570I4J1250D01*
G03X531100I-8650J-6830D01*
G02X530120Y1355090I-984J770D01*
G01X406400D01*
G37*
G36*
G01X419100Y1405890D02*
X406400D01*
G02X400050Y1412240I0J6350D01*
G01Y1424940D01*
G02X406400Y1431290I6350J0D01*
G01X419100D01*
G02X425450Y1424940I0J-6350D01*
G01Y1412240D01*
G02X419100Y1405890I-6350J0D01*
G37*
G36*
G01X406400Y1456690D02*
G02X400050Y1463040I0J6350D01*
G01Y1475740D01*
G02X406400Y1482090I6350J0D01*
G01X628650D01*
G02X632590Y1480720I0J-6351D01*
G02X632990Y1479330I-778J-976D01*
G01X632220Y1477100D01*
G02X631040Y1476260I-1181J410D01*
G01X613880D01*
G03X612630Y1475010I0J-1250D01*
G01Y1460470D01*
G03X613880Y1459220I1250J0D01*
G01X629210D01*
G02X630460Y1457970I0J-1250D01*
G01Y1457490D01*
X629820Y1456780D01*
X629340Y1456730D01*
G02X628650Y1456690I-712J6309D01*
G01X603510D01*
G02X602510Y1457190I0J1250D01*
G01X601130Y1459040D01*
X601030Y1459620D01*
X601110Y1459900D01*
G03X579990I-10560J3140D01*
G01X580070Y1459620D01*
X579970Y1459040D01*
X578590Y1457190D01*
G02X577590Y1456690I-1000J750D01*
G01X549380D01*
G02X548400Y1457170I4J1250D01*
G03X531100I-8650J-6830D01*
G02X530120Y1456690I-984J770D01*
G01X406400D01*
G37*
G36*
G01X419100Y1507490D02*
X406400D01*
G02X400050Y1513840I0J6350D01*
G01Y1526540D01*
G02X406400Y1532890I6350J0D01*
G01X419100D01*
G02X425450Y1526540I0J-6350D01*
G01Y1513840D01*
G02X419100Y1507490I-6350J0D01*
G37*
G36*
G01X406400Y1558290D02*
G02X400050Y1564640I0J6350D01*
G01Y1577340D01*
G02X406400Y1583690I6350J0D01*
G01X628650D01*
G02X632590Y1582320I0J-6351D01*
G02X632990Y1580930I-778J-976D01*
G01X632220Y1578700D01*
G02X631040Y1577860I-1181J410D01*
G01X613880D01*
G03X612630Y1576610I0J-1250D01*
G01Y1562070D01*
G03X613880Y1560820I1250J0D01*
G01X629210D01*
G02X630460Y1559570I0J-1250D01*
G01Y1559090D01*
X629820Y1558380D01*
X629340Y1558330D01*
G02X628650Y1558290I-712J6309D01*
G01X603510D01*
G02X602510Y1558790I0J1250D01*
G01X601130Y1560640D01*
X601030Y1561220D01*
X601110Y1561500D01*
G03X579990I-10560J3140D01*
G01X580070Y1561220D01*
X579970Y1560640D01*
X578590Y1558790D01*
G02X577590Y1558290I-1000J750D01*
G01X549380D01*
G02X548400Y1558770I4J1250D01*
G03X531100I-8650J-6830D01*
G02X530120Y1558290I-984J770D01*
G01X406400D01*
G37*
G36*
G01X419100Y1609090D02*
X406400D01*
G02X400050Y1615440I0J6350D01*
G01Y1628140D01*
G02X406400Y1634490I6350J0D01*
G01X419100D01*
G02X425450Y1628140I0J-6350D01*
G01Y1615440D01*
G02X419100Y1609090I-6350J0D01*
G37*
G36*
G01X406400Y1659890D02*
G02X400050Y1666240I0J6350D01*
G01Y1678940D01*
G02X406400Y1685290I6350J0D01*
G01X628650D01*
G02X632590Y1683920I0J-6351D01*
G02X632990Y1682530I-778J-976D01*
G01X632220Y1680300D01*
G02X631040Y1679460I-1181J410D01*
G01X613880D01*
G03X612630Y1678210I0J-1250D01*
G01Y1663670D01*
G03X613880Y1662420I1250J0D01*
G01X629210D01*
G02X630460Y1661170I0J-1250D01*
G01Y1660690D01*
X629820Y1659980D01*
X629340Y1659930D01*
G02X628650Y1659890I-712J6309D01*
G01X603510D01*
G02X602510Y1660390I0J1250D01*
G01X601130Y1662240D01*
X601030Y1662820D01*
X601110Y1663100D01*
G03X579990I-10560J3140D01*
G01X580070Y1662820D01*
X579970Y1662240D01*
X578590Y1660390D01*
G02X577590Y1659890I-1000J750D01*
G01X549380D01*
G02X548400Y1660370I4J1250D01*
G03X531100I-8650J-6830D01*
G02X530120Y1659890I-984J770D01*
G01X406400D01*
G37*
G36*
G01X419100Y1710690D02*
X406400D01*
G02X400050Y1717040I0J6350D01*
G01Y1729740D01*
G02X406400Y1736090I6350J0D01*
G01X419100D01*
G02X425450Y1729740I0J-6350D01*
G01Y1717040D01*
G02X419100Y1710690I-6350J0D01*
G37*
G36*
G01X406400Y1761490D02*
G02X400050Y1767840I0J6350D01*
G01Y1780540D01*
G02X406400Y1786890I6350J0D01*
G01X628650D01*
G02X632590Y1785520I0J-6351D01*
G02X632990Y1784130I-778J-976D01*
G01X632220Y1781900D01*
G02X631040Y1781060I-1181J410D01*
G01X613880D01*
G03X612630Y1779810I0J-1250D01*
G01Y1765270D01*
G03X613880Y1764020I1250J0D01*
G01X629210D01*
G02X630460Y1762770I0J-1250D01*
G01Y1762290D01*
X629820Y1761580D01*
X629340Y1761530D01*
G02X628650Y1761490I-712J6309D01*
G01X603510D01*
G02X602510Y1761990I0J1250D01*
G01X601130Y1763840D01*
X601030Y1764420D01*
X601110Y1764700D01*
G03X579990I-10560J3140D01*
G01X580070Y1764420D01*
X579970Y1763840D01*
X578590Y1761990D01*
G02X577590Y1761490I-1000J750D01*
G01X549380D01*
G02X548400Y1761970I4J1250D01*
G03X531100I-8650J-6830D01*
G02X530120Y1761490I-984J770D01*
G01X406400D01*
G37*
G36*
G01X419100Y1812290D02*
X406400D01*
G02X400050Y1818640I0J6350D01*
G01Y1831340D01*
G02X406400Y1837690I6350J0D01*
G01X419100D01*
G02X425450Y1831340I0J-6350D01*
G01Y1818640D01*
G02X419100Y1812290I-6350J0D01*
G37*
G36*
G01X406400Y1863090D02*
G02X400050Y1869440I0J6350D01*
G01Y1882140D01*
G02X406400Y1888490I6350J0D01*
G01X628650D01*
G02X632590Y1887120I0J-6351D01*
G02X632990Y1885730I-778J-976D01*
G01X632220Y1883500D01*
G02X631040Y1882660I-1181J410D01*
G01X613880D01*
G03X612630Y1881410I0J-1250D01*
G01Y1866870D01*
G03X613880Y1865620I1250J0D01*
G01X629210D01*
G02X630460Y1864370I0J-1250D01*
G01Y1863890D01*
X629820Y1863180D01*
X629340Y1863130D01*
G02X628650Y1863090I-712J6309D01*
G01X603510D01*
G02X602510Y1863590I0J1250D01*
G01X601130Y1865440D01*
X601030Y1866020D01*
X601110Y1866300D01*
G03X579990I-10560J3140D01*
G01X580070Y1866020D01*
X579970Y1865440D01*
X578590Y1863590D01*
G02X577590Y1863090I-1000J750D01*
G01X549380D01*
G02X548400Y1863570I4J1250D01*
G03X531100I-8650J-6830D01*
G02X530120Y1863090I-984J770D01*
G01X406400D01*
G37*
G36*
G01X419100Y1913890D02*
X406400D01*
G02X400050Y1920240I0J6350D01*
G01Y1932940D01*
G02X406400Y1939290I6350J0D01*
G01X419100D01*
G02X425450Y1932940I0J-6350D01*
G01Y1920240D01*
G02X419100Y1913890I-6350J0D01*
G37*
G36*
G01X406400Y1964690D02*
G02X400050Y1971040I0J6350D01*
G01Y1983740D01*
G02X406400Y1990090I6350J0D01*
G01X628650D01*
G02X632590Y1988720I0J-6351D01*
G02X632990Y1987330I-778J-976D01*
G01X632220Y1985100D01*
G02X631040Y1984260I-1181J410D01*
G01X613880D01*
G03X612630Y1983010I0J-1250D01*
G01Y1968470D01*
G03X613880Y1967220I1250J0D01*
G01X629210D01*
G02X630460Y1965970I0J-1250D01*
G01Y1965490D01*
X629820Y1964780D01*
X629340Y1964730D01*
G02X628650Y1964690I-712J6309D01*
G01X603510D01*
G02X602510Y1965190I0J1250D01*
G01X601130Y1967040D01*
X601030Y1967620D01*
X601110Y1967900D01*
G03X579990I-10560J3140D01*
G01X580070Y1967620D01*
X579970Y1967040D01*
X578590Y1965190D01*
G02X577590Y1964690I-1000J750D01*
G01X549380D01*
G02X548400Y1965170I4J1250D01*
G03X531100I-8650J-6830D01*
G02X530120Y1964690I-984J770D01*
G01X406400D01*
G37*
G36*
G01X457200Y129540D02*
G02X450850Y135890I0J6350D01*
G01Y148590D01*
G02X457200Y154940I6350J0D01*
G01X527480D01*
G02X528730Y153690I0J-1250D01*
G01Y138820D01*
G03X529980Y137570I1250J0D01*
G01X551200D01*
G02X552450Y136320I0J-1250D01*
G01Y135890D01*
G02X546100Y129540I-6350J0D01*
G01X457200D01*
G37*
G36*
G01Y231140D02*
G02X450850Y237490I0J6350D01*
G01Y250190D01*
G02X457200Y256540I6350J0D01*
G01X527480D01*
G02X528730Y255290I0J-1250D01*
G01Y240420D01*
G03X529980Y239170I1250J0D01*
G01X551200D01*
G02X552450Y237920I0J-1250D01*
G01Y237490D01*
G02X546100Y231140I-6350J0D01*
G01X457200D01*
G37*
G36*
G01Y332740D02*
G02X450850Y339090I0J6350D01*
G01Y351790D01*
G02X457200Y358140I6350J0D01*
G01X527480D01*
G02X528730Y356890I0J-1250D01*
G01Y342020D01*
G03X529980Y340770I1250J0D01*
G01X551200D01*
G02X552450Y339520I0J-1250D01*
G01Y339090D01*
G02X546100Y332740I-6350J0D01*
G01X457200D01*
G37*
G36*
G01Y434340D02*
G02X450850Y440690I0J6350D01*
G01Y453390D01*
G02X457200Y459740I6350J0D01*
G01X527480D01*
G02X528730Y458490I0J-1250D01*
G01Y443620D01*
G03X529980Y442370I1250J0D01*
G01X551200D01*
G02X552450Y441120I0J-1250D01*
G01Y440690D01*
G02X546100Y434340I-6350J0D01*
G01X457200D01*
G37*
G36*
G01Y535940D02*
G02X450850Y542290I0J6350D01*
G01Y554990D01*
G02X457200Y561340I6350J0D01*
G01X527480D01*
G02X528730Y560090I0J-1250D01*
G01Y545220D01*
G03X529980Y543970I1250J0D01*
G01X551200D01*
G02X552450Y542720I0J-1250D01*
G01Y542290D01*
G02X546100Y535940I-6350J0D01*
G01X457200D01*
G37*
G36*
G01Y637540D02*
G02X450850Y643890I0J6350D01*
G01Y656590D01*
G02X457200Y662940I6350J0D01*
G01X527480D01*
G02X528730Y661690I0J-1250D01*
G01Y646820D01*
G03X529980Y645570I1250J0D01*
G01X551200D01*
G02X552450Y644320I0J-1250D01*
G01Y643890D01*
G02X546100Y637540I-6350J0D01*
G01X457200D01*
G37*
G36*
G01Y739140D02*
G02X450850Y745490I0J6350D01*
G01Y758190D01*
G02X457200Y764540I6350J0D01*
G01X527480D01*
G02X528730Y763290I0J-1250D01*
G01Y748420D01*
G03X529980Y747170I1250J0D01*
G01X551200D01*
G02X552450Y745920I0J-1250D01*
G01Y745490D01*
G02X546100Y739140I-6350J0D01*
G01X457200D01*
G37*
G36*
G01Y840740D02*
G02X450850Y847090I0J6350D01*
G01Y859790D01*
G02X457200Y866140I6350J0D01*
G01X527480D01*
G02X528730Y864890I0J-1250D01*
G01Y850020D01*
G03X529980Y848770I1250J0D01*
G01X551200D01*
G02X552450Y847520I0J-1250D01*
G01Y847090D01*
G02X546100Y840740I-6350J0D01*
G01X457200D01*
G37*
G36*
G01Y1202690D02*
G02X450850Y1209040I0J6350D01*
G01Y1221740D01*
G02X457200Y1228090I6350J0D01*
G01X527480D01*
G02X528730Y1226840I0J-1250D01*
G01Y1211970D01*
G03X529980Y1210720I1250J0D01*
G01X551200D01*
G02X552450Y1209470I0J-1250D01*
G01Y1209040D01*
G02X546100Y1202690I-6350J0D01*
G01X457200D01*
G37*
G36*
G01Y1304290D02*
G02X450850Y1310640I0J6350D01*
G01Y1323340D01*
G02X457200Y1329690I6350J0D01*
G01X527480D01*
G02X528730Y1328440I0J-1250D01*
G01Y1313570D01*
G03X529980Y1312320I1250J0D01*
G01X551200D01*
G02X552450Y1311070I0J-1250D01*
G01Y1310640D01*
G02X546100Y1304290I-6350J0D01*
G01X457200D01*
G37*
G36*
G01Y1405890D02*
G02X450850Y1412240I0J6350D01*
G01Y1424940D01*
G02X457200Y1431290I6350J0D01*
G01X527480D01*
G02X528730Y1430040I0J-1250D01*
G01Y1415170D01*
G03X529980Y1413920I1250J0D01*
G01X551200D01*
G02X552450Y1412670I0J-1250D01*
G01Y1412240D01*
G02X546100Y1405890I-6350J0D01*
G01X457200D01*
G37*
G36*
G01Y1507490D02*
G02X450850Y1513840I0J6350D01*
G01Y1526540D01*
G02X457200Y1532890I6350J0D01*
G01X527480D01*
G02X528730Y1531640I0J-1250D01*
G01Y1516770D01*
G03X529980Y1515520I1250J0D01*
G01X551200D01*
G02X552450Y1514270I0J-1250D01*
G01Y1513840D01*
G02X546100Y1507490I-6350J0D01*
G01X457200D01*
G37*
G36*
G01Y1609090D02*
G02X450850Y1615440I0J6350D01*
G01Y1628140D01*
G02X457200Y1634490I6350J0D01*
G01X527480D01*
G02X528730Y1633240I0J-1250D01*
G01Y1618370D01*
G03X529980Y1617120I1250J0D01*
G01X551200D01*
G02X552450Y1615870I0J-1250D01*
G01Y1615440D01*
G02X546100Y1609090I-6350J0D01*
G01X457200D01*
G37*
G36*
G01Y1710690D02*
G02X450850Y1717040I0J6350D01*
G01Y1729740D01*
G02X457200Y1736090I6350J0D01*
G01X527480D01*
G02X528730Y1734840I0J-1250D01*
G01Y1719970D01*
G03X529980Y1718720I1250J0D01*
G01X551200D01*
G02X552450Y1717470I0J-1250D01*
G01Y1717040D01*
G02X546100Y1710690I-6350J0D01*
G01X457200D01*
G37*
G36*
G01Y1812290D02*
G02X450850Y1818640I0J6350D01*
G01Y1831340D01*
G02X457200Y1837690I6350J0D01*
G01X527480D01*
G02X528730Y1836440I0J-1250D01*
G01Y1821570D01*
G03X529980Y1820320I1250J0D01*
G01X551200D01*
G02X552450Y1819070I0J-1250D01*
G01Y1818640D01*
G02X546100Y1812290I-6350J0D01*
G01X457200D01*
G37*
G36*
G01Y1913890D02*
G02X450850Y1920240I0J6350D01*
G01Y1932940D01*
G02X457200Y1939290I6350J0D01*
G01X527480D01*
G02X528730Y1938040I0J-1250D01*
G01Y1923170D01*
G03X529980Y1921920I1250J0D01*
G01X551200D01*
G02X552450Y1920670I0J-1250D01*
G01Y1920240D01*
G02X546100Y1913890I-6350J0D01*
G01X457200D01*
G37*
G36*
G01X628650Y129540D02*
G02X624710Y130910I0J6351D01*
G02X624310Y132300I778J976D01*
G01X625080Y134530D01*
G02X626260Y135370I1181J-410D01*
G01X643420D01*
G03X644670Y136620I0J1250D01*
G01Y151160D01*
G03X643420Y152410I-1250J0D01*
G01X628090D01*
G02X626840Y153660I0J1250D01*
G01Y154140D01*
X627480Y154850D01*
X627960Y154900D01*
G02X628650Y154940I712J-6309D01*
G01X652280D01*
G02X653530Y153690I0J-1250D01*
G01Y130790D01*
G02X652280Y129540I-1250J0D01*
G01X628650D01*
G37*
G36*
G01Y231140D02*
G02X624710Y232510I0J6351D01*
G02X624310Y233900I778J976D01*
G01X625080Y236130D01*
G02X626260Y236970I1181J-410D01*
G01X643420D01*
G03X644670Y238220I0J1250D01*
G01Y252760D01*
G03X643420Y254010I-1250J0D01*
G01X628090D01*
G02X626840Y255260I0J1250D01*
G01Y255740D01*
X627480Y256450D01*
X627960Y256500D01*
G02X628650Y256540I712J-6309D01*
G01X652280D01*
G02X653530Y255290I0J-1250D01*
G01Y232390D01*
G02X652280Y231140I-1250J0D01*
G01X628650D01*
G37*
G36*
G01Y332740D02*
G02X624710Y334110I0J6351D01*
G02X624310Y335500I778J976D01*
G01X625080Y337730D01*
G02X626260Y338570I1181J-410D01*
G01X643420D01*
G03X644670Y339820I0J1250D01*
G01Y354360D01*
G03X643420Y355610I-1250J0D01*
G01X628090D01*
G02X626840Y356860I0J1250D01*
G01Y357340D01*
X627480Y358050D01*
X627960Y358100D01*
G02X628650Y358140I712J-6309D01*
G01X652280D01*
G02X653530Y356890I0J-1250D01*
G01Y333990D01*
G02X652280Y332740I-1250J0D01*
G01X628650D01*
G37*
G36*
G01Y434340D02*
G02X624710Y435710I0J6351D01*
G02X624310Y437100I778J976D01*
G01X625080Y439330D01*
G02X626260Y440170I1181J-410D01*
G01X643420D01*
G03X644670Y441420I0J1250D01*
G01Y455960D01*
G03X643420Y457210I-1250J0D01*
G01X628090D01*
G02X626840Y458460I0J1250D01*
G01Y458940D01*
X627480Y459650D01*
X627960Y459700D01*
G02X628650Y459740I712J-6309D01*
G01X652280D01*
G02X653530Y458490I0J-1250D01*
G01Y435590D01*
G02X652280Y434340I-1250J0D01*
G01X628650D01*
G37*
G36*
G01Y535940D02*
G02X624710Y537310I0J6351D01*
G02X624310Y538700I778J976D01*
G01X625080Y540930D01*
G02X626260Y541770I1181J-410D01*
G01X643420D01*
G03X644670Y543020I0J1250D01*
G01Y557560D01*
G03X643420Y558810I-1250J0D01*
G01X628090D01*
G02X626840Y560060I0J1250D01*
G01Y560540D01*
X627480Y561250D01*
X627960Y561300D01*
G02X628650Y561340I712J-6309D01*
G01X652280D01*
G02X653530Y560090I0J-1250D01*
G01Y537190D01*
G02X652280Y535940I-1250J0D01*
G01X628650D01*
G37*
G36*
G01Y637540D02*
G02X624710Y638910I0J6351D01*
G02X624310Y640300I778J976D01*
G01X625080Y642530D01*
G02X626260Y643370I1181J-410D01*
G01X643420D01*
G03X644670Y644620I0J1250D01*
G01Y659160D01*
G03X643420Y660410I-1250J0D01*
G01X628090D01*
G02X626840Y661660I0J1250D01*
G01Y662140D01*
X627480Y662850D01*
X627960Y662900D01*
G02X628650Y662940I712J-6309D01*
G01X652280D01*
G02X653530Y661690I0J-1250D01*
G01Y638790D01*
G02X652280Y637540I-1250J0D01*
G01X628650D01*
G37*
G36*
G01Y739140D02*
G02X622300Y745490I0J6350D01*
G01Y758190D01*
G02X628650Y764540I6350J0D01*
G01X652280D01*
G02X653530Y763290I0J-1250D01*
G01Y740390D01*
G02X652280Y739140I-1250J0D01*
G01X628650D01*
G37*
G36*
G01Y840740D02*
G02X624710Y842110I0J6351D01*
G02X624310Y843500I778J976D01*
G01X625080Y845730D01*
G02X626260Y846570I1181J-410D01*
G01X643420D01*
G03X644670Y847820I0J1250D01*
G01Y862360D01*
G03X643420Y863610I-1250J0D01*
G01X628090D01*
G02X626840Y864860I0J1250D01*
G01Y865340D01*
X627480Y866050D01*
X627960Y866100D01*
G02X628650Y866140I712J-6309D01*
G01X652280D01*
G02X653530Y864890I0J-1250D01*
G01Y841990D01*
G02X652280Y840740I-1250J0D01*
G01X628650D01*
G37*
G36*
G01Y1202690D02*
G02X624710Y1204060I0J6351D01*
G02X624310Y1205450I778J976D01*
G01X625080Y1207680D01*
G02X626260Y1208520I1181J-410D01*
G01X643420D01*
G03X644670Y1209770I0J1250D01*
G01Y1224310D01*
G03X643420Y1225560I-1250J0D01*
G01X628090D01*
G02X626840Y1226810I0J1250D01*
G01Y1227290D01*
X627480Y1228000D01*
X627960Y1228050D01*
G02X628650Y1228090I712J-6309D01*
G01X652280D01*
G02X653530Y1226840I0J-1250D01*
G01Y1203940D01*
G02X652280Y1202690I-1250J0D01*
G01X628650D01*
G37*
G36*
G01Y1304290D02*
G02X624710Y1305660I0J6351D01*
G02X624310Y1307050I778J976D01*
G01X625080Y1309280D01*
G02X626260Y1310120I1181J-410D01*
G01X643420D01*
G03X644670Y1311370I0J1250D01*
G01Y1325910D01*
G03X643420Y1327160I-1250J0D01*
G01X628090D01*
G02X626840Y1328410I0J1250D01*
G01Y1328890D01*
X627480Y1329600D01*
X627960Y1329650D01*
G02X628650Y1329690I712J-6309D01*
G01X652280D01*
G02X653530Y1328440I0J-1250D01*
G01Y1305540D01*
G02X652280Y1304290I-1250J0D01*
G01X628650D01*
G37*
G36*
G01Y1405890D02*
G02X624710Y1407260I0J6351D01*
G02X624310Y1408650I778J976D01*
G01X625080Y1410880D01*
G02X626260Y1411720I1181J-410D01*
G01X643420D01*
G03X644670Y1412970I0J1250D01*
G01Y1427510D01*
G03X643420Y1428760I-1250J0D01*
G01X628090D01*
G02X626840Y1430010I0J1250D01*
G01Y1430490D01*
X627480Y1431200D01*
X627960Y1431250D01*
G02X628650Y1431290I712J-6309D01*
G01X652280D01*
G02X653530Y1430040I0J-1250D01*
G01Y1407140D01*
G02X652280Y1405890I-1250J0D01*
G01X628650D01*
G37*
G36*
G01Y1507490D02*
G02X624710Y1508860I0J6351D01*
G02X624310Y1510250I778J976D01*
G01X625080Y1512480D01*
G02X626260Y1513320I1181J-410D01*
G01X643420D01*
G03X644670Y1514570I0J1250D01*
G01Y1529110D01*
G03X643420Y1530360I-1250J0D01*
G01X628090D01*
G02X626840Y1531610I0J1250D01*
G01Y1532090D01*
X627480Y1532800D01*
X627960Y1532850D01*
G02X628650Y1532890I712J-6309D01*
G01X652280D01*
G02X653530Y1531640I0J-1250D01*
G01Y1508740D01*
G02X652280Y1507490I-1250J0D01*
G01X628650D01*
G37*
G36*
G01Y1609090D02*
G02X624710Y1610460I0J6351D01*
G02X624310Y1611850I778J976D01*
G01X625080Y1614080D01*
G02X626260Y1614920I1181J-410D01*
G01X643420D01*
G03X644670Y1616170I0J1250D01*
G01Y1630710D01*
G03X643420Y1631960I-1250J0D01*
G01X628090D01*
G02X626840Y1633210I0J1250D01*
G01Y1633690D01*
X627480Y1634400D01*
X627960Y1634450D01*
G02X628650Y1634490I712J-6309D01*
G01X652280D01*
G02X653530Y1633240I0J-1250D01*
G01Y1610340D01*
G02X652280Y1609090I-1250J0D01*
G01X628650D01*
G37*
G36*
G01Y1710690D02*
G02X624710Y1712060I0J6351D01*
G02X624310Y1713450I778J976D01*
G01X625080Y1715680D01*
G02X626260Y1716520I1181J-410D01*
G01X643420D01*
G03X644670Y1717770I0J1250D01*
G01Y1732310D01*
G03X643420Y1733560I-1250J0D01*
G01X628090D01*
G02X626840Y1734810I0J1250D01*
G01Y1735290D01*
X627480Y1736000D01*
X627960Y1736050D01*
G02X628650Y1736090I712J-6309D01*
G01X652280D01*
G02X653530Y1734840I0J-1250D01*
G01Y1711940D01*
G02X652280Y1710690I-1250J0D01*
G01X628650D01*
G37*
G36*
G01Y1812290D02*
G02X624710Y1813660I0J6351D01*
G02X624310Y1815050I778J976D01*
G01X625080Y1817280D01*
G02X626260Y1818120I1181J-410D01*
G01X643420D01*
G03X644670Y1819370I0J1250D01*
G01Y1833910D01*
G03X643420Y1835160I-1250J0D01*
G01X628090D01*
G02X626840Y1836410I0J1250D01*
G01Y1836890D01*
X627480Y1837600D01*
X627960Y1837650D01*
G02X628650Y1837690I712J-6309D01*
G01X652280D01*
G02X653530Y1836440I0J-1250D01*
G01Y1813540D01*
G02X652280Y1812290I-1250J0D01*
G01X628650D01*
G37*
G36*
G01Y1913890D02*
G02X624710Y1915260I0J6351D01*
G02X624310Y1916650I778J976D01*
G01X625080Y1918880D01*
G02X626260Y1919720I1181J-410D01*
G01X643420D01*
G03X644670Y1920970I0J1250D01*
G01Y1935510D01*
G03X643420Y1936760I-1250J0D01*
G01X628090D01*
G02X626840Y1938010I0J1250D01*
G01Y1938490D01*
X627480Y1939200D01*
X627960Y1939250D01*
G02X628650Y1939290I712J-6309D01*
G01X652280D01*
G02X653530Y1938040I0J-1250D01*
G01Y1915140D01*
G02X652280Y1913890I-1250J0D01*
G01X628650D01*
G37*
G36*
G01X711200Y180340D02*
G02X704850Y186690I0J6350D01*
G01Y199390D01*
G02X711200Y205740I6350J0D01*
G01X792210D01*
G02X793320Y205060I-3J-1250D01*
G01X794500Y202770D01*
X794440Y202070D01*
X794240Y201780D01*
G03Y184300I12210J-8740D01*
G01X794440Y184010D01*
X794500Y183310D01*
X793320Y181020D01*
G02X792210Y180340I-1113J570D01*
G01X711200D01*
G37*
G36*
G01Y281940D02*
G02X704850Y288290I0J6350D01*
G01Y300990D01*
G02X711200Y307340I6350J0D01*
G01X792210D01*
G02X793320Y306660I-3J-1250D01*
G01X794500Y304370D01*
X794440Y303670D01*
X794240Y303380D01*
G03Y285900I12210J-8740D01*
G01X794440Y285610D01*
X794500Y284910D01*
X793320Y282620D01*
G02X792210Y281940I-1113J570D01*
G01X711200D01*
G37*
G36*
G01Y383540D02*
G02X704850Y389890I0J6350D01*
G01Y402590D01*
G02X711200Y408940I6350J0D01*
G01X792210D01*
G02X793320Y408260I-3J-1250D01*
G01X794500Y405970D01*
X794440Y405270D01*
X794240Y404980D01*
G03Y387500I12210J-8740D01*
G01X794440Y387210D01*
X794500Y386510D01*
X793320Y384220D01*
G02X792210Y383540I-1113J570D01*
G01X711200D01*
G37*
G36*
G01Y485140D02*
G02X704850Y491490I0J6350D01*
G01Y504190D01*
G02X711200Y510540I6350J0D01*
G01X792210D01*
G02X793320Y509860I-3J-1250D01*
G01X794500Y507570D01*
X794440Y506870D01*
X794240Y506580D01*
G03Y489100I12210J-8740D01*
G01X794440Y488810D01*
X794500Y488110D01*
X793320Y485820D01*
G02X792210Y485140I-1113J570D01*
G01X711200D01*
G37*
G36*
G01Y586740D02*
G02X704850Y593090I0J6350D01*
G01Y605790D01*
G02X711200Y612140I6350J0D01*
G01X792210D01*
G02X793320Y611460I-3J-1250D01*
G01X794500Y609170D01*
X794440Y608470D01*
X794240Y608180D01*
G03Y590700I12210J-8740D01*
G01X794440Y590410D01*
X794500Y589710D01*
X793320Y587420D01*
G02X792210Y586740I-1113J570D01*
G01X711200D01*
G37*
G36*
G01Y688340D02*
G02X704850Y694690I0J6350D01*
G01Y707390D01*
G02X711200Y713740I6350J0D01*
G01X792210D01*
G02X793320Y713060I-3J-1250D01*
G01X794500Y710770D01*
X794440Y710070D01*
X794240Y709780D01*
G03Y692300I12210J-8740D01*
G01X794440Y692010D01*
X794500Y691310D01*
X793320Y689020D01*
G02X792210Y688340I-1113J570D01*
G01X711200D01*
G37*
G36*
G01Y789940D02*
G02X704850Y796290I0J6350D01*
G01Y808990D01*
G02X711200Y815340I6350J0D01*
G01X792210D01*
G02X793320Y814660I-3J-1250D01*
G01X794500Y812370D01*
X794440Y811670D01*
X794240Y811380D01*
G03Y793900I12210J-8740D01*
G01X794440Y793610D01*
X794500Y792910D01*
X793320Y790620D01*
G02X792210Y789940I-1113J570D01*
G01X711200D01*
G37*
G36*
G01Y891540D02*
G02X704850Y897890I0J6350D01*
G01Y910590D01*
G02X711200Y916940I6350J0D01*
G01X792210D01*
G02X793320Y916260I-3J-1250D01*
G01X794500Y913970D01*
X794440Y913270D01*
X794240Y912980D01*
G03Y895500I12210J-8740D01*
G01X794440Y895210D01*
X794500Y894510D01*
X793320Y892220D01*
G02X792210Y891540I-1113J570D01*
G01X711200D01*
G37*
G36*
G01Y1253490D02*
G02X704850Y1259840I0J6350D01*
G01Y1272540D01*
G02X711200Y1278890I6350J0D01*
G01X792210D01*
G02X793320Y1278210I-3J-1250D01*
G01X794500Y1275920D01*
X794440Y1275220D01*
X794240Y1274930D01*
G03Y1257450I12210J-8740D01*
G01X794440Y1257160D01*
X794500Y1256460D01*
X793320Y1254170D01*
G02X792210Y1253490I-1113J570D01*
G01X711200D01*
G37*
G36*
G01Y1355090D02*
G02X704850Y1361440I0J6350D01*
G01Y1374140D01*
G02X711200Y1380490I6350J0D01*
G01X792210D01*
G02X793320Y1379810I-3J-1250D01*
G01X794500Y1377520D01*
X794440Y1376820D01*
X794240Y1376530D01*
G03Y1359050I12210J-8740D01*
G01X794440Y1358760D01*
X794500Y1358060D01*
X793320Y1355770D01*
G02X792210Y1355090I-1113J570D01*
G01X711200D01*
G37*
G36*
G01Y1456690D02*
G02X704850Y1463040I0J6350D01*
G01Y1475740D01*
G02X711200Y1482090I6350J0D01*
G01X792210D01*
G02X793320Y1481410I-3J-1250D01*
G01X794500Y1479120D01*
X794440Y1478420D01*
X794240Y1478130D01*
G03Y1460650I12210J-8740D01*
G01X794440Y1460360D01*
X794500Y1459660D01*
X793320Y1457370D01*
G02X792210Y1456690I-1113J570D01*
G01X711200D01*
G37*
G36*
G01Y1558290D02*
G02X704850Y1564640I0J6350D01*
G01Y1577340D01*
G02X711200Y1583690I6350J0D01*
G01X792210D01*
G02X793320Y1583010I-3J-1250D01*
G01X794500Y1580720D01*
X794440Y1580020D01*
X794240Y1579730D01*
G03Y1562250I12210J-8740D01*
G01X794440Y1561960D01*
X794500Y1561260D01*
X793320Y1558970D01*
G02X792210Y1558290I-1113J570D01*
G01X711200D01*
G37*
G36*
G01Y1659890D02*
G02X704850Y1666240I0J6350D01*
G01Y1678940D01*
G02X711200Y1685290I6350J0D01*
G01X792210D01*
G02X793320Y1684610I-3J-1250D01*
G01X794500Y1682320D01*
X794440Y1681620D01*
X794240Y1681330D01*
G03Y1663850I12210J-8740D01*
G01X794440Y1663560D01*
X794500Y1662860D01*
X793320Y1660570D01*
G02X792210Y1659890I-1113J570D01*
G01X711200D01*
G37*
G36*
G01Y1761490D02*
G02X704850Y1767840I0J6350D01*
G01Y1780540D01*
G02X711200Y1786890I6350J0D01*
G01X792210D01*
G02X793320Y1786210I-3J-1250D01*
G01X794500Y1783920D01*
X794440Y1783220D01*
X794240Y1782930D01*
G03Y1765450I12210J-8740D01*
G01X794440Y1765160D01*
X794500Y1764460D01*
X793320Y1762170D01*
G02X792210Y1761490I-1113J570D01*
G01X711200D01*
G37*
G36*
G01Y1863090D02*
G02X704850Y1869440I0J6350D01*
G01Y1882140D01*
G02X711200Y1888490I6350J0D01*
G01X792210D01*
G02X793320Y1887810I-3J-1250D01*
G01X794500Y1885520D01*
X794440Y1884820D01*
X794240Y1884530D01*
G03Y1867050I12210J-8740D01*
G01X794440Y1866760D01*
X794500Y1866060D01*
X793320Y1863770D01*
G02X792210Y1863090I-1113J570D01*
G01X711200D01*
G37*
G36*
G01Y1964690D02*
G02X704850Y1971040I0J6350D01*
G01Y1983740D01*
G02X711200Y1990090I6350J0D01*
G01X792210D01*
G02X793320Y1989410I-3J-1250D01*
G01X794500Y1987120D01*
X794440Y1986420D01*
X794240Y1986130D01*
G03Y1968650I12210J-8740D01*
G01X794440Y1968360D01*
X794500Y1967660D01*
X793320Y1965370D01*
G02X792210Y1964690I-1113J570D01*
G01X711200D01*
G37*
G36*
G01X749300Y129540D02*
G02X742950Y135890I0J6350D01*
G01Y148590D01*
G02X749300Y154940I6350J0D01*
G01X790180D01*
G02X791430Y153690I0J-1250D01*
G01Y130790D01*
G02X790180Y129540I-1250J0D01*
G01X749300D01*
G37*
G36*
G01Y231140D02*
G02X742950Y237490I0J6350D01*
G01Y250190D01*
G02X749300Y256540I6350J0D01*
G01X792210D01*
G02X793320Y255860I-3J-1250D01*
G01X794500Y253570D01*
X794440Y252870D01*
X794240Y252580D01*
G03Y235100I12210J-8740D01*
G01X794440Y234810D01*
X794500Y234110D01*
X793320Y231820D01*
G02X792210Y231140I-1113J570D01*
G01X749300D01*
G37*
G36*
G01Y332740D02*
G02X742950Y339090I0J6350D01*
G01Y351790D01*
G02X749300Y358140I6350J0D01*
G01X792210D01*
G02X793320Y357460I-3J-1250D01*
G01X794500Y355170D01*
X794440Y354470D01*
X794240Y354180D01*
G03Y336700I12210J-8740D01*
G01X794440Y336410D01*
X794500Y335710D01*
X793320Y333420D01*
G02X792210Y332740I-1113J570D01*
G01X749300D01*
G37*
G36*
G01Y434340D02*
G02X742950Y440690I0J6350D01*
G01Y453390D01*
G02X749300Y459740I6350J0D01*
G01X792210D01*
G02X793320Y459060I-3J-1250D01*
G01X794500Y456770D01*
X794440Y456070D01*
X794240Y455780D01*
G03Y438300I12210J-8740D01*
G01X794440Y438010D01*
X794500Y437310D01*
X793320Y435020D01*
G02X792210Y434340I-1113J570D01*
G01X749300D01*
G37*
G36*
G01Y535940D02*
G02X742950Y542290I0J6350D01*
G01Y554990D01*
G02X749300Y561340I6350J0D01*
G01X792210D01*
G02X793320Y560660I-3J-1250D01*
G01X794500Y558370D01*
X794440Y557670D01*
X794240Y557380D01*
G03Y539900I12210J-8740D01*
G01X794440Y539610D01*
X794500Y538910D01*
X793320Y536620D01*
G02X792210Y535940I-1113J570D01*
G01X749300D01*
G37*
G36*
G01Y637540D02*
G02X742950Y643890I0J6350D01*
G01Y656590D01*
G02X749300Y662940I6350J0D01*
G01X792210D01*
G02X793320Y662260I-3J-1250D01*
G01X794500Y659970D01*
X794440Y659270D01*
X794240Y658980D01*
G03Y641500I12210J-8740D01*
G01X794440Y641210D01*
X794500Y640510D01*
X793320Y638220D01*
G02X792210Y637540I-1113J570D01*
G01X749300D01*
G37*
G36*
G01Y739140D02*
G02X742950Y745490I0J6350D01*
G01Y758190D01*
G02X749300Y764540I6350J0D01*
G01X792210D01*
G02X793320Y763860I-3J-1250D01*
G01X794500Y761570D01*
X794440Y760870D01*
X794240Y760580D01*
G03Y743100I12210J-8740D01*
G01X794440Y742810D01*
X794500Y742110D01*
X793320Y739820D01*
G02X792210Y739140I-1113J570D01*
G01X749300D01*
G37*
G36*
G01Y840740D02*
G02X742950Y847090I0J6350D01*
G01Y859790D01*
G02X749300Y866140I6350J0D01*
G01X792210D01*
G02X793320Y865460I-3J-1250D01*
G01X794500Y863170D01*
X794440Y862470D01*
X794240Y862180D01*
G03Y844700I12210J-8740D01*
G01X794440Y844410D01*
X794500Y843710D01*
X793320Y841420D01*
G02X792210Y840740I-1113J570D01*
G01X749300D01*
G37*
G36*
G01X857250Y-80010D02*
G02X850900Y-73660I0J6350D01*
G01Y-22860D01*
G02X857250Y-16510I6350J0D01*
G01X869950D01*
G03X882650Y-3810I0J12700D01*
G01Y120470D01*
G02X883900Y121720I1250J0D01*
G01X899970D01*
G03X901220Y122970I0J1250D01*
G01Y161510D01*
G03X899970Y162760I-1250J0D01*
G01X883900D01*
G02X882650Y164010I0J1250D01*
G01Y171270D01*
G02X883900Y172520I1250J0D01*
G01X899970D01*
G03X901220Y173770I0J1250D01*
G01Y212310D01*
G03X899970Y213560I-1250J0D01*
G01X883900D01*
G02X882650Y214810I0J1250D01*
G01Y222070D01*
G02X883900Y223320I1250J0D01*
G01X899970D01*
G03X901220Y224570I0J1250D01*
G01Y263110D01*
G03X899970Y264360I-1250J0D01*
G01X883900D01*
G02X882650Y265610I0J1250D01*
G01Y272870D01*
G02X883900Y274120I1250J0D01*
G01X899970D01*
G03X901220Y275370I0J1250D01*
G01Y313910D01*
G03X899970Y315160I-1250J0D01*
G01X883900D01*
G02X882650Y316410I0J1250D01*
G01Y323670D01*
G02X883900Y324920I1250J0D01*
G01X899970D01*
G03X901220Y326170I0J1250D01*
G01Y364710D01*
G03X899970Y365960I-1250J0D01*
G01X883900D01*
G02X882650Y367210I0J1250D01*
G01Y374470D01*
G02X883900Y375720I1250J0D01*
G01X899970D01*
G03X901220Y376970I0J1250D01*
G01Y415510D01*
G03X899970Y416760I-1250J0D01*
G01X883900D01*
G02X882650Y418010I0J1250D01*
G01Y425270D01*
G02X883900Y426520I1250J0D01*
G01X899970D01*
G03X901220Y427770I0J1250D01*
G01Y466310D01*
G03X899970Y467560I-1250J0D01*
G01X883900D01*
G02X882650Y468810I0J1250D01*
G01Y476070D01*
G02X883900Y477320I1250J0D01*
G01X899970D01*
G03X901220Y478570I0J1250D01*
G01Y517110D01*
G03X899970Y518360I-1250J0D01*
G01X883900D01*
G02X882650Y519610I0J1250D01*
G01Y526870D01*
G02X883900Y528120I1250J0D01*
G01X899970D01*
G03X901220Y529370I0J1250D01*
G01Y567910D01*
G03X899970Y569160I-1250J0D01*
G01X883900D01*
G02X882650Y570410I0J1250D01*
G01Y577670D01*
G02X883900Y578920I1250J0D01*
G01X899970D01*
G03X901220Y580170I0J1250D01*
G01Y618710D01*
G03X899970Y619960I-1250J0D01*
G01X883900D01*
G02X882650Y621210I0J1250D01*
G01Y628470D01*
G02X883900Y629720I1250J0D01*
G01X899970D01*
G03X901220Y630970I0J1250D01*
G01Y669510D01*
G03X899970Y670760I-1250J0D01*
G01X883900D01*
G02X882650Y672010I0J1250D01*
G01Y679270D01*
G02X883900Y680520I1250J0D01*
G01X899970D01*
G03X901220Y681770I0J1250D01*
G01Y720310D01*
G03X899970Y721560I-1250J0D01*
G01X883900D01*
G02X882650Y722810I0J1250D01*
G01Y730070D01*
G02X883900Y731320I1250J0D01*
G01X899970D01*
G03X901220Y732570I0J1250D01*
G01Y771110D01*
G03X899970Y772360I-1250J0D01*
G01X883900D01*
G02X882650Y773610I0J1250D01*
G01Y780870D01*
G02X883900Y782120I1250J0D01*
G01X899970D01*
G03X901220Y783370I0J1250D01*
G01Y821910D01*
G03X899970Y823160I-1250J0D01*
G01X883900D01*
G02X882650Y824410I0J1250D01*
G01Y831670D01*
G02X883900Y832920I1250J0D01*
G01X899970D01*
G03X901220Y834170I0J1250D01*
G01Y872710D01*
G03X899970Y873960I-1250J0D01*
G01X883900D01*
G02X882650Y875210I0J1250D01*
G01Y882470D01*
G02X883900Y883720I1250J0D01*
G01X899970D01*
G03X901220Y884970I0J1250D01*
G01Y923510D01*
G03X899970Y924760I-1250J0D01*
G01X883900D01*
G02X882650Y926010I0J1250D01*
G01Y942340D01*
G03X806450Y1018540I-76200J0D01*
G01X800100D01*
G02X762000Y1056640I0J38100D01*
G01Y1062990D01*
G02X800100Y1101090I38100J0D01*
G01X806450D01*
G03X882650Y1177290I0J76200D01*
G01Y1193620D01*
G02X883900Y1194870I1250J0D01*
G01X899970D01*
G03X901220Y1196120I0J1250D01*
G01Y1234660D01*
G03X899970Y1235910I-1250J0D01*
G01X883900D01*
G02X882650Y1237160I0J1250D01*
G01Y1244420D01*
G02X883900Y1245670I1250J0D01*
G01X899970D01*
G03X901220Y1246920I0J1250D01*
G01Y1285460D01*
G03X899970Y1286710I-1250J0D01*
G01X883900D01*
G02X882650Y1287960I0J1250D01*
G01Y1295220D01*
G02X883900Y1296470I1250J0D01*
G01X899970D01*
G03X901220Y1297720I0J1250D01*
G01Y1336260D01*
G03X899970Y1337510I-1250J0D01*
G01X883900D01*
G02X882650Y1338760I0J1250D01*
G01Y1346020D01*
G02X883900Y1347270I1250J0D01*
G01X899970D01*
G03X901220Y1348520I0J1250D01*
G01Y1387060D01*
G03X899970Y1388310I-1250J0D01*
G01X883900D01*
G02X882650Y1389560I0J1250D01*
G01Y1396820D01*
G02X883900Y1398070I1250J0D01*
G01X899970D01*
G03X901220Y1399320I0J1250D01*
G01Y1437860D01*
G03X899970Y1439110I-1250J0D01*
G01X883900D01*
G02X882650Y1440360I0J1250D01*
G01Y1447620D01*
G02X883900Y1448870I1250J0D01*
G01X899970D01*
G03X901220Y1450120I0J1250D01*
G01Y1488660D01*
G03X899970Y1489910I-1250J0D01*
G01X883900D01*
G02X882650Y1491160I0J1250D01*
G01Y1498420D01*
G02X883900Y1499670I1250J0D01*
G01X899970D01*
G03X901220Y1500920I0J1250D01*
G01Y1539460D01*
G03X899970Y1540710I-1250J0D01*
G01X883900D01*
G02X882650Y1541960I0J1250D01*
G01Y1549220D01*
G02X883900Y1550470I1250J0D01*
G01X899970D01*
G03X901220Y1551720I0J1250D01*
G01Y1590260D01*
G03X899970Y1591510I-1250J0D01*
G01X883900D01*
G02X882650Y1592760I0J1250D01*
G01Y1600020D01*
G02X883900Y1601270I1250J0D01*
G01X899970D01*
G03X901220Y1602520I0J1250D01*
G01Y1641060D01*
G03X899970Y1642310I-1250J0D01*
G01X883900D01*
G02X882650Y1643560I0J1250D01*
G01Y1650820D01*
G02X883900Y1652070I1250J0D01*
G01X899970D01*
G03X901220Y1653320I0J1250D01*
G01Y1691860D01*
G03X899970Y1693110I-1250J0D01*
G01X883900D01*
G02X882650Y1694360I0J1250D01*
G01Y1701620D01*
G02X883900Y1702870I1250J0D01*
G01X899970D01*
G03X901220Y1704120I0J1250D01*
G01Y1742660D01*
G03X899970Y1743910I-1250J0D01*
G01X883900D01*
G02X882650Y1745160I0J1250D01*
G01Y1752420D01*
G02X883900Y1753670I1250J0D01*
G01X899970D01*
G03X901220Y1754920I0J1250D01*
G01Y1793460D01*
G03X899970Y1794710I-1250J0D01*
G01X883900D01*
G02X882650Y1795960I0J1250D01*
G01Y1803220D01*
G02X883900Y1804470I1250J0D01*
G01X899970D01*
G03X901220Y1805720I0J1250D01*
G01Y1844260D01*
G03X899970Y1845510I-1250J0D01*
G01X883900D01*
G02X882650Y1846760I0J1250D01*
G01Y1854020D01*
G02X883900Y1855270I1250J0D01*
G01X899970D01*
G03X901220Y1856520I0J1250D01*
G01Y1895060D01*
G03X899970Y1896310I-1250J0D01*
G01X883900D01*
G02X882650Y1897560I0J1250D01*
G01Y1904820D01*
G02X883900Y1906070I1250J0D01*
G01X899970D01*
G03X901220Y1907320I0J1250D01*
G01Y1945860D01*
G03X899970Y1947110I-1250J0D01*
G01X883900D01*
G02X882650Y1948360I0J1250D01*
G01Y1955620D01*
G02X883900Y1956870I1250J0D01*
G01X899970D01*
G03X901220Y1958120I0J1250D01*
G01Y1996660D01*
G03X899970Y1997910I-1250J0D01*
G01X883900D01*
G02X882650Y1999160I0J1250D01*
G01Y2123440D01*
G03X869950Y2136140I-12700J0D01*
G01X857250D01*
G02X850900Y2142490I0J6350D01*
G01Y2193290D01*
G02X857250Y2199640I6350J0D01*
G01X901700D01*
G02X908050Y2193290I0J-6350D01*
G01Y-73660D01*
G02X901700Y-80010I-6350J0D01*
G01X857250D01*
G37*
G36*
G01X749300Y1202690D02*
G02X742950Y1209040I0J6350D01*
G01Y1221740D01*
G02X749300Y1228090I6350J0D01*
G01X790180D01*
G02X791430Y1226840I0J-1250D01*
G01Y1203940D01*
G02X790180Y1202690I-1250J0D01*
G01X749300D01*
G37*
G36*
G01Y1304290D02*
G02X742950Y1310640I0J6350D01*
G01Y1323340D01*
G02X749300Y1329690I6350J0D01*
G01X792210D01*
G02X793320Y1329010I-3J-1250D01*
G01X794500Y1326720D01*
X794440Y1326020D01*
X794240Y1325730D01*
G03Y1308250I12210J-8740D01*
G01X794440Y1307960D01*
X794500Y1307260D01*
X793320Y1304970D01*
G02X792210Y1304290I-1113J570D01*
G01X749300D01*
G37*
G36*
G01Y1405890D02*
G02X742950Y1412240I0J6350D01*
G01Y1424940D01*
G02X749300Y1431290I6350J0D01*
G01X792210D01*
G02X793320Y1430610I-3J-1250D01*
G01X794500Y1428320D01*
X794440Y1427620D01*
X794240Y1427330D01*
G03Y1409850I12210J-8740D01*
G01X794440Y1409560D01*
X794500Y1408860D01*
X793320Y1406570D01*
G02X792210Y1405890I-1113J570D01*
G01X749300D01*
G37*
G36*
G01Y1507490D02*
G02X742950Y1513840I0J6350D01*
G01Y1526540D01*
G02X749300Y1532890I6350J0D01*
G01X792210D01*
G02X793320Y1532210I-3J-1250D01*
G01X794500Y1529920D01*
X794440Y1529220D01*
X794240Y1528930D01*
G03Y1511450I12210J-8740D01*
G01X794440Y1511160D01*
X794500Y1510460D01*
X793320Y1508170D01*
G02X792210Y1507490I-1113J570D01*
G01X749300D01*
G37*
G36*
G01Y1609090D02*
G02X742950Y1615440I0J6350D01*
G01Y1628140D01*
G02X749300Y1634490I6350J0D01*
G01X792210D01*
G02X793320Y1633810I-3J-1250D01*
G01X794500Y1631520D01*
X794440Y1630820D01*
X794240Y1630530D01*
G03Y1613050I12210J-8740D01*
G01X794440Y1612760D01*
X794500Y1612060D01*
X793320Y1609770D01*
G02X792210Y1609090I-1113J570D01*
G01X749300D01*
G37*
G36*
G01Y1710690D02*
G02X742950Y1717040I0J6350D01*
G01Y1729740D01*
G02X749300Y1736090I6350J0D01*
G01X792210D01*
G02X793320Y1735410I-3J-1250D01*
G01X794500Y1733120D01*
X794440Y1732420D01*
X794240Y1732130D01*
G03Y1714650I12210J-8740D01*
G01X794440Y1714360D01*
X794500Y1713660D01*
X793320Y1711370D01*
G02X792210Y1710690I-1113J570D01*
G01X749300D01*
G37*
G36*
G01Y1812290D02*
G02X742950Y1818640I0J6350D01*
G01Y1831340D01*
G02X749300Y1837690I6350J0D01*
G01X792210D01*
G02X793320Y1837010I-3J-1250D01*
G01X794500Y1834720D01*
X794440Y1834020D01*
X794240Y1833730D01*
G03Y1816250I12210J-8740D01*
G01X794440Y1815960D01*
X794500Y1815260D01*
X793320Y1812970D01*
G02X792210Y1812290I-1113J570D01*
G01X749300D01*
G37*
G36*
G01Y1913890D02*
G02X742950Y1920240I0J6350D01*
G01Y1932940D01*
G02X749300Y1939290I6350J0D01*
G01X792210D01*
G02X793320Y1938610I-3J-1250D01*
G01X794500Y1936320D01*
X794440Y1935620D01*
X794240Y1935330D01*
G03Y1917850I12210J-8740D01*
G01X794440Y1917560D01*
X794500Y1916860D01*
X793320Y1914570D01*
G02X792210Y1913890I-1113J570D01*
G01X749300D01*
G37*
G36*
G01X821470Y130790D02*
Y153690D01*
G02X822720Y154940I1250J0D01*
G01X831850D01*
G02X838200Y148590I0J-6350D01*
G01Y135890D01*
G02X831850Y129540I-6350J0D01*
G01X822720D01*
G02X821470Y130790I0J1250D01*
G37*
G36*
G01X818460Y184010D02*
X818660Y184300D01*
G03Y201780I-12210J8740D01*
G01X818460Y202070D01*
X818400Y202770D01*
X819580Y205060D01*
G02X820690Y205740I1113J-570D01*
G01X831850D01*
G02X838200Y199390I0J-6350D01*
G01Y186690D01*
G02X831850Y180340I-6350J0D01*
G01X820690D01*
G02X819580Y181020I3J1250D01*
G01X818400Y183310D01*
X818460Y184010D01*
G37*
G36*
G01Y234810D02*
X818660Y235100D01*
G03Y252580I-12210J8740D01*
G01X818460Y252870D01*
X818400Y253570D01*
X819580Y255860D01*
G02X820690Y256540I1113J-570D01*
G01X831850D01*
G02X838200Y250190I0J-6350D01*
G01Y237490D01*
G02X831850Y231140I-6350J0D01*
G01X820690D01*
G02X819580Y231820I3J1250D01*
G01X818400Y234110D01*
X818460Y234810D01*
G37*
G36*
G01Y285610D02*
X818660Y285900D01*
G03Y303380I-12210J8740D01*
G01X818460Y303670D01*
X818400Y304370D01*
X819580Y306660D01*
G02X820690Y307340I1113J-570D01*
G01X831850D01*
G02X838200Y300990I0J-6350D01*
G01Y288290D01*
G02X831850Y281940I-6350J0D01*
G01X820690D01*
G02X819580Y282620I3J1250D01*
G01X818400Y284910D01*
X818460Y285610D01*
G37*
G36*
G01Y336410D02*
X818660Y336700D01*
G03Y354180I-12210J8740D01*
G01X818460Y354470D01*
X818400Y355170D01*
X819580Y357460D01*
G02X820690Y358140I1113J-570D01*
G01X831850D01*
G02X838200Y351790I0J-6350D01*
G01Y339090D01*
G02X831850Y332740I-6350J0D01*
G01X820690D01*
G02X819580Y333420I3J1250D01*
G01X818400Y335710D01*
X818460Y336410D01*
G37*
G36*
G01Y387210D02*
X818660Y387500D01*
G03Y404980I-12210J8740D01*
G01X818460Y405270D01*
X818400Y405970D01*
X819580Y408260D01*
G02X820690Y408940I1113J-570D01*
G01X831850D01*
G02X838200Y402590I0J-6350D01*
G01Y389890D01*
G02X831850Y383540I-6350J0D01*
G01X820690D01*
G02X819580Y384220I3J1250D01*
G01X818400Y386510D01*
X818460Y387210D01*
G37*
G36*
G01Y438010D02*
X818660Y438300D01*
G03Y455780I-12210J8740D01*
G01X818460Y456070D01*
X818400Y456770D01*
X819580Y459060D01*
G02X820690Y459740I1113J-570D01*
G01X831850D01*
G02X838200Y453390I0J-6350D01*
G01Y440690D01*
G02X831850Y434340I-6350J0D01*
G01X820690D01*
G02X819580Y435020I3J1250D01*
G01X818400Y437310D01*
X818460Y438010D01*
G37*
G36*
G01Y488810D02*
X818660Y489100D01*
G03Y506580I-12210J8740D01*
G01X818460Y506870D01*
X818400Y507570D01*
X819580Y509860D01*
G02X820690Y510540I1113J-570D01*
G01X831850D01*
G02X838200Y504190I0J-6350D01*
G01Y491490D01*
G02X831850Y485140I-6350J0D01*
G01X820690D01*
G02X819580Y485820I3J1250D01*
G01X818400Y488110D01*
X818460Y488810D01*
G37*
G36*
G01Y539610D02*
X818660Y539900D01*
G03Y557380I-12210J8740D01*
G01X818460Y557670D01*
X818400Y558370D01*
X819580Y560660D01*
G02X820690Y561340I1113J-570D01*
G01X831850D01*
G02X838200Y554990I0J-6350D01*
G01Y542290D01*
G02X831850Y535940I-6350J0D01*
G01X820690D01*
G02X819580Y536620I3J1250D01*
G01X818400Y538910D01*
X818460Y539610D01*
G37*
G36*
G01Y590410D02*
X818660Y590700D01*
G03Y608180I-12210J8740D01*
G01X818460Y608470D01*
X818400Y609170D01*
X819580Y611460D01*
G02X820690Y612140I1113J-570D01*
G01X831850D01*
G02X838200Y605790I0J-6350D01*
G01Y593090D01*
G02X831850Y586740I-6350J0D01*
G01X820690D01*
G02X819580Y587420I3J1250D01*
G01X818400Y589710D01*
X818460Y590410D01*
G37*
G36*
G01Y641210D02*
X818660Y641500D01*
G03Y658980I-12210J8740D01*
G01X818460Y659270D01*
X818400Y659970D01*
X819580Y662260D01*
G02X820690Y662940I1113J-570D01*
G01X831850D01*
G02X838200Y656590I0J-6350D01*
G01Y643890D01*
G02X831850Y637540I-6350J0D01*
G01X820690D01*
G02X819580Y638220I3J1250D01*
G01X818400Y640510D01*
X818460Y641210D01*
G37*
G36*
G01Y692010D02*
X818660Y692300D01*
G03Y709780I-12210J8740D01*
G01X818460Y710070D01*
X818400Y710770D01*
X819580Y713060D01*
G02X820690Y713740I1113J-570D01*
G01X831850D01*
G02X838200Y707390I0J-6350D01*
G01Y694690D01*
G02X831850Y688340I-6350J0D01*
G01X820690D01*
G02X819580Y689020I3J1250D01*
G01X818400Y691310D01*
X818460Y692010D01*
G37*
G36*
G01Y742810D02*
X818660Y743100D01*
G03Y760580I-12210J8740D01*
G01X818460Y760870D01*
X818400Y761570D01*
X819580Y763860D01*
G02X820690Y764540I1113J-570D01*
G01X831850D01*
G02X838200Y758190I0J-6350D01*
G01Y745490D01*
G02X831850Y739140I-6350J0D01*
G01X820690D01*
G02X819580Y739820I3J1250D01*
G01X818400Y742110D01*
X818460Y742810D01*
G37*
G36*
G01Y793610D02*
X818660Y793900D01*
G03Y811380I-12210J8740D01*
G01X818460Y811670D01*
X818400Y812370D01*
X819580Y814660D01*
G02X820690Y815340I1113J-570D01*
G01X831850D01*
G02X838200Y808990I0J-6350D01*
G01Y796290D01*
G02X831850Y789940I-6350J0D01*
G01X820690D01*
G02X819580Y790620I3J1250D01*
G01X818400Y792910D01*
X818460Y793610D01*
G37*
G36*
G01Y844410D02*
X818660Y844700D01*
G03Y862180I-12210J8740D01*
G01X818460Y862470D01*
X818400Y863170D01*
X819580Y865460D01*
G02X820690Y866140I1113J-570D01*
G01X831850D01*
G02X838200Y859790I0J-6350D01*
G01Y847090D01*
G02X831850Y840740I-6350J0D01*
G01X820690D01*
G02X819580Y841420I3J1250D01*
G01X818400Y843710D01*
X818460Y844410D01*
G37*
G36*
G01Y895210D02*
X818660Y895500D01*
G03Y912980I-12210J8740D01*
G01X818460Y913270D01*
X818400Y913970D01*
X819580Y916260D01*
G02X820690Y916940I1113J-570D01*
G01X831850D01*
G02X838200Y910590I0J-6350D01*
G01Y897890D01*
G02X831850Y891540I-6350J0D01*
G01X820690D01*
G02X819580Y892220I3J1250D01*
G01X818400Y894510D01*
X818460Y895210D01*
G37*
G36*
G01X821470Y1203940D02*
Y1226840D01*
G02X822720Y1228090I1250J0D01*
G01X831850D01*
G02X838200Y1221740I0J-6350D01*
G01Y1209040D01*
G02X831850Y1202690I-6350J0D01*
G01X822720D01*
G02X821470Y1203940I0J1250D01*
G37*
G36*
G01X818460Y1257160D02*
X818660Y1257450D01*
G03Y1274930I-12210J8740D01*
G01X818460Y1275220D01*
X818400Y1275920D01*
X819580Y1278210D01*
G02X820690Y1278890I1113J-570D01*
G01X831850D01*
G02X838200Y1272540I0J-6350D01*
G01Y1259840D01*
G02X831850Y1253490I-6350J0D01*
G01X820690D01*
G02X819580Y1254170I3J1250D01*
G01X818400Y1256460D01*
X818460Y1257160D01*
G37*
G36*
G01Y1307960D02*
X818660Y1308250D01*
G03Y1325730I-12210J8740D01*
G01X818460Y1326020D01*
X818400Y1326720D01*
X819580Y1329010D01*
G02X820690Y1329690I1113J-570D01*
G01X831850D01*
G02X838200Y1323340I0J-6350D01*
G01Y1310640D01*
G02X831850Y1304290I-6350J0D01*
G01X820690D01*
G02X819580Y1304970I3J1250D01*
G01X818400Y1307260D01*
X818460Y1307960D01*
G37*
G36*
G01Y1358760D02*
X818660Y1359050D01*
G03Y1376530I-12210J8740D01*
G01X818460Y1376820D01*
X818400Y1377520D01*
X819580Y1379810D01*
G02X820690Y1380490I1113J-570D01*
G01X831850D01*
G02X838200Y1374140I0J-6350D01*
G01Y1361440D01*
G02X831850Y1355090I-6350J0D01*
G01X820690D01*
G02X819580Y1355770I3J1250D01*
G01X818400Y1358060D01*
X818460Y1358760D01*
G37*
G36*
G01Y1409560D02*
X818660Y1409850D01*
G03Y1427330I-12210J8740D01*
G01X818460Y1427620D01*
X818400Y1428320D01*
X819580Y1430610D01*
G02X820690Y1431290I1113J-570D01*
G01X831850D01*
G02X838200Y1424940I0J-6350D01*
G01Y1412240D01*
G02X831850Y1405890I-6350J0D01*
G01X820690D01*
G02X819580Y1406570I3J1250D01*
G01X818400Y1408860D01*
X818460Y1409560D01*
G37*
G36*
G01Y1460360D02*
X818660Y1460650D01*
G03Y1478130I-12210J8740D01*
G01X818460Y1478420D01*
X818400Y1479120D01*
X819580Y1481410D01*
G02X820690Y1482090I1113J-570D01*
G01X831850D01*
G02X838200Y1475740I0J-6350D01*
G01Y1463040D01*
G02X831850Y1456690I-6350J0D01*
G01X820690D01*
G02X819580Y1457370I3J1250D01*
G01X818400Y1459660D01*
X818460Y1460360D01*
G37*
G36*
G01Y1511160D02*
X818660Y1511450D01*
G03Y1528930I-12210J8740D01*
G01X818460Y1529220D01*
X818400Y1529920D01*
X819580Y1532210D01*
G02X820690Y1532890I1113J-570D01*
G01X831850D01*
G02X838200Y1526540I0J-6350D01*
G01Y1513840D01*
G02X831850Y1507490I-6350J0D01*
G01X820690D01*
G02X819580Y1508170I3J1250D01*
G01X818400Y1510460D01*
X818460Y1511160D01*
G37*
G36*
G01Y1561960D02*
X818660Y1562250D01*
G03Y1579730I-12210J8740D01*
G01X818460Y1580020D01*
X818400Y1580720D01*
X819580Y1583010D01*
G02X820690Y1583690I1113J-570D01*
G01X831850D01*
G02X838200Y1577340I0J-6350D01*
G01Y1564640D01*
G02X831850Y1558290I-6350J0D01*
G01X820690D01*
G02X819580Y1558970I3J1250D01*
G01X818400Y1561260D01*
X818460Y1561960D01*
G37*
G36*
G01Y1612760D02*
X818660Y1613050D01*
G03Y1630530I-12210J8740D01*
G01X818460Y1630820D01*
X818400Y1631520D01*
X819580Y1633810D01*
G02X820690Y1634490I1113J-570D01*
G01X831850D01*
G02X838200Y1628140I0J-6350D01*
G01Y1615440D01*
G02X831850Y1609090I-6350J0D01*
G01X820690D01*
G02X819580Y1609770I3J1250D01*
G01X818400Y1612060D01*
X818460Y1612760D01*
G37*
G36*
G01Y1663560D02*
X818660Y1663850D01*
G03Y1681330I-12210J8740D01*
G01X818460Y1681620D01*
X818400Y1682320D01*
X819580Y1684610D01*
G02X820690Y1685290I1113J-570D01*
G01X831850D01*
G02X838200Y1678940I0J-6350D01*
G01Y1666240D01*
G02X831850Y1659890I-6350J0D01*
G01X820690D01*
G02X819580Y1660570I3J1250D01*
G01X818400Y1662860D01*
X818460Y1663560D01*
G37*
G36*
G01Y1714360D02*
X818660Y1714650D01*
G03Y1732130I-12210J8740D01*
G01X818460Y1732420D01*
X818400Y1733120D01*
X819580Y1735410D01*
G02X820690Y1736090I1113J-570D01*
G01X831850D01*
G02X838200Y1729740I0J-6350D01*
G01Y1717040D01*
G02X831850Y1710690I-6350J0D01*
G01X820690D01*
G02X819580Y1711370I3J1250D01*
G01X818400Y1713660D01*
X818460Y1714360D01*
G37*
G36*
G01Y1765160D02*
X818660Y1765450D01*
G03Y1782930I-12210J8740D01*
G01X818460Y1783220D01*
X818400Y1783920D01*
X819580Y1786210D01*
G02X820690Y1786890I1113J-570D01*
G01X831850D01*
G02X838200Y1780540I0J-6350D01*
G01Y1767840D01*
G02X831850Y1761490I-6350J0D01*
G01X820690D01*
G02X819580Y1762170I3J1250D01*
G01X818400Y1764460D01*
X818460Y1765160D01*
G37*
G36*
G01Y1815960D02*
X818660Y1816250D01*
G03Y1833730I-12210J8740D01*
G01X818460Y1834020D01*
X818400Y1834720D01*
X819580Y1837010D01*
G02X820690Y1837690I1113J-570D01*
G01X831850D01*
G02X838200Y1831340I0J-6350D01*
G01Y1818640D01*
G02X831850Y1812290I-6350J0D01*
G01X820690D01*
G02X819580Y1812970I3J1250D01*
G01X818400Y1815260D01*
X818460Y1815960D01*
G37*
G36*
G01Y1866760D02*
X818660Y1867050D01*
G03Y1884530I-12210J8740D01*
G01X818460Y1884820D01*
X818400Y1885520D01*
X819580Y1887810D01*
G02X820690Y1888490I1113J-570D01*
G01X831850D01*
G02X838200Y1882140I0J-6350D01*
G01Y1869440D01*
G02X831850Y1863090I-6350J0D01*
G01X820690D01*
G02X819580Y1863770I3J1250D01*
G01X818400Y1866060D01*
X818460Y1866760D01*
G37*
G36*
G01Y1917560D02*
X818660Y1917850D01*
G03Y1935330I-12210J8740D01*
G01X818460Y1935620D01*
X818400Y1936320D01*
X819580Y1938610D01*
G02X820690Y1939290I1113J-570D01*
G01X831850D01*
G02X838200Y1932940I0J-6350D01*
G01Y1920240D01*
G02X831850Y1913890I-6350J0D01*
G01X820690D01*
G02X819580Y1914570I3J1250D01*
G01X818400Y1916860D01*
X818460Y1917560D01*
G37*
G36*
G01Y1968360D02*
X818660Y1968650D01*
G03Y1986130I-12210J8740D01*
G01X818460Y1986420D01*
X818400Y1987120D01*
X819580Y1989410D01*
G02X820690Y1990090I1113J-570D01*
G01X831850D01*
G02X838200Y1983740I0J-6350D01*
G01Y1971040D01*
G02X831850Y1964690I-6350J0D01*
G01X820690D01*
G02X819580Y1965370I3J1250D01*
G01X818400Y1967660D01*
X818460Y1968360D01*
G37*
G36*
G01X404660Y138700D02*
X407140Y136240D01*
X414400Y142240D01*
X407140Y148240D01*
X404660Y145780D01*
G03Y138700I3540J-3540D01*
G37*
G36*
G01Y240300D02*
X407140Y237840D01*
X414400Y243840D01*
X407140Y249840D01*
X404660Y247380D01*
G03Y240300I3540J-3540D01*
G37*
G36*
G01Y341900D02*
X407140Y339440D01*
X414400Y345440D01*
X407140Y351440D01*
X404660Y348980D01*
G03Y341900I3540J-3540D01*
G37*
G36*
G01Y443500D02*
X407140Y441040D01*
X414400Y447040D01*
X407140Y453040D01*
X404660Y450580D01*
G03Y443500I3540J-3540D01*
G37*
G36*
G01Y545100D02*
X407140Y542640D01*
X414400Y548640D01*
X407140Y554640D01*
X404660Y552180D01*
G03Y545100I3540J-3540D01*
G37*
G36*
G01Y646700D02*
X407140Y644240D01*
X414400Y650240D01*
X407140Y656240D01*
X404660Y653780D01*
G03Y646700I3540J-3540D01*
G37*
G36*
G01Y748300D02*
X407140Y745840D01*
X414400Y751840D01*
X407140Y757840D01*
X404660Y755380D01*
G03Y748300I3540J-3540D01*
G37*
G36*
G01Y849900D02*
X407140Y847440D01*
X414400Y853440D01*
X407140Y859440D01*
X404660Y856980D01*
G03Y849900I3540J-3540D01*
G37*
G36*
G01Y1211850D02*
X407140Y1209390D01*
X414400Y1215390D01*
X407140Y1221390D01*
X404660Y1218930D01*
G03Y1211850I3540J-3540D01*
G37*
G36*
G01Y1313450D02*
X407140Y1310990D01*
X414400Y1316990D01*
X407140Y1322990D01*
X404660Y1320530D01*
G03Y1313450I3540J-3540D01*
G37*
G36*
G01Y1415050D02*
X407140Y1412590D01*
X414400Y1418590D01*
X407140Y1424590D01*
X404660Y1422130D01*
G03Y1415050I3540J-3540D01*
G37*
G36*
G01Y1516650D02*
X407140Y1514190D01*
X414400Y1520190D01*
X407140Y1526190D01*
X404660Y1523730D01*
G03Y1516650I3540J-3540D01*
G37*
G36*
G01Y1618250D02*
X407140Y1615790D01*
X414400Y1621790D01*
X407140Y1627790D01*
X404660Y1625330D01*
G03Y1618250I3540J-3540D01*
G37*
G36*
G01Y1719850D02*
X407140Y1717390D01*
X414400Y1723390D01*
X407140Y1729390D01*
X404660Y1726930D01*
G03Y1719850I3540J-3540D01*
G37*
G36*
G01Y1821450D02*
X407140Y1818990D01*
X414400Y1824990D01*
X407140Y1830990D01*
X404660Y1828530D01*
G03Y1821450I3540J-3540D01*
G37*
G36*
G01Y1923050D02*
X407140Y1920590D01*
X414400Y1926590D01*
X407140Y1932590D01*
X404660Y1930130D01*
G03Y1923050I3540J-3540D01*
G37*
G54D10*
X-76200Y-50800D03*
Y838200D03*
X889200Y-50800D03*
Y2171700D03*
G54D20*
X99200Y180340D03*
X116700D03*
X99200Y281940D03*
X116700D03*
X99200Y383540D03*
X116700D03*
X99200Y485140D03*
X116700D03*
X99200Y586740D03*
X116700D03*
X99200Y688340D03*
X116700D03*
X99200Y789940D03*
X116700D03*
X99200Y891540D03*
X116700D03*
X99200Y1253490D03*
X116700D03*
X99200Y1355090D03*
X116700D03*
X99200Y1456690D03*
X116700D03*
X99200Y1558290D03*
X116700D03*
X99200Y1659890D03*
X116700D03*
X99200Y1761490D03*
X116700D03*
X99200Y1863090D03*
X116700D03*
X99200Y1964690D03*
X116700D03*
G54D11*
G01X385700Y142240D02*
X413150D01*
G01X385700Y193040D02*
X412750D01*
G01X385700Y243840D02*
X413150D01*
G01X385700Y294640D02*
X412750D01*
G01X385700Y345440D02*
X413150D01*
G01X385700Y396240D02*
X412750D01*
G01X385700Y447040D02*
X413150D01*
G01X385700Y497840D02*
X412750D01*
G01X385700Y548640D02*
X413150D01*
G01X385700Y599440D02*
X412750D01*
G01X385700Y650240D02*
X413150D01*
G01X385700Y701040D02*
X412750D01*
G01X385700Y751840D02*
X413150D01*
G01X385700Y802640D02*
X412750D01*
G01X385700Y853440D02*
X413150D01*
G01X385700Y904240D02*
X412750D01*
G01X385700Y1215390D02*
X413150D01*
G01X385700Y1266190D02*
X412750D01*
G01X385700Y1316990D02*
X413150D01*
G01X385700Y1367790D02*
X412750D01*
G01X385700Y1418590D02*
X413150D01*
G01X385700Y1469390D02*
X412750D01*
G01X385700Y1520190D02*
X413150D01*
G01X385700Y1570990D02*
X412750D01*
G01X385700Y1621790D02*
X413150D01*
G01X385700Y1672590D02*
X412750D01*
G01X385700Y1723390D02*
X413150D01*
G01X385700Y1774190D02*
X412750D01*
G01X385700Y1824990D02*
X413150D01*
G01X385700Y1875790D02*
X412750D01*
G01X385700Y1926590D02*
X413150D01*
G01X385700Y1977390D02*
X412750D01*
G01X709550Y142240D02*
X698500D01*
G02X685800Y154940I0J12700D01*
G03X681310Y165780I-15330J0D01*
G01X671920Y175160D01*
G02X667150Y186690I11533J11523D01*
G01Y193040D01*
G01X709550Y243840D02*
X698500D01*
G02X685800Y256540I0J12700D01*
G03X681310Y267380I-15330J0D01*
G01X671920Y276760D01*
G02X667150Y288290I11533J11523D01*
G01Y294640D01*
G01X709550Y345440D02*
X698500D01*
G02X685800Y358140I0J12700D01*
G03X681310Y368980I-15330J0D01*
G01X671920Y378360D01*
G02X667150Y389890I11533J11523D01*
G01Y396240D01*
G01X709550Y447040D02*
X698500D01*
G02X685800Y459740I0J12700D01*
G03X681310Y470580I-15330J0D01*
G01X671920Y479960D01*
G02X667150Y491490I11533J11523D01*
G01Y497840D01*
G01X709550Y548640D02*
X698500D01*
G02X685800Y561340I0J12700D01*
G03X681310Y572180I-15330J0D01*
G01X671920Y581560D01*
G02X667150Y593090I11533J11523D01*
G01Y599440D01*
G01X709550Y650240D02*
X698500D01*
G02X685800Y662940I0J12700D01*
G03X681310Y673780I-15330J0D01*
G01X671920Y683160D01*
G02X667150Y694690I11533J11523D01*
G01Y701040D01*
G01X709550Y751840D02*
X698500D01*
G02X685800Y764540I0J12700D01*
G03X681310Y775380I-15330J0D01*
G01X671920Y784760D01*
G02X667150Y796290I11533J11523D01*
G01Y802640D01*
G01X709550Y853440D02*
X698500D01*
G02X685800Y866140I0J12700D01*
G03X681310Y876980I-15330J0D01*
G01X671920Y886360D01*
G02X667150Y897890I11533J11523D01*
G01Y904240D01*
G01X709550Y1215390D02*
X698500D01*
G02X685800Y1228090I0J12700D01*
G03X681310Y1238930I-15330J0D01*
G01X671920Y1248310D01*
G02X667150Y1259840I11533J11523D01*
G01Y1266190D01*
G01X709550Y1316990D02*
X698500D01*
G02X685800Y1329690I0J12700D01*
G03X681310Y1340530I-15330J0D01*
G01X671920Y1349910D01*
G02X667150Y1361440I11533J11523D01*
G01Y1367790D01*
G01X709550Y1418590D02*
X698500D01*
G02X685800Y1431290I0J12700D01*
G03X681310Y1442130I-15330J0D01*
G01X671920Y1451510D01*
G02X667150Y1463040I11533J11523D01*
G01Y1469390D01*
G01X709550Y1520190D02*
X698500D01*
G02X685800Y1532890I0J12700D01*
G03X681310Y1543730I-15330J0D01*
G01X671920Y1553110D01*
G02X667150Y1564640I11533J11523D01*
G01Y1570990D01*
G01X709550Y1621790D02*
X698500D01*
G02X685800Y1634490I0J12700D01*
G03X681310Y1645330I-15330J0D01*
G01X671920Y1654710D01*
G02X667150Y1666240I11533J11523D01*
G01Y1672590D01*
G01X709550Y1723390D02*
X698500D01*
G02X685800Y1736090I0J12700D01*
G03X681310Y1746930I-15330J0D01*
G01X671920Y1756310D01*
G02X667150Y1767840I11533J11523D01*
G01Y1774190D01*
G01X709550Y1824990D02*
X698500D01*
G02X685800Y1837690I0J12700D01*
G03X681310Y1848530I-15330J0D01*
G01X671920Y1857910D01*
G02X667150Y1869440I11533J11523D01*
G01Y1875790D01*
G01X709550Y1926590D02*
X698500D01*
G02X685800Y1939290I0J12700D01*
G03X681310Y1950130I-15330J0D01*
G01X671920Y1959510D01*
G02X667150Y1971040I11533J11523D01*
G01Y1977390D01*
G01X891200Y120470D02*
Y142240D01*
G01D02*
Y164010D01*
G01Y142240D02*
X902470D01*
G01X891200Y171270D02*
Y193040D01*
G01D02*
Y214810D01*
G01Y193040D02*
X902470D01*
G01X891200Y222070D02*
Y243840D01*
G01D02*
Y265610D01*
G01Y243840D02*
X902470D01*
G01X891200Y272870D02*
Y294640D01*
G01D02*
Y316410D01*
G01Y294640D02*
X902470D01*
G01X891200Y323670D02*
Y345440D01*
G01D02*
Y367210D01*
G01Y345440D02*
X902470D01*
G01X891200Y374470D02*
Y396240D01*
G01D02*
Y418010D01*
G01Y396240D02*
X902470D01*
G01X891200Y425270D02*
Y447040D01*
G01D02*
Y468810D01*
G01Y447040D02*
X902470D01*
G01X891200Y476070D02*
Y497840D01*
G01D02*
Y519610D01*
G01Y497840D02*
X902470D01*
G01X891200Y526870D02*
Y548640D01*
G01D02*
Y570410D01*
G01Y548640D02*
X902470D01*
G01X891200Y577670D02*
Y599440D01*
G01D02*
Y621210D01*
G01Y599440D02*
X902470D01*
G01X891200Y628470D02*
Y650240D01*
G01D02*
Y672010D01*
G01Y650240D02*
X902470D01*
G01X891200Y679270D02*
Y701040D01*
G01D02*
Y722810D01*
G01Y701040D02*
X902470D01*
G01X891200Y730070D02*
Y751840D01*
G01D02*
Y773610D01*
G01Y751840D02*
X902470D01*
G01X891200Y780870D02*
Y802640D01*
G01D02*
Y824410D01*
G01Y802640D02*
X902470D01*
G01X891200Y831670D02*
Y853440D01*
G01D02*
Y875210D01*
G01Y853440D02*
X902470D01*
G01X891200Y882470D02*
Y904240D01*
G01D02*
Y926010D01*
G01Y904240D02*
X902470D01*
G01X891200Y1193620D02*
Y1215390D01*
G01D02*
Y1237160D01*
G01Y1215390D02*
X902470D01*
G01X891200Y1244420D02*
Y1266190D01*
G01D02*
Y1287960D01*
G01Y1266190D02*
X902470D01*
G01X891200Y1295220D02*
Y1316990D01*
G01D02*
Y1338760D01*
G01Y1316990D02*
X902470D01*
G01X891200Y1346020D02*
Y1367790D01*
G01D02*
Y1389560D01*
G01Y1367790D02*
X902470D01*
G01X891200Y1396820D02*
Y1418590D01*
G01D02*
Y1440360D01*
G01Y1418590D02*
X902470D01*
G01X891200Y1447620D02*
Y1469390D01*
G01D02*
Y1491160D01*
G01Y1469390D02*
X902470D01*
G01X891200Y1498420D02*
Y1520190D01*
G01D02*
Y1541960D01*
G01Y1520190D02*
X902470D01*
G01X891200Y1549220D02*
Y1570990D01*
G01D02*
Y1592760D01*
G01Y1570990D02*
X902470D01*
G01X891200Y1600020D02*
Y1621790D01*
G01D02*
Y1643560D01*
G01Y1621790D02*
X902470D01*
G01X891200Y1650820D02*
Y1672590D01*
G01D02*
Y1694360D01*
G01Y1672590D02*
X902470D01*
G01X891200Y1701620D02*
Y1723390D01*
G01D02*
Y1745160D01*
G01Y1723390D02*
X902470D01*
G01X891200Y1752420D02*
Y1774190D01*
G01D02*
Y1795960D01*
G01Y1774190D02*
X902470D01*
G01X891200Y1803220D02*
Y1824990D01*
G01D02*
Y1846760D01*
G01Y1824990D02*
X902470D01*
G01X891200Y1854020D02*
Y1875790D01*
G01D02*
Y1897560D01*
G01Y1875790D02*
X902470D01*
G01X891200Y1904820D02*
Y1926590D01*
G01D02*
Y1948360D01*
G01Y1926590D02*
X902470D01*
G01X891200Y1955620D02*
Y1977390D01*
G01D02*
Y1999160D01*
G01Y1977390D02*
X902470D01*
X-76200Y2110740D03*
X-25400Y-48260D03*
X857250Y8890D03*
Y2110740D03*
G54D30*
G01X0Y0D02*
Y-12700D01*
G02X-6350Y-19050I-6350J0D01*
G01X-44450D01*
G02X-50800Y-12700I0J6350D01*
G01Y0D01*
G01X-44450Y993550D02*
Y831850D01*
G02X-48940Y821010I-15330J0D01*
G01X-62730Y807220D01*
G03X-76200Y774700I32521J-32520D01*
G01Y12700D01*
G03X-63500Y0I12700J0D01*
G01X-50800D01*
G01X-44450Y1013050D02*
X-20050D01*
X-19050Y1012050D01*
G01X-48100Y1046350D02*
Y1060450D01*
X-48000Y1060550D01*
G01Y1078050D02*
Y1091400D01*
G01X-38100Y1098550D02*
X-25400Y1085850D01*
G02X-19050Y1070520I-15330J-15330D01*
G01Y1012050D01*
G01X-6350Y868100D02*
Y874250D01*
G03X-12700Y880600I-6350J0D01*
G01X-19050Y868100D02*
Y874250D01*
G02X-12700Y880600I6350J0D01*
G01X-19050Y922600D02*
Y916450D01*
G03X-12700Y910100I6350J0D01*
G01D02*
G03X-6350Y916450I0J6350D01*
G01Y922600D01*
G01X-19050Y994550D02*
Y982050D01*
G01X116700Y180340D02*
Y191060D01*
G03X114300Y196850I-8190J-2D01*
G01X121150Y161290D02*
G02X116700Y172030I10740J10742D01*
G01Y180340D01*
G01X99200D02*
Y191060D01*
G02X101600Y196850I8190J-2D01*
G01X116700Y281940D02*
Y292660D01*
G03X114300Y298450I-8190J-2D01*
G01X121150Y262890D02*
G02X116700Y273630I10740J10742D01*
G01Y281940D01*
G01X99200D02*
Y292660D01*
G02X101600Y298450I8190J-2D01*
G01X116700Y383540D02*
Y394260D01*
G03X114300Y400050I-8190J-2D01*
G01X121150Y364490D02*
G02X116700Y375230I10740J10742D01*
G01Y383540D01*
G01X99200D02*
Y394260D01*
G02X101600Y400050I8190J-2D01*
G01X116700Y485140D02*
Y495860D01*
G03X114300Y501650I-8190J-2D01*
G01X121150Y466090D02*
G02X116700Y476830I10740J10742D01*
G01Y485140D01*
G01X99200D02*
Y495860D01*
G02X101600Y501650I8190J-2D01*
G01X116700Y586740D02*
Y597460D01*
G03X114300Y603250I-8190J-2D01*
G01X121150Y567690D02*
G02X116700Y578430I10740J10742D01*
G01Y586740D01*
G01X99200D02*
Y597460D01*
G02X101600Y603250I8190J-2D01*
G01X116700Y688340D02*
Y699060D01*
G03X114300Y704850I-8190J-2D01*
G01X121150Y669290D02*
G02X116700Y680030I10740J10742D01*
G01Y688340D01*
G01X99200D02*
Y699060D01*
G02X101600Y704850I8190J-2D01*
G01X116700Y789940D02*
Y800660D01*
G03X114300Y806450I-8190J-2D01*
G01X121150Y770890D02*
G02X116700Y781630I10740J10742D01*
G01Y789940D01*
G01X99200D02*
Y800660D01*
G02X101600Y806450I8190J-2D01*
G01X116700Y891540D02*
Y902260D01*
G03X114300Y908050I-8190J-2D01*
G01X121150Y872490D02*
G02X116700Y883230I10740J10742D01*
G01Y891540D01*
G01X99200D02*
Y902260D01*
G02X101600Y908050I8190J-2D01*
G01X116700Y1253490D02*
Y1264210D01*
G03X114300Y1270000I-8190J-2D01*
G01X121150Y1234440D02*
G02X116700Y1245180I10740J10742D01*
G01Y1253490D01*
G01X99200D02*
Y1264210D01*
G02X101600Y1270000I8190J-2D01*
G01X116700Y1355090D02*
Y1365810D01*
G03X114300Y1371600I-8190J-2D01*
G01X121150Y1336040D02*
G02X116700Y1346780I10740J10742D01*
G01Y1355090D01*
G01X99200D02*
Y1365810D01*
G02X101600Y1371600I8190J-2D01*
G01X116700Y1456690D02*
Y1467410D01*
G03X114300Y1473200I-8190J-2D01*
G01X121150Y1437640D02*
G02X116700Y1448380I10740J10742D01*
G01Y1456690D01*
G01X99200D02*
Y1467410D01*
G02X101600Y1473200I8190J-2D01*
G01X116700Y1558290D02*
Y1569010D01*
G03X114300Y1574800I-8190J-2D01*
G01X121150Y1539240D02*
G02X116700Y1549980I10740J10742D01*
G01Y1558290D01*
G01X99200D02*
Y1569010D01*
G02X101600Y1574800I8190J-2D01*
G01X116700Y1659890D02*
Y1670610D01*
G03X114300Y1676400I-8190J-2D01*
G01X121150Y1640840D02*
G02X116700Y1651580I10740J10742D01*
G01Y1659890D01*
G01X99200D02*
Y1670610D01*
G02X101600Y1676400I8190J-2D01*
G01X116700Y1761490D02*
Y1772210D01*
G03X114300Y1778000I-8190J-2D01*
G01X121150Y1742440D02*
G02X116700Y1753180I10740J10742D01*
G01Y1761490D01*
G01X99200D02*
Y1772210D01*
G02X101600Y1778000I8190J-2D01*
G01X121150Y1844040D02*
G02X116700Y1854780I10740J10742D01*
G01Y1863090D01*
G01D02*
Y1873810D01*
G03X114300Y1879600I-8190J-2D01*
G01X99200Y1863090D02*
Y1873810D01*
G02X101600Y1879600I8190J-2D01*
G01X121150Y1945640D02*
G02X116700Y1956380I10740J10742D01*
G01Y1964690D01*
G01X114300Y1981200D02*
G02X116700Y1975410I-5790J-5792D01*
G01Y1964690D01*
G01X99200D02*
Y1975410D01*
G02X101600Y1981200I8190J-2D01*
G01X121150Y135890D02*
Y126190D01*
G01Y237490D02*
Y227790D01*
G01Y339090D02*
Y329390D01*
G01Y440690D02*
Y430990D01*
G01Y542290D02*
Y532590D01*
G01Y643890D02*
Y634190D01*
G01Y745490D02*
Y735790D01*
G01Y847090D02*
Y837390D01*
G01Y1209040D02*
Y1199340D01*
G01Y1310640D02*
Y1300940D01*
G01Y1412240D02*
Y1402540D01*
G01Y1513840D02*
Y1504140D01*
G01Y1615440D02*
Y1605740D01*
G01Y1717040D02*
Y1707340D01*
G01Y1818640D02*
Y1808940D01*
G01Y1920240D02*
Y1910540D01*
G01X209550Y135710D02*
G03X220090Y140070I7J14903D01*
G01X222250Y142240D01*
G01X183650Y135890D02*
G02X209550Y135710I0J-1863451D01*
G01Y161470D02*
X211980D01*
G03X221050Y170540I0J9070D01*
G01X183650Y161290D02*
G03X209550Y161470I0J1863451D01*
G01X198050Y177190D02*
X191750D01*
G02X184150Y180340I3J10750D01*
G01X198050Y196190D02*
X191750D01*
G03X184150Y193040I3J-10750D01*
G01X209550Y237310D02*
G03X220090Y241670I7J14903D01*
G01X222250Y243840D01*
G01X183650Y237490D02*
G02X209550Y237310I0J-1863451D01*
G01Y263070D02*
X211980D01*
G03X221050Y272140I0J9070D01*
G01X183650Y262890D02*
G03X209550Y263070I0J1863451D01*
G01X198050Y278790D02*
X191750D01*
G02X184150Y281940I3J10750D01*
G01X198050Y297790D02*
X191750D01*
G03X184150Y294640I3J-10750D01*
G01X209550Y338910D02*
G03X220090Y343270I7J14903D01*
G01X222250Y345440D01*
G01X183650Y339090D02*
G02X209550Y338910I0J-1863451D01*
G01Y364670D02*
X211980D01*
G03X221050Y373740I0J9070D01*
G01X183650Y364490D02*
G03X209550Y364670I0J1863451D01*
G01X198050Y380390D02*
X191750D01*
G02X184150Y383540I3J10750D01*
G01X198050Y399390D02*
X191750D01*
G03X184150Y396240I3J-10750D01*
G01X209550Y440510D02*
G03X220090Y444870I7J14903D01*
G01X222250Y447040D01*
G01X183650Y440690D02*
G02X209550Y440510I0J-1863451D01*
G01Y466270D02*
X211980D01*
G03X221050Y475340I0J9070D01*
G01X183650Y466090D02*
G03X209550Y466270I0J1863451D01*
G01X198050Y500990D02*
X191750D01*
G03X184150Y497840I3J-10750D01*
G01X198050Y481990D02*
X191750D01*
G02X184150Y485140I3J10750D01*
G01X209550Y542110D02*
G03X220090Y546470I7J14903D01*
G01X222250Y548640D01*
G01X183650Y542290D02*
G02X209550Y542110I0J-1863451D01*
G01Y567870D02*
X211980D01*
G03X221050Y576940I0J9070D01*
G01X183650Y567690D02*
G03X209550Y567870I0J1863451D01*
G01X198050Y583590D02*
X191750D01*
G02X184150Y586740I3J10750D01*
G01X198050Y602590D02*
X191750D01*
G03X184150Y599440I3J-10750D01*
G01X209550Y643710D02*
G03X220090Y648070I7J14903D01*
G01X222250Y650240D01*
G01X183650Y643890D02*
G02X209550Y643710I0J-1863451D01*
G01Y669470D02*
X211980D01*
G03X221050Y678540I0J9070D01*
G01X183650Y669290D02*
G03X209550Y669470I0J1863451D01*
G01X198050Y685190D02*
X191750D01*
G02X184150Y688340I3J10750D01*
G01X198050Y704190D02*
X191750D01*
G03X184150Y701040I3J-10750D01*
G01X209550Y745310D02*
G03X220090Y749670I7J14903D01*
G01X222250Y751840D01*
G01X183650Y745490D02*
G02X209550Y745310I0J-1863451D01*
G01Y771070D02*
X211980D01*
G03X221050Y780140I0J9070D01*
G01X183650Y770890D02*
G03X209550Y771070I0J1863451D01*
G01X198050Y786790D02*
X191750D01*
G02X184150Y789940I3J10750D01*
G01X198050Y805790D02*
X191750D01*
G03X184150Y802640I3J-10750D01*
G01X209550Y846910D02*
G03X220090Y851270I7J14903D01*
G01X222250Y853440D01*
G01X183650Y847090D02*
G02X209550Y846910I0J-1863451D01*
G01Y872670D02*
X211980D01*
G03X221050Y881740I0J9070D01*
G01X183650Y872490D02*
G03X209550Y872670I0J1863451D01*
G01X198050Y907390D02*
X191750D01*
G03X184150Y904240I3J-10750D01*
G01X198050Y888390D02*
X191750D01*
G02X184150Y891540I3J10750D01*
G01X209550Y1208860D02*
G03X220090Y1213220I7J14903D01*
G01X222250Y1215390D01*
G01X183650Y1209040D02*
G02X209550Y1208860I0J-1863451D01*
G01Y1234620D02*
X211980D01*
G03X221050Y1243690I0J9070D01*
G01X183650Y1234440D02*
G03X209550Y1234620I0J1863451D01*
G01X198050Y1250340D02*
X191750D01*
G02X184150Y1253490I3J10750D01*
G01X198050Y1269340D02*
X191750D01*
G03X184150Y1266190I3J-10750D01*
G01X209550Y1310460D02*
G03X220090Y1314820I7J14903D01*
G01X222250Y1316990D01*
G01X183650Y1310640D02*
G02X209550Y1310460I0J-1863451D01*
G01Y1336220D02*
X211980D01*
G03X221050Y1345290I0J9070D01*
G01X183650Y1336040D02*
G03X209550Y1336220I0J1863451D01*
G01X198050Y1351940D02*
X191750D01*
G02X184150Y1355090I3J10750D01*
G01X198050Y1370940D02*
X191750D01*
G03X184150Y1367790I3J-10750D01*
G01X209550Y1412060D02*
G03X220090Y1416420I7J14903D01*
G01X222250Y1418590D01*
G01X183650Y1412240D02*
G02X209550Y1412060I0J-1863451D01*
G01Y1437820D02*
X211980D01*
G03X221050Y1446890I0J9070D01*
G01X183650Y1437640D02*
G03X209550Y1437820I0J1863451D01*
G01X198050Y1453540D02*
X191750D01*
G02X184150Y1456690I3J10750D01*
G01X198050Y1472540D02*
X191750D01*
G03X184150Y1469390I3J-10750D01*
G01X209550Y1513660D02*
G03X220090Y1518020I7J14903D01*
G01X222250Y1520190D01*
G01X183650Y1513840D02*
G02X209550Y1513660I0J-1863451D01*
G01Y1539420D02*
X211980D01*
G03X221050Y1548490I0J9070D01*
G01X183650Y1539240D02*
G03X209550Y1539420I0J1863451D01*
G01X198050Y1555140D02*
X191750D01*
G02X184150Y1558290I3J10750D01*
G01X198050Y1574140D02*
X191750D01*
G03X184150Y1570990I3J-10750D01*
G01X209550Y1641020D02*
X211980D01*
G03X221050Y1650090I0J9070D01*
G01X183650Y1640840D02*
G03X209550Y1641020I0J1863451D01*
G01Y1615260D02*
G03X220090Y1619620I7J14903D01*
G01X222250Y1621790D01*
G01X183650Y1615440D02*
G02X209550Y1615260I0J-1863451D01*
G01X198050Y1656740D02*
X191750D01*
G02X184150Y1659890I3J10750D01*
G01X198050Y1675740D02*
X191750D01*
G03X184150Y1672590I3J-10750D01*
G01X209550Y1742620D02*
X211980D01*
G03X221050Y1751690I0J9070D01*
G01X183650Y1742440D02*
G03X209550Y1742620I0J1863451D01*
G01Y1716860D02*
G03X220090Y1721220I7J14903D01*
G01X222250Y1723390D01*
G01X183650Y1717040D02*
G02X209550Y1716860I0J-1863451D01*
G01X198050Y1758340D02*
X191750D01*
G02X184150Y1761490I3J10750D01*
G01X198050Y1777340D02*
X191750D01*
G03X184150Y1774190I3J-10750D01*
G01X209550Y1844220D02*
X211980D01*
G03X221050Y1853290I0J9070D01*
G01X183650Y1844040D02*
G03X209550Y1844220I0J1863451D01*
G01Y1818460D02*
G03X220090Y1822820I7J14903D01*
G01X222250Y1824990D01*
G01X183650Y1818640D02*
G02X209550Y1818460I0J-1863451D01*
G01X198050Y1859940D02*
X191750D01*
G02X184150Y1863090I3J10750D01*
G01X198050Y1878940D02*
X191750D01*
G03X184150Y1875790I3J-10750D01*
G01X209550Y1945820D02*
X211980D01*
G03X221050Y1954890I0J9070D01*
G01X183650Y1945640D02*
G03X209550Y1945820I0J1863451D01*
G01Y1920060D02*
G03X220090Y1924420I7J14903D01*
G01X222250Y1926590D01*
G01X183650Y1920240D02*
G02X209550Y1920060I0J-1863451D01*
G01X198050Y1980540D02*
X191750D01*
G03X184150Y1977390I3J-10750D01*
G01X198050Y1961540D02*
X191750D01*
G02X184150Y1964690I3J10750D01*
G01X236600Y142240D02*
X246370D01*
G01X236600D02*
X244280Y159510D01*
G01X221050Y186690D02*
Y170540D01*
G01D02*
G03X228050Y167640I7001J7000D01*
G01X237330D01*
G01X236600Y193040D02*
X246370D01*
G01X228920Y175770D02*
X236600Y193040D01*
G01Y243840D02*
X246370D01*
G01X236600D02*
X244280Y261110D01*
G01X221050Y288290D02*
Y272140D01*
G01D02*
G03X228050Y269240I7001J7000D01*
G01X237330D01*
G01X236600Y294640D02*
X246370D01*
G01X228920Y277370D02*
X236600Y294640D01*
G01Y345440D02*
X246370D01*
G01X236600D02*
X244280Y362710D01*
G01X221050Y389890D02*
Y373740D01*
G01D02*
G03X228050Y370840I7001J7000D01*
G01X237330D01*
G01X236600Y396240D02*
X246370D01*
G01X228920Y378970D02*
X236600Y396240D01*
G01Y447040D02*
X246370D01*
G01X236600D02*
X244280Y464310D01*
G01X221050Y491490D02*
Y475340D01*
G01D02*
G03X228050Y472440I7001J7000D01*
G01X237330D01*
G01X236600Y497840D02*
X246370D01*
G01X228920Y480570D02*
X236600Y497840D01*
G01Y548640D02*
X246370D01*
G01X236600D02*
X244280Y565910D01*
G01X221050Y593090D02*
Y576940D01*
G01D02*
G03X228050Y574040I7001J7000D01*
G01X237330D01*
G01X236600Y599440D02*
X246370D01*
G01X228920Y582170D02*
X236600Y599440D01*
G01Y650240D02*
X246370D01*
G01X236600D02*
X244280Y667510D01*
G01X221050Y694690D02*
Y678540D01*
G01D02*
G03X228050Y675640I7001J7000D01*
G01X237330D01*
G01X236600Y701040D02*
X246370D01*
G01X228920Y683770D02*
X236600Y701040D01*
G01Y751840D02*
X246370D01*
G01X236600D02*
X244280Y769110D01*
G01X221050Y796290D02*
Y780140D01*
G01D02*
G03X228050Y777240I7001J7000D01*
G01X237330D01*
G01X236600Y802640D02*
X246370D01*
G01X228920Y785370D02*
X236600Y802640D01*
G01Y853440D02*
X246370D01*
G01X236600D02*
X244280Y870710D01*
G01X221050Y897890D02*
Y881740D01*
G01D02*
G03X228050Y878840I7001J7000D01*
G01X237330D01*
G01X236600Y904240D02*
X246370D01*
G01X228920Y886970D02*
X236600Y904240D01*
G01Y1215390D02*
X246370D01*
G01X236600D02*
X244280Y1232660D01*
G01X221050Y1259840D02*
Y1243690D01*
G01D02*
G03X228050Y1240790I7001J7000D01*
G01X237330D01*
G01X236600Y1266190D02*
X246370D01*
G01X228920Y1248920D02*
X236600Y1266190D01*
G01Y1316990D02*
X246370D01*
G01X236600D02*
X244280Y1334260D01*
G01X221050Y1361440D02*
Y1345290D01*
G01D02*
G03X228050Y1342390I7001J7000D01*
G01X237330D01*
G01X236600Y1367790D02*
X246370D01*
G01X228920Y1350520D02*
X236600Y1367790D01*
G01Y1418590D02*
X246370D01*
G01X236600D02*
X244280Y1435860D01*
G01X221050Y1463040D02*
Y1446890D01*
G01D02*
G03X228050Y1443990I7001J7000D01*
G01X237330D01*
G01X236600Y1469390D02*
X246370D01*
G01X228920Y1452120D02*
X236600Y1469390D01*
G01Y1520190D02*
X246370D01*
G01X236600D02*
X244280Y1537460D01*
G01X221050Y1564640D02*
Y1548490D01*
G01D02*
G03X228050Y1545590I7001J7000D01*
G01X237330D01*
G01X236600Y1570990D02*
X246370D01*
G01X228920Y1553720D02*
X236600Y1570990D01*
G01Y1621790D02*
X246370D01*
G01X236600D02*
X244280Y1639060D01*
G01X221050Y1666240D02*
Y1650090D01*
G01D02*
G03X228050Y1647190I7001J7000D01*
G01X237330D01*
G01X236600Y1672590D02*
X246370D01*
G01X228920Y1655320D02*
X236600Y1672590D01*
G01Y1723390D02*
X246370D01*
G01X236600D02*
X244280Y1740660D01*
G01X221050Y1767840D02*
Y1751690D01*
G01D02*
G03X228050Y1748790I7001J7000D01*
G01X237330D01*
G01X236600Y1774190D02*
X246370D01*
G01X228920Y1756920D02*
X236600Y1774190D01*
G01Y1824990D02*
X246370D01*
G01X236600D02*
X244280Y1842260D01*
G01X221050Y1853290D02*
G03X228050Y1850390I7001J7000D01*
G01X237330D01*
G01X221050Y1853290D02*
Y1869440D01*
G01X236600Y1875790D02*
X246370D01*
G01X228920Y1858520D02*
X236600Y1875790D01*
G01Y1926590D02*
X246370D01*
G01X236600D02*
X244280Y1943860D01*
G01X221050Y1971040D02*
Y1954890D01*
G01D02*
G03X228050Y1951990I7001J7000D01*
G01X237330D01*
G01X236600Y1977390D02*
X246370D01*
G01X228920Y1960120D02*
X236600Y1977390D01*
G01X311150Y143020D02*
Y153790D01*
G01X298380D02*
X311150D01*
G01D02*
X323920D01*
G01X284100Y142240D02*
Y159510D01*
G01Y142240D02*
X293870D01*
G01X311150Y181490D02*
Y192260D01*
G01X298380Y181490D02*
X311150D01*
G01D02*
X323920D01*
G01X284100Y175770D02*
Y193040D01*
G01D02*
X293870D01*
G01X311150Y244620D02*
Y255390D01*
G01X298380D02*
X311150D01*
G01D02*
X323920D01*
G01X284100Y243840D02*
Y261110D01*
G01Y243840D02*
X293870D01*
G01X311150Y283090D02*
Y293860D01*
G01X298380Y283090D02*
X311150D01*
G01D02*
X323920D01*
G01X284100Y277370D02*
Y294640D01*
G01D02*
X293870D01*
G01X311150Y346220D02*
Y356990D01*
G01X298380D02*
X311150D01*
G01D02*
X323920D01*
G01X284100Y345440D02*
Y362710D01*
G01Y345440D02*
X293870D01*
G01X311150Y384690D02*
Y395460D01*
G01X298380Y384690D02*
X311150D01*
G01D02*
X323920D01*
G01X284100Y378970D02*
Y396240D01*
G01D02*
X293870D01*
G01X311150Y447820D02*
Y458590D01*
G01X298380D02*
X311150D01*
G01D02*
X323920D01*
G01X284100Y447040D02*
Y464310D01*
G01Y447040D02*
X293870D01*
G01X311150Y486290D02*
Y497060D01*
G01X298380Y486290D02*
X311150D01*
G01D02*
X323920D01*
G01X284100Y480570D02*
Y497840D01*
G01D02*
X293870D01*
G01X311150Y549420D02*
Y560190D01*
G01X298380D02*
X311150D01*
G01D02*
X323920D01*
G01X284100Y548640D02*
Y565910D01*
G01Y548640D02*
X293870D01*
G01X311150Y587890D02*
Y598660D01*
G01X298380Y587890D02*
X311150D01*
G01D02*
X323920D01*
G01X284100Y582170D02*
Y599440D01*
G01D02*
X293870D01*
G01X311150Y651020D02*
Y661790D01*
G01X298380D02*
X311150D01*
G01D02*
X323920D01*
G01X284100Y650240D02*
Y667510D01*
G01Y650240D02*
X293870D01*
G01X311150Y689490D02*
Y700260D01*
G01X298380Y689490D02*
X311150D01*
G01D02*
X323920D01*
G01X284100Y683770D02*
Y701040D01*
G01D02*
X293870D01*
G01X311150Y752620D02*
Y763390D01*
G01X298380D02*
X311150D01*
G01D02*
X323920D01*
G01X284100Y751840D02*
Y769110D01*
G01Y751840D02*
X293870D01*
G01X311150Y791090D02*
Y801860D01*
G01X298380Y791090D02*
X311150D01*
G01D02*
X323920D01*
G01X284100Y785370D02*
Y802640D01*
G01D02*
X293870D01*
G01X311150Y854220D02*
Y864990D01*
G01X298380D02*
X311150D01*
G01D02*
X323920D01*
G01X284100Y853440D02*
Y870710D01*
G01Y853440D02*
X293870D01*
G01X311150Y892690D02*
Y903460D01*
G01X298380Y892690D02*
X311150D01*
G01D02*
X323920D01*
G01X284100Y886970D02*
Y904240D01*
G01D02*
X293870D01*
G01X311150Y1216170D02*
Y1226940D01*
G01X298380D02*
X311150D01*
G01D02*
X323920D01*
G01X284100Y1215390D02*
Y1232660D01*
G01Y1215390D02*
X293870D01*
G01X311150Y1254640D02*
Y1265410D01*
G01X298380Y1254640D02*
X311150D01*
G01D02*
X323920D01*
G01X284100Y1248920D02*
Y1266190D01*
G01D02*
X293870D01*
G01X311150Y1317770D02*
Y1328540D01*
G01X298380D02*
X311150D01*
G01D02*
X323920D01*
G01X284100Y1316990D02*
Y1334260D01*
G01Y1316990D02*
X293870D01*
G01X311150Y1356240D02*
Y1367010D01*
G01X298380Y1356240D02*
X311150D01*
G01D02*
X323920D01*
G01X284100Y1350520D02*
Y1367790D01*
G01D02*
X293870D01*
G01X311150Y1419370D02*
Y1430140D01*
G01X298380D02*
X311150D01*
G01D02*
X323920D01*
G01X284100Y1418590D02*
Y1435860D01*
G01Y1418590D02*
X293870D01*
G01X311150Y1457840D02*
Y1468610D01*
G01X298380Y1457840D02*
X311150D01*
G01D02*
X323920D01*
G01X284100Y1452120D02*
Y1469390D01*
G01D02*
X293870D01*
G01X311150Y1520970D02*
Y1531740D01*
G01X298380D02*
X311150D01*
G01D02*
X323920D01*
G01X284100Y1520190D02*
Y1537460D01*
G01Y1520190D02*
X293870D01*
G01X311150Y1559440D02*
Y1570210D01*
G01X298380Y1559440D02*
X311150D01*
G01D02*
X323920D01*
G01X284100Y1553720D02*
Y1570990D01*
G01D02*
X293870D01*
G01X311150Y1622570D02*
Y1633340D01*
G01X298380D02*
X311150D01*
G01D02*
X323920D01*
G01X284100Y1621790D02*
Y1639060D01*
G01Y1621790D02*
X293870D01*
G01X311150Y1661040D02*
Y1671810D01*
G01X298380Y1661040D02*
X311150D01*
G01D02*
X323920D01*
G01X284100Y1655320D02*
Y1672590D01*
G01D02*
X293870D01*
G01X311150Y1724170D02*
Y1734940D01*
G01X298380D02*
X311150D01*
G01D02*
X323920D01*
G01X284100Y1723390D02*
Y1740660D01*
G01Y1723390D02*
X293870D01*
G01X311150Y1762640D02*
Y1773410D01*
G01X298380Y1762640D02*
X311150D01*
G01D02*
X323920D01*
G01X284100Y1756920D02*
Y1774190D01*
G01D02*
X293870D01*
G01X311150Y1825770D02*
Y1836540D01*
G01X298380D02*
X311150D01*
G01D02*
X323920D01*
G01X284100Y1824990D02*
Y1842260D01*
G01Y1824990D02*
X293870D01*
G01X311150Y1864240D02*
Y1875010D01*
G01X298380Y1864240D02*
X311150D01*
G01D02*
X323920D01*
G01X284100Y1858520D02*
Y1875790D01*
G01D02*
X293870D01*
G01X311150Y1927370D02*
Y1938140D01*
G01X298380D02*
X311150D01*
G01D02*
X323920D01*
G01X284100Y1926590D02*
Y1943860D01*
G01Y1926590D02*
X293870D01*
G01X311150Y1965840D02*
Y1976610D01*
G01X298380Y1965840D02*
X311150D01*
G01D02*
X323920D01*
G01X284100Y1960120D02*
Y1977390D01*
G01D02*
X293870D01*
G01X338200Y142240D02*
Y159510D01*
G01X328430Y142240D02*
X338200D01*
G01D02*
X347970D01*
G01X338200Y175770D02*
Y193040D01*
G01X328430D02*
X338200D01*
G01D02*
X347970D01*
G01X338200Y243840D02*
Y261110D01*
G01X328430Y243840D02*
X338200D01*
G01D02*
X347970D01*
G01X338200Y277370D02*
Y294640D01*
G01X328430D02*
X338200D01*
G01D02*
X347970D01*
G01X338200Y345440D02*
Y362710D01*
G01X328430Y345440D02*
X338200D01*
G01D02*
X347970D01*
G01X338200Y378970D02*
Y396240D01*
G01X328430D02*
X338200D01*
G01D02*
X347970D01*
G01X338200Y447040D02*
Y464310D01*
G01X328430Y447040D02*
X338200D01*
G01D02*
X347970D01*
G01X338200Y480570D02*
Y497840D01*
G01X328430D02*
X338200D01*
G01D02*
X347970D01*
G01X338200Y548640D02*
Y565910D01*
G01X328430Y548640D02*
X338200D01*
G01D02*
X347970D01*
G01X338200Y582170D02*
Y599440D01*
G01X328430D02*
X338200D01*
G01D02*
X347970D01*
G01X338200Y650240D02*
Y667510D01*
G01X328430Y650240D02*
X338200D01*
G01D02*
X347970D01*
G01X338200Y683770D02*
Y701040D01*
G01X328430D02*
X338200D01*
G01D02*
X347970D01*
G01X338200Y751840D02*
Y769110D01*
G01X328430Y751840D02*
X338200D01*
G01D02*
X347970D01*
G01X338200Y785370D02*
Y802640D01*
G01X328430D02*
X338200D01*
G01D02*
X347970D01*
G01X338200Y853440D02*
Y870710D01*
G01X328430Y853440D02*
X338200D01*
G01D02*
X347970D01*
G01X338200Y886970D02*
Y904240D01*
G01X328430D02*
X338200D01*
G01D02*
X347970D01*
G01X338200Y1215390D02*
Y1232660D01*
G01X328430Y1215390D02*
X338200D01*
G01D02*
X347970D01*
G01X338200Y1248920D02*
Y1266190D01*
G01X328430D02*
X338200D01*
G01D02*
X347970D01*
G01X338200Y1316990D02*
Y1334260D01*
G01X328430Y1316990D02*
X338200D01*
G01D02*
X347970D01*
G01X338200Y1350520D02*
Y1367790D01*
G01X328430D02*
X338200D01*
G01D02*
X347970D01*
G01X338200Y1418590D02*
Y1435860D01*
G01X328430Y1418590D02*
X338200D01*
G01D02*
X347970D01*
G01X338200Y1452120D02*
Y1469390D01*
G01X328430D02*
X338200D01*
G01D02*
X347970D01*
G01X338200Y1520190D02*
Y1537460D01*
G01X328430Y1520190D02*
X338200D01*
G01D02*
X347970D01*
G01X338200Y1553720D02*
Y1570990D01*
G01X328430D02*
X338200D01*
G01D02*
X347970D01*
G01X338200Y1621790D02*
Y1639060D01*
G01X328430Y1621790D02*
X338200D01*
G01D02*
X347970D01*
G01X338200Y1655320D02*
Y1672590D01*
G01X328430D02*
X338200D01*
G01D02*
X347970D01*
G01X338200Y1723390D02*
Y1740660D01*
G01X328430Y1723390D02*
X338200D01*
G01D02*
X347970D01*
G01X338200Y1756920D02*
Y1774190D01*
G01X328430D02*
X338200D01*
G01D02*
X347970D01*
G01X338200Y1824990D02*
Y1842260D01*
G01X328430Y1824990D02*
X338200D01*
G01D02*
X347970D01*
G01X338200Y1858520D02*
Y1875790D01*
G01X328430D02*
X338200D01*
G01D02*
X347970D01*
G01X338200Y1926590D02*
Y1943860D01*
G01X328430Y1926590D02*
X338200D01*
G01D02*
X347970D01*
G01X338200Y1960120D02*
Y1977390D01*
G01X328430D02*
X338200D01*
G01D02*
X347970D01*
G01X539750Y136320D02*
Y148590D01*
G01X527480D02*
X539750D01*
G01X578280Y186690D02*
X590550D01*
G01X539750Y237920D02*
Y250190D01*
G01X527480D02*
X539750D01*
G01X578280Y288290D02*
X590550D01*
G01X539750Y339520D02*
Y351790D01*
G01X527480D02*
X539750D01*
G01X578280Y389890D02*
X590550D01*
G01X539750Y441120D02*
Y453390D01*
G01X527480D02*
X539750D01*
G01X578280Y491490D02*
X590550D01*
G01X539750Y542720D02*
Y554990D01*
G01X527480D02*
X539750D01*
G01X578280Y593090D02*
X590550D01*
G01X539750Y644320D02*
Y656590D01*
G01X527480D02*
X539750D01*
G01X578280Y694690D02*
X590550D01*
G01X539750Y745920D02*
Y758190D01*
G01X527480D02*
X539750D01*
G01X578280Y796290D02*
X590550D01*
G01X539750Y847520D02*
Y859790D01*
G01X527480D02*
X539750D01*
G01X578280Y897890D02*
X590550D01*
G01X539750Y1209470D02*
Y1221740D01*
G01X527480D02*
X539750D01*
G01X578280Y1259840D02*
X590550D01*
G01X539750Y1311070D02*
Y1323340D01*
G01X527480D02*
X539750D01*
G01X578280Y1361440D02*
X590550D01*
G01X539750Y1412670D02*
Y1424940D01*
G01X527480D02*
X539750D01*
G01X578280Y1463040D02*
X590550D01*
G01X539750Y1514270D02*
Y1526540D01*
G01X527480D02*
X539750D01*
G01X578280Y1564640D02*
X590550D01*
G01X539750Y1615870D02*
Y1628140D01*
G01X527480D02*
X539750D01*
G01X578280Y1666240D02*
X590550D01*
G01X539750Y1717470D02*
Y1729740D01*
G01X527480D02*
X539750D01*
G01X578280Y1767840D02*
X590550D01*
G01X539750Y1819070D02*
Y1831340D01*
G01X527480D02*
X539750D01*
G01X578280Y1869440D02*
X590550D01*
G01X539750Y1920670D02*
Y1932940D01*
G01X527480D02*
X539750D01*
G01X578280Y1971040D02*
X590550D01*
G01X628650Y134120D02*
Y143890D01*
G01D02*
Y153660D01*
G01Y143890D02*
X645920D01*
G01X590550Y186690D02*
Y198960D01*
G01Y186690D02*
X602820D01*
G01X628650Y181620D02*
Y191390D01*
G01D02*
Y201160D01*
G01X611380Y191390D02*
X628650D01*
G01Y235720D02*
Y245490D01*
G01D02*
Y255260D01*
G01Y245490D02*
X645920D01*
G01X590550Y288290D02*
Y300560D01*
G01Y288290D02*
X602820D01*
G01X628650Y283220D02*
Y292990D01*
G01D02*
Y302760D01*
G01X611380Y292990D02*
X628650D01*
G01Y337320D02*
Y347090D01*
G01D02*
Y356860D01*
G01Y347090D02*
X645920D01*
G01X590550Y389890D02*
Y402160D01*
G01Y389890D02*
X602820D01*
G01X628650Y384820D02*
Y394590D01*
G01D02*
Y404360D01*
G01X611380Y394590D02*
X628650D01*
G01Y438920D02*
Y448690D01*
G01D02*
Y458460D01*
G01Y448690D02*
X645920D01*
G01X590550Y491490D02*
Y503760D01*
G01Y491490D02*
X602820D01*
G01X628650Y486420D02*
Y496190D01*
G01D02*
Y505960D01*
G01X611380Y496190D02*
X628650D01*
G01Y540520D02*
Y550290D01*
G01D02*
Y560060D01*
G01Y550290D02*
X645920D01*
G01X590550Y593090D02*
Y605360D01*
G01Y593090D02*
X602820D01*
G01X628650Y588020D02*
Y597790D01*
G01D02*
Y607560D01*
G01X611380Y597790D02*
X628650D01*
G01Y642120D02*
Y651890D01*
G01D02*
Y661660D01*
G01Y651890D02*
X645920D01*
G01X590550Y694690D02*
Y706960D01*
G01Y694690D02*
X602820D01*
G01X628650Y689620D02*
Y699390D01*
G01D02*
Y709160D01*
G01X611380Y699390D02*
X628650D01*
G01X590550Y796290D02*
Y808560D01*
G01Y796290D02*
X602820D01*
G01X628650Y845320D02*
Y855090D01*
G01D02*
Y864860D01*
G01Y855090D02*
X645920D01*
G01X590550Y897890D02*
Y910160D01*
G01Y897890D02*
X602820D01*
G01X628650Y892820D02*
Y902590D01*
G01D02*
Y912360D01*
G01X611380Y902590D02*
X628650D01*
G01Y1207270D02*
Y1217040D01*
G01D02*
Y1226810D01*
G01Y1217040D02*
X645920D01*
G01X590550Y1259840D02*
Y1272110D01*
G01Y1259840D02*
X602820D01*
G01X628650Y1254770D02*
Y1264540D01*
G01D02*
Y1274310D01*
G01X611380Y1264540D02*
X628650D01*
G01Y1308870D02*
Y1318640D01*
G01D02*
Y1328410D01*
G01Y1318640D02*
X645920D01*
G01X590550Y1361440D02*
Y1373710D01*
G01Y1361440D02*
X602820D01*
G01X628650Y1356370D02*
Y1366140D01*
G01D02*
Y1375910D01*
G01X611380Y1366140D02*
X628650D01*
G01Y1410470D02*
Y1420240D01*
G01D02*
Y1430010D01*
G01Y1420240D02*
X645920D01*
G01X590550Y1463040D02*
Y1475310D01*
G01Y1463040D02*
X602820D01*
G01X628650Y1457970D02*
Y1467740D01*
G01D02*
Y1477510D01*
G01X611380Y1467740D02*
X628650D01*
G01Y1512070D02*
Y1521840D01*
G01D02*
Y1531610D01*
G01Y1521840D02*
X645920D01*
G01X590550Y1564640D02*
Y1576910D01*
G01Y1564640D02*
X602820D01*
G01X628650Y1559570D02*
Y1569340D01*
G01D02*
Y1579110D01*
G01X611380Y1569340D02*
X628650D01*
G01Y1613670D02*
Y1623440D01*
G01D02*
Y1633210D01*
G01Y1623440D02*
X645920D01*
G01X590550Y1666240D02*
Y1678510D01*
G01Y1666240D02*
X602820D01*
G01X628650Y1661170D02*
Y1670940D01*
G01D02*
Y1680710D01*
G01X611380Y1670940D02*
X628650D01*
G01Y1715270D02*
Y1725040D01*
G01D02*
Y1734810D01*
G01Y1725040D02*
X645920D01*
G01X590550Y1767840D02*
Y1780110D01*
G01Y1767840D02*
X602820D01*
G01X628650Y1762770D02*
Y1772540D01*
G01D02*
Y1782310D01*
G01X611380Y1772540D02*
X628650D01*
G01Y1816870D02*
Y1826640D01*
G01D02*
Y1836410D01*
G01Y1826640D02*
X645920D01*
G01X590550Y1869440D02*
Y1881710D01*
G01Y1869440D02*
X602820D01*
G01X628650Y1864370D02*
Y1874140D01*
G01D02*
Y1883910D01*
G01X611380Y1874140D02*
X628650D01*
G01Y1918470D02*
Y1928240D01*
G01D02*
Y1938010D01*
G01Y1928240D02*
X645920D01*
G01X590550Y1971040D02*
Y1983310D01*
G01Y1971040D02*
X602820D01*
G01X628650Y1965970D02*
Y1975740D01*
G01D02*
Y1985510D01*
G01X611380Y1975740D02*
X628650D01*
G01X652280Y142240D02*
X662050D01*
G01X653320Y133600D02*
X662050Y142240D01*
G01X652280Y243840D02*
X662050D01*
G01X653320Y235200D02*
X662050Y243840D01*
G01X652280Y345440D02*
X662050D01*
G01X653320Y336800D02*
X662050Y345440D01*
G01X652280Y447040D02*
X662050D01*
G01X653320Y438400D02*
X662050Y447040D01*
G01X652280Y548640D02*
X662050D01*
G01X653320Y540000D02*
X662050Y548640D01*
G01X652280Y650240D02*
X662050D01*
G01X653320Y641600D02*
X662050Y650240D01*
G01X652280Y751840D02*
X662050D01*
G01X653320Y743200D02*
X662050Y751840D01*
G01X652280Y853440D02*
X662050D01*
G01X653320Y844800D02*
X662050Y853440D01*
G01X652280Y1215390D02*
X662050D01*
G01X653320Y1206760D02*
X662050Y1215390D01*
G01X652280Y1316990D02*
X662050D01*
G01X653320Y1308360D02*
X662050Y1316990D01*
G01X652280Y1418590D02*
X662050D01*
G01X653320Y1409960D02*
X662050Y1418590D01*
G01X652280Y1520190D02*
X662050D01*
G01X653320Y1511560D02*
X662050Y1520190D01*
G01X652280Y1621790D02*
X662050D01*
G01X653320Y1613160D02*
X662050Y1621790D01*
G01X652280Y1723390D02*
X662050D01*
G01X653320Y1714760D02*
X662050Y1723390D01*
G01X652280Y1824990D02*
X662050D01*
G01X653320Y1816360D02*
X662050Y1824990D01*
G01X652280Y1926590D02*
X662050D01*
G01X653320Y1917960D02*
X662050Y1926590D01*
G54D12*
X-50800Y0D03*
Y228600D03*
Y482600D03*
Y736600D03*
X-38100Y1206500D03*
X-25400Y0D03*
X0D03*
X-25400Y228600D03*
X0D03*
X-25400Y482600D03*
X0D03*
X-25400Y736600D03*
X0D03*
X539750Y148590D03*
Y250190D03*
Y351790D03*
Y453390D03*
Y554990D03*
Y656590D03*
Y758190D03*
Y859790D03*
Y1221740D03*
Y1323340D03*
Y1424940D03*
Y1526540D03*
Y1628140D03*
Y1729740D03*
Y1831340D03*
Y1932940D03*
X590550Y161290D03*
Y262890D03*
Y364490D03*
Y466090D03*
Y567690D03*
Y669290D03*
Y770890D03*
Y872490D03*
Y1234440D03*
Y1336040D03*
Y1437640D03*
Y1539240D03*
Y1640840D03*
Y1742440D03*
Y1844040D03*
Y1945640D03*
G54D21*
X209550Y135710D03*
Y161470D03*
Y237310D03*
Y263070D03*
Y338910D03*
Y364670D03*
Y440510D03*
Y466270D03*
Y542110D03*
Y567870D03*
Y643710D03*
Y669470D03*
Y745310D03*
Y771070D03*
Y846910D03*
Y872670D03*
Y1208860D03*
Y1234620D03*
Y1310460D03*
Y1336220D03*
Y1412060D03*
Y1437820D03*
Y1513660D03*
Y1539420D03*
Y1615260D03*
Y1641020D03*
Y1716860D03*
Y1742620D03*
Y1818460D03*
Y1844220D03*
Y1920060D03*
Y1945820D03*
G54D31*
G01X-50800Y25400D02*
X-42590Y33610D01*
G02X-31750Y38100I10840J-10840D01*
G01X12700D01*
G03X82550Y107950I0J69850D01*
G01Y165960D01*
G02X85720Y173630I10844J8D01*
G03X88900Y181290I-7658J7669D01*
G01Y196850D01*
G02X92070Y204520I10844J8D01*
G03X95250Y212180I-7658J7669D01*
G01Y227740D01*
G01Y430940D02*
Y415380D01*
G02X92070Y407720I-10838J9D01*
G03X88900Y400050I7674J-7662D01*
G01Y384490D01*
G02X85720Y376830I-10838J9D01*
G03X82550Y369160I7674J-7662D01*
G01Y288380D01*
G02X79370Y280720I-10838J9D01*
G03X76200Y273050I7674J-7662D01*
G01Y193130D01*
G02X73020Y185470I-10838J9D01*
G03X69850Y177800I7674J-7662D01*
G01Y120650D01*
G02X12700Y63500I-57150J0D01*
G01X-31750D01*
G03X-42590Y59010I0J-15330D01*
G01X-50800Y50800D01*
G01X95250Y634140D02*
Y618580D01*
G02X92070Y610920I-10838J9D01*
G03X88900Y603250I7674J-7662D01*
G01Y587690D01*
G02X85720Y580030I-10838J9D01*
G03X82550Y572360I7674J-7662D01*
G01Y491580D01*
G02X79370Y483920I-10838J9D01*
G03X76200Y476250I7674J-7662D01*
G01Y396330D01*
G02X73020Y388670I-10838J9D01*
G03X69850Y381000I7674J-7662D01*
G01Y301080D01*
G02X66670Y293420I-10838J9D01*
G03X63500Y285750I7674J-7662D01*
G01Y205830D01*
G02X60320Y198170I-10838J9D01*
G03X57150Y190500I7674J-7662D01*
G01Y133350D01*
G02X12700Y88900I-44450J0D01*
G01X-31750D01*
G03X-42590Y84410I0J-15330D01*
G01X-50800Y76200D01*
G01X95250Y837340D02*
Y821780D01*
G02X92070Y814120I-10838J9D01*
G03X88900Y806450I7674J-7662D01*
G01Y790890D01*
G02X85720Y783230I-10838J9D01*
G03X82550Y775560I7674J-7662D01*
G01Y694780D01*
G02X79370Y687120I-10838J9D01*
G03X76200Y679450I7674J-7662D01*
G01X76150Y599400D01*
G02X73020Y591870I-10668J19D01*
G03X69850Y584200I7674J-7662D01*
G01Y504280D01*
G02X66670Y496620I-10838J9D01*
G03X63500Y488950I7674J-7662D01*
G01Y409030D01*
G02X60320Y401370I-10838J9D01*
G03X57150Y393700I7674J-7662D01*
G01Y313780D01*
G02X53970Y306120I-10838J9D01*
G03X50800Y298450I7674J-7662D01*
G01Y218530D01*
G02X47620Y210870I-10838J9D01*
G03X44450Y203200I7674J-7662D01*
G01Y146050D01*
G02X12700Y114300I-31750J0D01*
G01X-31750D01*
G03X-42590Y109810I0J-15330D01*
G01X-50800Y101600D01*
G01Y152400D02*
X-42590Y160610D01*
G02X-31750Y165100I10840J-10840D01*
G01X12700D01*
G03X19050Y171450I0J6350D01*
G01Y228600D01*
G02X22220Y236270I10844J8D01*
G03X25400Y243930I-7658J7669D01*
G01Y323850D01*
G02X28570Y331520I10844J8D01*
G03X31750Y339180I-7658J7669D01*
G01Y419100D01*
G02X34920Y426770I10844J8D01*
G03X38100Y434430I-7658J7669D01*
G01Y514350D01*
G02X41270Y522020I10844J8D01*
G03X44450Y529680I-7658J7669D01*
G01Y609600D01*
G02X47620Y617270I10844J8D01*
G03X50800Y624930I-7658J7669D01*
G01Y704850D01*
G02X53970Y712520I10844J8D01*
G03X57150Y720180I-7658J7669D01*
G01Y800100D01*
G02X60320Y807770I10844J8D01*
G03X63500Y815430I-7658J7669D01*
G01Y927100D01*
G02X66810Y935090I11299J0D01*
G03X69850Y942430I-7340J7340D01*
G01Y1250950D01*
G02X73020Y1258620I10844J8D01*
G03X76150Y1266150I-7538J7549D01*
G01X76200Y1346200D01*
G02X79370Y1353870I10844J8D01*
G03X82550Y1361530I-7658J7669D01*
G01Y1442310D01*
G02X85720Y1449980I10844J8D01*
G03X88900Y1457640I-7658J7669D01*
G01Y1473200D01*
G02X92070Y1480870I10844J8D01*
G03X95250Y1488530I-7658J7669D01*
G01Y1504090D01*
G01Y1300890D02*
Y1285330D01*
G02X92070Y1277670I-10838J9D01*
G03X88900Y1270000I7674J-7662D01*
G01Y1254440D01*
G02X85720Y1246780I-10838J9D01*
G03X82550Y1239110I7674J-7662D01*
G01X82820Y946150D01*
Y930380D01*
G02X79510Y922390I-11300J1D01*
G03X76200Y914400I7989J-7990D01*
G01Y802730D01*
G02X73020Y795070I-10838J9D01*
G03X69850Y787400I7674J-7662D01*
G01Y707480D01*
G02X66670Y699820I-10838J9D01*
G03X63500Y692150I7674J-7662D01*
G01Y612230D01*
G02X60320Y604570I-10838J9D01*
G03X57150Y596900I7674J-7662D01*
G01Y516980D01*
G02X53970Y509320I-10838J9D01*
G03X50800Y501650I7674J-7662D01*
G01Y421730D01*
G02X47620Y414070I-10838J9D01*
G03X44450Y406400I7674J-7662D01*
G01Y326480D01*
G02X41270Y318820I-10838J9D01*
G03X38100Y311150I7674J-7662D01*
G01Y231230D01*
G02X34920Y223570I-10838J9D01*
G03X31750Y215900I7674J-7662D01*
G01Y158750D01*
G02X12700Y139700I-19050J0D01*
G01X-31750D01*
G03X-42590Y135210I0J-15330D01*
G01X-50800Y127000D01*
G01X0Y50800D02*
X12700D01*
G03X76200Y114300I0J63500D01*
G01Y171450D01*
G02X79370Y179120I10844J8D01*
G03X82550Y186780I-7658J7669D01*
G01Y267560D01*
G02X85720Y275230I10844J8D01*
G03X88900Y282890I-7658J7669D01*
G01Y298450D01*
G02X92070Y306120I10844J8D01*
G03X95250Y313780I-7658J7669D01*
G01Y329340D01*
G01Y126140D02*
Y116930D01*
G02X92070Y109270I-10838J9D01*
G03X88900Y101600I7674J-7662D01*
G02X12700Y25400I-76200J0D01*
G01X0D01*
G01X95250Y532540D02*
Y516980D01*
G02X92070Y509320I-10838J9D01*
G03X88900Y501650I7674J-7662D01*
G01Y486090D01*
G02X85720Y478430I-10838J9D01*
G03X82550Y470760I7674J-7662D01*
G01Y389980D01*
G02X79370Y382320I-10838J9D01*
G03X76200Y374650I7674J-7662D01*
G01X76150Y294600D01*
G02X73020Y287070I-10668J19D01*
G03X69850Y279400I7674J-7662D01*
G01Y199480D01*
G02X66670Y191820I-10838J9D01*
G03X63500Y184150I7674J-7662D01*
G01Y127000D01*
G02X12700Y76200I-50800J0D01*
G01X0D01*
G01X95250Y735740D02*
Y720180D01*
G02X92070Y712520I-10838J9D01*
G03X88900Y704850I7674J-7662D01*
G01Y689290D01*
G02X85720Y681630I-10838J9D01*
G03X82550Y673960I7674J-7662D01*
G01Y593180D01*
G02X79370Y585520I-10838J9D01*
G03X76200Y577850I7674J-7662D01*
G01X76150Y497800D01*
G02X73020Y490270I-10668J19D01*
G03X69850Y482600I7674J-7662D01*
G01Y402680D01*
G02X66670Y395020I-10838J9D01*
G03X63500Y387350I7674J-7662D01*
G01Y307430D01*
G02X60320Y299770I-10838J9D01*
G03X57150Y292100I7674J-7662D01*
G01Y212180D01*
G02X53970Y204520I-10838J9D01*
G03X50800Y196850I7674J-7662D01*
G01Y139700D01*
G02X12700Y101600I-38100J0D01*
G01X0D01*
G01X95250Y1402490D02*
Y1386930D01*
G02X92070Y1379270I-10838J9D01*
G03X88900Y1371600I7674J-7662D01*
G01Y1356040D01*
G02X85720Y1348380I-10838J9D01*
G03X82550Y1340710I7674J-7662D01*
G01Y1259930D01*
G02X79370Y1252270I-10838J9D01*
G03X76200Y1244600I7674J-7662D01*
G01Y936080D01*
G02X73160Y928740I-10380J0D01*
G03X69850Y920750I7989J-7990D01*
G01Y809080D01*
G02X66670Y801420I-10838J9D01*
G03X63500Y793750I7674J-7662D01*
G01Y713830D01*
G02X60320Y706170I-10838J9D01*
G03X57150Y698500I7674J-7662D01*
G01Y618580D01*
G02X53970Y610920I-10838J9D01*
G03X50800Y603250I7674J-7662D01*
G01Y523330D01*
G02X47620Y515670I-10838J9D01*
G03X44450Y508000I7674J-7662D01*
G01Y428080D01*
G02X41270Y420420I-10838J9D01*
G03X38100Y412750I7674J-7662D01*
G01Y332830D01*
G02X34920Y325170I-10838J9D01*
G03X31750Y317500I7674J-7662D01*
G01Y237580D01*
G02X28570Y229920I-10838J9D01*
G03X25400Y222250I7674J-7662D01*
G01Y165100D01*
G02X12700Y152400I-12700J0D01*
G01X0D01*
G01X95250Y1199290D02*
Y1187450D01*
G02X91980Y1179560I-11154J0D01*
G03X88710Y1171670I7890J-7893D01*
G01Y1162040D01*
X88900Y920750D01*
G02X85730Y913080I-10844J-8D01*
G03X82550Y905420I7658J-7669D01*
G01Y796380D01*
G02X79370Y788720I-10838J9D01*
G03X76200Y781050I7674J-7662D01*
G01Y701130D01*
G02X73020Y693470I-10838J9D01*
G03X69850Y685800I7674J-7662D01*
G01Y605880D01*
G02X66670Y598220I-10838J9D01*
G03X63500Y590550I7674J-7662D01*
G01Y510630D01*
G02X60320Y502970I-10838J9D01*
G03X57150Y495300I7674J-7662D01*
G01Y415380D01*
G02X53970Y407720I-10838J9D01*
G03X50800Y400050I7674J-7662D01*
G01Y320130D01*
G02X47620Y312470I-10838J9D01*
G03X44450Y304800I7674J-7662D01*
G01Y224880D01*
G02X41270Y217220I-10838J9D01*
G03X38100Y209550I7674J-7662D01*
G01Y152400D01*
G02X12700Y127000I-25400J0D01*
G01X0D01*
G01X95250Y1605690D02*
Y1590130D01*
G02X92070Y1582470I-10838J9D01*
G03X88900Y1574800I7674J-7662D01*
G01Y1559240D01*
G02X85720Y1551580I-10838J9D01*
G03X82550Y1543910I7674J-7662D01*
G01Y1463130D01*
G02X79370Y1455470I-10838J9D01*
G03X76200Y1447800I7674J-7662D01*
G01Y1367880D01*
G02X73020Y1360220I-10838J9D01*
G03X69850Y1352550I7674J-7662D01*
G01Y1272630D01*
G02X66670Y1264970I-10838J9D01*
G03X63500Y1257300I7674J-7662D01*
G01Y948780D01*
G02X60460Y941440I-10380J0D01*
G03X57150Y933450I7989J-7990D01*
G01Y819150D01*
G02X54030Y811620I-10647J0D01*
G03X50910Y804090I7530J-7531D01*
G01Y800100D01*
X50820Y736600D01*
Y732930D01*
G02X44450Y717550I-21750J-1D01*
G01X95250Y1707290D02*
Y1691730D01*
G02X92070Y1684070I-10838J9D01*
G03X88900Y1676400I7674J-7662D01*
G01Y1660840D01*
G02X85720Y1653180I-10838J9D01*
G03X82550Y1645530I7650J-7652D01*
G01Y1638300D01*
X82500Y1564600D01*
G02X79370Y1557070I-10668J19D01*
G03X76200Y1549400I7674J-7662D01*
G01X76150Y1469350D01*
G02X73020Y1461820I-10668J19D01*
G03X69850Y1454150I7674J-7662D01*
G01Y1374230D01*
G02X66670Y1366570I-10838J9D01*
G03X63500Y1358900I7674J-7662D01*
G01Y1278980D01*
G02X60320Y1271320I-10838J9D01*
G03X57150Y1263650I7674J-7662D01*
G01Y955130D01*
G02X54110Y947790I-10380J0D01*
G03X50800Y939800I7989J-7990D01*
G01Y825500D01*
G02X47660Y817910I-10743J0D01*
G03X44510Y810310I7590J-7599D01*
G01Y793750D01*
X44460Y749290D01*
G02X39980Y738490I-15277J8D01*
G01X38100Y736600D01*
G01X31750Y755650D02*
X33520Y757410D01*
G03X38050Y768360I-10953J10943D01*
G01X38150Y793720D01*
G03Y793760I-10000J20D01*
G01Y816650D01*
G02X41300Y824250I10750J-3D01*
G03X44450Y831850I-7593J7600D01*
G01Y946150D01*
G02X47760Y954140I11299J0D01*
G03X50800Y961480I-7340J7340D01*
G01Y1270000D01*
G02X53970Y1277670I10844J8D01*
G03X57150Y1285330I-7658J7669D01*
G01Y1365250D01*
G02X60320Y1372920I10844J8D01*
G03X63500Y1380580I-7658J7669D01*
G01Y1460500D01*
G02X66670Y1468170I10844J8D01*
G03X69850Y1475830I-7658J7669D01*
G01Y1555750D01*
G02X73020Y1563420I10844J8D01*
G03X76200Y1571080I-7658J7669D01*
G01Y1651000D01*
G02X79370Y1658670I10844J8D01*
G03X82550Y1666330I-7658J7669D01*
G01Y1747130D01*
G02X85720Y1754780I10820J-2D01*
G03X88900Y1762440I-7658J7669D01*
G01Y1778000D01*
G02X92070Y1785670I10844J8D01*
G03X95250Y1793330I-7658J7669D01*
G01Y1808890D01*
G01X25400Y774700D02*
X27260Y776560D01*
G03X31750Y787400I-10840J10840D01*
G01Y822870D01*
G02X34930Y830530I10838J-9D01*
G03X38100Y838200I-7674J7662D01*
G01Y952500D01*
G02X41410Y960490I11299J0D01*
G03X44450Y967830I-7340J7340D01*
G01Y1276350D01*
G02X47620Y1284020I10844J8D01*
G03X50800Y1291680I-7658J7669D01*
G01Y1371600D01*
G02X53970Y1379270I10844J8D01*
G03X57150Y1386930I-7658J7669D01*
G01Y1466850D01*
G02X60320Y1474520I10844J8D01*
G03X63500Y1482180I-7658J7669D01*
G01Y1562100D01*
G02X66670Y1569770I10844J8D01*
G03X69850Y1577430I-7658J7669D01*
G01Y1657350D01*
G02X73060Y1665100I10961J0D01*
G03X76270Y1672850I-7750J7750D01*
G01Y1676400D01*
X76200Y1752600D01*
G02X79400Y1760340I10943J7D01*
G03X82610Y1768070I-7728J7741D01*
G01Y1784350D01*
X82550Y1848710D01*
G02X85720Y1856380I10844J8D01*
G03X88900Y1864040I-7658J7669D01*
G01Y1879600D01*
G02X92070Y1887270I10844J8D01*
G03X95250Y1894930I-7658J7669D01*
G01Y1910490D01*
G01Y145640D02*
G02X102370Y148590I7121J-7120D01*
G01X121150D01*
G01X95250Y247240D02*
G02X102370Y250190I7121J-7120D01*
G01X121150D01*
G01X95250Y348840D02*
G02X102370Y351790I7121J-7120D01*
G01X121150D01*
G01X95250Y450440D02*
G02X102370Y453390I7121J-7120D01*
G01X121150D01*
G01X95250Y552040D02*
G02X102370Y554990I7121J-7120D01*
G01X121150D01*
G01X95250Y653640D02*
G02X102370Y656590I7121J-7120D01*
G01X121150D01*
G01X95250Y755240D02*
G02X102370Y758190I7121J-7120D01*
G01X121150D01*
G01X95250Y856840D02*
G02X102370Y859790I7121J-7120D01*
G01X121150D01*
G01X95250Y1218790D02*
G02X102370Y1221740I7121J-7120D01*
G01X121150D01*
G01X95250Y1320390D02*
G02X102370Y1323340I7121J-7120D01*
G01X121150D01*
G01X95250Y1421990D02*
G02X102370Y1424940I7121J-7120D01*
G01X121150D01*
G01X95250Y1523590D02*
G02X102370Y1526540I7121J-7120D01*
G01X121150D01*
G01X95250Y1625190D02*
G02X102370Y1628140I7121J-7120D01*
G01X121150D01*
G01X95250Y1726790D02*
G02X102370Y1729740I7121J-7120D01*
G01X121150D01*
G01X95250Y1828390D02*
G02X102370Y1831340I7121J-7120D01*
G01X121150D01*
G01X95250Y1929990D02*
G02X102370Y1932940I7121J-7120D01*
G01X121150D01*
G54D13*
X-50800Y25400D03*
Y50800D03*
Y76200D03*
Y101600D03*
Y127000D03*
Y152400D03*
Y177800D03*
Y203200D03*
Y254000D03*
Y279400D03*
Y304800D03*
Y330200D03*
Y355600D03*
Y381000D03*
Y406400D03*
Y431800D03*
Y457200D03*
Y508000D03*
Y533400D03*
Y558800D03*
Y584200D03*
Y609600D03*
Y635000D03*
Y660400D03*
Y685800D03*
Y711200D03*
Y762000D03*
Y787400D03*
X-25400Y25400D03*
Y50800D03*
X0Y25400D03*
Y50800D03*
X-25400Y76200D03*
Y101600D03*
X0Y76200D03*
Y101600D03*
X-25400Y127000D03*
Y152400D03*
X0Y127000D03*
Y152400D03*
X-25400Y177800D03*
Y203200D03*
X0Y177800D03*
Y203200D03*
X-25400Y254000D03*
X0D03*
X-25400Y279400D03*
Y304800D03*
X0Y279400D03*
Y304800D03*
X-25400Y330200D03*
Y355600D03*
X0Y330200D03*
Y355600D03*
X-25400Y381000D03*
Y406400D03*
X0Y381000D03*
Y406400D03*
X-25400Y431800D03*
Y457200D03*
X0Y431800D03*
Y457200D03*
X-25400Y508000D03*
X0D03*
X-25400Y533400D03*
Y558800D03*
X0Y533400D03*
Y558800D03*
X-25400Y584200D03*
Y609600D03*
X0Y584200D03*
Y609600D03*
X-25400Y635000D03*
Y660400D03*
X0Y635000D03*
Y660400D03*
X-25400Y685800D03*
Y711200D03*
X0Y685800D03*
Y711200D03*
X-25400Y762000D03*
X0D03*
X-25400Y787400D03*
X0D03*
X-12700Y1206500D03*
X413150Y142240D03*
Y243840D03*
Y345440D03*
Y447040D03*
Y548640D03*
Y650240D03*
Y751840D03*
Y853440D03*
Y1215390D03*
Y1316990D03*
Y1418590D03*
Y1520190D03*
Y1621790D03*
Y1723390D03*
Y1824990D03*
Y1926590D03*
X463150Y142240D03*
Y243840D03*
Y345440D03*
Y447040D03*
Y548640D03*
Y650240D03*
Y751840D03*
Y853440D03*
Y1215390D03*
Y1316990D03*
Y1418590D03*
Y1520190D03*
Y1621790D03*
Y1723390D03*
Y1824990D03*
Y1926590D03*
X539750Y173990D03*
Y275590D03*
Y377190D03*
Y478790D03*
Y580390D03*
Y681990D03*
Y783590D03*
Y885190D03*
Y1247140D03*
Y1348740D03*
Y1450340D03*
Y1551940D03*
Y1653540D03*
Y1755140D03*
Y1856740D03*
Y1958340D03*
X590550Y186690D03*
Y288290D03*
Y389890D03*
Y491490D03*
Y593090D03*
Y694690D03*
Y796290D03*
Y897890D03*
Y1259840D03*
Y1361440D03*
Y1463040D03*
Y1564640D03*
Y1666240D03*
Y1767840D03*
Y1869440D03*
Y1971040D03*
X667150Y193040D03*
Y294640D03*
Y396240D03*
Y497840D03*
Y599440D03*
Y701040D03*
Y802640D03*
Y904240D03*
Y1266190D03*
Y1367790D03*
Y1469390D03*
Y1570990D03*
Y1672590D03*
Y1774190D03*
Y1875790D03*
Y1977390D03*
X717150Y193040D03*
Y294640D03*
Y396240D03*
Y497840D03*
Y599440D03*
Y701040D03*
Y802640D03*
Y904240D03*
Y1266190D03*
Y1367790D03*
Y1469390D03*
Y1570990D03*
Y1672590D03*
Y1774190D03*
Y1875790D03*
Y1977390D03*
G54D22*
X221050Y186690D03*
X198050Y196190D03*
Y177190D03*
X221050Y288290D03*
X198050Y297790D03*
Y278790D03*
X221050Y389890D03*
X198050Y399390D03*
Y380390D03*
X221050Y491490D03*
X198050Y500990D03*
Y481990D03*
X221050Y593090D03*
X198050Y602590D03*
Y583590D03*
X221050Y694690D03*
X198050Y704190D03*
Y685190D03*
X221050Y796290D03*
X198050Y805790D03*
Y786790D03*
X221050Y897890D03*
X198050Y907390D03*
Y888390D03*
X221050Y1259840D03*
X198050Y1269340D03*
Y1250340D03*
X221050Y1361440D03*
X198050Y1370940D03*
Y1351940D03*
X221050Y1463040D03*
X198050Y1472540D03*
Y1453540D03*
X221050Y1564640D03*
X198050Y1574140D03*
Y1555140D03*
X221050Y1666240D03*
X198050Y1675740D03*
Y1656740D03*
X221050Y1767840D03*
X198050Y1777340D03*
Y1758340D03*
X221050Y1869440D03*
X198050Y1878940D03*
Y1859940D03*
X221050Y1971040D03*
X198050Y1980540D03*
Y1961540D03*
G54D14*
X-73000Y929500D03*
X-48100Y1046350D03*
X-48000Y1091400D03*
X-38100Y1098550D03*
X12700Y869530D03*
X-6350Y868100D03*
X-19050D03*
X-6350Y922600D03*
X-19050D03*
X-31750D03*
X12700Y946570D03*
X-19050Y982050D03*
X8050Y1123950D03*
X50800Y23200D03*
X44450Y717550D03*
X38100Y736600D03*
X31750Y755650D03*
X25400Y774700D03*
Y869530D03*
Y946570D03*
X27800Y1035050D03*
Y1063650D03*
X50800Y2046900D03*
X76200Y23200D03*
X114300Y196850D03*
X101600D03*
X114300Y298450D03*
X101600D03*
X114300Y400050D03*
X101600D03*
X114300Y501650D03*
X101600D03*
X114300Y603250D03*
X101600D03*
X114300Y704850D03*
X101600D03*
X114300Y806450D03*
X101600D03*
X114300Y908050D03*
X101600D03*
X114300Y1270000D03*
X101600D03*
X114300Y1371600D03*
X101600D03*
X114300Y1473200D03*
X101600D03*
X114300Y1574800D03*
X101600D03*
X114300Y1676400D03*
X101600D03*
X114300Y1778000D03*
X101600D03*
X114300Y1879600D03*
X101600D03*
X114300Y1981200D03*
X101600D03*
X76200Y2046900D03*
X121150Y126190D03*
Y227790D03*
Y329390D03*
Y430990D03*
Y532590D03*
Y634190D03*
Y735790D03*
Y837390D03*
X120230Y1016000D03*
X120640Y1062000D03*
Y1046200D03*
X120230Y1092200D03*
X121150Y1199340D03*
Y1300940D03*
Y1402540D03*
Y1504140D03*
Y1605740D03*
Y1707340D03*
Y1808940D03*
Y1910540D03*
X184150Y180340D03*
Y193040D03*
Y281940D03*
Y294640D03*
Y383540D03*
Y396240D03*
Y497840D03*
Y485140D03*
Y586740D03*
Y599440D03*
Y688340D03*
Y701040D03*
Y789940D03*
Y802640D03*
Y904240D03*
Y891540D03*
Y1253490D03*
Y1266190D03*
Y1355090D03*
Y1367790D03*
Y1456690D03*
Y1469390D03*
Y1558290D03*
Y1570990D03*
Y1659890D03*
Y1672590D03*
Y1761490D03*
Y1774190D03*
Y1863090D03*
Y1875790D03*
Y1977390D03*
Y1964690D03*
X222250Y142240D03*
X237330Y167640D03*
X222250Y243840D03*
X237330Y269240D03*
X222250Y345440D03*
X237330Y370840D03*
X222250Y447040D03*
X237330Y472440D03*
X222250Y548640D03*
X237330Y574040D03*
X222250Y650240D03*
X237330Y675640D03*
X222250Y751840D03*
X237330Y777240D03*
X222250Y853440D03*
X237330Y878840D03*
X222250Y1215390D03*
X237330Y1240790D03*
X222250Y1316990D03*
X237330Y1342390D03*
X222250Y1418590D03*
X237330Y1443990D03*
X222250Y1520190D03*
X237330Y1545590D03*
X222250Y1621790D03*
X237330Y1647190D03*
X222250Y1723390D03*
X237330Y1748790D03*
X222250Y1824990D03*
X237330Y1850390D03*
X222250Y1926590D03*
X237330Y1951990D03*
X361950Y135890D03*
Y154940D03*
Y180340D03*
Y199390D03*
Y237490D03*
Y256540D03*
Y281940D03*
Y300990D03*
Y339090D03*
Y358140D03*
Y383540D03*
Y402590D03*
Y440690D03*
Y459740D03*
Y485140D03*
Y504190D03*
Y542290D03*
Y561340D03*
Y586740D03*
Y605790D03*
Y643890D03*
Y662940D03*
Y688340D03*
Y707390D03*
Y745490D03*
Y764540D03*
Y789940D03*
Y808990D03*
Y847090D03*
Y866140D03*
Y891540D03*
Y910590D03*
Y1209040D03*
Y1228090D03*
Y1253490D03*
Y1272540D03*
Y1310640D03*
Y1329690D03*
Y1355090D03*
Y1374140D03*
Y1412240D03*
Y1431290D03*
Y1456690D03*
Y1475740D03*
Y1513840D03*
Y1532890D03*
Y1558290D03*
Y1577340D03*
Y1615440D03*
Y1634490D03*
Y1659890D03*
Y1678940D03*
Y1717040D03*
Y1736090D03*
Y1761490D03*
Y1780540D03*
Y1818640D03*
Y1837690D03*
Y1863090D03*
Y1882140D03*
Y1920240D03*
Y1939290D03*
Y1964690D03*
Y1983740D03*
X778450Y1059810D03*
X786650Y1040010D03*
X826250D03*
X834450Y1059810D03*
X806450Y1031810D03*
Y1087810D03*
X786650Y1079610D03*
X826250D03*
G54D23*
X183650Y161290D03*
Y262890D03*
Y364490D03*
Y466090D03*
Y567690D03*
Y669290D03*
Y770890D03*
Y872490D03*
Y1234440D03*
Y1336040D03*
Y1437640D03*
Y1539240D03*
Y1640840D03*
Y1742440D03*
Y1844040D03*
Y1945640D03*
G54D24*
X236600Y142240D03*
Y193040D03*
Y243840D03*
Y294640D03*
Y345440D03*
Y396240D03*
Y447040D03*
Y497840D03*
Y548640D03*
Y599440D03*
Y650240D03*
Y701040D03*
Y751840D03*
Y802640D03*
Y853440D03*
Y904240D03*
Y1215390D03*
Y1266190D03*
Y1316990D03*
Y1367790D03*
Y1418590D03*
Y1469390D03*
Y1520190D03*
Y1570990D03*
Y1621790D03*
Y1672590D03*
Y1723390D03*
Y1774190D03*
Y1824990D03*
Y1875790D03*
Y1926590D03*
Y1977390D03*
X284100Y142240D03*
Y193040D03*
Y243840D03*
Y294640D03*
Y345440D03*
Y396240D03*
Y447040D03*
Y497840D03*
Y548640D03*
Y599440D03*
Y650240D03*
Y701040D03*
Y751840D03*
Y802640D03*
Y853440D03*
Y904240D03*
Y1215390D03*
Y1266190D03*
Y1316990D03*
Y1367790D03*
Y1418590D03*
Y1469390D03*
Y1520190D03*
Y1570990D03*
Y1621790D03*
Y1672590D03*
Y1723390D03*
Y1774190D03*
Y1824990D03*
Y1875790D03*
Y1926590D03*
Y1977390D03*
X338200Y142240D03*
Y193040D03*
Y243840D03*
Y294640D03*
Y345440D03*
Y396240D03*
Y447040D03*
Y497840D03*
Y548640D03*
Y599440D03*
Y650240D03*
Y701040D03*
Y751840D03*
Y802640D03*
Y853440D03*
Y904240D03*
Y1215390D03*
Y1266190D03*
Y1316990D03*
Y1367790D03*
Y1418590D03*
Y1469390D03*
Y1520190D03*
Y1570990D03*
Y1621790D03*
Y1672590D03*
Y1723390D03*
Y1774190D03*
Y1824990D03*
Y1875790D03*
Y1926590D03*
Y1977390D03*
X385700Y142240D03*
Y193040D03*
Y243840D03*
Y294640D03*
Y345440D03*
Y396240D03*
Y447040D03*
Y497840D03*
Y548640D03*
Y599440D03*
Y650240D03*
Y701040D03*
Y751840D03*
Y802640D03*
Y853440D03*
Y904240D03*
Y1215390D03*
Y1266190D03*
Y1316990D03*
Y1367790D03*
Y1418590D03*
Y1469390D03*
Y1520190D03*
Y1570990D03*
Y1621790D03*
Y1672590D03*
Y1723390D03*
Y1774190D03*
Y1824990D03*
Y1875790D03*
Y1926590D03*
Y1977390D03*
X662050Y142240D03*
Y243840D03*
Y345440D03*
Y447040D03*
Y548640D03*
Y650240D03*
Y751840D03*
Y853440D03*
Y1215390D03*
Y1316990D03*
Y1418590D03*
Y1520190D03*
Y1621790D03*
Y1723390D03*
Y1824990D03*
Y1926590D03*
X709550Y142240D03*
Y243840D03*
Y345440D03*
Y447040D03*
Y548640D03*
Y650240D03*
Y751840D03*
Y853440D03*
Y1215390D03*
Y1316990D03*
Y1418590D03*
Y1520190D03*
Y1621790D03*
Y1723390D03*
Y1824990D03*
Y1926590D03*
G54D15*
X-44450Y993550D03*
Y1013050D03*
X95250Y145640D03*
Y126140D03*
Y247240D03*
Y227740D03*
Y348840D03*
Y329340D03*
Y450440D03*
Y430940D03*
Y552040D03*
Y532540D03*
Y653640D03*
Y634140D03*
Y755240D03*
Y735740D03*
Y856840D03*
Y837340D03*
Y1218790D03*
Y1199290D03*
Y1320390D03*
Y1300890D03*
Y1421990D03*
Y1402490D03*
Y1523590D03*
Y1504090D03*
Y1625190D03*
Y1605690D03*
Y1726790D03*
Y1707290D03*
Y1828390D03*
Y1808890D03*
Y1929990D03*
Y1910490D03*
G54D25*
X311150Y153790D03*
Y181490D03*
Y255390D03*
Y283090D03*
Y356990D03*
Y384690D03*
Y458590D03*
Y486290D03*
Y560190D03*
Y587890D03*
Y661790D03*
Y689490D03*
Y763390D03*
Y791090D03*
Y864990D03*
Y892690D03*
Y1226940D03*
Y1254640D03*
Y1328540D03*
Y1356240D03*
Y1430140D03*
Y1457840D03*
Y1531740D03*
Y1559440D03*
Y1633340D03*
Y1661040D03*
Y1734940D03*
Y1762640D03*
Y1836540D03*
Y1864240D03*
Y1938140D03*
Y1965840D03*
G54D16*
X-48000Y1078050D03*
Y1060550D03*
X-19050Y1012050D03*
Y994550D03*
G54D26*
X806450Y1059810D03*
G54D17*
G01X848700Y142240D02*
X831850D01*
G01X790180D02*
X806450D01*
G01D02*
X822720D01*
G01X848700Y193040D02*
X831850D01*
G01X790180D02*
X806450D01*
G01D02*
X822720D01*
G01X848700Y243840D02*
X831850D01*
G01X790180D02*
X806450D01*
G01D02*
X822720D01*
G01X848700Y294640D02*
X831850D01*
G01X790180D02*
X806450D01*
G01D02*
X822720D01*
G01X848700Y345440D02*
X831850D01*
G01X790180D02*
X806450D01*
G01D02*
X822720D01*
G01X848700Y396240D02*
X831850D01*
G01X790180D02*
X806450D01*
G01D02*
X822720D01*
G01X848700Y447040D02*
X831850D01*
G01X790180D02*
X806450D01*
G01D02*
X822720D01*
G01X848700Y497840D02*
X831850D01*
G01X790180D02*
X806450D01*
G01D02*
X822720D01*
G01X848700Y548640D02*
X831850D01*
G01X790180D02*
X806450D01*
G01D02*
X822720D01*
G01X848700Y599440D02*
X831850D01*
G01X790180D02*
X806450D01*
G01D02*
X822720D01*
G01X848700Y650240D02*
X831850D01*
G01X790180D02*
X806450D01*
G01D02*
X822720D01*
G01X848700Y701040D02*
X831850D01*
G01X790180D02*
X806450D01*
G01D02*
X822720D01*
G01X848700Y751840D02*
X831850D01*
G01X790180D02*
X806450D01*
G01D02*
X822720D01*
G01X848700Y802640D02*
X831850D01*
G01X790180D02*
X806450D01*
G01D02*
X822720D01*
G01X848700Y853440D02*
X831850D01*
G01X790180D02*
X806450D01*
G01D02*
X822720D01*
G01X848700Y904240D02*
X831850D01*
G01X790180D02*
X806450D01*
G01D02*
X822720D01*
G01X848700Y1215390D02*
X831850D01*
G01X790180D02*
X806450D01*
G01D02*
X822720D01*
G01X848700Y1266190D02*
X831850D01*
G01X790180D02*
X806450D01*
G01D02*
X822720D01*
G01X848700Y1316990D02*
X831850D01*
G01X790180D02*
X806450D01*
G01D02*
X822720D01*
G01X848700Y1367790D02*
X831850D01*
G01X790180D02*
X806450D01*
G01D02*
X822720D01*
G01X848700Y1418590D02*
X831850D01*
G01X790180D02*
X806450D01*
G01D02*
X822720D01*
G01X848700Y1469390D02*
X831850D01*
G01X790180D02*
X806450D01*
G01D02*
X822720D01*
G01X848700Y1520190D02*
X831850D01*
G01X790180D02*
X806450D01*
G01D02*
X822720D01*
G01X848700Y1570990D02*
X831850D01*
G01X790180D02*
X806450D01*
G01D02*
X822720D01*
G01X848700Y1621790D02*
X831850D01*
G01X790180D02*
X806450D01*
G01D02*
X822720D01*
G01X848700Y1672590D02*
X831850D01*
G01X790180D02*
X806450D01*
G01D02*
X822720D01*
G01X848700Y1723390D02*
X831850D01*
G01X790180D02*
X806450D01*
G01D02*
X822720D01*
G01X848700Y1774190D02*
X831850D01*
G01X790180D02*
X806450D01*
G01D02*
X822720D01*
G01X848700Y1824990D02*
X831850D01*
G01X790180D02*
X806450D01*
G01D02*
X822720D01*
G01X848700Y1875790D02*
X831850D01*
G01X790180D02*
X806450D01*
G01D02*
X822720D01*
G01X848700Y1926590D02*
X831850D01*
G01X790180D02*
X806450D01*
G01D02*
X822720D01*
G01X848700Y1977390D02*
X831850D01*
G01X790180D02*
X806450D01*
G01D02*
X822720D01*
X-38100Y1276350D03*
G54D18*
X-12700Y880600D03*
Y910100D03*
X628650Y143890D03*
Y191390D03*
Y245490D03*
Y292990D03*
Y347090D03*
Y394590D03*
Y448690D03*
Y496190D03*
Y550290D03*
Y597790D03*
Y651890D03*
Y699390D03*
Y753490D03*
Y800990D03*
Y855090D03*
Y902590D03*
Y1217040D03*
Y1264540D03*
Y1318640D03*
Y1366140D03*
Y1420240D03*
Y1467740D03*
Y1521840D03*
Y1569340D03*
Y1623440D03*
Y1670940D03*
Y1725040D03*
Y1772540D03*
Y1826640D03*
Y1874140D03*
Y1928240D03*
Y1975740D03*
G54D27*
X806450Y142240D03*
Y1215390D03*
G54D19*
X121150Y148590D03*
Y135890D03*
Y161290D03*
Y250190D03*
Y237490D03*
Y262890D03*
Y351790D03*
Y339090D03*
Y364490D03*
Y453390D03*
Y440690D03*
Y466090D03*
Y554990D03*
Y542290D03*
Y567690D03*
Y669290D03*
Y656590D03*
Y643890D03*
Y770890D03*
Y758190D03*
Y745490D03*
Y872490D03*
Y859790D03*
Y847090D03*
Y1221740D03*
Y1209040D03*
Y1234440D03*
Y1323340D03*
Y1310640D03*
Y1336040D03*
Y1437640D03*
Y1424940D03*
Y1412240D03*
Y1539240D03*
Y1526540D03*
Y1513840D03*
Y1640840D03*
Y1628140D03*
Y1615440D03*
Y1742440D03*
Y1729740D03*
Y1717040D03*
Y1844040D03*
Y1831340D03*
Y1818640D03*
Y1945640D03*
Y1932940D03*
Y1920240D03*
X183650Y135890D03*
Y237490D03*
Y339090D03*
Y440690D03*
Y542290D03*
Y643890D03*
Y745490D03*
Y847090D03*
Y1209040D03*
Y1310640D03*
Y1412240D03*
Y1513840D03*
Y1615440D03*
Y1717040D03*
Y1818640D03*
Y1920240D03*
G54D28*
X806450Y193040D03*
Y243840D03*
Y294640D03*
Y345440D03*
Y396240D03*
Y447040D03*
Y497840D03*
Y548640D03*
Y599440D03*
Y650240D03*
Y701040D03*
Y751840D03*
Y802640D03*
Y853440D03*
Y904240D03*
Y1266190D03*
Y1316990D03*
Y1367790D03*
Y1418590D03*
Y1469390D03*
Y1520190D03*
Y1570990D03*
Y1621790D03*
Y1672590D03*
Y1723390D03*
Y1774190D03*
Y1824990D03*
Y1875790D03*
Y1926590D03*
Y1977390D03*
G54D29*
X848700Y142240D03*
X891200D03*
X848700Y193040D03*
X891200D03*
X848700Y243840D03*
X891200D03*
X848700Y294640D03*
X891200D03*
X848700Y345440D03*
X891200D03*
X848700Y396240D03*
X891200D03*
X848700Y447040D03*
X891200D03*
X848700Y497840D03*
X891200D03*
X848700Y548640D03*
X891200D03*
X848700Y599440D03*
X891200D03*
X848700Y650240D03*
X891200D03*
X848700Y701040D03*
X891200D03*
X848700Y751840D03*
X891200D03*
X848700Y802640D03*
X891200D03*
X848700Y853440D03*
X891200D03*
X848700Y904240D03*
X891200D03*
X848700Y1215390D03*
X891200D03*
X848700Y1266190D03*
X891200D03*
X848700Y1316990D03*
X891200D03*
X848700Y1367790D03*
X891200D03*
X848700Y1418590D03*
X891200D03*
X848700Y1469390D03*
X891200D03*
X848700Y1520190D03*
X891200D03*
X848700Y1570990D03*
X891200D03*
X848700Y1621790D03*
X891200D03*
X848700Y1672590D03*
X891200D03*
X848700Y1723390D03*
X891200D03*
X848700Y1774190D03*
X891200D03*
X848700Y1824990D03*
X891200D03*
X848700Y1875790D03*
X891200D03*
X848700Y1926590D03*
X891200D03*
X848700Y1977390D03*
X891200D03*
M02*
