G04 ================== begin FILE IDENTIFICATION RECORD ==================*
G04 Layout Name:  D:/Project/Circuit/KPRD/03v3/pcb/KPRD_03v3.brd*
G04 Film Name:    IN1_GND*
G04 File Format:  Gerber RS274X*
G04 File Origin:  Cadence Allegro 16.6-2015-S073*
G04 Origin Date:  Tue Aug 15 14:33:13 2017*
G04 *
G04 Layer:  ETCH/IN1_GND*
G04 Layer:  PIN/IN1_GND*
G04 Layer:  VIA CLASS/IN1_GND*
G04 *
G04 Offset:    (0.000 0.000)*
G04 Mirror:    No*
G04 Mode:      Positive*
G04 Rotation:  0*
G04 FullContactRelief:  No*
G04 UndefLineWidth:     0.000*
G04 ================== end FILE IDENTIFICATION RECORD ====================*
%FSLAX34Y34*MOMM*%
%IR0*IPPOS*OFA0.00000B0.00000*MIA0B0*SFA1.00000B1.00000*%
%ADD13C,2.5*%
%ADD10C,1.7*%
%ADD12R,1.7X1.7*%
%ADD11C,.8*%
%ADD14C,.5*%
%ADD15C,.35*%
%ADD16C,2.004*%
%ADD17C,2.204*%
%ADD18C,1.404*%
G75*
%LPD*%
G75*
G36*
G01X-85560Y820500D02*
X-85270Y820350D01*
G03Y856050I9070J17850D01*
G01X-85560Y855900D01*
X-86210Y855930D01*
X-88300Y857210D01*
G02X-88900Y858280I650J1068D01*
G01Y2193290D01*
G02X-82550Y2199640I6350J0D01*
G01X120650D01*
G02X127000Y2193290I0J-6350D01*
G01Y1024510D01*
G02X126410Y1023440I-1252J-7D01*
G01X124320Y1022160D01*
X123670Y1022130D01*
X123380Y1022270D01*
G03Y1009730I-3150J-6270D01*
G01X123670Y1009870D01*
X124320Y1009840D01*
X126410Y1008560D01*
G02X127000Y1007490I-662J-1063D01*
G01Y-67310D01*
G02X120650Y-73660I-6350J0D01*
G01X-82550D01*
G02X-88180Y-70240I0J6344D01*
G02X-87840Y-68680I1107J576D01*
G01X-87420Y-68340D01*
G02X-86030Y-68240I770J-988D01*
G03X-85270Y-32950I9829J17441D01*
G01X-85560Y-33100D01*
X-86210Y-33070D01*
X-88300Y-31790D01*
G02X-88900Y-30720I650J1068D01*
G01Y818120D01*
G02X-88300Y819190I1250J2D01*
G01X-86210Y820470D01*
X-85560Y820500D01*
G37*
G36*
G01X196850Y129540D02*
G02X190500Y135890I0J6350D01*
G01Y177340D01*
X190600Y177570D01*
G03Y183110I-6450J2770D01*
G01X190500Y183340D01*
Y190040D01*
X190600Y190270D01*
G03Y195810I-6450J2770D01*
G01X190500Y196040D01*
Y199390D01*
G02X196850Y205740I6350J0D01*
G01X353240D01*
G02X354290Y205170I2J-1249D01*
G01X355610Y203150D01*
X355660Y202520D01*
X355530Y202230D01*
G03X364790Y192970I6420J-2840D01*
G01X365080Y193100D01*
X365710Y193050D01*
X367730Y191730D01*
G02X368300Y190680I-679J-1048D01*
G01Y189050D01*
G02X367730Y188000I-1249J-2D01*
G01X365710Y186680D01*
X365080Y186630D01*
X364790Y186760D01*
G03X364920Y173980I-2840J-6420D01*
G01X365180Y174100D01*
X365770Y174090D01*
X368060Y172860D01*
X368400Y172380D01*
X368440Y172090D01*
G03X381000Y161290I12560J1903D01*
G01X431800D01*
G02X438150Y154940I0J-6350D01*
G01Y135890D01*
G02X431800Y129540I-6350J0D01*
G01X370660D01*
G02X369610Y130110I-2J1249D01*
G01X368290Y132130D01*
X368240Y132760D01*
X368370Y133050D01*
G03X355530I-6420J2840D01*
G01X355660Y132760D01*
X355610Y132130D01*
X354290Y130110D01*
G02X353240Y129540I-1048J679D01*
G01X196850D01*
G37*
G36*
G01Y231140D02*
G02X190500Y237490I0J6350D01*
G01Y278940D01*
X190600Y279170D01*
G03Y284710I-6450J2770D01*
G01X190500Y284940D01*
Y291640D01*
X190600Y291870D01*
G03Y297410I-6450J2770D01*
G01X190500Y297640D01*
Y300990D01*
G02X196850Y307340I6350J0D01*
G01X353240D01*
G02X354290Y306770I2J-1249D01*
G01X355610Y304750D01*
X355660Y304120D01*
X355530Y303830D01*
G03X364790Y294570I6420J-2840D01*
G01X365080Y294700D01*
X365710Y294650D01*
X367730Y293330D01*
G02X368300Y292280I-679J-1048D01*
G01Y290650D01*
G02X367730Y289600I-1249J-2D01*
G01X365710Y288280D01*
X365080Y288230D01*
X364790Y288360D01*
G03X364920Y275580I-2840J-6420D01*
G01X365180Y275700D01*
X365770Y275690D01*
X368060Y274460D01*
X368400Y273980D01*
X368440Y273690D01*
G03X381000Y262890I12560J1903D01*
G01X431800D01*
G02X438150Y256540I0J-6350D01*
G01Y237490D01*
G02X431800Y231140I-6350J0D01*
G01X370660D01*
G02X369610Y231710I-2J1249D01*
G01X368290Y233730D01*
X368240Y234360D01*
X368370Y234650D01*
G03X355530I-6420J2840D01*
G01X355660Y234360D01*
X355610Y233730D01*
X354290Y231710D01*
G02X353240Y231140I-1048J679D01*
G01X196850D01*
G37*
G36*
G01Y332740D02*
G02X190500Y339090I0J6350D01*
G01Y380540D01*
X190600Y380770D01*
G03Y386310I-6450J2770D01*
G01X190500Y386540D01*
Y393240D01*
X190600Y393470D01*
G03Y399010I-6450J2770D01*
G01X190500Y399240D01*
Y402590D01*
G02X196850Y408940I6350J0D01*
G01X353240D01*
G02X354290Y408370I2J-1249D01*
G01X355610Y406350D01*
X355660Y405720D01*
X355530Y405430D01*
G03X364790Y396170I6420J-2840D01*
G01X365080Y396300D01*
X365710Y396250D01*
X367730Y394930D01*
G02X368300Y393880I-679J-1048D01*
G01Y392250D01*
G02X367730Y391200I-1249J-2D01*
G01X365710Y389880D01*
X365080Y389830D01*
X364790Y389960D01*
G03X364920Y377180I-2840J-6420D01*
G01X365180Y377300D01*
X365770Y377290D01*
X368060Y376060D01*
X368400Y375580D01*
X368440Y375290D01*
G03X381000Y364490I12560J1903D01*
G01X431800D01*
G02X438150Y358140I0J-6350D01*
G01Y339090D01*
G02X431800Y332740I-6350J0D01*
G01X370660D01*
G02X369610Y333310I-2J1249D01*
G01X368290Y335330D01*
X368240Y335960D01*
X368370Y336250D01*
G03X355530I-6420J2840D01*
G01X355660Y335960D01*
X355610Y335330D01*
X354290Y333310D01*
G02X353240Y332740I-1048J679D01*
G01X196850D01*
G37*
G36*
G01Y434340D02*
G02X190500Y440690I0J6350D01*
G01Y482140D01*
X190600Y482370D01*
G03Y487910I-6450J2770D01*
G01X190500Y488140D01*
Y494840D01*
X190600Y495070D01*
G03Y500610I-6450J2770D01*
G01X190500Y500840D01*
Y504190D01*
G02X196850Y510540I6350J0D01*
G01X353240D01*
G02X354290Y509970I2J-1249D01*
G01X355610Y507950D01*
X355660Y507320D01*
X355530Y507030D01*
G03X364790Y497770I6420J-2840D01*
G01X365080Y497900D01*
X365710Y497850D01*
X367730Y496530D01*
G02X368300Y495480I-679J-1048D01*
G01Y493850D01*
G02X367730Y492800I-1249J-2D01*
G01X365710Y491480D01*
X365080Y491430D01*
X364790Y491560D01*
G03X364920Y478780I-2840J-6420D01*
G01X365180Y478900D01*
X365770Y478890D01*
X368060Y477660D01*
X368400Y477180D01*
X368440Y476890D01*
G03X381000Y466090I12560J1903D01*
G01X431800D01*
G02X438150Y459740I0J-6350D01*
G01Y440690D01*
G02X431800Y434340I-6350J0D01*
G01X370660D01*
G02X369610Y434910I-2J1249D01*
G01X368290Y436930D01*
X368240Y437560D01*
X368370Y437850D01*
G03X355530I-6420J2840D01*
G01X355660Y437560D01*
X355610Y436930D01*
X354290Y434910D01*
G02X353240Y434340I-1048J679D01*
G01X196850D01*
G37*
G36*
G01Y535940D02*
G02X190500Y542290I0J6350D01*
G01Y583740D01*
X190600Y583970D01*
G03Y589510I-6450J2770D01*
G01X190500Y589740D01*
Y596440D01*
X190600Y596670D01*
G03Y602210I-6450J2770D01*
G01X190500Y602440D01*
Y605790D01*
G02X196850Y612140I6350J0D01*
G01X353240D01*
G02X354290Y611570I2J-1249D01*
G01X355610Y609550D01*
X355660Y608920D01*
X355530Y608630D01*
G03X364790Y599370I6420J-2840D01*
G01X365080Y599500D01*
X365710Y599450D01*
X367730Y598130D01*
G02X368300Y597080I-679J-1048D01*
G01Y595450D01*
G02X367730Y594400I-1249J-2D01*
G01X365710Y593080D01*
X365080Y593030D01*
X364790Y593160D01*
G03X364920Y580380I-2840J-6420D01*
G01X365180Y580500D01*
X365770Y580490D01*
X368060Y579260D01*
X368400Y578780D01*
X368440Y578490D01*
G03X381000Y567690I12560J1903D01*
G01X431800D01*
G02X438150Y561340I0J-6350D01*
G01Y542290D01*
G02X431800Y535940I-6350J0D01*
G01X370660D01*
G02X369610Y536510I-2J1249D01*
G01X368290Y538530D01*
X368240Y539160D01*
X368370Y539450D01*
G03X355530I-6420J2840D01*
G01X355660Y539160D01*
X355610Y538530D01*
X354290Y536510D01*
G02X353240Y535940I-1048J679D01*
G01X196850D01*
G37*
G36*
G01Y637540D02*
G02X190500Y643890I0J6350D01*
G01Y685340D01*
X190600Y685570D01*
G03Y691110I-6450J2770D01*
G01X190500Y691340D01*
Y698040D01*
X190600Y698270D01*
G03Y703810I-6450J2770D01*
G01X190500Y704040D01*
Y707390D01*
G02X196850Y713740I6350J0D01*
G01X353240D01*
G02X354290Y713170I2J-1249D01*
G01X355610Y711150D01*
X355660Y710520D01*
X355530Y710230D01*
G03X364790Y700970I6420J-2840D01*
G01X365080Y701100D01*
X365710Y701050D01*
X367730Y699730D01*
G02X368300Y698680I-679J-1048D01*
G01Y697050D01*
G02X367730Y696000I-1249J-2D01*
G01X365710Y694680D01*
X365080Y694630D01*
X364790Y694760D01*
G03X364920Y681980I-2840J-6420D01*
G01X365180Y682100D01*
X365770Y682090D01*
X368060Y680860D01*
X368400Y680380D01*
X368440Y680090D01*
G03X381000Y669290I12560J1903D01*
G01X431800D01*
G02X438150Y662940I0J-6350D01*
G01Y643890D01*
G02X431800Y637540I-6350J0D01*
G01X370660D01*
G02X369610Y638110I-2J1249D01*
G01X368290Y640130D01*
X368240Y640760D01*
X368370Y641050D01*
G03X355530I-6420J2840D01*
G01X355660Y640760D01*
X355610Y640130D01*
X354290Y638110D01*
G02X353240Y637540I-1048J679D01*
G01X196850D01*
G37*
G36*
G01Y739140D02*
G02X190500Y745490I0J6350D01*
G01Y786940D01*
X190600Y787170D01*
G03Y792710I-6450J2770D01*
G01X190500Y792940D01*
Y799640D01*
X190600Y799870D01*
G03Y805410I-6450J2770D01*
G01X190500Y805640D01*
Y808990D01*
G02X196850Y815340I6350J0D01*
G01X353240D01*
G02X354290Y814770I2J-1249D01*
G01X355610Y812750D01*
X355660Y812120D01*
X355530Y811830D01*
G03X364790Y802570I6420J-2840D01*
G01X365080Y802700D01*
X365710Y802650D01*
X367730Y801330D01*
G02X368300Y800280I-679J-1048D01*
G01Y798650D01*
G02X367730Y797600I-1249J-2D01*
G01X365710Y796280D01*
X365080Y796230D01*
X364790Y796360D01*
G03X364920Y783580I-2840J-6420D01*
G01X365180Y783700D01*
X365770Y783690D01*
X368060Y782460D01*
X368400Y781980D01*
X368440Y781690D01*
G03X381000Y770890I12560J1903D01*
G01X431800D01*
G02X438150Y764540I0J-6350D01*
G01Y745490D01*
G02X431800Y739140I-6350J0D01*
G01X370660D01*
G02X369610Y739710I-2J1249D01*
G01X368290Y741730D01*
X368240Y742360D01*
X368370Y742650D01*
G03X355530I-6420J2840D01*
G01X355660Y742360D01*
X355610Y741730D01*
X354290Y739710D01*
G02X353240Y739140I-1048J679D01*
G01X196850D01*
G37*
G36*
G01Y840740D02*
G02X190500Y847090I0J6350D01*
G01Y888540D01*
X190600Y888770D01*
G03Y894310I-6450J2770D01*
G01X190500Y894540D01*
Y901240D01*
X190600Y901470D01*
G03Y907010I-6450J2770D01*
G01X190500Y907240D01*
Y910590D01*
G02X196850Y916940I6350J0D01*
G01X353240D01*
G02X354290Y916370I2J-1249D01*
G01X355610Y914350D01*
X355660Y913720D01*
X355530Y913430D01*
G03X364790Y904170I6420J-2840D01*
G01X365080Y904300D01*
X365710Y904250D01*
X367730Y902930D01*
G02X368300Y901880I-679J-1048D01*
G01Y900250D01*
G02X367730Y899200I-1249J-2D01*
G01X365710Y897880D01*
X365080Y897830D01*
X364790Y897960D01*
G03X364920Y885180I-2840J-6420D01*
G01X365180Y885300D01*
X365770Y885290D01*
X368060Y884060D01*
X368400Y883580D01*
X368440Y883290D01*
G03X381000Y872490I12560J1903D01*
G01X431800D01*
G02X438150Y866140I0J-6350D01*
G01Y847090D01*
G02X431800Y840740I-6350J0D01*
G01X370660D01*
G02X369610Y841310I-2J1249D01*
G01X368290Y843330D01*
X368240Y843960D01*
X368370Y844250D01*
G03X355530I-6420J2840D01*
G01X355660Y843960D01*
X355610Y843330D01*
X354290Y841310D01*
G02X353240Y840740I-1048J679D01*
G01X196850D01*
G37*
G36*
G01Y1202690D02*
G02X190500Y1209040I0J6350D01*
G01Y1250490D01*
X190600Y1250720D01*
G03Y1256260I-6450J2770D01*
G01X190500Y1256490D01*
Y1263190D01*
X190600Y1263420D01*
G03Y1268960I-6450J2770D01*
G01X190500Y1269190D01*
Y1272540D01*
G02X196850Y1278890I6350J0D01*
G01X353240D01*
G02X354290Y1278320I2J-1249D01*
G01X355610Y1276300D01*
X355660Y1275670D01*
X355530Y1275380D01*
G03X364790Y1266120I6420J-2840D01*
G01X365080Y1266250D01*
X365710Y1266200D01*
X367730Y1264880D01*
G02X368300Y1263830I-679J-1048D01*
G01Y1262200D01*
G02X367730Y1261150I-1249J-2D01*
G01X365710Y1259830D01*
X365080Y1259780D01*
X364790Y1259910D01*
G03X364920Y1247130I-2840J-6420D01*
G01X365180Y1247250D01*
X365770Y1247240D01*
X368060Y1246010D01*
X368400Y1245530D01*
X368440Y1245240D01*
G03X381000Y1234440I12560J1903D01*
G01X431800D01*
G02X438150Y1228090I0J-6350D01*
G01Y1209040D01*
G02X431800Y1202690I-6350J0D01*
G01X370660D01*
G02X369610Y1203260I-2J1249D01*
G01X368290Y1205280D01*
X368240Y1205910D01*
X368370Y1206200D01*
G03X355530I-6420J2840D01*
G01X355660Y1205910D01*
X355610Y1205280D01*
X354290Y1203260D01*
G02X353240Y1202690I-1048J679D01*
G01X196850D01*
G37*
G36*
G01Y1304290D02*
G02X190500Y1310640I0J6350D01*
G01Y1352090D01*
X190600Y1352320D01*
G03Y1357860I-6450J2770D01*
G01X190500Y1358090D01*
Y1364790D01*
X190600Y1365020D01*
G03Y1370560I-6450J2770D01*
G01X190500Y1370790D01*
Y1374140D01*
G02X196850Y1380490I6350J0D01*
G01X353240D01*
G02X354290Y1379920I2J-1249D01*
G01X355610Y1377900D01*
X355660Y1377270D01*
X355530Y1376980D01*
G03X364790Y1367720I6420J-2840D01*
G01X365080Y1367850D01*
X365710Y1367800D01*
X367730Y1366480D01*
G02X368300Y1365430I-679J-1048D01*
G01Y1363800D01*
G02X367730Y1362750I-1249J-2D01*
G01X365710Y1361430D01*
X365080Y1361380D01*
X364790Y1361510D01*
G03X364920Y1348730I-2840J-6420D01*
G01X365180Y1348850D01*
X365770Y1348840D01*
X368060Y1347610D01*
X368400Y1347130D01*
X368440Y1346840D01*
G03X381000Y1336040I12560J1903D01*
G01X431800D01*
G02X438150Y1329690I0J-6350D01*
G01Y1310640D01*
G02X431800Y1304290I-6350J0D01*
G01X370660D01*
G02X369610Y1304860I-2J1249D01*
G01X368290Y1306880D01*
X368240Y1307510D01*
X368370Y1307800D01*
G03X355530I-6420J2840D01*
G01X355660Y1307510D01*
X355610Y1306880D01*
X354290Y1304860D01*
G02X353240Y1304290I-1048J679D01*
G01X196850D01*
G37*
G36*
G01Y1405890D02*
G02X190500Y1412240I0J6350D01*
G01Y1453690D01*
X190600Y1453920D01*
G03Y1459460I-6450J2770D01*
G01X190500Y1459690D01*
Y1466390D01*
X190600Y1466620D01*
G03Y1472160I-6450J2770D01*
G01X190500Y1472390D01*
Y1475740D01*
G02X196850Y1482090I6350J0D01*
G01X353240D01*
G02X354290Y1481520I2J-1249D01*
G01X355610Y1479500D01*
X355660Y1478870D01*
X355530Y1478580D01*
G03X364790Y1469320I6420J-2840D01*
G01X365080Y1469450D01*
X365710Y1469400D01*
X367730Y1468080D01*
G02X368300Y1467030I-679J-1048D01*
G01Y1465400D01*
G02X367730Y1464350I-1249J-2D01*
G01X365710Y1463030D01*
X365080Y1462980D01*
X364790Y1463110D01*
G03X364920Y1450330I-2840J-6420D01*
G01X365180Y1450450D01*
X365770Y1450440D01*
X368060Y1449210D01*
X368400Y1448730D01*
X368440Y1448440D01*
G03X381000Y1437640I12560J1903D01*
G01X431800D01*
G02X438150Y1431290I0J-6350D01*
G01Y1412240D01*
G02X431800Y1405890I-6350J0D01*
G01X370660D01*
G02X369610Y1406460I-2J1249D01*
G01X368290Y1408480D01*
X368240Y1409110D01*
X368370Y1409400D01*
G03X355530I-6420J2840D01*
G01X355660Y1409110D01*
X355610Y1408480D01*
X354290Y1406460D01*
G02X353240Y1405890I-1048J679D01*
G01X196850D01*
G37*
G36*
G01Y1507490D02*
G02X190500Y1513840I0J6350D01*
G01Y1555290D01*
X190600Y1555520D01*
G03Y1561060I-6450J2770D01*
G01X190500Y1561290D01*
Y1567990D01*
X190600Y1568220D01*
G03Y1573760I-6450J2770D01*
G01X190500Y1573990D01*
Y1577340D01*
G02X196850Y1583690I6350J0D01*
G01X353240D01*
G02X354290Y1583120I2J-1249D01*
G01X355610Y1581100D01*
X355660Y1580470D01*
X355530Y1580180D01*
G03X364790Y1570920I6420J-2840D01*
G01X365080Y1571050D01*
X365710Y1571000D01*
X367730Y1569680D01*
G02X368300Y1568630I-679J-1048D01*
G01Y1567000D01*
G02X367730Y1565950I-1249J-2D01*
G01X365710Y1564630D01*
X365080Y1564580D01*
X364790Y1564710D01*
G03X364920Y1551930I-2840J-6420D01*
G01X365180Y1552050D01*
X365770Y1552040D01*
X368060Y1550810D01*
X368400Y1550330D01*
X368440Y1550040D01*
G03X381000Y1539240I12560J1903D01*
G01X431800D01*
G02X438150Y1532890I0J-6350D01*
G01Y1513840D01*
G02X431800Y1507490I-6350J0D01*
G01X370660D01*
G02X369610Y1508060I-2J1249D01*
G01X368290Y1510080D01*
X368240Y1510710D01*
X368370Y1511000D01*
G03X355530I-6420J2840D01*
G01X355660Y1510710D01*
X355610Y1510080D01*
X354290Y1508060D01*
G02X353240Y1507490I-1048J679D01*
G01X196850D01*
G37*
G36*
G01Y1609090D02*
G02X190500Y1615440I0J6350D01*
G01Y1656890D01*
X190600Y1657120D01*
G03Y1662660I-6450J2770D01*
G01X190500Y1662890D01*
Y1669590D01*
X190600Y1669820D01*
G03Y1675360I-6450J2770D01*
G01X190500Y1675590D01*
Y1678940D01*
G02X196850Y1685290I6350J0D01*
G01X353240D01*
G02X354290Y1684720I2J-1249D01*
G01X355610Y1682700D01*
X355660Y1682070D01*
X355530Y1681780D01*
G03X364790Y1672520I6420J-2840D01*
G01X365080Y1672650D01*
X365710Y1672600D01*
X367730Y1671280D01*
G02X368300Y1670230I-679J-1048D01*
G01Y1668600D01*
G02X367730Y1667550I-1249J-2D01*
G01X365710Y1666230D01*
X365080Y1666180D01*
X364790Y1666310D01*
G03X364920Y1653530I-2840J-6420D01*
G01X365180Y1653650D01*
X365770Y1653640D01*
X368060Y1652410D01*
X368400Y1651930D01*
X368440Y1651640D01*
G03X381000Y1640840I12560J1903D01*
G01X431800D01*
G02X438150Y1634490I0J-6350D01*
G01Y1615440D01*
G02X431800Y1609090I-6350J0D01*
G01X370660D01*
G02X369610Y1609660I-2J1249D01*
G01X368290Y1611680D01*
X368240Y1612310D01*
X368370Y1612600D01*
G03X355530I-6420J2840D01*
G01X355660Y1612310D01*
X355610Y1611680D01*
X354290Y1609660D01*
G02X353240Y1609090I-1048J679D01*
G01X196850D01*
G37*
G36*
G01Y1710690D02*
G02X190500Y1717040I0J6350D01*
G01Y1758490D01*
X190600Y1758720D01*
G03Y1764260I-6450J2770D01*
G01X190500Y1764490D01*
Y1771190D01*
X190600Y1771420D01*
G03Y1776960I-6450J2770D01*
G01X190500Y1777190D01*
Y1780540D01*
G02X196850Y1786890I6350J0D01*
G01X353240D01*
G02X354290Y1786320I2J-1249D01*
G01X355610Y1784300D01*
X355660Y1783670D01*
X355530Y1783380D01*
G03X364790Y1774120I6420J-2840D01*
G01X365080Y1774250D01*
X365710Y1774200D01*
X367730Y1772880D01*
G02X368300Y1771830I-679J-1048D01*
G01Y1770200D01*
G02X367730Y1769150I-1249J-2D01*
G01X365710Y1767830D01*
X365080Y1767780D01*
X364790Y1767910D01*
G03X364920Y1755130I-2840J-6420D01*
G01X365180Y1755250D01*
X365770Y1755240D01*
X368060Y1754010D01*
X368400Y1753530D01*
X368440Y1753240D01*
G03X381000Y1742440I12560J1903D01*
G01X431800D01*
G02X438150Y1736090I0J-6350D01*
G01Y1717040D01*
G02X431800Y1710690I-6350J0D01*
G01X370660D01*
G02X369610Y1711260I-2J1249D01*
G01X368290Y1713280D01*
X368240Y1713910D01*
X368370Y1714200D01*
G03X355530I-6420J2840D01*
G01X355660Y1713910D01*
X355610Y1713280D01*
X354290Y1711260D01*
G02X353240Y1710690I-1048J679D01*
G01X196850D01*
G37*
G36*
G01Y1812290D02*
G02X190500Y1818640I0J6350D01*
G01Y1860090D01*
X190600Y1860320D01*
G03Y1865860I-6450J2770D01*
G01X190500Y1866090D01*
Y1872790D01*
X190600Y1873020D01*
G03Y1878560I-6450J2770D01*
G01X190500Y1878790D01*
Y1882140D01*
G02X196850Y1888490I6350J0D01*
G01X353240D01*
G02X354290Y1887920I2J-1249D01*
G01X355610Y1885900D01*
X355660Y1885270D01*
X355530Y1884980D01*
G03X364790Y1875720I6420J-2840D01*
G01X365080Y1875850D01*
X365710Y1875800D01*
X367730Y1874480D01*
G02X368300Y1873430I-679J-1048D01*
G01Y1871800D01*
G02X367730Y1870750I-1249J-2D01*
G01X365710Y1869430D01*
X365080Y1869380D01*
X364790Y1869510D01*
G03X364920Y1856730I-2840J-6420D01*
G01X365180Y1856850D01*
X365770Y1856840D01*
X368060Y1855610D01*
X368400Y1855130D01*
X368440Y1854840D01*
G03X381000Y1844040I12560J1903D01*
G01X431800D01*
G02X438150Y1837690I0J-6350D01*
G01Y1818640D01*
G02X431800Y1812290I-6350J0D01*
G01X370660D01*
G02X369610Y1812860I-2J1249D01*
G01X368290Y1814880D01*
X368240Y1815510D01*
X368370Y1815800D01*
G03X355530I-6420J2840D01*
G01X355660Y1815510D01*
X355610Y1814880D01*
X354290Y1812860D01*
G02X353240Y1812290I-1048J679D01*
G01X196850D01*
G37*
G36*
G01Y1913890D02*
G02X190500Y1920240I0J6350D01*
G01Y1961690D01*
X190600Y1961920D01*
G03Y1967460I-6450J2770D01*
G01X190500Y1967690D01*
Y1974390D01*
X190600Y1974620D01*
G03Y1980160I-6450J2770D01*
G01X190500Y1980390D01*
Y1983740D01*
G02X196850Y1990090I6350J0D01*
G01X353240D01*
G02X354290Y1989520I2J-1249D01*
G01X355610Y1987500D01*
X355660Y1986870D01*
X355530Y1986580D01*
G03X364790Y1977320I6420J-2840D01*
G01X365080Y1977450D01*
X365710Y1977400D01*
X367730Y1976080D01*
G02X368300Y1975030I-679J-1048D01*
G01Y1973400D01*
G02X367730Y1972350I-1249J-2D01*
G01X365710Y1971030D01*
X365080Y1970980D01*
X364790Y1971110D01*
G03X364920Y1958330I-2840J-6420D01*
G01X365180Y1958450D01*
X365770Y1958440D01*
X368060Y1957210D01*
X368400Y1956730D01*
X368440Y1956440D01*
G03X381000Y1945640I12560J1903D01*
G01X431800D01*
G02X438150Y1939290I0J-6350D01*
G01Y1920240D01*
G02X431800Y1913890I-6350J0D01*
G01X370660D01*
G02X369610Y1914460I-2J1249D01*
G01X368290Y1916480D01*
X368240Y1917110D01*
X368370Y1917400D01*
G03X355530I-6420J2840D01*
G01X355660Y1917110D01*
X355610Y1916480D01*
X354290Y1914460D01*
G02X353240Y1913890I-1048J679D01*
G01X196850D01*
G37*
G36*
G01X457200Y129540D02*
G02X450850Y135890I0J6350D01*
G01Y161290D01*
G03X438150Y173990I-12700J0D01*
G01X387350D01*
G02X381000Y180340I0J6350D01*
G01Y199390D01*
G02X387350Y205740I6350J0D01*
G01X558800D01*
G02X565150Y199390I0J-6350D01*
G01Y135890D01*
G02X558800Y129540I-6350J0D01*
G01X457200D01*
G37*
G36*
G01Y231140D02*
G02X450850Y237490I0J6350D01*
G01Y262890D01*
G03X438150Y275590I-12700J0D01*
G01X387350D01*
G02X381000Y281940I0J6350D01*
G01Y300990D01*
G02X387350Y307340I6350J0D01*
G01X558800D01*
G02X565150Y300990I0J-6350D01*
G01Y237490D01*
G02X558800Y231140I-6350J0D01*
G01X457200D01*
G37*
G36*
G01Y332740D02*
G02X450850Y339090I0J6350D01*
G01Y364490D01*
G03X438150Y377190I-12700J0D01*
G01X387350D01*
G02X381000Y383540I0J6350D01*
G01Y402590D01*
G02X387350Y408940I6350J0D01*
G01X558800D01*
G02X565150Y402590I0J-6350D01*
G01Y339090D01*
G02X558800Y332740I-6350J0D01*
G01X457200D01*
G37*
G36*
G01Y434340D02*
G02X450850Y440690I0J6350D01*
G01Y466090D01*
G03X438150Y478790I-12700J0D01*
G01X387350D01*
G02X381000Y485140I0J6350D01*
G01Y504190D01*
G02X387350Y510540I6350J0D01*
G01X558800D01*
G02X565150Y504190I0J-6350D01*
G01Y440690D01*
G02X558800Y434340I-6350J0D01*
G01X457200D01*
G37*
G36*
G01Y535940D02*
G02X450850Y542290I0J6350D01*
G01Y567690D01*
G03X438150Y580390I-12700J0D01*
G01X387350D01*
G02X381000Y586740I0J6350D01*
G01Y605790D01*
G02X387350Y612140I6350J0D01*
G01X558800D01*
G02X565150Y605790I0J-6350D01*
G01Y542290D01*
G02X558800Y535940I-6350J0D01*
G01X457200D01*
G37*
G36*
G01Y637540D02*
G02X450850Y643890I0J6350D01*
G01Y669290D01*
G03X438150Y681990I-12700J0D01*
G01X387350D01*
G02X381000Y688340I0J6350D01*
G01Y707390D01*
G02X387350Y713740I6350J0D01*
G01X558800D01*
G02X565150Y707390I0J-6350D01*
G01Y643890D01*
G02X558800Y637540I-6350J0D01*
G01X457200D01*
G37*
G36*
G01Y739140D02*
G02X450850Y745490I0J6350D01*
G01Y770890D01*
G03X438150Y783590I-12700J0D01*
G01X387350D01*
G02X381000Y789940I0J6350D01*
G01Y808990D01*
G02X387350Y815340I6350J0D01*
G01X558800D01*
G02X565150Y808990I0J-6350D01*
G01Y745490D01*
G02X558800Y739140I-6350J0D01*
G01X457200D01*
G37*
G36*
G01Y840740D02*
G02X450850Y847090I0J6350D01*
G01Y872490D01*
G03X438150Y885190I-12700J0D01*
G01X387350D01*
G02X381000Y891540I0J6350D01*
G01Y910590D01*
G02X387350Y916940I6350J0D01*
G01X558800D01*
G02X565150Y910590I0J-6350D01*
G01Y847090D01*
G02X558800Y840740I-6350J0D01*
G01X457200D01*
G37*
G36*
G01Y1202690D02*
G02X450850Y1209040I0J6350D01*
G01Y1234440D01*
G03X438150Y1247140I-12700J0D01*
G01X387350D01*
G02X381000Y1253490I0J6350D01*
G01Y1272540D01*
G02X387350Y1278890I6350J0D01*
G01X558800D01*
G02X565150Y1272540I0J-6350D01*
G01Y1209040D01*
G02X558800Y1202690I-6350J0D01*
G01X457200D01*
G37*
G36*
G01Y1304290D02*
G02X450850Y1310640I0J6350D01*
G01Y1336040D01*
G03X438150Y1348740I-12700J0D01*
G01X387350D01*
G02X381000Y1355090I0J6350D01*
G01Y1374140D01*
G02X387350Y1380490I6350J0D01*
G01X558800D01*
G02X565150Y1374140I0J-6350D01*
G01Y1310640D01*
G02X558800Y1304290I-6350J0D01*
G01X457200D01*
G37*
G36*
G01Y1405890D02*
G02X450850Y1412240I0J6350D01*
G01Y1437640D01*
G03X438150Y1450340I-12700J0D01*
G01X387350D01*
G02X381000Y1456690I0J6350D01*
G01Y1475740D01*
G02X387350Y1482090I6350J0D01*
G01X558800D01*
G02X565150Y1475740I0J-6350D01*
G01Y1412240D01*
G02X558800Y1405890I-6350J0D01*
G01X457200D01*
G37*
G36*
G01Y1507490D02*
G02X450850Y1513840I0J6350D01*
G01Y1539240D01*
G03X438150Y1551940I-12700J0D01*
G01X387350D01*
G02X381000Y1558290I0J6350D01*
G01Y1577340D01*
G02X387350Y1583690I6350J0D01*
G01X558800D01*
G02X565150Y1577340I0J-6350D01*
G01Y1513840D01*
G02X558800Y1507490I-6350J0D01*
G01X457200D01*
G37*
G36*
G01Y1609090D02*
G02X450850Y1615440I0J6350D01*
G01Y1640840D01*
G03X438150Y1653540I-12700J0D01*
G01X387350D01*
G02X381000Y1659890I0J6350D01*
G01Y1678940D01*
G02X387350Y1685290I6350J0D01*
G01X558800D01*
G02X565150Y1678940I0J-6350D01*
G01Y1615440D01*
G02X558800Y1609090I-6350J0D01*
G01X457200D01*
G37*
G36*
G01Y1710690D02*
G02X450850Y1717040I0J6350D01*
G01Y1742440D01*
G03X438150Y1755140I-12700J0D01*
G01X387350D01*
G02X381000Y1761490I0J6350D01*
G01Y1780540D01*
G02X387350Y1786890I6350J0D01*
G01X558800D01*
G02X565150Y1780540I0J-6350D01*
G01Y1717040D01*
G02X558800Y1710690I-6350J0D01*
G01X457200D01*
G37*
G36*
G01Y1812290D02*
G02X450850Y1818640I0J6350D01*
G01Y1844040D01*
G03X438150Y1856740I-12700J0D01*
G01X387350D01*
G02X381000Y1863090I0J6350D01*
G01Y1882140D01*
G02X387350Y1888490I6350J0D01*
G01X558800D01*
G02X565150Y1882140I0J-6350D01*
G01Y1818640D01*
G02X558800Y1812290I-6350J0D01*
G01X457200D01*
G37*
G36*
G01Y1913890D02*
G02X450850Y1920240I0J6350D01*
G01Y1945640D01*
G03X438150Y1958340I-12700J0D01*
G01X387350D01*
G02X381000Y1964690I0J6350D01*
G01Y1983740D01*
G02X387350Y1990090I6350J0D01*
G01X558800D01*
G02X565150Y1983740I0J-6350D01*
G01Y1920240D01*
G02X558800Y1913890I-6350J0D01*
G01X457200D01*
G37*
G36*
G01X584200Y129540D02*
G02X577850Y135890I0J6350D01*
G01Y149020D01*
G02X579100Y150270I1250J0D01*
G01X600320D01*
G03X601570Y151520I0J1250D01*
G01Y160040D01*
G02X602820Y161290I1250J0D01*
G01X685800D01*
G03X698500Y173990I0J12700D01*
G01Y199390D01*
G02X704850Y205740I6350J0D01*
G01X792210D01*
G02X793320Y205060I-3J-1250D01*
G01X794500Y202770D01*
X794440Y202070D01*
X794240Y201780D01*
G03X818660I12210J-8740D01*
G01X818460Y202070D01*
X818400Y202770D01*
X819580Y205060D01*
G02X820690Y205740I1113J-570D01*
G01X895350D01*
G02X901700Y199390I0J-6350D01*
G01Y135890D01*
G02X895350Y129540I-6350J0D01*
G01X825400D01*
G02X824330Y130150I3J1249D01*
G01X823050Y132280D01*
X823040Y132930D01*
X823200Y133220D01*
G03X789700I-16750J9020D01*
G01X789860Y132930D01*
X789850Y132280D01*
X788570Y130150D01*
G02X787500Y129540I-1073J639D01*
G01X584200D01*
G37*
G36*
G01X615950Y180340D02*
Y199390D01*
G02X622300Y205740I6350J0D01*
G01X679450D01*
G02X685800Y199390I0J-6350D01*
G01Y180340D01*
G02X679450Y173990I-6350J0D01*
G01X622300D01*
G02X615950Y180340I0J6350D01*
G37*
G36*
G01D02*
Y199390D01*
G02X622300Y205740I6350J0D01*
G01X679450D01*
G02X685800Y199390I0J-6350D01*
G01Y180340D01*
G02X679450Y173990I-6350J0D01*
G01X622300D01*
G02X615950Y180340I0J6350D01*
G37*
G36*
G01X584200Y231140D02*
G02X577850Y237490I0J6350D01*
G01Y250620D01*
G02X579100Y251870I1250J0D01*
G01X600320D01*
G03X601570Y253120I0J1250D01*
G01Y261640D01*
G02X602820Y262890I1250J0D01*
G01X685800D01*
G03X698500Y275590I0J12700D01*
G01Y300990D01*
G02X704850Y307340I6350J0D01*
G01X792210D01*
G02X793320Y306660I-3J-1250D01*
G01X794500Y304370D01*
X794440Y303670D01*
X794240Y303380D01*
G03X818660I12210J-8740D01*
G01X818460Y303670D01*
X818400Y304370D01*
X819580Y306660D01*
G02X820690Y307340I1113J-570D01*
G01X895350D01*
G02X901700Y300990I0J-6350D01*
G01Y237490D01*
G02X895350Y231140I-6350J0D01*
G01X825400D01*
G02X824330Y231750I3J1249D01*
G01X823050Y233880D01*
X823040Y234530D01*
X823200Y234820D01*
G03X789700I-16750J9020D01*
G01X789860Y234530D01*
X789850Y233880D01*
X788570Y231750D01*
G02X787500Y231140I-1073J639D01*
G01X584200D01*
G37*
G36*
G01X615950Y281940D02*
Y300990D01*
G02X622300Y307340I6350J0D01*
G01X679450D01*
G02X685800Y300990I0J-6350D01*
G01Y281940D01*
G02X679450Y275590I-6350J0D01*
G01X622300D01*
G02X615950Y281940I0J6350D01*
G37*
G36*
G01D02*
Y300990D01*
G02X622300Y307340I6350J0D01*
G01X679450D01*
G02X685800Y300990I0J-6350D01*
G01Y281940D01*
G02X679450Y275590I-6350J0D01*
G01X622300D01*
G02X615950Y281940I0J6350D01*
G37*
G36*
G01X584200Y332740D02*
G02X577850Y339090I0J6350D01*
G01Y352220D01*
G02X579100Y353470I1250J0D01*
G01X600320D01*
G03X601570Y354720I0J1250D01*
G01Y363240D01*
G02X602820Y364490I1250J0D01*
G01X685800D01*
G03X698500Y377190I0J12700D01*
G01Y402590D01*
G02X704850Y408940I6350J0D01*
G01X792210D01*
G02X793320Y408260I-3J-1250D01*
G01X794500Y405970D01*
X794440Y405270D01*
X794240Y404980D01*
G03X818660I12210J-8740D01*
G01X818460Y405270D01*
X818400Y405970D01*
X819580Y408260D01*
G02X820690Y408940I1113J-570D01*
G01X895350D01*
G02X901700Y402590I0J-6350D01*
G01Y339090D01*
G02X895350Y332740I-6350J0D01*
G01X825400D01*
G02X824330Y333350I3J1249D01*
G01X823050Y335480D01*
X823040Y336130D01*
X823200Y336420D01*
G03X789700I-16750J9020D01*
G01X789860Y336130D01*
X789850Y335480D01*
X788570Y333350D01*
G02X787500Y332740I-1073J639D01*
G01X584200D01*
G37*
G36*
G01X615950Y383540D02*
Y402590D01*
G02X622300Y408940I6350J0D01*
G01X679450D01*
G02X685800Y402590I0J-6350D01*
G01Y383540D01*
G02X679450Y377190I-6350J0D01*
G01X622300D01*
G02X615950Y383540I0J6350D01*
G37*
G36*
G01D02*
Y402590D01*
G02X622300Y408940I6350J0D01*
G01X679450D01*
G02X685800Y402590I0J-6350D01*
G01Y383540D01*
G02X679450Y377190I-6350J0D01*
G01X622300D01*
G02X615950Y383540I0J6350D01*
G37*
G36*
G01X584200Y434340D02*
G02X577850Y440690I0J6350D01*
G01Y453820D01*
G02X579100Y455070I1250J0D01*
G01X600320D01*
G03X601570Y456320I0J1250D01*
G01Y464840D01*
G02X602820Y466090I1250J0D01*
G01X685800D01*
G03X698500Y478790I0J12700D01*
G01Y504190D01*
G02X704850Y510540I6350J0D01*
G01X792210D01*
G02X793320Y509860I-3J-1250D01*
G01X794500Y507570D01*
X794440Y506870D01*
X794240Y506580D01*
G03X818660I12210J-8740D01*
G01X818460Y506870D01*
X818400Y507570D01*
X819580Y509860D01*
G02X820690Y510540I1113J-570D01*
G01X895350D01*
G02X901700Y504190I0J-6350D01*
G01Y440690D01*
G02X895350Y434340I-6350J0D01*
G01X825400D01*
G02X824330Y434950I3J1249D01*
G01X823050Y437080D01*
X823040Y437730D01*
X823200Y438020D01*
G03X789700I-16750J9020D01*
G01X789860Y437730D01*
X789850Y437080D01*
X788570Y434950D01*
G02X787500Y434340I-1073J639D01*
G01X584200D01*
G37*
G36*
G01X615950Y485140D02*
Y504190D01*
G02X622300Y510540I6350J0D01*
G01X679450D01*
G02X685800Y504190I0J-6350D01*
G01Y485140D01*
G02X679450Y478790I-6350J0D01*
G01X622300D01*
G02X615950Y485140I0J6350D01*
G37*
G36*
G01D02*
Y504190D01*
G02X622300Y510540I6350J0D01*
G01X679450D01*
G02X685800Y504190I0J-6350D01*
G01Y485140D01*
G02X679450Y478790I-6350J0D01*
G01X622300D01*
G02X615950Y485140I0J6350D01*
G37*
G36*
G01X584200Y535940D02*
G02X577850Y542290I0J6350D01*
G01Y555420D01*
G02X579100Y556670I1250J0D01*
G01X600320D01*
G03X601570Y557920I0J1250D01*
G01Y566440D01*
G02X602820Y567690I1250J0D01*
G01X685800D01*
G03X698500Y580390I0J12700D01*
G01Y605790D01*
G02X704850Y612140I6350J0D01*
G01X792210D01*
G02X793320Y611460I-3J-1250D01*
G01X794500Y609170D01*
X794440Y608470D01*
X794240Y608180D01*
G03X818660I12210J-8740D01*
G01X818460Y608470D01*
X818400Y609170D01*
X819580Y611460D01*
G02X820690Y612140I1113J-570D01*
G01X895350D01*
G02X901700Y605790I0J-6350D01*
G01Y542290D01*
G02X895350Y535940I-6350J0D01*
G01X825400D01*
G02X824330Y536550I3J1249D01*
G01X823050Y538680D01*
X823040Y539330D01*
X823200Y539620D01*
G03X789700I-16750J9020D01*
G01X789860Y539330D01*
X789850Y538680D01*
X788570Y536550D01*
G02X787500Y535940I-1073J639D01*
G01X584200D01*
G37*
G36*
G01X615950Y586740D02*
Y605790D01*
G02X622300Y612140I6350J0D01*
G01X679450D01*
G02X685800Y605790I0J-6350D01*
G01Y586740D01*
G02X679450Y580390I-6350J0D01*
G01X622300D01*
G02X615950Y586740I0J6350D01*
G37*
G36*
G01D02*
Y605790D01*
G02X622300Y612140I6350J0D01*
G01X679450D01*
G02X685800Y605790I0J-6350D01*
G01Y586740D01*
G02X679450Y580390I-6350J0D01*
G01X622300D01*
G02X615950Y586740I0J6350D01*
G37*
G36*
G01X584200Y637540D02*
G02X577850Y643890I0J6350D01*
G01Y657020D01*
G02X579100Y658270I1250J0D01*
G01X600320D01*
G03X601570Y659520I0J1250D01*
G01Y668040D01*
G02X602820Y669290I1250J0D01*
G01X685800D01*
G03X698500Y681990I0J12700D01*
G01Y707390D01*
G02X704850Y713740I6350J0D01*
G01X792210D01*
G02X793320Y713060I-3J-1250D01*
G01X794500Y710770D01*
X794440Y710070D01*
X794240Y709780D01*
G03X818660I12210J-8740D01*
G01X818460Y710070D01*
X818400Y710770D01*
X819580Y713060D01*
G02X820690Y713740I1113J-570D01*
G01X895350D01*
G02X901700Y707390I0J-6350D01*
G01Y643890D01*
G02X895350Y637540I-6350J0D01*
G01X825400D01*
G02X824330Y638150I3J1249D01*
G01X823050Y640280D01*
X823040Y640930D01*
X823200Y641220D01*
G03X789700I-16750J9020D01*
G01X789860Y640930D01*
X789850Y640280D01*
X788570Y638150D01*
G02X787500Y637540I-1073J639D01*
G01X584200D01*
G37*
G36*
G01X615950Y688340D02*
Y707390D01*
G02X622300Y713740I6350J0D01*
G01X679450D01*
G02X685800Y707390I0J-6350D01*
G01Y688340D01*
G02X679450Y681990I-6350J0D01*
G01X622300D01*
G02X615950Y688340I0J6350D01*
G37*
G36*
G01D02*
Y707390D01*
G02X622300Y713740I6350J0D01*
G01X679450D01*
G02X685800Y707390I0J-6350D01*
G01Y688340D01*
G02X679450Y681990I-6350J0D01*
G01X622300D01*
G02X615950Y688340I0J6350D01*
G37*
G36*
G01X584200Y739140D02*
G02X577850Y745490I0J6350D01*
G01Y758620D01*
G02X579100Y759870I1250J0D01*
G01X600320D01*
G03X601570Y761120I0J1250D01*
G01Y769640D01*
G02X602820Y770890I1250J0D01*
G01X685800D01*
G03X698500Y783590I0J12700D01*
G01Y808990D01*
G02X704850Y815340I6350J0D01*
G01X792210D01*
G02X793320Y814660I-3J-1250D01*
G01X794500Y812370D01*
X794440Y811670D01*
X794240Y811380D01*
G03X818660I12210J-8740D01*
G01X818460Y811670D01*
X818400Y812370D01*
X819580Y814660D01*
G02X820690Y815340I1113J-570D01*
G01X895350D01*
G02X901700Y808990I0J-6350D01*
G01Y745490D01*
G02X895350Y739140I-6350J0D01*
G01X825400D01*
G02X824330Y739750I3J1249D01*
G01X823050Y741880D01*
X823040Y742530D01*
X823200Y742820D01*
G03X789700I-16750J9020D01*
G01X789860Y742530D01*
X789850Y741880D01*
X788570Y739750D01*
G02X787500Y739140I-1073J639D01*
G01X584200D01*
G37*
G36*
G01X615950Y789940D02*
Y808990D01*
G02X622300Y815340I6350J0D01*
G01X679450D01*
G02X685800Y808990I0J-6350D01*
G01Y789940D01*
G02X679450Y783590I-6350J0D01*
G01X622300D01*
G02X615950Y789940I0J6350D01*
G37*
G36*
G01X584200Y840740D02*
G02X577850Y847090I0J6350D01*
G01Y860220D01*
G02X579100Y861470I1250J0D01*
G01X600320D01*
G03X601570Y862720I0J1250D01*
G01Y871240D01*
G02X602820Y872490I1250J0D01*
G01X685800D01*
G03X698500Y885190I0J12700D01*
G01Y910590D01*
G02X704850Y916940I6350J0D01*
G01X792210D01*
G02X793320Y916260I-3J-1250D01*
G01X794500Y913970D01*
X794440Y913270D01*
X794240Y912980D01*
G03X818660I12210J-8740D01*
G01X818460Y913270D01*
X818400Y913970D01*
X819580Y916260D01*
G02X820690Y916940I1113J-570D01*
G01X895350D01*
G02X901700Y910590I0J-6350D01*
G01Y847090D01*
G02X895350Y840740I-6350J0D01*
G01X825400D01*
G02X824330Y841350I3J1249D01*
G01X823050Y843480D01*
X823040Y844130D01*
X823200Y844420D01*
G03X789700I-16750J9020D01*
G01X789860Y844130D01*
X789850Y843480D01*
X788570Y841350D01*
G02X787500Y840740I-1073J639D01*
G01X584200D01*
G37*
G36*
G01X615950Y891540D02*
Y910590D01*
G02X622300Y916940I6350J0D01*
G01X679450D01*
G02X685800Y910590I0J-6350D01*
G01Y891540D01*
G02X679450Y885190I-6350J0D01*
G01X622300D01*
G02X615950Y891540I0J6350D01*
G37*
G36*
G01D02*
Y910590D01*
G02X622300Y916940I6350J0D01*
G01X679450D01*
G02X685800Y910590I0J-6350D01*
G01Y891540D01*
G02X679450Y885190I-6350J0D01*
G01X622300D01*
G02X615950Y891540I0J6350D01*
G37*
G36*
G01X584200Y1202690D02*
G02X577850Y1209040I0J6350D01*
G01Y1222170D01*
G02X579100Y1223420I1250J0D01*
G01X600320D01*
G03X601570Y1224670I0J1250D01*
G01Y1233190D01*
G02X602820Y1234440I1250J0D01*
G01X685800D01*
G03X698500Y1247140I0J12700D01*
G01Y1272540D01*
G02X704850Y1278890I6350J0D01*
G01X792210D01*
G02X793320Y1278210I-3J-1250D01*
G01X794500Y1275920D01*
X794440Y1275220D01*
X794240Y1274930D01*
G03X818660I12210J-8740D01*
G01X818460Y1275220D01*
X818400Y1275920D01*
X819580Y1278210D01*
G02X820690Y1278890I1113J-570D01*
G01X895350D01*
G02X901700Y1272540I0J-6350D01*
G01Y1209040D01*
G02X895350Y1202690I-6350J0D01*
G01X825400D01*
G02X824330Y1203300I3J1249D01*
G01X823050Y1205430D01*
X823040Y1206080D01*
X823200Y1206370D01*
G03X789700I-16750J9020D01*
G01X789860Y1206080D01*
X789850Y1205430D01*
X788570Y1203300D01*
G02X787500Y1202690I-1073J639D01*
G01X584200D01*
G37*
G36*
G01X615950Y1253490D02*
Y1272540D01*
G02X622300Y1278890I6350J0D01*
G01X679450D01*
G02X685800Y1272540I0J-6350D01*
G01Y1253490D01*
G02X679450Y1247140I-6350J0D01*
G01X622300D01*
G02X615950Y1253490I0J6350D01*
G37*
G36*
G01D02*
Y1272540D01*
G02X622300Y1278890I6350J0D01*
G01X679450D01*
G02X685800Y1272540I0J-6350D01*
G01Y1253490D01*
G02X679450Y1247140I-6350J0D01*
G01X622300D01*
G02X615950Y1253490I0J6350D01*
G37*
G36*
G01X579100Y1325020D02*
X600320D01*
G03X601570Y1326270I0J1250D01*
G01Y1334790D01*
G02X602820Y1336040I1250J0D01*
G01X685800D01*
G03X698500Y1348740I0J12700D01*
G01Y1374140D01*
G02X704850Y1380490I6350J0D01*
G01X792210D01*
G02X793320Y1379810I-3J-1250D01*
G01X794500Y1377520D01*
X794440Y1376820D01*
X794240Y1376530D01*
G03X818660I12210J-8740D01*
G01X818460Y1376820D01*
X818400Y1377520D01*
X819580Y1379810D01*
G02X820690Y1380490I1113J-570D01*
G01X895350D01*
G02X901700Y1374140I0J-6350D01*
G01Y1310640D01*
G02X895350Y1304290I-6350J0D01*
G01X825400D01*
G02X824330Y1304900I3J1249D01*
G01X823050Y1307030D01*
X823040Y1307680D01*
X823200Y1307970D01*
G03X789700I-16750J9020D01*
G01X789860Y1307680D01*
X789850Y1307030D01*
X788570Y1304900D01*
G02X787500Y1304290I-1073J639D01*
G01X584200D01*
G02X577850Y1310640I0J6350D01*
G01Y1323770D01*
G02X579100Y1325020I1250J0D01*
G37*
G36*
G01X615950Y1355090D02*
Y1374140D01*
G02X622300Y1380490I6350J0D01*
G01X679450D01*
G02X685800Y1374140I0J-6350D01*
G01Y1355090D01*
G02X679450Y1348740I-6350J0D01*
G01X622300D01*
G02X615950Y1355090I0J6350D01*
G37*
G36*
G01D02*
Y1374140D01*
G02X622300Y1380490I6350J0D01*
G01X679450D01*
G02X685800Y1374140I0J-6350D01*
G01Y1355090D01*
G02X679450Y1348740I-6350J0D01*
G01X622300D01*
G02X615950Y1355090I0J6350D01*
G37*
G36*
G01X579100Y1426620D02*
X600320D01*
G03X601570Y1427870I0J1250D01*
G01Y1436390D01*
G02X602820Y1437640I1250J0D01*
G01X685800D01*
G03X698500Y1450340I0J12700D01*
G01Y1475740D01*
G02X704850Y1482090I6350J0D01*
G01X792210D01*
G02X793320Y1481410I-3J-1250D01*
G01X794500Y1479120D01*
X794440Y1478420D01*
X794240Y1478130D01*
G03X818660I12210J-8740D01*
G01X818460Y1478420D01*
X818400Y1479120D01*
X819580Y1481410D01*
G02X820690Y1482090I1113J-570D01*
G01X895350D01*
G02X901700Y1475740I0J-6350D01*
G01Y1412240D01*
G02X895350Y1405890I-6350J0D01*
G01X825400D01*
G02X824330Y1406500I3J1249D01*
G01X823050Y1408630D01*
X823040Y1409280D01*
X823200Y1409570D01*
G03X789700I-16750J9020D01*
G01X789860Y1409280D01*
X789850Y1408630D01*
X788570Y1406500D01*
G02X787500Y1405890I-1073J639D01*
G01X584200D01*
G02X577850Y1412240I0J6350D01*
G01Y1425370D01*
G02X579100Y1426620I1250J0D01*
G37*
G36*
G01X615950Y1456690D02*
Y1475740D01*
G02X622300Y1482090I6350J0D01*
G01X679450D01*
G02X685800Y1475740I0J-6350D01*
G01Y1456690D01*
G02X679450Y1450340I-6350J0D01*
G01X622300D01*
G02X615950Y1456690I0J6350D01*
G37*
G36*
G01D02*
Y1475740D01*
G02X622300Y1482090I6350J0D01*
G01X679450D01*
G02X685800Y1475740I0J-6350D01*
G01Y1456690D01*
G02X679450Y1450340I-6350J0D01*
G01X622300D01*
G02X615950Y1456690I0J6350D01*
G37*
G36*
G01X579100Y1528220D02*
X600320D01*
G03X601570Y1529470I0J1250D01*
G01Y1537990D01*
G02X602820Y1539240I1250J0D01*
G01X685800D01*
G03X698500Y1551940I0J12700D01*
G01Y1577340D01*
G02X704850Y1583690I6350J0D01*
G01X792210D01*
G02X793320Y1583010I-3J-1250D01*
G01X794500Y1580720D01*
X794440Y1580020D01*
X794240Y1579730D01*
G03X818660I12210J-8740D01*
G01X818460Y1580020D01*
X818400Y1580720D01*
X819580Y1583010D01*
G02X820690Y1583690I1113J-570D01*
G01X895350D01*
G02X901700Y1577340I0J-6350D01*
G01Y1513840D01*
G02X895350Y1507490I-6350J0D01*
G01X825400D01*
G02X824330Y1508100I3J1249D01*
G01X823050Y1510230D01*
X823040Y1510880D01*
X823200Y1511170D01*
G03X789700I-16750J9020D01*
G01X789860Y1510880D01*
X789850Y1510230D01*
X788570Y1508100D01*
G02X787500Y1507490I-1073J639D01*
G01X584200D01*
G02X577850Y1513840I0J6350D01*
G01Y1526970D01*
G02X579100Y1528220I1250J0D01*
G37*
G36*
G01X615950Y1558290D02*
Y1577340D01*
G02X622300Y1583690I6350J0D01*
G01X679450D01*
G02X685800Y1577340I0J-6350D01*
G01Y1558290D01*
G02X679450Y1551940I-6350J0D01*
G01X622300D01*
G02X615950Y1558290I0J6350D01*
G37*
G36*
G01D02*
Y1577340D01*
G02X622300Y1583690I6350J0D01*
G01X679450D01*
G02X685800Y1577340I0J-6350D01*
G01Y1558290D01*
G02X679450Y1551940I-6350J0D01*
G01X622300D01*
G02X615950Y1558290I0J6350D01*
G37*
G36*
G01X579100Y1629820D02*
X600320D01*
G03X601570Y1631070I0J1250D01*
G01Y1639590D01*
G02X602820Y1640840I1250J0D01*
G01X685800D01*
G03X698500Y1653540I0J12700D01*
G01Y1678940D01*
G02X704850Y1685290I6350J0D01*
G01X792210D01*
G02X793320Y1684610I-3J-1250D01*
G01X794500Y1682320D01*
X794440Y1681620D01*
X794240Y1681330D01*
G03X818660I12210J-8740D01*
G01X818460Y1681620D01*
X818400Y1682320D01*
X819580Y1684610D01*
G02X820690Y1685290I1113J-570D01*
G01X895350D01*
G02X901700Y1678940I0J-6350D01*
G01Y1615440D01*
G02X895350Y1609090I-6350J0D01*
G01X825400D01*
G02X824330Y1609700I3J1249D01*
G01X823050Y1611830D01*
X823040Y1612480D01*
X823200Y1612770D01*
G03X789700I-16750J9020D01*
G01X789860Y1612480D01*
X789850Y1611830D01*
X788570Y1609700D01*
G02X787500Y1609090I-1073J639D01*
G01X584200D01*
G02X577850Y1615440I0J6350D01*
G01Y1628570D01*
G02X579100Y1629820I1250J0D01*
G37*
G36*
G01X615950Y1659890D02*
Y1678940D01*
G02X622300Y1685290I6350J0D01*
G01X679450D01*
G02X685800Y1678940I0J-6350D01*
G01Y1659890D01*
G02X679450Y1653540I-6350J0D01*
G01X622300D01*
G02X615950Y1659890I0J6350D01*
G37*
G36*
G01D02*
Y1678940D01*
G02X622300Y1685290I6350J0D01*
G01X679450D01*
G02X685800Y1678940I0J-6350D01*
G01Y1659890D01*
G02X679450Y1653540I-6350J0D01*
G01X622300D01*
G02X615950Y1659890I0J6350D01*
G37*
G36*
G01X579100Y1731420D02*
X600320D01*
G03X601570Y1732670I0J1250D01*
G01Y1741190D01*
G02X602820Y1742440I1250J0D01*
G01X685800D01*
G03X698500Y1755140I0J12700D01*
G01Y1780540D01*
G02X704850Y1786890I6350J0D01*
G01X792210D01*
G02X793320Y1786210I-3J-1250D01*
G01X794500Y1783920D01*
X794440Y1783220D01*
X794240Y1782930D01*
G03X818660I12210J-8740D01*
G01X818460Y1783220D01*
X818400Y1783920D01*
X819580Y1786210D01*
G02X820690Y1786890I1113J-570D01*
G01X895350D01*
G02X901700Y1780540I0J-6350D01*
G01Y1717040D01*
G02X895350Y1710690I-6350J0D01*
G01X825400D01*
G02X824330Y1711300I3J1249D01*
G01X823050Y1713430D01*
X823040Y1714080D01*
X823200Y1714370D01*
G03X789700I-16750J9020D01*
G01X789860Y1714080D01*
X789850Y1713430D01*
X788570Y1711300D01*
G02X787500Y1710690I-1073J639D01*
G01X584200D01*
G02X577850Y1717040I0J6350D01*
G01Y1730170D01*
G02X579100Y1731420I1250J0D01*
G37*
G36*
G01X615950Y1761490D02*
Y1780540D01*
G02X622300Y1786890I6350J0D01*
G01X679450D01*
G02X685800Y1780540I0J-6350D01*
G01Y1761490D01*
G02X679450Y1755140I-6350J0D01*
G01X622300D01*
G02X615950Y1761490I0J6350D01*
G37*
G36*
G01D02*
Y1780540D01*
G02X622300Y1786890I6350J0D01*
G01X679450D01*
G02X685800Y1780540I0J-6350D01*
G01Y1761490D01*
G02X679450Y1755140I-6350J0D01*
G01X622300D01*
G02X615950Y1761490I0J6350D01*
G37*
G36*
G01X579100Y1833020D02*
X600320D01*
G03X601570Y1834270I0J1250D01*
G01Y1842790D01*
G02X602820Y1844040I1250J0D01*
G01X685800D01*
G03X698500Y1856740I0J12700D01*
G01Y1882140D01*
G02X704850Y1888490I6350J0D01*
G01X792210D01*
G02X793320Y1887810I-3J-1250D01*
G01X794500Y1885520D01*
X794440Y1884820D01*
X794240Y1884530D01*
G03X818660I12210J-8740D01*
G01X818460Y1884820D01*
X818400Y1885520D01*
X819580Y1887810D01*
G02X820690Y1888490I1113J-570D01*
G01X895350D01*
G02X901700Y1882140I0J-6350D01*
G01Y1818640D01*
G02X895350Y1812290I-6350J0D01*
G01X825400D01*
G02X824330Y1812900I3J1249D01*
G01X823050Y1815030D01*
X823040Y1815680D01*
X823200Y1815970D01*
G03X789700I-16750J9020D01*
G01X789860Y1815680D01*
X789850Y1815030D01*
X788570Y1812900D01*
G02X787500Y1812290I-1073J639D01*
G01X584200D01*
G02X577850Y1818640I0J6350D01*
G01Y1831770D01*
G02X579100Y1833020I1250J0D01*
G37*
G36*
G01X615950Y1863090D02*
Y1882140D01*
G02X622300Y1888490I6350J0D01*
G01X679450D01*
G02X685800Y1882140I0J-6350D01*
G01Y1863090D01*
G02X679450Y1856740I-6350J0D01*
G01X622300D01*
G02X615950Y1863090I0J6350D01*
G37*
G36*
G01X579100Y1934620D02*
X600320D01*
G03X601570Y1935870I0J1250D01*
G01Y1944390D01*
G02X602820Y1945640I1250J0D01*
G01X685800D01*
G03X698500Y1958340I0J12700D01*
G01Y1983740D01*
G02X704850Y1990090I6350J0D01*
G01X792210D01*
G02X793320Y1989410I-3J-1250D01*
G01X794500Y1987120D01*
X794440Y1986420D01*
X794240Y1986130D01*
G03X818660I12210J-8740D01*
G01X818460Y1986420D01*
X818400Y1987120D01*
X819580Y1989410D01*
G02X820690Y1990090I1113J-570D01*
G01X895350D01*
G02X901700Y1983740I0J-6350D01*
G01Y1920240D01*
G02X895350Y1913890I-6350J0D01*
G01X825400D01*
G02X824330Y1914500I3J1249D01*
G01X823050Y1916630D01*
X823040Y1917280D01*
X823200Y1917570D01*
G03X789700I-16750J9020D01*
G01X789860Y1917280D01*
X789850Y1916630D01*
X788570Y1914500D01*
G02X787500Y1913890I-1073J639D01*
G01X584200D01*
G02X577850Y1920240I0J6350D01*
G01Y1933370D01*
G02X579100Y1934620I1250J0D01*
G37*
G36*
G01X615950Y1964690D02*
Y1983740D01*
G02X622300Y1990090I6350J0D01*
G01X679450D01*
G02X685800Y1983740I0J-6350D01*
G01Y1964690D01*
G02X679450Y1958340I-6350J0D01*
G01X622300D01*
G02X615950Y1964690I0J6350D01*
G37*
G36*
G01D02*
Y1983740D01*
G02X622300Y1990090I6350J0D01*
G01X679450D01*
G02X685800Y1983740I0J-6350D01*
G01Y1964690D01*
G02X679450Y1958340I-6350J0D01*
G01X622300D01*
G02X615950Y1964690I0J6350D01*
G37*
%LPC*%
G75*
G36*
G01X-26230Y927510D02*
X-24570D01*
G03X-23730Y927830I4J1251D01*
G02X-14370I4680J-5230D01*
G03X-13530Y927510I836J931D01*
G01X-11870D01*
G03X-11030Y927830I4J1251D01*
G02Y917370I4680J-5230D01*
G03X-11870Y917690I-836J-931D01*
G01X-13530D01*
G03X-14370Y917370I-4J-1251D01*
G02X-23730I-4680J5230D01*
G03X-24570Y917690I-836J-931D01*
G01X-26230D01*
G03X-27070Y917370I-4J-1251D01*
G02Y927830I-4680J5230D01*
G03X-26230Y927510I836J931D01*
G37*
G36*
G01X17380Y874760D02*
G03X20720I1670J1862D01*
G02Y864300I4680J-5230D01*
G03X17380I-1670J-1862D01*
G02Y874760I-4680J5230D01*
G37*
G36*
G01X-47870Y1217520D02*
X-28330D01*
G02X-27080Y1216270I0J-1250D01*
G01Y1196730D01*
G02X-28330Y1195480I-1250J0D01*
G01X-47870D01*
G02X-49120Y1196730I0J1250D01*
G01Y1216270D01*
G02X-47870Y1217520I1250J0D01*
G37*
G36*
G01X-35170Y11020D02*
X-15630D01*
G02X-14380Y9770I0J-1250D01*
G01Y-9770D01*
G02X-15630Y-11020I-1250J0D01*
G01X-35170D01*
G02X-36420Y-9770I0J1250D01*
G01Y9770D01*
G02X-35170Y11020I1250J0D01*
G37*
G36*
G01Y239620D02*
X-15630D01*
G02X-14380Y238370I0J-1250D01*
G01Y218830D01*
G02X-15630Y217580I-1250J0D01*
G01X-35170D01*
G02X-36420Y218830I0J1250D01*
G01Y238370D01*
G02X-35170Y239620I1250J0D01*
G37*
G36*
G01Y493620D02*
X-15630D01*
G02X-14380Y492370I0J-1250D01*
G01Y472830D01*
G02X-15630Y471580I-1250J0D01*
G01X-35170D01*
G02X-36420Y472830I0J1250D01*
G01Y492370D01*
G02X-35170Y493620I1250J0D01*
G37*
G36*
G01Y747620D02*
X-15630D01*
G02X-14380Y746370I0J-1250D01*
G01Y726830D01*
G02X-15630Y725580I-1250J0D01*
G01X-35170D01*
G02X-36420Y726830I0J1250D01*
G01Y746370D01*
G02X-35170Y747620I1250J0D01*
G37*
G36*
G01X550770Y158360D02*
Y138820D01*
G02X549520Y137570I-1250J0D01*
G01X529980D01*
G02X528730Y138820I0J1250D01*
G01Y158360D01*
G02X529980Y159610I1250J0D01*
G01X530140D01*
G03X531390Y160860I0J1250D01*
G01Y161160D01*
X531130Y161690D01*
X530880Y161870D01*
G02X548620I8870J12120D01*
G01X548370Y161690D01*
X548110Y161160D01*
Y160860D01*
G03X549360Y159610I1250J0D01*
G01X549520D01*
G02X550770Y158360I0J-1250D01*
G37*
G36*
G01Y259960D02*
Y240420D01*
G02X549520Y239170I-1250J0D01*
G01X529980D01*
G02X528730Y240420I0J1250D01*
G01Y259960D01*
G02X529980Y261210I1250J0D01*
G01X530140D01*
G03X531390Y262460I0J1250D01*
G01Y262760D01*
X531130Y263290D01*
X530880Y263470D01*
G02X548620I8870J12120D01*
G01X548370Y263290D01*
X548110Y262760D01*
Y262460D01*
G03X549360Y261210I1250J0D01*
G01X549520D01*
G02X550770Y259960I0J-1250D01*
G37*
G36*
G01Y361560D02*
Y342020D01*
G02X549520Y340770I-1250J0D01*
G01X529980D01*
G02X528730Y342020I0J1250D01*
G01Y361560D01*
G02X529980Y362810I1250J0D01*
G01X530140D01*
G03X531390Y364060I0J1250D01*
G01Y364360D01*
X531130Y364890D01*
X530880Y365070D01*
G02X548620I8870J12120D01*
G01X548370Y364890D01*
X548110Y364360D01*
Y364060D01*
G03X549360Y362810I1250J0D01*
G01X549520D01*
G02X550770Y361560I0J-1250D01*
G37*
G36*
G01Y463160D02*
Y443620D01*
G02X549520Y442370I-1250J0D01*
G01X529980D01*
G02X528730Y443620I0J1250D01*
G01Y463160D01*
G02X529980Y464410I1250J0D01*
G01X530140D01*
G03X531390Y465660I0J1250D01*
G01Y465960D01*
X531130Y466490D01*
X530880Y466670D01*
G02X548620I8870J12120D01*
G01X548370Y466490D01*
X548110Y465960D01*
Y465660D01*
G03X549360Y464410I1250J0D01*
G01X549520D01*
G02X550770Y463160I0J-1250D01*
G37*
G36*
G01Y564760D02*
Y545220D01*
G02X549520Y543970I-1250J0D01*
G01X529980D01*
G02X528730Y545220I0J1250D01*
G01Y564760D01*
G02X529980Y566010I1250J0D01*
G01X530140D01*
G03X531390Y567260I0J1250D01*
G01Y567560D01*
X531130Y568090D01*
X530880Y568270D01*
G02X548620I8870J12120D01*
G01X548370Y568090D01*
X548110Y567560D01*
Y567260D01*
G03X549360Y566010I1250J0D01*
G01X549520D01*
G02X550770Y564760I0J-1250D01*
G37*
G36*
G01Y666360D02*
Y646820D01*
G02X549520Y645570I-1250J0D01*
G01X529980D01*
G02X528730Y646820I0J1250D01*
G01Y666360D01*
G02X529980Y667610I1250J0D01*
G01X530140D01*
G03X531390Y668860I0J1250D01*
G01Y669160D01*
X531130Y669690D01*
X530880Y669870D01*
G02X548620I8870J12120D01*
G01X548370Y669690D01*
X548110Y669160D01*
Y668860D01*
G03X549360Y667610I1250J0D01*
G01X549520D01*
G02X550770Y666360I0J-1250D01*
G37*
G36*
G01Y767960D02*
Y748420D01*
G02X549520Y747170I-1250J0D01*
G01X529980D01*
G02X528730Y748420I0J1250D01*
G01Y767960D01*
G02X529980Y769210I1250J0D01*
G01X530140D01*
G03X531390Y770460I0J1250D01*
G01Y770760D01*
X531130Y771290D01*
X530880Y771470D01*
G02X548620I8870J12120D01*
G01X548370Y771290D01*
X548110Y770760D01*
Y770460D01*
G03X549360Y769210I1250J0D01*
G01X549520D01*
G02X550770Y767960I0J-1250D01*
G37*
G36*
G01Y869560D02*
Y850020D01*
G02X549520Y848770I-1250J0D01*
G01X529980D01*
G02X528730Y850020I0J1250D01*
G01Y869560D01*
G02X529980Y870810I1250J0D01*
G01X530140D01*
G03X531390Y872060I0J1250D01*
G01Y872360D01*
X531130Y872890D01*
X530880Y873070D01*
G02X548620I8870J12120D01*
G01X548370Y872890D01*
X548110Y872360D01*
Y872060D01*
G03X549360Y870810I1250J0D01*
G01X549520D01*
G02X550770Y869560I0J-1250D01*
G37*
G36*
G01Y1231510D02*
Y1211970D01*
G02X549520Y1210720I-1250J0D01*
G01X529980D01*
G02X528730Y1211970I0J1250D01*
G01Y1231510D01*
G02X529980Y1232760I1250J0D01*
G01X530140D01*
G03X531390Y1234010I0J1250D01*
G01Y1234310D01*
X531130Y1234840D01*
X530880Y1235020D01*
G02X548620I8870J12120D01*
G01X548370Y1234840D01*
X548110Y1234310D01*
Y1234010D01*
G03X549360Y1232760I1250J0D01*
G01X549520D01*
G02X550770Y1231510I0J-1250D01*
G37*
G36*
G01Y1333110D02*
Y1313570D01*
G02X549520Y1312320I-1250J0D01*
G01X529980D01*
G02X528730Y1313570I0J1250D01*
G01Y1333110D01*
G02X529980Y1334360I1250J0D01*
G01X530140D01*
G03X531390Y1335610I0J1250D01*
G01Y1335910D01*
X531130Y1336440D01*
X530880Y1336620D01*
G02X548620I8870J12120D01*
G01X548370Y1336440D01*
X548110Y1335910D01*
Y1335610D01*
G03X549360Y1334360I1250J0D01*
G01X549520D01*
G02X550770Y1333110I0J-1250D01*
G37*
G36*
G01Y1434710D02*
Y1415170D01*
G02X549520Y1413920I-1250J0D01*
G01X529980D01*
G02X528730Y1415170I0J1250D01*
G01Y1434710D01*
G02X529980Y1435960I1250J0D01*
G01X530140D01*
G03X531390Y1437210I0J1250D01*
G01Y1437510D01*
X531130Y1438040D01*
X530880Y1438220D01*
G02X548620I8870J12120D01*
G01X548370Y1438040D01*
X548110Y1437510D01*
Y1437210D01*
G03X549360Y1435960I1250J0D01*
G01X549520D01*
G02X550770Y1434710I0J-1250D01*
G37*
G36*
G01Y1536310D02*
Y1516770D01*
G02X549520Y1515520I-1250J0D01*
G01X529980D01*
G02X528730Y1516770I0J1250D01*
G01Y1536310D01*
G02X529980Y1537560I1250J0D01*
G01X530140D01*
G03X531390Y1538810I0J1250D01*
G01Y1539110D01*
X531130Y1539640D01*
X530880Y1539820D01*
G02X548620I8870J12120D01*
G01X548370Y1539640D01*
X548110Y1539110D01*
Y1538810D01*
G03X549360Y1537560I1250J0D01*
G01X549520D01*
G02X550770Y1536310I0J-1250D01*
G37*
G36*
G01Y1637910D02*
Y1618370D01*
G02X549520Y1617120I-1250J0D01*
G01X529980D01*
G02X528730Y1618370I0J1250D01*
G01Y1637910D01*
G02X529980Y1639160I1250J0D01*
G01X530140D01*
G03X531390Y1640410I0J1250D01*
G01Y1640710D01*
X531130Y1641240D01*
X530880Y1641420D01*
G02X548620I8870J12120D01*
G01X548370Y1641240D01*
X548110Y1640710D01*
Y1640410D01*
G03X549360Y1639160I1250J0D01*
G01X549520D01*
G02X550770Y1637910I0J-1250D01*
G37*
G36*
G01Y1739510D02*
Y1719970D01*
G02X549520Y1718720I-1250J0D01*
G01X529980D01*
G02X528730Y1719970I0J1250D01*
G01Y1739510D01*
G02X529980Y1740760I1250J0D01*
G01X530140D01*
G03X531390Y1742010I0J1250D01*
G01Y1742310D01*
X531130Y1742840D01*
X530880Y1743020D01*
G02X548620I8870J12120D01*
G01X548370Y1742840D01*
X548110Y1742310D01*
Y1742010D01*
G03X549360Y1740760I1250J0D01*
G01X549520D01*
G02X550770Y1739510I0J-1250D01*
G37*
G36*
G01Y1841110D02*
Y1821570D01*
G02X549520Y1820320I-1250J0D01*
G01X529980D01*
G02X528730Y1821570I0J1250D01*
G01Y1841110D01*
G02X529980Y1842360I1250J0D01*
G01X530140D01*
G03X531390Y1843610I0J1250D01*
G01Y1843910D01*
X531130Y1844440D01*
X530880Y1844620D01*
G02X548620I8870J12120D01*
G01X548370Y1844440D01*
X548110Y1843910D01*
Y1843610D01*
G03X549360Y1842360I1250J0D01*
G01X549520D01*
G02X550770Y1841110I0J-1250D01*
G37*
G36*
G01Y1942710D02*
Y1923170D01*
G02X549520Y1921920I-1250J0D01*
G01X529980D01*
G02X528730Y1923170I0J1250D01*
G01Y1942710D01*
G02X529980Y1943960I1250J0D01*
G01X530140D01*
G03X531390Y1945210I0J1250D01*
G01Y1945510D01*
X531130Y1946040D01*
X530880Y1946220D01*
G02X548620I8870J12120D01*
G01X548370Y1946040D01*
X548110Y1945510D01*
Y1945210D01*
G03X549360Y1943960I1250J0D01*
G01X549520D01*
G02X550770Y1942710I0J-1250D01*
G37*
G54D16*
X-50800Y0D03*
Y25400D03*
Y50800D03*
Y76200D03*
Y101600D03*
Y127000D03*
Y152400D03*
Y177800D03*
Y203200D03*
Y228600D03*
Y254000D03*
Y279400D03*
Y304800D03*
Y330200D03*
Y355600D03*
Y381000D03*
Y406400D03*
Y431800D03*
Y457200D03*
Y482600D03*
Y508000D03*
Y533400D03*
Y558800D03*
Y584200D03*
Y609600D03*
Y635000D03*
Y660400D03*
Y685800D03*
Y711200D03*
Y736600D03*
Y787400D03*
X-38100Y1276350D03*
X0Y0D03*
Y25400D03*
Y50800D03*
Y76200D03*
Y101600D03*
Y127000D03*
Y152400D03*
Y177800D03*
Y203200D03*
Y228600D03*
Y254000D03*
Y279400D03*
Y304800D03*
Y330200D03*
Y355600D03*
Y381000D03*
Y406400D03*
Y431800D03*
Y457200D03*
Y482600D03*
Y508000D03*
Y533400D03*
Y558800D03*
Y584200D03*
Y609600D03*
Y635000D03*
Y660400D03*
Y685800D03*
Y711200D03*
Y736600D03*
X-25400Y787400D03*
X0D03*
G54D17*
X-50800Y762000D03*
X-25400Y25400D03*
Y50800D03*
Y76200D03*
Y101600D03*
Y127000D03*
Y152400D03*
Y177800D03*
Y203200D03*
Y254000D03*
Y279400D03*
Y304800D03*
Y330200D03*
Y355600D03*
Y381000D03*
Y406400D03*
Y431800D03*
Y457200D03*
Y508000D03*
Y533400D03*
Y558800D03*
Y584200D03*
Y609600D03*
Y635000D03*
Y660400D03*
Y685800D03*
Y711200D03*
Y762000D03*
X0D03*
X-12700Y1206500D03*
G54D18*
X-48100Y1046350D03*
X-38100Y1098550D03*
X50800Y23200D03*
X44450Y717550D03*
X38100Y736600D03*
X31750Y755650D03*
X25400Y774700D03*
X27800Y1035050D03*
X114300Y196850D03*
Y298450D03*
Y400050D03*
Y501650D03*
Y603250D03*
Y704850D03*
Y806450D03*
Y908050D03*
Y1270000D03*
Y1371600D03*
Y1473200D03*
Y1574800D03*
Y1676400D03*
Y1778000D03*
Y1879600D03*
Y1981200D03*
X76200Y2046900D03*
X222250Y142240D03*
X237330Y167640D03*
X361950Y154940D03*
X222250Y243840D03*
X237330Y269240D03*
X361950Y256540D03*
X222250Y345440D03*
X237330Y370840D03*
X361950Y358140D03*
X222250Y447040D03*
X237330Y472440D03*
X361950Y459740D03*
X222250Y548640D03*
X237330Y574040D03*
X361950Y561340D03*
X222250Y650240D03*
X237330Y675640D03*
X361950Y662940D03*
X222250Y751840D03*
X237330Y777240D03*
X361950Y764540D03*
X222250Y853440D03*
X237330Y878840D03*
X361950Y866140D03*
X222250Y1215390D03*
X237330Y1240790D03*
X361950Y1228090D03*
X222250Y1316990D03*
X237330Y1342390D03*
X361950Y1329690D03*
X222250Y1418590D03*
X237330Y1443990D03*
X361950Y1431290D03*
X222250Y1520190D03*
X237330Y1545590D03*
X361950Y1532890D03*
X222250Y1621790D03*
X237330Y1647190D03*
X361950Y1634490D03*
X222250Y1723390D03*
X237330Y1748790D03*
X361950Y1736090D03*
X222250Y1824990D03*
X237330Y1850390D03*
X361950Y1837690D03*
X222250Y1926590D03*
X237330Y1951990D03*
X361950Y1939290D03*
%LPD*%
G75*
G54D10*
X-50800Y762000D03*
X-25400Y25400D03*
Y50800D03*
Y76200D03*
Y101600D03*
Y127000D03*
Y152400D03*
Y177800D03*
Y203200D03*
Y254000D03*
Y279400D03*
Y304800D03*
Y330200D03*
Y355600D03*
Y381000D03*
Y406400D03*
Y431800D03*
Y457200D03*
Y508000D03*
Y533400D03*
Y558800D03*
Y584200D03*
Y609600D03*
Y635000D03*
Y660400D03*
Y685800D03*
Y711200D03*
Y762000D03*
X0D03*
X-12700Y1206500D03*
X413150Y142240D03*
Y243840D03*
Y345440D03*
Y447040D03*
Y548640D03*
Y650240D03*
Y751840D03*
Y853440D03*
Y1215390D03*
Y1316990D03*
Y1418590D03*
Y1520190D03*
Y1621790D03*
Y1723390D03*
Y1824990D03*
Y1926590D03*
X463150Y142240D03*
Y243840D03*
Y345440D03*
Y447040D03*
Y548640D03*
Y650240D03*
Y751840D03*
Y853440D03*
Y1215390D03*
Y1316990D03*
Y1418590D03*
Y1520190D03*
Y1621790D03*
Y1723390D03*
Y1824990D03*
Y1926590D03*
X667150Y193040D03*
Y294640D03*
Y396240D03*
Y497840D03*
Y599440D03*
Y701040D03*
Y802640D03*
Y904240D03*
Y1266190D03*
Y1367790D03*
Y1469390D03*
Y1570990D03*
Y1672590D03*
Y1774190D03*
Y1875790D03*
Y1977390D03*
X717150Y193040D03*
Y294640D03*
Y396240D03*
Y497840D03*
Y599440D03*
Y701040D03*
Y802640D03*
Y904240D03*
Y1266190D03*
Y1367790D03*
Y1469390D03*
Y1570990D03*
Y1672590D03*
Y1774190D03*
Y1875790D03*
Y1977390D03*
G54D11*
X-73000Y929500D03*
X-48000Y1091400D03*
X-6350Y868100D03*
X-19050D03*
X12700Y946570D03*
X-19050Y982050D03*
X8050Y1123950D03*
X25400Y946570D03*
X27800Y1063650D03*
X50800Y2046900D03*
X76200Y23200D03*
X101600Y196850D03*
Y298450D03*
Y400050D03*
Y501650D03*
Y603250D03*
Y704850D03*
Y806450D03*
Y908050D03*
Y1270000D03*
Y1371600D03*
Y1473200D03*
Y1574800D03*
Y1676400D03*
Y1778000D03*
Y1879600D03*
Y1981200D03*
X121150Y126190D03*
Y227790D03*
Y329390D03*
Y430990D03*
Y532590D03*
Y634190D03*
Y735790D03*
Y837390D03*
X120640Y1062000D03*
Y1046200D03*
X120230Y1092200D03*
X121150Y1199340D03*
Y1300940D03*
Y1402540D03*
Y1504140D03*
Y1605740D03*
Y1707340D03*
Y1808940D03*
Y1910540D03*
G54D12*
X-38100Y1206500D03*
X-25400Y0D03*
Y228600D03*
Y482600D03*
Y736600D03*
X539750Y148590D03*
Y250190D03*
Y351790D03*
Y453390D03*
Y554990D03*
Y656590D03*
Y758190D03*
Y859790D03*
Y1221740D03*
Y1323340D03*
Y1424940D03*
Y1526540D03*
Y1628140D03*
Y1729740D03*
Y1831340D03*
Y1932940D03*
X590550Y161290D03*
Y262890D03*
Y364490D03*
Y466090D03*
Y567690D03*
Y669290D03*
Y770890D03*
Y872490D03*
Y1234440D03*
Y1336040D03*
Y1437640D03*
Y1539240D03*
Y1640840D03*
Y1742440D03*
Y1844040D03*
Y1945640D03*
G54D13*
X806450Y193040D03*
Y294640D03*
Y396240D03*
Y497840D03*
Y599440D03*
Y701040D03*
Y802640D03*
Y904240D03*
Y1266190D03*
Y1367790D03*
Y1469390D03*
Y1570990D03*
Y1672590D03*
Y1774190D03*
Y1875790D03*
Y1977390D03*
G54D14*
G01X527480Y148590D02*
X539750D01*
G01X527480Y250190D02*
X539750D01*
G01X527480Y351790D02*
X539750D01*
G01X527480Y453390D02*
X539750D01*
G01X527480Y554990D02*
X539750D01*
G01X527480Y656590D02*
X539750D01*
G01X527480Y758190D02*
X539750D01*
G01X527480Y859790D02*
X539750D01*
G01X527480Y1221740D02*
X539750D01*
G01X527480Y1323340D02*
X539750D01*
G01X527480Y1424940D02*
X539750D01*
G01X527480Y1526540D02*
X539750D01*
G01X527480Y1628140D02*
X539750D01*
G01X527480Y1729740D02*
X539750D01*
G01X527480Y1831340D02*
X539750D01*
G01X527480Y1932940D02*
X539750D01*
G01Y136320D02*
Y148590D01*
G01D02*
X552020D01*
G01X539750Y237920D02*
Y250190D01*
G01D02*
X552020D01*
G01X539750Y339520D02*
Y351790D01*
G01D02*
X552020D01*
G01X539750Y441120D02*
Y453390D01*
G01D02*
X552020D01*
G01X539750Y542720D02*
Y554990D01*
G01D02*
X552020D01*
G01X539750Y644320D02*
Y656590D01*
G01D02*
X552020D01*
G01X539750Y745920D02*
Y758190D01*
G01D02*
X552020D01*
G01X539750Y847520D02*
Y859790D01*
G01D02*
X552020D01*
G01X539750Y1209470D02*
Y1221740D01*
G01D02*
X552020D01*
G01X539750Y1311070D02*
Y1323340D01*
G01D02*
X552020D01*
G01X539750Y1412670D02*
Y1424940D01*
G01D02*
X552020D01*
G01X539750Y1514270D02*
Y1526540D01*
G01D02*
X552020D01*
G01X539750Y1615870D02*
Y1628140D01*
G01D02*
X552020D01*
G01X539750Y1717470D02*
Y1729740D01*
G01D02*
X552020D01*
G01X539750Y1819070D02*
Y1831340D01*
G01D02*
X552020D01*
G01X539750Y1920670D02*
Y1932940D01*
G01D02*
X552020D01*
G01X590550Y149020D02*
Y161290D01*
G01D02*
X602820D01*
G01X590550Y250620D02*
Y262890D01*
G01D02*
X602820D01*
G01X590550Y352220D02*
Y364490D01*
G01D02*
X602820D01*
G01X590550Y453820D02*
Y466090D01*
G01D02*
X602820D01*
G01X590550Y555420D02*
Y567690D01*
G01D02*
X602820D01*
G01X590550Y657020D02*
Y669290D01*
G01D02*
X602820D01*
G01X590550Y758620D02*
Y770890D01*
G01D02*
X602820D01*
G01X590550Y860220D02*
Y872490D01*
G01D02*
X602820D01*
G01X590550Y1222170D02*
Y1234440D01*
G01D02*
X602820D01*
G01X590550Y1323770D02*
Y1336040D01*
G01D02*
X602820D01*
G01X590550Y1425370D02*
Y1437640D01*
G01D02*
X602820D01*
G01X590550Y1526970D02*
Y1539240D01*
G01D02*
X602820D01*
G01X590550Y1628570D02*
Y1640840D01*
G01D02*
X602820D01*
G01X590550Y1730170D02*
Y1742440D01*
G01D02*
X602820D01*
G01X590550Y1831770D02*
Y1844040D01*
G01D02*
X602820D01*
G01X590550Y1933370D02*
Y1945640D01*
G01D02*
X602820D01*
G01X806450Y176770D02*
Y193040D01*
G01X790180D02*
X806450D01*
G01D02*
X822720D01*
G01X806450Y278370D02*
Y294640D01*
G01X790180D02*
X806450D01*
G01D02*
X822720D01*
G01X806450Y379970D02*
Y396240D01*
G01X790180D02*
X806450D01*
G01D02*
X822720D01*
G01X806450Y481570D02*
Y497840D01*
G01X790180D02*
X806450D01*
G01D02*
X822720D01*
G01X806450Y583170D02*
Y599440D01*
G01X790180D02*
X806450D01*
G01D02*
X822720D01*
G01X806450Y684770D02*
Y701040D01*
G01X790180D02*
X806450D01*
G01D02*
X822720D01*
G01X806450Y786370D02*
Y802640D01*
G01X790180D02*
X806450D01*
G01D02*
X822720D01*
G01X806450Y887970D02*
Y904240D01*
G01X790180D02*
X806450D01*
G01D02*
X822720D01*
G01X806450Y1249920D02*
Y1266190D01*
G01X790180D02*
X806450D01*
G01D02*
X822720D01*
G01X806450Y1351520D02*
Y1367790D01*
G01X790180D02*
X806450D01*
G01D02*
X822720D01*
G01X806450Y1453120D02*
Y1469390D01*
G01X790180D02*
X806450D01*
G01D02*
X822720D01*
G01X806450Y1554720D02*
Y1570990D01*
G01X790180D02*
X806450D01*
G01D02*
X822720D01*
G01X806450Y1656320D02*
Y1672590D01*
G01X790180D02*
X806450D01*
G01D02*
X822720D01*
G01X806450Y1757920D02*
Y1774190D01*
G01X790180D02*
X806450D01*
G01D02*
X822720D01*
G01X806450Y1859520D02*
Y1875790D01*
G01X790180D02*
X806450D01*
G01D02*
X822720D01*
G01X806450Y1961120D02*
Y1977390D01*
G01X790180D02*
X806450D01*
G01D02*
X822720D01*
G54D15*
G01X-37670Y0D02*
X-25400D01*
G01X-37670Y50800D02*
X-25400D01*
G01X-37670Y25400D02*
X-25400D01*
G01X-37670Y101600D02*
X-25400D01*
G01X-37670Y76200D02*
X-25400D01*
G01X-37670Y152400D02*
X-25400D01*
G01X-37670Y127000D02*
X-25400D01*
G01X-37670Y203200D02*
X-25400D01*
G01X-37670Y177800D02*
X-25400D01*
G01X-37670Y254000D02*
X-25400D01*
G01X-37670Y228600D02*
X-25400D01*
G01X-37670Y304800D02*
X-25400D01*
G01X-37670Y279400D02*
X-25400D01*
G01X-37670Y355600D02*
X-25400D01*
G01X-37670Y330200D02*
X-25400D01*
G01X-37670Y406400D02*
X-25400D01*
G01X-37670Y381000D02*
X-25400D01*
G01X-37670Y457200D02*
X-25400D01*
G01X-37670Y431800D02*
X-25400D01*
G01X-37670Y508000D02*
X-25400D01*
G01X-37670Y482600D02*
X-25400D01*
G01X-37670Y558800D02*
X-25400D01*
G01X-37670Y533400D02*
X-25400D01*
G01X-37670Y609600D02*
X-25400D01*
G01X-37670Y584200D02*
X-25400D01*
G01X-37670Y660400D02*
X-25400D01*
G01X-37670Y635000D02*
X-25400D01*
G01X-37670Y711200D02*
X-25400D01*
G01X-37670Y685800D02*
X-25400D01*
G01X-37670Y762000D02*
X-25400D01*
G01X-37670Y736600D02*
X-25400D01*
G01X-50800Y749730D02*
Y762000D01*
G01D02*
Y774270D01*
G01X-63070Y762000D02*
X-50800D01*
G01D02*
X-38530D01*
G01X-38100Y1194230D02*
Y1206500D01*
G01D02*
Y1218770D01*
G01X-50370Y1206500D02*
X-38100D01*
G01D02*
X-25830D01*
G01X-25400Y-12270D02*
Y0D01*
G01D02*
Y12270D01*
G01Y0D02*
X-13130D01*
G01X-25400Y38530D02*
Y50800D01*
G01D02*
Y63070D01*
G01Y50800D02*
X-13130D01*
G01X-25400Y13130D02*
Y25400D01*
G01D02*
Y37670D01*
G01Y25400D02*
X-13130D01*
G01X-25400Y89330D02*
Y101600D01*
G01D02*
Y113870D01*
G01Y101600D02*
X-13130D01*
G01X-25400Y63930D02*
Y76200D01*
G01D02*
Y88470D01*
G01Y76200D02*
X-13130D01*
G01X-25400Y140130D02*
Y152400D01*
G01D02*
Y164670D01*
G01Y152400D02*
X-13130D01*
G01X-25400Y114730D02*
Y127000D01*
G01D02*
Y139270D01*
G01Y127000D02*
X-13130D01*
G01X-25400Y190930D02*
Y203200D01*
G01D02*
Y215470D01*
G01Y203200D02*
X-13130D01*
G01X-25400Y165530D02*
Y177800D01*
G01D02*
Y190070D01*
G01Y177800D02*
X-13130D01*
G01X-25400Y241730D02*
Y254000D01*
G01D02*
Y266270D01*
G01Y254000D02*
X-13130D01*
G01X-25400Y216330D02*
Y228600D01*
G01D02*
Y240870D01*
G01Y228600D02*
X-13130D01*
G01X-25400Y292530D02*
Y304800D01*
G01D02*
Y317070D01*
G01Y304800D02*
X-13130D01*
G01X-25400Y267130D02*
Y279400D01*
G01D02*
Y291670D01*
G01Y279400D02*
X-13130D01*
G01X-25400Y343330D02*
Y355600D01*
G01D02*
Y367870D01*
G01Y355600D02*
X-13130D01*
G01X-25400Y317930D02*
Y330200D01*
G01D02*
Y342470D01*
G01Y330200D02*
X-13130D01*
G01X-25400Y394130D02*
Y406400D01*
G01D02*
Y418670D01*
G01Y406400D02*
X-13130D01*
G01X-25400Y368730D02*
Y381000D01*
G01D02*
Y393270D01*
G01Y381000D02*
X-13130D01*
G01X-25400Y444930D02*
Y457200D01*
G01D02*
Y469470D01*
G01Y457200D02*
X-13130D01*
G01X-25400Y419530D02*
Y431800D01*
G01D02*
Y444070D01*
G01Y431800D02*
X-13130D01*
G01X-25400Y495730D02*
Y508000D01*
G01D02*
Y520270D01*
G01Y508000D02*
X-13130D01*
G01X-25400Y470330D02*
Y482600D01*
G01D02*
Y494870D01*
G01Y482600D02*
X-13130D01*
G01X-25400Y546530D02*
Y558800D01*
G01D02*
Y571070D01*
G01Y558800D02*
X-13130D01*
G01X-25400Y521130D02*
Y533400D01*
G01D02*
Y545670D01*
G01Y533400D02*
X-13130D01*
G01X-25400Y597330D02*
Y609600D01*
G01D02*
Y621870D01*
G01Y609600D02*
X-13130D01*
G01X-25400Y571930D02*
Y584200D01*
G01D02*
Y596470D01*
G01Y584200D02*
X-13130D01*
G01X-25400Y648130D02*
Y660400D01*
G01D02*
Y672670D01*
G01Y660400D02*
X-13130D01*
G01X-25400Y622730D02*
Y635000D01*
G01D02*
Y647270D01*
G01Y635000D02*
X-13130D01*
G01X-25400Y698930D02*
Y711200D01*
G01D02*
Y723470D01*
G01Y711200D02*
X-13130D01*
G01X-25400Y673530D02*
Y685800D01*
G01D02*
Y698070D01*
G01Y685800D02*
X-13130D01*
G01X0Y749730D02*
Y762000D01*
G01D02*
Y774270D01*
G01X-12270Y762000D02*
X0D01*
G01D02*
X12270D01*
G01X-25400Y749730D02*
Y762000D01*
G01D02*
Y774270D01*
G01Y762000D02*
X-13130D01*
G01X-25400Y724330D02*
Y736600D01*
G01D02*
Y748870D01*
G01Y736600D02*
X-13130D01*
G01X-12700Y1194230D02*
Y1206500D01*
G01D02*
Y1218770D01*
G01X-24970Y1206500D02*
X-12700D01*
G01D02*
X-430D01*
M02*
