M48
METRIC,TZ
T01C.4
T02C1.
T03C1.8
T04C2.7
T05C3.
T06C3.2
;LEADER: 12 
;HEADER: 
;CODE  : ASCII 
;FILE  : KPRD_03v3-1-4.drl for  ... layers TOP and BOTTOM
;DESIGN: KPRD_03v3.brd
;T01 Holesize 1. = 0.400000 Tolerance = +0.000000/-0.000000 PLATED MM Quantity = 213
;T02 Holesize 2. = 1.000000 Tolerance = +0.000000/-0.000000 PLATED MM Quantity = 227
;T03 Holesize 3. = 1.800000 Tolerance = +0.000000/-0.000000 PLATED MM Quantity = 32
;T04 Holesize 4. = 2.700000 Tolerance = +0.000000/-0.000000 PLATED MM Quantity = 2
;T05 Holesize 5. = 3.000000 Tolerance = +0.100000/-0.100000 PLATED MM Quantity = 2
;T06 Holesize 6. = 3.200000 Tolerance = +0.000000/-0.000000 PLATED MM Quantity = 1
%
G90
T01
X-48100Y1046350
X-38100Y1098550
X361950Y1983740
Y1964690
Y1780540
Y1761490
Y1736090
Y1717040
Y1939290
Y1920240
Y1678940
Y1659890
Y1634490
Y1615440
X184150Y485140
X361950Y1837690
Y1818640
Y300990
Y281940
Y256540
Y237490
X222250Y243840
X184150Y294640
Y281940
X361950Y707390
Y688340
Y662940
Y643890
X222250Y650240
X184150Y701040
Y688340
X222250Y1723390
X184150Y1875790
Y1863090
X361950Y199390
Y180340
Y154940
Y135890
X222250Y142240
X361950Y605790
Y586740
X184150Y193040
X361950Y561340
Y542290
X222250Y548640
X184150Y180340
X361950Y1475740
Y1456690
X184150Y599440
X361950Y1431290
Y1412240
X184150Y586740
X222250Y1418590
X184150Y1570990
Y1558290
X361950Y1272540
Y1253490
Y1228090
Y1209040
X222250Y1215390
X184150Y1367790
Y1355090
X222250Y1621790
X184150Y1774190
Y1761490
X361950Y402590
Y383540
Y358140
Y339090
X222250Y345440
X184150Y396240
Y383540
X222250Y1824990
Y1926590
X361950Y910590
Y891540
Y866140
Y847090
X222250Y853440
X361950Y1577340
Y1558290
X184150Y1266190
X361950Y1532890
Y1513840
X222250Y1520190
X184150Y1253490
Y1672590
Y1659890
X361950Y808990
Y789940
Y764540
Y745490
X222250Y751840
X184150Y802640
Y789940
Y891540
Y1964690
X361950Y1882140
Y1863090
X184150Y904240
Y1977390
X361950Y1374140
Y1355090
Y1329690
Y1310640
X222250Y1316990
X237330Y1850390
Y1951990
X184150Y1469390
Y1456690
X361950Y504190
Y485140
Y459740
Y440690
X222250Y447040
X184150Y497840
X237330Y1342390
Y370840
Y1240790
Y269240
Y1443990
Y472440
Y1748790
Y777240
Y878840
Y167640
Y1647190
Y675640
Y1545590
Y574040
X31750Y755650
X38100Y736600
X25400Y774700
X44450Y717550
X-19050Y982050
X8050Y1123950
X-48000Y1091400
X120230Y1092200
X120640Y1046200
Y1062000
X-73000Y929500
X76200Y23200
X121150Y1910540
X101600Y1270000
R07Y101600
X50800Y2046900
X121150Y1808940
R06Y-101600
X101600Y908050
X121150Y837390
X101600Y806450
X121150Y735790
X101600Y704850
X121150Y634190
X101600Y603250
X121150Y532590
X101600Y501650
X121150Y430990
X101600Y400050
X121150Y329390
X101600Y298450
X121150Y227790
X101600Y196850
X121150Y126190
X25400Y946570
X12700
X-19050Y868100
X-6350
X27800Y1063650
X120230Y1016000
X27800Y1035050
X-31750Y922600
X25400Y869530
X50800Y23200
X114300Y1981200
R07Y-101600
X76200Y2046900
X114300Y908050
R07Y-101600
X12700Y869530
X-19050Y922600
X-6350
X778450Y1059810
X806450Y1031810
X826250Y1079610
X834450Y1059810
X826250Y1040010
X786650Y1079610
X806450Y1087810
X786650Y1040010
T02
X590550Y770890
Y796290
X539750Y758190
Y783590
X590550Y669290
Y694690
X539750Y656590
Y681990
X590550Y567690
Y593090
X539750Y554990
Y580390
X590550Y466090
Y491490
X539750Y453390
Y478790
X590550Y364490
Y389890
X539750Y351790
Y377190
X590550Y262890
Y288290
X539750Y250190
Y275590
X590550Y161290
Y186690
X539750Y148590
Y173990
X413150Y751840
X463150
X667150Y701040
X717150
X413150Y650240
X463150
X667150Y599440
X717150
X413150Y548640
X463150
X667150Y497840
X717150
X413150Y447040
X463150
X667150Y396240
X717150
X413150Y345440
X463150
X667150Y294640
X717150
X413150Y243840
X463150
X667150Y193040
X717150
X413150Y142240
X463150
X667150Y802640
X717150
X0Y787400
R31Y-25400
X-25400Y787400
R31Y-25400
X-50800Y787400
R31Y-25400
X590550Y1945640
Y1971040
X539750Y1526540
Y1551940
X590550Y1437640
Y1463040
X539750Y1424940
Y1450340
X590550Y1336040
Y1361440
X539750Y1323340
Y1348740
X590550Y1234440
Y1259840
X539750Y1221740
Y1247140
X590550Y872490
Y897890
X539750Y859790
Y885190
Y1932940
Y1958340
X590550Y1844040
Y1869440
X539750Y1831340
Y1856740
X590550Y1742440
Y1767840
X539750Y1729740
Y1755140
X590550Y1640840
Y1666240
X539750Y1628140
Y1653540
X590550Y1539240
Y1564640
X413150Y1926590
X463150
X667150Y1875790
X717150
X413150Y1824990
X463150
X667150Y1774190
X717150
X413150Y1723390
X463150
X667150Y1672590
X717150
X413150Y1621790
X463150
X667150Y1570990
X717150
X413150Y1520190
X463150
X667150Y1469390
X717150
X667150Y1977390
X717150
X413150Y1418590
X463150
X667150Y1367790
X717150
X413150Y1316990
X463150
X667150Y1266190
X717150
X413150Y1215390
X463150
X667150Y904240
X717150
X413150Y853440
X463150
X-38100Y1276350
Y1206500
X-12700
T03
X806450Y142240
R15Y50800
Y1215390
R15Y50800
T04
X889200Y2171700
Y-50800
T05
X-76200Y838200
Y-50800
T06
X806450Y1059810
M30
