G04 ================== begin FILE IDENTIFICATION RECORD ==================*
G04 Layout Name:  D:/Project/Circuit/ORCAD/KPRD/03v2/pcb/KPRD_03v2.brd*
G04 Film Name:    MASK_TOP*
G04 File Format:  Gerber RS274X*
G04 File Origin:  Cadence Allegro 16.6-S021*
G04 Origin Date:  Tue Feb 04 10:50:34 2014*
G04 *
G04 Layer:  VIA CLASS/SOLDERMASK_TOP*
G04 Layer:  PIN/SOLDERMASK_TOP*
G04 Layer:  PACKAGE GEOMETRY/SOLDERMASK_TOP*
G04 *
G04 Offset:    (0.000 0.000)*
G04 Mirror:    No*
G04 Mode:      Positive*
G04 Rotation:  0*
G04 FullContactRelief:  No*
G04 UndefLineWidth:     0.000*
G04 ================== end FILE IDENTIFICATION RECORD ====================*
%FSLAX34Y34*MOMM*%
%IR0*IPPOS*OFA0.00000B0.00000*MIA0B0*SFA1.00000B1.00000*%
%ADD21R,1.2X.8*%
%ADD16C,3.*%
%ADD20R,1.3X.8*%
%ADD15C,2.2*%
%ADD10C,4.2*%
%ADD23C,2.15*%
%ADD24C,2.7*%
%ADD17C,1.8*%
%ADD26C,2.8*%
%ADD12C,1.75*%
%ADD22R,2.15X2.15*%
%ADD13R,2.25X2.25*%
%ADD11R,1.75X1.75*%
%ADD19R,1.3X1.6*%
%ADD14R,2.9X1.3*%
%ADD25R,2.7X2.7*%
%ADD18R,1.95X1.2*%
%LPD*%
G75*
G54D10*
X-25400Y-50800D03*
Y838200D03*
G54D11*
X0Y0D03*
Y228600D03*
Y482600D03*
Y736600D03*
X50800Y0D03*
X25400D03*
X50800Y228600D03*
X25400D03*
X50800Y482600D03*
X25400D03*
X50800Y736600D03*
X25400D03*
X82550Y1200150D03*
G54D20*
X120950Y1076350D03*
X94950D03*
X120950Y1095350D03*
X94950Y1085850D03*
Y1095350D03*
G54D12*
X0Y76200D03*
Y50800D03*
Y25400D03*
Y152400D03*
Y127000D03*
Y101600D03*
Y203200D03*
Y177800D03*
Y304800D03*
Y279400D03*
Y254000D03*
Y381000D03*
Y355600D03*
Y330200D03*
Y457200D03*
Y431800D03*
Y406400D03*
Y533400D03*
Y508000D03*
Y609600D03*
Y584200D03*
Y558800D03*
Y685800D03*
Y660400D03*
Y635000D03*
Y762000D03*
Y711200D03*
Y787400D03*
X25400Y76200D03*
Y50800D03*
Y25400D03*
X50800Y76200D03*
Y50800D03*
Y25400D03*
X25400Y152400D03*
Y127000D03*
Y101600D03*
X50800Y152400D03*
Y127000D03*
Y101600D03*
X25400Y203200D03*
Y177800D03*
X50800Y203200D03*
Y177800D03*
X25400Y304800D03*
Y279400D03*
Y254000D03*
X50800Y304800D03*
Y279400D03*
Y254000D03*
X25400Y381000D03*
Y355600D03*
Y330200D03*
X50800Y381000D03*
Y355600D03*
Y330200D03*
X25400Y457200D03*
Y431800D03*
Y406400D03*
X50800Y457200D03*
Y431800D03*
Y406400D03*
X25400Y533400D03*
Y508000D03*
X50800Y533400D03*
Y508000D03*
X25400Y609600D03*
Y584200D03*
Y558800D03*
X50800Y609600D03*
Y584200D03*
Y558800D03*
X25400Y685800D03*
Y660400D03*
Y635000D03*
X50800Y685800D03*
Y660400D03*
Y635000D03*
X25400Y762000D03*
Y711200D03*
X50800Y762000D03*
Y711200D03*
X25400Y787400D03*
X50800D03*
G54D21*
X297250Y148590D03*
X274250Y139090D03*
Y158090D03*
X297250Y250190D03*
X274250Y240690D03*
Y259690D03*
X297250Y351790D03*
X274250Y342290D03*
Y361290D03*
X297250Y453390D03*
X274250Y443890D03*
Y462890D03*
X297250Y554990D03*
X274250Y545490D03*
Y564490D03*
X297250Y656590D03*
X274250Y647090D03*
Y666090D03*
X297250Y758190D03*
X274250Y748690D03*
Y767690D03*
X297250Y859790D03*
X274250Y850290D03*
Y869290D03*
X297250Y1221740D03*
X274250Y1212240D03*
Y1231240D03*
X297250Y1323340D03*
X274250Y1313840D03*
Y1332840D03*
X297250Y1424940D03*
X274250Y1415440D03*
Y1434440D03*
X297250Y1526540D03*
X274250Y1517040D03*
Y1536040D03*
X297250Y1628140D03*
X274250Y1618640D03*
Y1637640D03*
X297250Y1729740D03*
X274250Y1720240D03*
Y1739240D03*
X297250Y1831340D03*
X274250Y1821840D03*
Y1840840D03*
X297250Y1932940D03*
X274250Y1923440D03*
Y1942440D03*
G54D13*
X-8800Y920750D03*
X34200D03*
G54D22*
X361950Y142640D03*
Y345840D03*
Y549040D03*
Y752240D03*
Y1215790D03*
Y1418990D03*
Y1622190D03*
Y1825390D03*
X488950Y244240D03*
Y447440D03*
Y650640D03*
Y853840D03*
Y1317390D03*
Y1520590D03*
Y1723790D03*
Y1926990D03*
X615950Y142640D03*
Y345840D03*
Y549040D03*
Y752240D03*
Y1215790D03*
Y1418990D03*
Y1622190D03*
Y1825390D03*
X742950Y244240D03*
Y447440D03*
Y650640D03*
Y853840D03*
Y1317390D03*
Y1520590D03*
Y1723790D03*
Y1926990D03*
G54D14*
X0Y956050D03*
Y987050D03*
X88900Y1145800D03*
Y1114800D03*
G54D23*
X361950Y192640D03*
Y395840D03*
Y599040D03*
Y802240D03*
Y1265790D03*
Y1468990D03*
Y1672190D03*
Y1875390D03*
X488950Y294240D03*
Y497440D03*
Y700640D03*
Y903840D03*
Y1367390D03*
Y1570590D03*
Y1773790D03*
Y1976990D03*
X615950Y192640D03*
Y395840D03*
Y599040D03*
Y802240D03*
Y1265790D03*
Y1468990D03*
Y1672190D03*
Y1875390D03*
X742950Y294240D03*
Y497440D03*
Y700640D03*
Y903840D03*
Y1367390D03*
Y1570590D03*
Y1773790D03*
Y1976990D03*
G54D24*
X857250Y142240D03*
Y243840D03*
Y193040D03*
Y294640D03*
Y396240D03*
Y345440D03*
Y447040D03*
Y548640D03*
Y497840D03*
Y599440D03*
Y701040D03*
Y650240D03*
Y751840D03*
Y853440D03*
Y802640D03*
Y1215390D03*
Y1266190D03*
Y1367790D03*
Y1316990D03*
Y1418590D03*
Y1520190D03*
Y1469390D03*
Y1570990D03*
Y1672590D03*
Y1621790D03*
Y1723390D03*
Y1824990D03*
Y1774190D03*
Y1875790D03*
Y1926590D03*
G54D15*
X-19050Y1028700D03*
G54D25*
X857250Y904240D03*
Y1977390D03*
G54D16*
X-6350Y2104390D03*
X44450Y-54610D03*
X857250D03*
Y2104390D03*
G54D26*
X940000Y-50800D03*
Y2171700D03*
G54D17*
X82550Y1225550D03*
G54D18*
X107950Y4050D03*
Y34050D03*
X139350Y142240D03*
Y167640D03*
Y193040D03*
Y243840D03*
Y269240D03*
Y294640D03*
Y345440D03*
Y370840D03*
Y447040D03*
Y396240D03*
Y472440D03*
Y497840D03*
Y548640D03*
Y574040D03*
Y599440D03*
Y650240D03*
Y675640D03*
Y751840D03*
Y701040D03*
Y777240D03*
Y802640D03*
Y853440D03*
Y878840D03*
Y904240D03*
X120650Y1056400D03*
Y1026400D03*
Y1145300D03*
Y1115300D03*
X139350Y1215390D03*
Y1240790D03*
Y1266190D03*
Y1316990D03*
Y1342390D03*
Y1367790D03*
Y1418590D03*
Y1443990D03*
Y1520190D03*
Y1469390D03*
Y1545590D03*
Y1570990D03*
Y1621790D03*
Y1647190D03*
Y1672590D03*
Y1723390D03*
Y1748790D03*
Y1824990D03*
Y1774190D03*
Y1850390D03*
Y1875790D03*
Y1926590D03*
Y1951990D03*
Y1977390D03*
X254350Y142240D03*
Y167640D03*
Y193040D03*
Y243840D03*
Y269240D03*
Y294640D03*
Y345440D03*
Y370840D03*
Y447040D03*
Y396240D03*
Y472440D03*
Y497840D03*
Y548640D03*
Y574040D03*
Y599440D03*
Y650240D03*
Y675640D03*
Y751840D03*
Y701040D03*
Y777240D03*
Y802640D03*
Y853440D03*
Y878840D03*
Y904240D03*
Y1215390D03*
Y1240790D03*
Y1266190D03*
Y1316990D03*
Y1342390D03*
Y1367790D03*
Y1418590D03*
Y1443990D03*
Y1520190D03*
Y1469390D03*
Y1545590D03*
Y1570990D03*
Y1621790D03*
Y1647190D03*
Y1672590D03*
Y1723390D03*
Y1748790D03*
Y1824990D03*
Y1774190D03*
Y1850390D03*
Y1875790D03*
Y1926590D03*
Y1951990D03*
Y1977390D03*
G54D19*
X143900Y82550D03*
Y101600D03*
X86750Y1974850D03*
X103750D03*
X86750Y1955800D03*
X103750D03*
X160900Y82550D03*
Y101600D03*
M02*
