G04 ================== begin FILE IDENTIFICATION RECORD ==================*
G04 Layout Name:  D:/Project/Circuit/AVANT/KPRD/03v4/pcb/KPRD_03v4.brd*
G04 Film Name:    MASK_TOP*
G04 File Format:  Gerber RS274X*
G04 File Origin:  Cadence Allegro 16.6-2015-S073*
G04 Origin Date:  Tue Apr 10 14:23:49 2018*
G04 *
G04 Layer:  PACKAGE GEOMETRY/SOLDERMASK_TOP*
G04 Layer:  PIN/SOLDERMASK_TOP*
G04 Layer:  VIA CLASS/SOLDERMASK_TOP*
G04 Layer:  BOARD GEOMETRY/SOLDERMASK_TOP*
G04 *
G04 Offset:    (0.000 0.000)*
G04 Mirror:    No*
G04 Mode:      Positive*
G04 Rotation:  0*
G04 FullContactRelief:  No*
G04 UndefLineWidth:     0.000*
G04 ================== end FILE IDENTIFICATION RECORD ====================*
%FSLAX34Y34*MOMM*%
%IR0*IPPOS*OFA0.00000B0.00000*MIA0B0*SFA1.00000B1.00000*%
%ADD14R,.8X1.2*%
%ADD25R,1.2X.8*%
%ADD17O,.4X1.55*%
%ADD11C,3.*%
%ADD18R,.4X1.55*%
%ADD10C,4.2*%
%ADD23C,1.7*%
%ADD32C,2.7*%
%ADD13C,1.9*%
%ADD30C,7.4*%
%ADD15R,.75X1.25*%
%ADD22R,1.25X.75*%
%ADD33C,5.8*%
%ADD31R,2.7X2.7*%
%ADD12R,1.9X1.9*%
%ADD21R,2.X1.4*%
%ADD20R,2.5X2.*%
%ADD28R,2.X2.5*%
%ADD26O,1.8X1.2*%
%ADD19R,1.1X1.6*%
%ADD29R,1.4X2.9*%
%ADD24R,1.65X1.4*%
%ADD16R,1.4X1.65*%
%ADD27R,2.85X1.95*%
%LPD*%
G75*
G54D10*
X-76200Y-50800D03*
Y838200D03*
G54D20*
X19050Y931070D03*
Y885030D03*
X330200Y144620D03*
Y190660D03*
Y246220D03*
Y292260D03*
Y347820D03*
Y393860D03*
Y449420D03*
Y495460D03*
Y551020D03*
Y597060D03*
Y652620D03*
Y698660D03*
Y754220D03*
Y800260D03*
Y855820D03*
Y901860D03*
Y1217770D03*
Y1263810D03*
Y1319370D03*
Y1365410D03*
Y1420970D03*
Y1467010D03*
Y1522570D03*
Y1568610D03*
Y1624170D03*
Y1670210D03*
Y1725770D03*
Y1771810D03*
Y1827370D03*
Y1873410D03*
Y1928970D03*
Y1975010D03*
G54D11*
X-76200Y2110740D03*
X-25400Y-48260D03*
X857250Y8890D03*
Y2110740D03*
G54D21*
X-25400Y937750D03*
Y967250D03*
X69850D03*
Y937750D03*
Y1176800D03*
Y1147300D03*
G54D12*
X-50800Y0D03*
Y228600D03*
Y482600D03*
Y736600D03*
X-38100Y1206500D03*
X-25400Y0D03*
X0D03*
X-25400Y228600D03*
X0D03*
X-25400Y482600D03*
X0D03*
X-25400Y736600D03*
X0D03*
X539750Y148590D03*
Y250190D03*
Y351790D03*
Y453390D03*
Y554990D03*
Y656590D03*
Y758190D03*
Y859790D03*
Y1221740D03*
Y1323340D03*
Y1424940D03*
Y1526540D03*
Y1628140D03*
Y1729740D03*
Y1831340D03*
Y1932940D03*
X590550Y161290D03*
Y262890D03*
Y364490D03*
Y466090D03*
Y567690D03*
Y669290D03*
Y770890D03*
Y872490D03*
Y1234440D03*
Y1336040D03*
Y1437640D03*
Y1539240D03*
Y1640840D03*
Y1742440D03*
Y1844040D03*
Y1945640D03*
G54D30*
X806450Y1059810D03*
G54D31*
Y142240D03*
Y1215390D03*
G54D22*
X-6530Y1009650D03*
Y1098550D03*
X19230Y1009650D03*
Y1098550D03*
G54D13*
X-50800Y25400D03*
Y50800D03*
Y76200D03*
Y101600D03*
Y127000D03*
Y152400D03*
Y177800D03*
Y203200D03*
Y254000D03*
Y279400D03*
Y304800D03*
Y330200D03*
Y355600D03*
Y381000D03*
Y406400D03*
Y431800D03*
Y457200D03*
Y508000D03*
Y533400D03*
Y558800D03*
Y584200D03*
Y609600D03*
Y635000D03*
Y660400D03*
Y685800D03*
Y711200D03*
Y762000D03*
Y787400D03*
X-25400Y25400D03*
Y50800D03*
X0Y25400D03*
Y50800D03*
X-25400Y76200D03*
Y101600D03*
X0Y76200D03*
Y101600D03*
X-25400Y127000D03*
Y152400D03*
X0Y127000D03*
Y152400D03*
X-25400Y177800D03*
Y203200D03*
X0Y177800D03*
Y203200D03*
X-25400Y254000D03*
X0D03*
X-25400Y279400D03*
Y304800D03*
X0Y279400D03*
Y304800D03*
X-25400Y330200D03*
Y355600D03*
X0Y330200D03*
Y355600D03*
X-25400Y381000D03*
Y406400D03*
X0Y381000D03*
Y406400D03*
X-25400Y431800D03*
Y457200D03*
X0Y431800D03*
Y457200D03*
X-25400Y508000D03*
X0D03*
X-25400Y533400D03*
Y558800D03*
X0Y533400D03*
Y558800D03*
X-25400Y584200D03*
Y609600D03*
X0Y584200D03*
Y609600D03*
X-25400Y635000D03*
Y660400D03*
X0Y635000D03*
Y660400D03*
X-25400Y685800D03*
Y711200D03*
X0Y685800D03*
Y711200D03*
X-25400Y762000D03*
X0D03*
X-25400Y787400D03*
X0D03*
X-12700Y1206500D03*
X413150Y142240D03*
Y243840D03*
Y345440D03*
Y447040D03*
Y548640D03*
Y650240D03*
Y751840D03*
Y853440D03*
Y1215390D03*
Y1316990D03*
Y1418590D03*
Y1520190D03*
Y1621790D03*
Y1723390D03*
Y1824990D03*
Y1926590D03*
X463150Y142240D03*
Y243840D03*
Y345440D03*
Y447040D03*
Y548640D03*
Y650240D03*
Y751840D03*
Y853440D03*
Y1215390D03*
Y1316990D03*
Y1418590D03*
Y1520190D03*
Y1621790D03*
Y1723390D03*
Y1824990D03*
Y1926590D03*
X539750Y173990D03*
Y275590D03*
Y377190D03*
Y478790D03*
Y580390D03*
Y681990D03*
Y783590D03*
Y885190D03*
Y1247140D03*
Y1348740D03*
Y1450340D03*
Y1551940D03*
Y1653540D03*
Y1755140D03*
Y1856740D03*
Y1958340D03*
X590550Y186690D03*
Y288290D03*
Y389890D03*
Y491490D03*
Y593090D03*
Y694690D03*
Y796290D03*
Y897890D03*
Y1259840D03*
Y1361440D03*
Y1463040D03*
Y1564640D03*
Y1666240D03*
Y1767840D03*
Y1869440D03*
Y1971040D03*
X667150Y193040D03*
Y294640D03*
Y396240D03*
Y497840D03*
Y599440D03*
Y701040D03*
Y802640D03*
Y904240D03*
Y1266190D03*
Y1367790D03*
Y1469390D03*
Y1570990D03*
Y1672590D03*
Y1774190D03*
Y1875790D03*
Y1977390D03*
X717150Y193040D03*
Y294640D03*
Y396240D03*
Y497840D03*
Y599440D03*
Y701040D03*
Y802640D03*
Y904240D03*
Y1266190D03*
Y1367790D03*
Y1469390D03*
Y1570990D03*
Y1672590D03*
Y1774190D03*
Y1875790D03*
Y1977390D03*
G54D32*
X806450Y193040D03*
Y243840D03*
Y294640D03*
Y345440D03*
Y396240D03*
Y447040D03*
Y497840D03*
Y548640D03*
Y599440D03*
Y650240D03*
Y701040D03*
Y751840D03*
Y802640D03*
Y853440D03*
Y904240D03*
Y1266190D03*
Y1316990D03*
Y1367790D03*
Y1418590D03*
Y1469390D03*
Y1520190D03*
Y1570990D03*
Y1621790D03*
Y1672590D03*
Y1723390D03*
Y1774190D03*
Y1824990D03*
Y1875790D03*
Y1926590D03*
Y1977390D03*
G54D23*
X-25000Y1267500D03*
X806450Y-41110D03*
Y58890D03*
Y2059940D03*
Y2159940D03*
G54D14*
X-63500Y964000D03*
X-54000Y941000D03*
X-73000D03*
G54D24*
X50800Y35700D03*
Y53200D03*
Y2034400D03*
Y2016900D03*
X76200Y35700D03*
Y53200D03*
Y2034400D03*
Y2016900D03*
G54D33*
X889200Y-50800D03*
Y2171700D03*
G54D15*
X-70050Y1027230D03*
Y1001470D03*
G54D16*
X-46850Y1003300D03*
X-29350D03*
G54D25*
X62300Y1025550D03*
X39300Y1035050D03*
X62300Y1044550D03*
Y1073150D03*
X39300Y1063650D03*
Y1082650D03*
G54D26*
X87300Y142240D03*
Y167640D03*
Y193040D03*
Y243840D03*
Y269240D03*
Y294640D03*
Y345440D03*
Y370840D03*
Y396240D03*
Y447040D03*
Y472440D03*
Y497840D03*
Y548640D03*
Y574040D03*
Y599440D03*
Y650240D03*
Y675640D03*
Y701040D03*
Y751840D03*
Y777240D03*
Y802640D03*
Y853440D03*
Y878840D03*
Y904240D03*
Y1215390D03*
Y1240790D03*
Y1266190D03*
Y1316990D03*
Y1342390D03*
Y1367790D03*
Y1418590D03*
Y1443990D03*
Y1469390D03*
Y1520190D03*
Y1545590D03*
Y1570990D03*
Y1621790D03*
Y1647190D03*
Y1672590D03*
Y1723390D03*
Y1748790D03*
Y1774190D03*
Y1824990D03*
Y1850390D03*
Y1875790D03*
Y1926590D03*
Y1951990D03*
Y1977390D03*
X204800Y142240D03*
Y193040D03*
Y167640D03*
Y243840D03*
Y294640D03*
Y269240D03*
Y345440D03*
Y396240D03*
Y370840D03*
Y447040D03*
Y497840D03*
Y472440D03*
Y548640D03*
Y599440D03*
Y574040D03*
Y650240D03*
Y701040D03*
Y675640D03*
Y751840D03*
Y802640D03*
Y777240D03*
Y853440D03*
Y904240D03*
Y878840D03*
Y1215390D03*
Y1266190D03*
Y1240790D03*
Y1316990D03*
Y1367790D03*
Y1342390D03*
Y1418590D03*
Y1469390D03*
Y1443990D03*
Y1520190D03*
Y1570990D03*
Y1545590D03*
Y1621790D03*
Y1672590D03*
Y1647190D03*
Y1723390D03*
Y1774190D03*
Y1748790D03*
Y1824990D03*
Y1875790D03*
Y1850390D03*
Y1951990D03*
Y1926590D03*
Y1977390D03*
G54D17*
X-48100Y1075600D03*
X-43100D03*
X-38100D03*
Y1032600D03*
X-43100D03*
X-33100Y1075600D03*
X-28100D03*
Y1032600D03*
X-33100D03*
G54D27*
X99150Y1009650D03*
Y1098550D03*
X142150Y1009650D03*
Y1098550D03*
G54D18*
X-48100Y1032600D03*
G54D19*
X-47400Y1123950D03*
X-66900D03*
X16100Y1073150D03*
X-3400D03*
X16100Y1035050D03*
X-3400D03*
X-22450Y1123950D03*
X-2950D03*
G54D28*
X91280Y1054100D03*
X137320D03*
X237330Y193040D03*
Y294640D03*
Y396240D03*
Y497840D03*
Y599440D03*
Y701040D03*
Y802640D03*
Y904240D03*
Y1266190D03*
Y1367790D03*
Y1469390D03*
Y1570990D03*
Y1672590D03*
Y1774190D03*
Y1875790D03*
Y1977390D03*
X283370Y193040D03*
Y294640D03*
Y396240D03*
Y497840D03*
Y599440D03*
Y701040D03*
Y802640D03*
Y904240D03*
Y1266190D03*
Y1367790D03*
Y1469390D03*
Y1570990D03*
Y1672590D03*
Y1774190D03*
Y1875790D03*
Y1977390D03*
G54D29*
X236600Y142240D03*
Y243840D03*
Y345440D03*
Y447040D03*
Y548640D03*
Y650240D03*
Y751840D03*
Y853440D03*
Y1215390D03*
Y1316990D03*
Y1418590D03*
Y1520190D03*
Y1621790D03*
Y1723390D03*
Y1824990D03*
Y1926590D03*
X284100Y142240D03*
Y243840D03*
Y345440D03*
Y447040D03*
Y548640D03*
Y650240D03*
Y751840D03*
Y853440D03*
Y1215390D03*
Y1316990D03*
Y1418590D03*
Y1520190D03*
Y1621790D03*
Y1723390D03*
Y1824990D03*
Y1926590D03*
M02*
