G04 ================== begin FILE IDENTIFICATION RECORD ==================*
G04 Layout Name:  D:/Project/Circuit/KPRD/03v3/pcb/KPRD_03v3.brd*
G04 Film Name:    MASK_BOT*
G04 File Format:  Gerber RS274X*
G04 File Origin:  Cadence Allegro 16.6-2015-S073*
G04 Origin Date:  Tue Aug 15 14:33:12 2017*
G04 *
G04 Layer:  VIA CLASS/SOLDERMASK_BOTTOM*
G04 Layer:  PIN/SOLDERMASK_BOTTOM*
G04 Layer:  PACKAGE GEOMETRY/SOLDERMASK_BOTTOM*
G04 *
G04 Offset:    (0.000 0.000)*
G04 Mirror:    No*
G04 Mode:      Positive*
G04 Rotation:  0*
G04 FullContactRelief:  No*
G04 UndefLineWidth:     0.000*
G04 ================== end FILE IDENTIFICATION RECORD ====================*
%FSLAX34Y34*MOMM*%
%IR0*IPPOS*OFA0.00000B0.00000*MIA0B0*SFA1.00000B1.00000*%
%ADD21R,1.2X.8*%
%ADD18O,2.X.84*%
%ADD11C,3.*%
%ADD22R,2.X.84*%
%ADD10C,4.2*%
%ADD16C,1.7*%
%ADD27C,2.7*%
%ADD13C,1.9*%
%ADD25C,7.4*%
%ADD20R,.75X1.25*%
%ADD26R,2.7X2.7*%
%ADD12R,1.9X1.9*%
%ADD24R,2.X1.6*%
%ADD14R,1.6X1.1*%
%ADD17R,2.9X1.4*%
%ADD23R,1.4X2.9*%
%ADD15R,1.65X1.4*%
%ADD19R,1.4X1.65*%
%ADD28R,1.7X3.8*%
%LPD*%
G75*
G54D10*
X-76200Y-50800D03*
Y838200D03*
X889200Y-50800D03*
Y2171700D03*
G54D20*
X209550Y135710D03*
Y161470D03*
Y237310D03*
Y263070D03*
Y338910D03*
Y364670D03*
Y440510D03*
Y466270D03*
Y542110D03*
Y567870D03*
Y643710D03*
Y669470D03*
Y745310D03*
Y771070D03*
Y846910D03*
Y872670D03*
Y1208860D03*
Y1234620D03*
Y1310460D03*
Y1336220D03*
Y1412060D03*
Y1437820D03*
Y1513660D03*
Y1539420D03*
Y1615260D03*
Y1641020D03*
Y1716860D03*
Y1742620D03*
Y1818460D03*
Y1844220D03*
Y1920060D03*
Y1945820D03*
G54D11*
X-76200Y2110740D03*
X-25400Y-48260D03*
X857250Y8890D03*
Y2110740D03*
G54D12*
X-50800Y0D03*
Y228600D03*
Y482600D03*
Y736600D03*
X-38100Y1206500D03*
X-25400Y0D03*
X0D03*
X-25400Y228600D03*
X0D03*
X-25400Y482600D03*
X0D03*
X-25400Y736600D03*
X0D03*
X539750Y148590D03*
Y250190D03*
Y351790D03*
Y453390D03*
Y554990D03*
Y656590D03*
Y758190D03*
Y859790D03*
Y1221740D03*
Y1323340D03*
Y1424940D03*
Y1526540D03*
Y1628140D03*
Y1729740D03*
Y1831340D03*
Y1932940D03*
X590550Y161290D03*
Y262890D03*
Y364490D03*
Y466090D03*
Y567690D03*
Y669290D03*
Y770890D03*
Y872490D03*
Y1234440D03*
Y1336040D03*
Y1437640D03*
Y1539240D03*
Y1640840D03*
Y1742440D03*
Y1844040D03*
Y1945640D03*
G54D21*
X221050Y186690D03*
X198050Y196190D03*
Y177190D03*
X221050Y288290D03*
X198050Y297790D03*
Y278790D03*
X221050Y389890D03*
X198050Y399390D03*
Y380390D03*
X221050Y491490D03*
X198050Y500990D03*
Y481990D03*
X221050Y593090D03*
X198050Y602590D03*
Y583590D03*
X221050Y694690D03*
X198050Y704190D03*
Y685190D03*
X221050Y796290D03*
X198050Y805790D03*
Y786790D03*
X221050Y897890D03*
X198050Y907390D03*
Y888390D03*
X221050Y1259840D03*
X198050Y1269340D03*
Y1250340D03*
X221050Y1361440D03*
X198050Y1370940D03*
Y1351940D03*
X221050Y1463040D03*
X198050Y1472540D03*
Y1453540D03*
X221050Y1564640D03*
X198050Y1574140D03*
Y1555140D03*
X221050Y1666240D03*
X198050Y1675740D03*
Y1656740D03*
X221050Y1767840D03*
X198050Y1777340D03*
Y1758340D03*
X221050Y1869440D03*
X198050Y1878940D03*
Y1859940D03*
X221050Y1971040D03*
X198050Y1980540D03*
Y1961540D03*
G54D13*
X-50800Y25400D03*
Y50800D03*
Y76200D03*
Y101600D03*
Y127000D03*
Y152400D03*
Y177800D03*
Y203200D03*
Y254000D03*
Y279400D03*
Y304800D03*
Y330200D03*
Y355600D03*
Y381000D03*
Y406400D03*
Y431800D03*
Y457200D03*
Y508000D03*
Y533400D03*
Y558800D03*
Y584200D03*
Y609600D03*
Y635000D03*
Y660400D03*
Y685800D03*
Y711200D03*
Y762000D03*
Y787400D03*
X-25400Y25400D03*
Y50800D03*
X0Y25400D03*
Y50800D03*
X-25400Y76200D03*
Y101600D03*
X0Y76200D03*
Y101600D03*
X-25400Y127000D03*
Y152400D03*
X0Y127000D03*
Y152400D03*
X-25400Y177800D03*
Y203200D03*
X0Y177800D03*
Y203200D03*
X-25400Y254000D03*
X0D03*
X-25400Y279400D03*
Y304800D03*
X0Y279400D03*
Y304800D03*
X-25400Y330200D03*
Y355600D03*
X0Y330200D03*
Y355600D03*
X-25400Y381000D03*
Y406400D03*
X0Y381000D03*
Y406400D03*
X-25400Y431800D03*
Y457200D03*
X0Y431800D03*
Y457200D03*
X-25400Y508000D03*
X0D03*
X-25400Y533400D03*
Y558800D03*
X0Y533400D03*
Y558800D03*
X-25400Y584200D03*
Y609600D03*
X0Y584200D03*
Y609600D03*
X-25400Y635000D03*
Y660400D03*
X0Y635000D03*
Y660400D03*
X-25400Y685800D03*
Y711200D03*
X0Y685800D03*
Y711200D03*
X-25400Y762000D03*
X0D03*
X-25400Y787400D03*
X0D03*
X-12700Y1206500D03*
X413150Y142240D03*
Y243840D03*
Y345440D03*
Y447040D03*
Y548640D03*
Y650240D03*
Y751840D03*
Y853440D03*
Y1215390D03*
Y1316990D03*
Y1418590D03*
Y1520190D03*
Y1621790D03*
Y1723390D03*
Y1824990D03*
Y1926590D03*
X463150Y142240D03*
Y243840D03*
Y345440D03*
Y447040D03*
Y548640D03*
Y650240D03*
Y751840D03*
Y853440D03*
Y1215390D03*
Y1316990D03*
Y1418590D03*
Y1520190D03*
Y1621790D03*
Y1723390D03*
Y1824990D03*
Y1926590D03*
X539750Y173990D03*
Y275590D03*
Y377190D03*
Y478790D03*
Y580390D03*
Y681990D03*
Y783590D03*
Y885190D03*
Y1247140D03*
Y1348740D03*
Y1450340D03*
Y1551940D03*
Y1653540D03*
Y1755140D03*
Y1856740D03*
Y1958340D03*
X590550Y186690D03*
Y288290D03*
Y389890D03*
Y491490D03*
Y593090D03*
Y694690D03*
Y796290D03*
Y897890D03*
Y1259840D03*
Y1361440D03*
Y1463040D03*
Y1564640D03*
Y1666240D03*
Y1767840D03*
Y1869440D03*
Y1971040D03*
X667150Y193040D03*
Y294640D03*
Y396240D03*
Y497840D03*
Y599440D03*
Y701040D03*
Y802640D03*
Y904240D03*
Y1266190D03*
Y1367790D03*
Y1469390D03*
Y1570990D03*
Y1672590D03*
Y1774190D03*
Y1875790D03*
Y1977390D03*
X717150Y193040D03*
Y294640D03*
Y396240D03*
Y497840D03*
Y599440D03*
Y701040D03*
Y802640D03*
Y904240D03*
Y1266190D03*
Y1367790D03*
Y1469390D03*
Y1570990D03*
Y1672590D03*
Y1774190D03*
Y1875790D03*
Y1977390D03*
G54D22*
X183650Y161290D03*
Y262890D03*
Y364490D03*
Y466090D03*
Y567690D03*
Y669290D03*
Y770890D03*
Y872490D03*
Y1234440D03*
Y1336040D03*
Y1437640D03*
Y1539240D03*
Y1640840D03*
Y1742440D03*
Y1844040D03*
Y1945640D03*
G54D23*
X236600Y142240D03*
Y193040D03*
Y243840D03*
Y294640D03*
Y345440D03*
Y396240D03*
Y447040D03*
Y497840D03*
Y548640D03*
Y599440D03*
Y650240D03*
Y701040D03*
Y751840D03*
Y802640D03*
Y853440D03*
Y904240D03*
Y1215390D03*
Y1266190D03*
Y1316990D03*
Y1367790D03*
Y1418590D03*
Y1469390D03*
Y1520190D03*
Y1570990D03*
Y1621790D03*
Y1672590D03*
Y1723390D03*
Y1774190D03*
Y1824990D03*
Y1875790D03*
Y1926590D03*
Y1977390D03*
X284100Y142240D03*
Y193040D03*
Y243840D03*
Y294640D03*
Y345440D03*
Y396240D03*
Y447040D03*
Y497840D03*
Y548640D03*
Y599440D03*
Y650240D03*
Y701040D03*
Y751840D03*
Y802640D03*
Y853440D03*
Y904240D03*
Y1215390D03*
Y1266190D03*
Y1316990D03*
Y1367790D03*
Y1418590D03*
Y1469390D03*
Y1520190D03*
Y1570990D03*
Y1621790D03*
Y1672590D03*
Y1723390D03*
Y1774190D03*
Y1824990D03*
Y1875790D03*
Y1926590D03*
Y1977390D03*
X338200Y142240D03*
Y193040D03*
Y243840D03*
Y294640D03*
Y345440D03*
Y396240D03*
Y447040D03*
Y497840D03*
Y548640D03*
Y599440D03*
Y650240D03*
Y701040D03*
Y751840D03*
Y802640D03*
Y853440D03*
Y904240D03*
Y1215390D03*
Y1266190D03*
Y1316990D03*
Y1367790D03*
Y1418590D03*
Y1469390D03*
Y1520190D03*
Y1570990D03*
Y1621790D03*
Y1672590D03*
Y1723390D03*
Y1774190D03*
Y1824990D03*
Y1875790D03*
Y1926590D03*
Y1977390D03*
X385700Y142240D03*
Y193040D03*
Y243840D03*
Y294640D03*
Y345440D03*
Y396240D03*
Y447040D03*
Y497840D03*
Y548640D03*
Y599440D03*
Y650240D03*
Y701040D03*
Y751840D03*
Y802640D03*
Y853440D03*
Y904240D03*
Y1215390D03*
Y1266190D03*
Y1316990D03*
Y1367790D03*
Y1418590D03*
Y1469390D03*
Y1520190D03*
Y1570990D03*
Y1621790D03*
Y1672590D03*
Y1723390D03*
Y1774190D03*
Y1824990D03*
Y1875790D03*
Y1926590D03*
Y1977390D03*
X662050Y142240D03*
Y243840D03*
Y345440D03*
Y447040D03*
Y548640D03*
Y650240D03*
Y751840D03*
Y853440D03*
Y1215390D03*
Y1316990D03*
Y1418590D03*
Y1520190D03*
Y1621790D03*
Y1723390D03*
Y1824990D03*
Y1926590D03*
X709550Y142240D03*
Y243840D03*
Y345440D03*
Y447040D03*
Y548640D03*
Y650240D03*
Y751840D03*
Y853440D03*
Y1215390D03*
Y1316990D03*
Y1418590D03*
Y1520190D03*
Y1621790D03*
Y1723390D03*
Y1824990D03*
Y1926590D03*
G54D14*
X-44450Y993550D03*
Y1013050D03*
X95250Y145640D03*
Y126140D03*
Y247240D03*
Y227740D03*
Y348840D03*
Y329340D03*
Y450440D03*
Y430940D03*
Y552040D03*
Y532540D03*
Y653640D03*
Y634140D03*
Y755240D03*
Y735740D03*
Y856840D03*
Y837340D03*
Y1218790D03*
Y1199290D03*
Y1320390D03*
Y1300890D03*
Y1421990D03*
Y1402490D03*
Y1523590D03*
Y1504090D03*
Y1625190D03*
Y1605690D03*
Y1726790D03*
Y1707290D03*
Y1828390D03*
Y1808890D03*
Y1929990D03*
Y1910490D03*
G54D15*
X-48000Y1078050D03*
Y1060550D03*
X-19050Y1012050D03*
Y994550D03*
G54D24*
X311150Y153790D03*
Y181490D03*
Y255390D03*
Y283090D03*
Y356990D03*
Y384690D03*
Y458590D03*
Y486290D03*
Y560190D03*
Y587890D03*
Y661790D03*
Y689490D03*
Y763390D03*
Y791090D03*
Y864990D03*
Y892690D03*
Y1226940D03*
Y1254640D03*
Y1328540D03*
Y1356240D03*
Y1430140D03*
Y1457840D03*
Y1531740D03*
Y1559440D03*
Y1633340D03*
Y1661040D03*
Y1734940D03*
Y1762640D03*
Y1836540D03*
Y1864240D03*
Y1938140D03*
Y1965840D03*
G54D25*
X806450Y1059810D03*
G54D16*
X-38100Y1276350D03*
G54D17*
X-12700Y880600D03*
Y910100D03*
X628650Y143890D03*
Y191390D03*
Y245490D03*
Y292990D03*
Y347090D03*
Y394590D03*
Y448690D03*
Y496190D03*
Y550290D03*
Y597790D03*
Y651890D03*
Y699390D03*
Y753490D03*
Y800990D03*
Y855090D03*
Y902590D03*
Y1217040D03*
Y1264540D03*
Y1318640D03*
Y1366140D03*
Y1420240D03*
Y1467740D03*
Y1521840D03*
Y1569340D03*
Y1623440D03*
Y1670940D03*
Y1725040D03*
Y1772540D03*
Y1826640D03*
Y1874140D03*
Y1928240D03*
Y1975740D03*
G54D26*
X806450Y142240D03*
Y1215390D03*
G54D27*
Y193040D03*
Y243840D03*
Y294640D03*
Y345440D03*
Y396240D03*
Y447040D03*
Y497840D03*
Y548640D03*
Y599440D03*
Y650240D03*
Y701040D03*
Y751840D03*
Y802640D03*
Y853440D03*
Y904240D03*
Y1266190D03*
Y1316990D03*
Y1367790D03*
Y1418590D03*
Y1469390D03*
Y1520190D03*
Y1570990D03*
Y1621790D03*
Y1672590D03*
Y1723390D03*
Y1774190D03*
Y1824990D03*
Y1875790D03*
Y1926590D03*
Y1977390D03*
G54D18*
X121150Y148590D03*
Y135890D03*
Y161290D03*
Y250190D03*
Y237490D03*
Y262890D03*
Y351790D03*
Y339090D03*
Y364490D03*
Y453390D03*
Y440690D03*
Y466090D03*
Y554990D03*
Y542290D03*
Y567690D03*
Y669290D03*
Y656590D03*
Y643890D03*
Y770890D03*
Y758190D03*
Y745490D03*
Y872490D03*
Y859790D03*
Y847090D03*
Y1221740D03*
Y1209040D03*
Y1234440D03*
Y1323340D03*
Y1310640D03*
Y1336040D03*
Y1437640D03*
Y1424940D03*
Y1412240D03*
Y1539240D03*
Y1526540D03*
Y1513840D03*
Y1640840D03*
Y1628140D03*
Y1615440D03*
Y1742440D03*
Y1729740D03*
Y1717040D03*
Y1844040D03*
Y1831340D03*
Y1818640D03*
Y1945640D03*
Y1932940D03*
Y1920240D03*
X183650Y135890D03*
Y237490D03*
Y339090D03*
Y440690D03*
Y542290D03*
Y643890D03*
Y745490D03*
Y847090D03*
Y1209040D03*
Y1310640D03*
Y1412240D03*
Y1513840D03*
Y1615440D03*
Y1717040D03*
Y1818640D03*
Y1920240D03*
G54D28*
X848700Y142240D03*
X891200D03*
X848700Y193040D03*
X891200D03*
X848700Y243840D03*
X891200D03*
X848700Y294640D03*
X891200D03*
X848700Y345440D03*
X891200D03*
X848700Y396240D03*
X891200D03*
X848700Y447040D03*
X891200D03*
X848700Y497840D03*
X891200D03*
X848700Y548640D03*
X891200D03*
X848700Y599440D03*
X891200D03*
X848700Y650240D03*
X891200D03*
X848700Y701040D03*
X891200D03*
X848700Y751840D03*
X891200D03*
X848700Y802640D03*
X891200D03*
X848700Y853440D03*
X891200D03*
X848700Y904240D03*
X891200D03*
X848700Y1215390D03*
X891200D03*
X848700Y1266190D03*
X891200D03*
X848700Y1316990D03*
X891200D03*
X848700Y1367790D03*
X891200D03*
X848700Y1418590D03*
X891200D03*
X848700Y1469390D03*
X891200D03*
X848700Y1520190D03*
X891200D03*
X848700Y1570990D03*
X891200D03*
X848700Y1621790D03*
X891200D03*
X848700Y1672590D03*
X891200D03*
X848700Y1723390D03*
X891200D03*
X848700Y1774190D03*
X891200D03*
X848700Y1824990D03*
X891200D03*
X848700Y1875790D03*
X891200D03*
X848700Y1926590D03*
X891200D03*
X848700Y1977390D03*
X891200D03*
G54D19*
X99200Y180340D03*
X116700D03*
X99200Y281940D03*
X116700D03*
X99200Y383540D03*
X116700D03*
X99200Y485140D03*
X116700D03*
X99200Y586740D03*
X116700D03*
X99200Y688340D03*
X116700D03*
X99200Y789940D03*
X116700D03*
X99200Y891540D03*
X116700D03*
X99200Y1253490D03*
X116700D03*
X99200Y1355090D03*
X116700D03*
X99200Y1456690D03*
X116700D03*
X99200Y1558290D03*
X116700D03*
X99200Y1659890D03*
X116700D03*
X99200Y1761490D03*
X116700D03*
X99200Y1863090D03*
X116700D03*
X99200Y1964690D03*
X116700D03*
M02*
