G04 ================== begin FILE IDENTIFICATION RECORD ==================*
G04 Layout Name:  D:/Project/Circuit/ORCAD/KPRD/03v2/pcb/KPRD_03v2.brd*
G04 Film Name:    SILK_TOP*
G04 File Format:  Gerber RS274X*
G04 File Origin:  Cadence Allegro 16.6-S021*
G04 Origin Date:  Tue Feb 04 10:50:33 2014*
G04 *
G04 Layer:  MANUFACTURING/AUTOSILK_TOP*
G04 *
G04 Offset:    (0.000 0.000)*
G04 Mirror:    No*
G04 Mode:      Positive*
G04 Rotation:  0*
G04 FullContactRelief:  No*
G04 UndefLineWidth:     0.200*
G04 ================== end FILE IDENTIFICATION RECORD ====================*
%FSLAX34Y34*MOMM*%
%IR0*IPPOS*OFA0.00000B0.00000*MIA0B0*SFA1.00000B1.00000*%
%ADD10C,.2*%
%ADD11C,.3*%
%ADD12C,.15*%
%ADD13C,.25*%
G75*
%LPD*%
G75*
G54D10*
G01X-45400Y868200D02*
X4600D01*
Y828200D01*
X-15400Y808200D01*
Y-21800D01*
X4600Y-41800D01*
Y-81800D01*
X-45400D01*
G01X38700Y906750D02*
Y902750D01*
X-13300D01*
Y906750D01*
G01X-12500Y978050D02*
Y965050D01*
G01X38700Y934750D02*
Y938750D01*
X-13300D01*
Y934750D01*
G01X12500Y978050D02*
Y965050D01*
G01X115950Y12550D02*
Y25550D01*
G01X99950Y12550D02*
Y25550D01*
G01X151850Y212640D02*
Y122640D01*
X241850D01*
Y212640D01*
X151850D01*
G01Y314240D02*
Y224240D01*
X241850D01*
Y314240D01*
X151850D01*
G01Y415840D02*
Y325840D01*
X241850D01*
Y415840D01*
X151850D01*
G01Y517440D02*
Y427440D01*
X241850D01*
Y517440D01*
X151850D01*
G01Y619040D02*
Y529040D01*
X241850D01*
Y619040D01*
X151850D01*
G01Y720640D02*
Y630640D01*
X241850D01*
Y720640D01*
X151850D01*
G01Y822240D02*
Y732240D01*
X241850D01*
Y822240D01*
X151850D01*
G01Y923840D02*
Y833840D01*
X241850D01*
Y923840D01*
X151850D01*
G01X128650Y1034900D02*
Y1047900D01*
G01X112650Y1034900D02*
Y1047900D01*
G01X103700Y1071350D02*
Y1100350D01*
X112200D01*
Y1071350D01*
X103700D01*
G01X128650Y1123800D02*
Y1136800D01*
G01X112650Y1123800D02*
Y1136800D01*
G01X101400Y1123800D02*
Y1136800D01*
G01X76400Y1123800D02*
Y1136800D01*
G01X151850Y1285790D02*
Y1195790D01*
X241850D01*
Y1285790D01*
X151850D01*
G01Y1387390D02*
Y1297390D01*
X241850D01*
Y1387390D01*
X151850D01*
G01Y1488990D02*
Y1398990D01*
X241850D01*
Y1488990D01*
X151850D01*
G01Y1590590D02*
Y1500590D01*
X241850D01*
Y1590590D01*
X151850D01*
G01Y1692190D02*
Y1602190D01*
X241850D01*
Y1692190D01*
X151850D01*
G01Y1793790D02*
Y1703790D01*
X241850D01*
Y1793790D01*
X151850D01*
G01Y1895390D02*
Y1805390D01*
X241850D01*
Y1895390D01*
X151850D01*
G01Y1996990D02*
Y1906990D01*
X241850D01*
Y1996990D01*
X151850D01*
G01X282500Y134090D02*
Y163090D01*
X289000D01*
Y134090D01*
X282500D01*
G01Y235690D02*
Y264690D01*
X289000D01*
Y235690D01*
X282500D01*
G01Y337290D02*
Y366290D01*
X289000D01*
Y337290D01*
X282500D01*
G01Y438890D02*
Y467890D01*
X289000D01*
Y438890D01*
X282500D01*
G01Y540490D02*
Y569490D01*
X289000D01*
Y540490D01*
X282500D01*
G01Y642090D02*
Y671090D01*
X289000D01*
Y642090D01*
X282500D01*
G01Y743690D02*
Y772690D01*
X289000D01*
Y743690D01*
X282500D01*
G01Y845290D02*
Y874290D01*
X289000D01*
Y845290D01*
X282500D01*
G01Y1207240D02*
Y1236240D01*
X289000D01*
Y1207240D01*
X282500D01*
G01Y1308840D02*
Y1337840D01*
X289000D01*
Y1308840D01*
X282500D01*
G01Y1410440D02*
Y1439440D01*
X289000D01*
Y1410440D01*
X282500D01*
G01Y1512040D02*
Y1541040D01*
X289000D01*
Y1512040D01*
X282500D01*
G01Y1613640D02*
Y1642640D01*
X289000D01*
Y1613640D01*
X282500D01*
G01Y1715240D02*
Y1744240D01*
X289000D01*
Y1715240D01*
X282500D01*
G01Y1816840D02*
Y1845840D01*
X289000D01*
Y1816840D01*
X282500D01*
G01Y1918440D02*
Y1947440D01*
X289000D01*
Y1918440D01*
X282500D01*
G01X311950Y167640D02*
Y237640D01*
X411950D01*
Y97640D01*
X311950D01*
Y167640D01*
G01Y370840D02*
Y440840D01*
X411950D01*
Y300840D01*
X311950D01*
Y370840D01*
G01Y574040D02*
Y644040D01*
X411950D01*
Y504040D01*
X311950D01*
Y574040D01*
G01Y777240D02*
Y847240D01*
X411950D01*
Y707240D01*
X311950D01*
Y777240D01*
G01Y1240790D02*
Y1310790D01*
X411950D01*
Y1170790D01*
X311950D01*
Y1240790D01*
G01Y1443990D02*
Y1513990D01*
X411950D01*
Y1373990D01*
X311950D01*
Y1443990D01*
G01Y1647190D02*
Y1717190D01*
X411950D01*
Y1577190D01*
X311950D01*
Y1647190D01*
G01Y1850390D02*
Y1920390D01*
X411950D01*
Y1780390D01*
X311950D01*
Y1850390D01*
G01X438950Y269240D02*
Y339240D01*
X538950D01*
Y199240D01*
X438950D01*
Y269240D01*
G01Y472440D02*
Y542440D01*
X538950D01*
Y402440D01*
X438950D01*
Y472440D01*
G01Y675640D02*
Y745640D01*
X538950D01*
Y605640D01*
X438950D01*
Y675640D01*
G01Y878840D02*
Y948840D01*
X538950D01*
Y808840D01*
X438950D01*
Y878840D01*
G01Y1342390D02*
Y1412390D01*
X538950D01*
Y1272390D01*
X438950D01*
Y1342390D01*
G01Y1545590D02*
Y1615590D01*
X538950D01*
Y1475590D01*
X438950D01*
Y1545590D01*
G01Y1748790D02*
Y1818790D01*
X538950D01*
Y1678790D01*
X438950D01*
Y1748790D01*
G01Y1951990D02*
Y2021990D01*
X538950D01*
Y1881990D01*
X438950D01*
Y1951990D01*
G01X565950Y167640D02*
Y237640D01*
X665950D01*
Y97640D01*
X565950D01*
Y167640D01*
G01Y370840D02*
Y440840D01*
X665950D01*
Y300840D01*
X565950D01*
Y370840D01*
G01Y574040D02*
Y644040D01*
X665950D01*
Y504040D01*
X565950D01*
Y574040D01*
G01Y777240D02*
Y847240D01*
X665950D01*
Y707240D01*
X565950D01*
Y777240D01*
G01Y1240790D02*
Y1310790D01*
X665950D01*
Y1170790D01*
X565950D01*
Y1240790D01*
G01Y1443990D02*
Y1513990D01*
X665950D01*
Y1373990D01*
X565950D01*
Y1443990D01*
G01Y1647190D02*
Y1717190D01*
X665950D01*
Y1577190D01*
X565950D01*
Y1647190D01*
G01Y1850390D02*
Y1920390D01*
X665950D01*
Y1780390D01*
X565950D01*
Y1850390D01*
G01X692950Y269240D02*
Y339240D01*
X792950D01*
Y199240D01*
X692950D01*
Y269240D01*
G01Y472440D02*
Y542440D01*
X792950D01*
Y402440D01*
X692950D01*
Y472440D01*
G01Y675640D02*
Y745640D01*
X792950D01*
Y605640D01*
X692950D01*
Y675640D01*
G01Y878840D02*
Y948840D01*
X792950D01*
Y808840D01*
X692950D01*
Y878840D01*
G01Y1342390D02*
Y1412390D01*
X792950D01*
Y1272390D01*
X692950D01*
Y1342390D01*
G01Y1545590D02*
Y1615590D01*
X792950D01*
Y1475590D01*
X692950D01*
Y1545590D01*
G01Y1748790D02*
Y1818790D01*
X792950D01*
Y1678790D01*
X692950D01*
Y1748790D01*
G01Y1951990D02*
Y2021990D01*
X792950D01*
Y1881990D01*
X692950D01*
Y1951990D01*
G01X831850Y97790D02*
Y948690D01*
G01Y97790D02*
X958850D01*
Y948690D01*
X831850D01*
G01D02*
Y97790D01*
G01Y1170940D02*
Y2021840D01*
G01Y1170940D02*
X958850D01*
Y2021840D01*
X831850D01*
G01D02*
Y1170940D01*
G54D11*
G01X139850Y205140D02*
G03I-1500J0D01*
G01Y306740D02*
G03I-1500J0D01*
G01Y408340D02*
G03I-1500J0D01*
G01Y509940D02*
G03I-1500J0D01*
G01Y611540D02*
G03I-1500J0D01*
G01Y713140D02*
G03I-1500J0D01*
G01Y814740D02*
G03I-1500J0D01*
G01Y916340D02*
G03X138350Y917840I-1500J0D01*
G01D02*
G03X136850Y916340I0J-1500D01*
G01D02*
G03X138350Y914840I1500J0D01*
G01D02*
G03X139850Y916340I0J1500D01*
G01Y1278290D02*
G03I-1500J0D01*
G01Y1379890D02*
G03I-1500J0D01*
G01Y1481490D02*
G03I-1500J0D01*
G01Y1583090D02*
G03I-1500J0D01*
G01Y1684690D02*
G03I-1500J0D01*
G01Y1786290D02*
G03I-1500J0D01*
G01Y1887890D02*
G03I-1500J0D01*
G01Y1989490D02*
G03I-1500J0D01*
G54D12*
G01X3170Y-24910D02*
X-4700Y-22480D01*
X3170Y-20050D01*
G01X420Y-20920D02*
Y-24040D01*
G01X3170Y-14610D02*
X-4700D01*
X-3130Y-15780D01*
G01X3170D02*
Y-13440D01*
G01X-2940Y1008590D02*
X-3900Y1009230D01*
X-5030Y1009650D01*
X-6310D01*
X-7760Y1009010D01*
X-8890Y1007960D01*
X-9690Y1006690D01*
X-10340Y1004570D01*
X-10500Y1002660D01*
X-10170Y1000760D01*
X-9690Y999490D01*
X-8730Y998220D01*
X-7600Y997370D01*
X-6480Y996950D01*
X-5350D01*
X-4220Y997370D01*
X-3260Y998010D01*
X-2450Y998850D01*
G01X2940Y999490D02*
X3900Y998010D01*
X5190Y997160D01*
X6640Y996950D01*
X7920Y997160D01*
X9210Y998220D01*
X10010Y999490D01*
X10170Y1000760D01*
X9850Y1002240D01*
X8730Y1003300D01*
X7600Y1003720D01*
X6150D01*
G01X7600D02*
X8570Y1004360D01*
X9370Y1005420D01*
X9690Y1006690D01*
X9370Y1007960D01*
X8570Y1009010D01*
X7120Y1009650D01*
X5670Y1009440D01*
X4220Y1008590D01*
G01X-35040Y1051980D02*
X-31180D01*
G01X-33280Y1054740D02*
Y1049230D01*
G01X-23380Y1058330D02*
X-22420Y1059600D01*
X-21290Y1060240D01*
X-20000Y1060450D01*
X-18390Y1060030D01*
X-17270Y1058970D01*
X-16950Y1057700D01*
X-17110Y1056430D01*
X-17750Y1055370D01*
X-20970Y1053250D01*
X-22420Y1051770D01*
X-23380Y1049650D01*
X-23700Y1047750D01*
X-16950D01*
G01X-5440D02*
Y1060450D01*
X-11400Y1051350D01*
X-3350D01*
G01X6860Y1054520D02*
X7510Y1055160D01*
X7990Y1056220D01*
X8310Y1057700D01*
X7990Y1058970D01*
X7340Y1059810D01*
X6220Y1060450D01*
X1880D01*
Y1047750D01*
X7180D01*
X8310Y1048600D01*
X8950Y1049870D01*
X9270Y1051350D01*
X8950Y1052830D01*
X7990Y1054100D01*
X6860Y1054520D01*
X1880D01*
G01X21740Y1047750D02*
X15310D01*
Y1060450D01*
X21740D01*
G01X19170Y1054310D02*
X15310D01*
G01X46760Y-20340D02*
X46360Y-20920D01*
X46100Y-21600D01*
Y-22380D01*
X46490Y-23260D01*
X47150Y-23940D01*
X47940Y-24430D01*
X49250Y-24820D01*
X50430Y-24910D01*
X51610Y-24720D01*
X52400Y-24430D01*
X53180Y-23840D01*
X53710Y-23160D01*
X53970Y-22480D01*
Y-21800D01*
X53710Y-21120D01*
X53310Y-20530D01*
X52790Y-20050D01*
G01X53970Y-14610D02*
X46100D01*
X47670Y-15780D01*
G01X53970D02*
Y-13440D01*
G01X37780Y819150D02*
X44530Y831850D01*
G01X37780D02*
X44530Y819150D01*
G01X54100D02*
Y831850D01*
X52170Y829310D01*
G01Y819150D02*
X56030D01*
G01X52860Y927100D02*
X56880Y914400D01*
X60910Y927100D01*
G01X66300Y914400D02*
Y927100D01*
X69510D01*
X70800Y926460D01*
X71770Y925620D01*
X72570Y924350D01*
X73210Y922870D01*
X73370Y920750D01*
X73210Y918630D01*
X72570Y917150D01*
X71770Y915880D01*
X70800Y915030D01*
X69510Y914400D01*
X66300D01*
G01X82780D02*
Y927100D01*
X80850Y924560D01*
G01Y914400D02*
X84710D01*
G01X73120Y1167340D02*
X72160Y1167980D01*
X71030Y1168400D01*
X69750D01*
X68300Y1167760D01*
X67170Y1166710D01*
X66370Y1165440D01*
X65720Y1163320D01*
X65560Y1161410D01*
X65890Y1159510D01*
X66370Y1158240D01*
X67330Y1156970D01*
X68460Y1156120D01*
X69580Y1155700D01*
X70710D01*
X71840Y1156120D01*
X72800Y1156760D01*
X73610Y1157600D01*
G01X82530Y1155700D02*
Y1168400D01*
X80600Y1165860D01*
G01Y1155700D02*
X84460D01*
G01X92430Y1166280D02*
X93390Y1167550D01*
X94520Y1168190D01*
X95810Y1168400D01*
X97420Y1167980D01*
X98540Y1166920D01*
X98860Y1165650D01*
X98700Y1164380D01*
X98060Y1163320D01*
X94840Y1161200D01*
X93390Y1159720D01*
X92430Y1157600D01*
X92110Y1155700D01*
X98860D01*
G01X62940Y1257300D02*
X66160D01*
Y1253490D01*
X65190Y1252220D01*
X64070Y1251370D01*
X62460Y1250950D01*
X60850Y1251370D01*
X59720Y1252220D01*
X58760Y1253490D01*
X58110Y1254970D01*
X57790Y1256660D01*
Y1258150D01*
X58110Y1259420D01*
X58760Y1260900D01*
X59720Y1262170D01*
X60690Y1263010D01*
X61970Y1263650D01*
X63100D01*
X64390Y1263230D01*
X65350Y1262380D01*
G01X71230Y1250950D02*
Y1263650D01*
X78620Y1250950D01*
Y1263650D01*
G01X84340Y1250950D02*
Y1263650D01*
X87550D01*
X88840Y1263010D01*
X89810Y1262170D01*
X90610Y1260900D01*
X91250Y1259420D01*
X91410Y1257300D01*
X91250Y1255180D01*
X90610Y1253700D01*
X89810Y1252430D01*
X88840Y1251580D01*
X87550Y1250950D01*
X84340D01*
G01X104040D02*
X97610D01*
Y1263650D01*
X104040D01*
G01X101470Y1257510D02*
X97610D01*
G01X117710Y87840D02*
X116750Y88480D01*
X115620Y88900D01*
X114340D01*
X112890Y88260D01*
X111760Y87210D01*
X110960Y85940D01*
X110310Y83820D01*
X110150Y81910D01*
X110480Y80010D01*
X110960Y78740D01*
X111920Y77470D01*
X113050Y76620D01*
X114170Y76200D01*
X115300D01*
X116430Y76620D01*
X117390Y77260D01*
X118200Y78100D01*
G01X124070Y81490D02*
X125190Y82970D01*
X126160Y83820D01*
X127450Y84240D01*
X128570Y83820D01*
X129380Y82970D01*
X130020Y81700D01*
X130180Y80220D01*
X130020Y78950D01*
X129380Y77680D01*
X128410Y76620D01*
X127290Y76200D01*
X126000Y76620D01*
X124870Y77890D01*
X124230Y79800D01*
X124070Y81910D01*
X124390Y84670D01*
X124870Y86150D01*
X125680Y87630D01*
X126800Y88690D01*
X127930Y88900D01*
X129060Y88480D01*
X129860Y87420D01*
G01X123660Y12700D02*
Y25400D01*
X127680D01*
X128970Y24760D01*
X129770Y23920D01*
X130090Y22220D01*
X129770Y20530D01*
X128810Y19470D01*
X127680Y18840D01*
X123660D01*
G01X127680D02*
X130090Y12700D01*
G01X136290Y15240D02*
X137250Y13760D01*
X138540Y12910D01*
X139990Y12700D01*
X141270Y12910D01*
X142560Y13970D01*
X143360Y15240D01*
X143520Y16510D01*
X143200Y17990D01*
X142080Y19050D01*
X140950Y19470D01*
X139500D01*
G01X140950D02*
X141920Y20110D01*
X142720Y21170D01*
X143040Y22440D01*
X142720Y23710D01*
X141920Y24760D01*
X140470Y25400D01*
X139020Y25190D01*
X137570Y24340D01*
G01X117710Y106890D02*
X116750Y107530D01*
X115620Y107950D01*
X114340D01*
X112890Y107310D01*
X111760Y106260D01*
X110960Y104990D01*
X110310Y102870D01*
X110150Y100960D01*
X110480Y99060D01*
X110960Y97790D01*
X111920Y96520D01*
X113050Y95670D01*
X114170Y95250D01*
X115300D01*
X116430Y95670D01*
X117390Y96310D01*
X118200Y97150D01*
G01X124390Y96730D02*
X125520Y95670D01*
X126800Y95250D01*
X128090Y95670D01*
X129220Y96940D01*
X130020Y98850D01*
X130340Y100750D01*
Y103080D01*
X130020Y104990D01*
X129220Y106680D01*
X128250Y107530D01*
X127120Y107950D01*
X125840Y107530D01*
X124870Y106680D01*
X124230Y105410D01*
X123910Y103720D01*
X124230Y102240D01*
X125030Y100750D01*
X126000Y99910D01*
X127120Y99690D01*
X128410Y100120D01*
X129380Y101180D01*
X130340Y103080D01*
G01X110960Y1003300D02*
Y1016000D01*
X114980D01*
X116270Y1015360D01*
X117070Y1014520D01*
X117390Y1012820D01*
X117070Y1011130D01*
X116110Y1010070D01*
X114980Y1009440D01*
X110960D01*
G01X114980D02*
X117390Y1003300D01*
G01X124070Y1013880D02*
X125030Y1015150D01*
X126160Y1015790D01*
X127450Y1016000D01*
X129060Y1015580D01*
X130180Y1014520D01*
X130500Y1013250D01*
X130340Y1011980D01*
X129700Y1010920D01*
X126480Y1008800D01*
X125030Y1007320D01*
X124070Y1005200D01*
X123750Y1003300D01*
X130500D01*
G01X129550Y1079500D02*
Y1092200D01*
X132760D01*
X134050Y1091560D01*
X135020Y1090720D01*
X135820Y1089450D01*
X136460Y1087970D01*
X136620Y1085850D01*
X136460Y1083730D01*
X135820Y1082250D01*
X135020Y1080980D01*
X134050Y1080130D01*
X132760Y1079500D01*
X129550D01*
G01X142010D02*
X146030Y1092200D01*
X150060Y1079500D01*
G01X148610Y1083940D02*
X143460D01*
G01X158980Y1079500D02*
Y1092200D01*
X157050Y1089660D01*
G01Y1079500D02*
X160910D01*
G01X117310Y1155700D02*
Y1168400D01*
X121330D01*
X122620Y1167760D01*
X123420Y1166920D01*
X123740Y1165220D01*
X123420Y1163530D01*
X122460Y1162470D01*
X121330Y1161840D01*
X117310D01*
G01X121330D02*
X123740Y1155700D01*
G01X133470D02*
Y1168400D01*
X131540Y1165860D01*
G01Y1155700D02*
X135400D01*
G01X92310Y1999190D02*
X91350Y1999830D01*
X90220Y2000250D01*
X88940D01*
X87490Y1999610D01*
X86360Y1998560D01*
X85560Y1997290D01*
X84910Y1995170D01*
X84750Y1993260D01*
X85080Y1991360D01*
X85560Y1990090D01*
X86520Y1988820D01*
X87650Y1987970D01*
X88770Y1987550D01*
X89900D01*
X91030Y1987970D01*
X91990Y1988610D01*
X92800Y1989450D01*
G01X98670Y1998130D02*
X99630Y1999400D01*
X100760Y2000040D01*
X102050Y2000250D01*
X103660Y1999830D01*
X104780Y1998770D01*
X105100Y1997500D01*
X104940Y1996230D01*
X104300Y1995170D01*
X101080Y1993050D01*
X99630Y1991570D01*
X98670Y1989450D01*
X98350Y1987550D01*
X105100D01*
G01X95250Y1978850D02*
Y1970850D01*
G01X92310Y1942040D02*
X91350Y1942680D01*
X90220Y1943100D01*
X88940D01*
X87490Y1942460D01*
X86360Y1941410D01*
X85560Y1940140D01*
X84910Y1938020D01*
X84750Y1936110D01*
X85080Y1934210D01*
X85560Y1932940D01*
X86520Y1931670D01*
X87650Y1930820D01*
X88770Y1930400D01*
X89900D01*
X91030Y1930820D01*
X91990Y1931460D01*
X92800Y1932300D01*
G01X101720Y1930400D02*
Y1943100D01*
X99790Y1940560D01*
G01Y1930400D02*
X103650D01*
G01X95250Y1959800D02*
Y1951800D01*
G01X152400Y78550D02*
Y86550D01*
G01Y97600D02*
Y105600D01*
G01X261800Y129850D02*
X265820Y117150D01*
X269850Y129850D01*
G01X275240Y117150D02*
Y129850D01*
X278450D01*
X279740Y129210D01*
X280710Y128370D01*
X281510Y127100D01*
X282150Y125620D01*
X282310Y123500D01*
X282150Y121380D01*
X281510Y119900D01*
X280710Y118630D01*
X279740Y117780D01*
X278450Y117150D01*
X275240D01*
G01X291720D02*
X292850Y117360D01*
X294140Y118000D01*
X294940Y119050D01*
X295260Y120540D01*
X294940Y122020D01*
X293980Y123290D01*
X292530Y123920D01*
X290920D01*
X289960Y124350D01*
X289150Y125400D01*
X288830Y126890D01*
X289310Y128370D01*
X290440Y129430D01*
X291720Y129850D01*
X293010Y129430D01*
X294140Y128370D01*
X294620Y126890D01*
X294300Y125400D01*
X293490Y124350D01*
X292530Y123920D01*
X290920D01*
X289470Y123290D01*
X288510Y122020D01*
X288190Y120540D01*
X288510Y119050D01*
X289310Y118000D01*
X290600Y117360D01*
X291720Y117150D01*
G01X306610D02*
Y129850D01*
X300650Y120750D01*
X308700D01*
G01X249820Y215850D02*
Y203150D01*
G01X246130Y215850D02*
X253520D01*
G01X258750D02*
X262770Y203150D01*
X266800Y215850D01*
G01X275720Y203150D02*
Y215850D01*
X273790Y213310D01*
G01Y203150D02*
X277650D01*
G01X285620Y208440D02*
X286740Y209920D01*
X287710Y210770D01*
X289000Y211190D01*
X290120Y210770D01*
X290930Y209920D01*
X291570Y208650D01*
X291730Y207170D01*
X291570Y205900D01*
X290930Y204630D01*
X289960Y203570D01*
X288840Y203150D01*
X287550Y203570D01*
X286420Y204840D01*
X285780Y206750D01*
X285620Y208860D01*
X285940Y211620D01*
X286420Y213100D01*
X287230Y214580D01*
X288350Y215640D01*
X289480Y215850D01*
X290610Y215430D01*
X291410Y214370D01*
G01X263800Y231850D02*
X267820Y219150D01*
X271850Y231850D01*
G01X277240Y219150D02*
Y231850D01*
X280450D01*
X281740Y231210D01*
X282710Y230370D01*
X283510Y229100D01*
X284150Y227620D01*
X284310Y225500D01*
X284150Y223380D01*
X283510Y221900D01*
X282710Y220630D01*
X281740Y219780D01*
X280450Y219150D01*
X277240D01*
G01X293400D02*
X293720Y221900D01*
X294210Y224230D01*
X294850Y226350D01*
X295660Y228670D01*
X296940Y231850D01*
X290510D01*
G01X303940Y220630D02*
X305070Y219570D01*
X306350Y219150D01*
X307640Y219570D01*
X308770Y220840D01*
X309570Y222750D01*
X309890Y224650D01*
Y226980D01*
X309570Y228890D01*
X308770Y230580D01*
X307800Y231430D01*
X306670Y231850D01*
X305390Y231430D01*
X304420Y230580D01*
X303780Y229310D01*
X303460Y227620D01*
X303780Y226140D01*
X304580Y224650D01*
X305550Y223810D01*
X306670Y223590D01*
X307960Y224020D01*
X308930Y225080D01*
X309890Y226980D01*
G01X249820Y317850D02*
Y305150D01*
G01X246130Y317850D02*
X253520D01*
G01X258750D02*
X262770Y305150D01*
X266800Y317850D01*
G01X275720Y305150D02*
Y317850D01*
X273790Y315310D01*
G01Y305150D02*
X277650D01*
G01X285140Y307050D02*
X286100Y306000D01*
X287230Y305360D01*
X288670Y305150D01*
X290120Y305570D01*
X291250Y306420D01*
X292050Y307900D01*
X292210Y309590D01*
X291890Y311290D01*
X291090Y312350D01*
X289960Y313190D01*
X288840Y313400D01*
X287710Y313190D01*
X286260Y312350D01*
X286740Y317850D01*
X291090D01*
G01X261800Y333850D02*
X265820Y321150D01*
X269850Y333850D01*
G01X275240Y321150D02*
Y333850D01*
X278450D01*
X279740Y333210D01*
X280710Y332370D01*
X281510Y331100D01*
X282150Y329620D01*
X282310Y327500D01*
X282150Y325380D01*
X281510Y323900D01*
X280710Y322630D01*
X279740Y321780D01*
X278450Y321150D01*
X275240D01*
G01X291400D02*
X291720Y323900D01*
X292210Y326230D01*
X292850Y328350D01*
X293660Y330670D01*
X294940Y333850D01*
X288510D01*
G01X306610Y321150D02*
Y333850D01*
X300650Y324750D01*
X308700D01*
G01X249820Y419850D02*
Y407150D01*
G01X246130Y419850D02*
X253520D01*
G01X258750D02*
X262770Y407150D01*
X266800Y419850D01*
G01X275720Y407150D02*
Y419850D01*
X273790Y417310D01*
G01Y407150D02*
X277650D01*
G01X290610D02*
Y419850D01*
X284650Y410750D01*
X292700D01*
G01X261800Y435850D02*
X265820Y423150D01*
X269850Y435850D01*
G01X275240Y423150D02*
Y435850D01*
X278450D01*
X279740Y435210D01*
X280710Y434370D01*
X281510Y433100D01*
X282150Y431620D01*
X282310Y429500D01*
X282150Y427380D01*
X281510Y425900D01*
X280710Y424630D01*
X279740Y423780D01*
X278450Y423150D01*
X275240D01*
G01X288670Y428440D02*
X289790Y429920D01*
X290760Y430770D01*
X292050Y431190D01*
X293170Y430770D01*
X293980Y429920D01*
X294620Y428650D01*
X294780Y427170D01*
X294620Y425900D01*
X293980Y424630D01*
X293010Y423570D01*
X291890Y423150D01*
X290600Y423570D01*
X289470Y424840D01*
X288830Y426750D01*
X288670Y428860D01*
X288990Y431620D01*
X289470Y433100D01*
X290280Y434580D01*
X291400Y435640D01*
X292530Y435850D01*
X293660Y435430D01*
X294460Y434370D01*
G01X301940Y424630D02*
X303070Y423570D01*
X304350Y423150D01*
X305640Y423570D01*
X306770Y424840D01*
X307570Y426750D01*
X307890Y428650D01*
Y430980D01*
X307570Y432890D01*
X306770Y434580D01*
X305800Y435430D01*
X304670Y435850D01*
X303390Y435430D01*
X302420Y434580D01*
X301780Y433310D01*
X301460Y431620D01*
X301780Y430140D01*
X302580Y428650D01*
X303550Y427810D01*
X304670Y427590D01*
X305960Y428020D01*
X306930Y429080D01*
X307890Y430980D01*
G01X249820Y521850D02*
Y509150D01*
G01X246130Y521850D02*
X253520D01*
G01X258750D02*
X262770Y509150D01*
X266800Y521850D01*
G01X275720Y509150D02*
Y521850D01*
X273790Y519310D01*
G01Y509150D02*
X277650D01*
G01X285140Y511690D02*
X286100Y510210D01*
X287390Y509360D01*
X288840Y509150D01*
X290120Y509360D01*
X291410Y510420D01*
X292210Y511690D01*
X292370Y512960D01*
X292050Y514440D01*
X290930Y515500D01*
X289800Y515920D01*
X288350D01*
G01X289800D02*
X290770Y516560D01*
X291570Y517620D01*
X291890Y518890D01*
X291570Y520160D01*
X290770Y521210D01*
X289320Y521850D01*
X287870Y521640D01*
X286420Y520790D01*
G01X261800Y537850D02*
X265820Y525150D01*
X269850Y537850D01*
G01X275240Y525150D02*
Y537850D01*
X278450D01*
X279740Y537210D01*
X280710Y536370D01*
X281510Y535100D01*
X282150Y533620D01*
X282310Y531500D01*
X282150Y529380D01*
X281510Y527900D01*
X280710Y526630D01*
X279740Y525780D01*
X278450Y525150D01*
X275240D01*
G01X288670Y530440D02*
X289790Y531920D01*
X290760Y532770D01*
X292050Y533190D01*
X293170Y532770D01*
X293980Y531920D01*
X294620Y530650D01*
X294780Y529170D01*
X294620Y527900D01*
X293980Y526630D01*
X293010Y525570D01*
X291890Y525150D01*
X290600Y525570D01*
X289470Y526840D01*
X288830Y528750D01*
X288670Y530860D01*
X288990Y533620D01*
X289470Y535100D01*
X290280Y536580D01*
X291400Y537640D01*
X292530Y537850D01*
X293660Y537430D01*
X294460Y536370D01*
G01X306610Y525150D02*
Y537850D01*
X300650Y528750D01*
X308700D01*
G01X249820Y621850D02*
Y609150D01*
G01X246130Y621850D02*
X253520D01*
G01X258750D02*
X262770Y609150D01*
X266800Y621850D01*
G01X275720Y609150D02*
Y621850D01*
X273790Y619310D01*
G01Y609150D02*
X277650D01*
G01X285620Y619730D02*
X286580Y621000D01*
X287710Y621640D01*
X289000Y621850D01*
X290610Y621430D01*
X291730Y620370D01*
X292050Y619100D01*
X291890Y617830D01*
X291250Y616770D01*
X288030Y614650D01*
X286580Y613170D01*
X285620Y611050D01*
X285300Y609150D01*
X292050D01*
G01X261800Y637850D02*
X265820Y625150D01*
X269850Y637850D01*
G01X275240Y625150D02*
Y637850D01*
X278450D01*
X279740Y637210D01*
X280710Y636370D01*
X281510Y635100D01*
X282150Y633620D01*
X282310Y631500D01*
X282150Y629380D01*
X281510Y627900D01*
X280710Y626630D01*
X279740Y625780D01*
X278450Y625150D01*
X275240D01*
G01X288190Y627050D02*
X289150Y626000D01*
X290280Y625360D01*
X291720Y625150D01*
X293170Y625570D01*
X294300Y626420D01*
X295100Y627900D01*
X295260Y629590D01*
X294940Y631290D01*
X294140Y632350D01*
X293010Y633190D01*
X291890Y633400D01*
X290760Y633190D01*
X289310Y632350D01*
X289790Y637850D01*
X294140D01*
G01X301940Y626630D02*
X303070Y625570D01*
X304350Y625150D01*
X305640Y625570D01*
X306770Y626840D01*
X307570Y628750D01*
X307890Y630650D01*
Y632980D01*
X307570Y634890D01*
X306770Y636580D01*
X305800Y637430D01*
X304670Y637850D01*
X303390Y637430D01*
X302420Y636580D01*
X301780Y635310D01*
X301460Y633620D01*
X301780Y632140D01*
X302580Y630650D01*
X303550Y629810D01*
X304670Y629590D01*
X305960Y630020D01*
X306930Y631080D01*
X307890Y632980D01*
G01X249820Y723850D02*
Y711150D01*
G01X246130Y723850D02*
X253520D01*
G01X258750D02*
X262770Y711150D01*
X266800Y723850D01*
G01X275720Y711150D02*
Y723850D01*
X273790Y721310D01*
G01Y711150D02*
X277650D01*
G01X288670D02*
Y723850D01*
X286740Y721310D01*
G01Y711150D02*
X290600D01*
G01X261800Y739850D02*
X265820Y727150D01*
X269850Y739850D01*
G01X275240Y727150D02*
Y739850D01*
X278450D01*
X279740Y739210D01*
X280710Y738370D01*
X281510Y737100D01*
X282150Y735620D01*
X282310Y733500D01*
X282150Y731380D01*
X281510Y729900D01*
X280710Y728630D01*
X279740Y727780D01*
X278450Y727150D01*
X275240D01*
G01X288190Y729050D02*
X289150Y728000D01*
X290280Y727360D01*
X291720Y727150D01*
X293170Y727570D01*
X294300Y728420D01*
X295100Y729900D01*
X295260Y731590D01*
X294940Y733290D01*
X294140Y734350D01*
X293010Y735190D01*
X291890Y735400D01*
X290760Y735190D01*
X289310Y734350D01*
X289790Y739850D01*
X294140D01*
G01X306610Y727150D02*
Y739850D01*
X300650Y730750D01*
X308700D01*
G01X249820Y825850D02*
Y813150D01*
G01X246130Y825850D02*
X253520D01*
G01X258750D02*
X262770Y813150D01*
X266800Y825850D01*
G01X275720Y813150D02*
Y825850D01*
X273790Y823310D01*
G01Y813150D02*
X277650D01*
G01X288670Y825850D02*
X287390Y825430D01*
X286420Y824370D01*
X285780Y823100D01*
X285300Y821400D01*
X285140Y819500D01*
X285300Y817590D01*
X285780Y815900D01*
X286420Y814630D01*
X287390Y813570D01*
X288670Y813150D01*
X289960Y813570D01*
X290930Y814630D01*
X291570Y815900D01*
X292050Y817590D01*
X292210Y819500D01*
X292050Y821400D01*
X291570Y823100D01*
X290930Y824370D01*
X289960Y825430D01*
X288670Y825850D01*
G01X261800Y841850D02*
X265820Y829150D01*
X269850Y841850D01*
G01X275240Y829150D02*
Y841850D01*
X278450D01*
X279740Y841210D01*
X280710Y840370D01*
X281510Y839100D01*
X282150Y837620D01*
X282310Y835500D01*
X282150Y833380D01*
X281510Y831900D01*
X280710Y830630D01*
X279740Y829780D01*
X278450Y829150D01*
X275240D01*
G01X291720D02*
Y841850D01*
X289790Y839310D01*
G01Y829150D02*
X293650D01*
G01X306610D02*
Y841850D01*
X300650Y832750D01*
X308700D01*
G01X250280Y927850D02*
Y915150D01*
G01X246590Y927850D02*
X253980D01*
G01X259210D02*
X263230Y915150D01*
X267260Y927850D01*
G01X273130Y925730D02*
X274090Y927000D01*
X275220Y927640D01*
X276510Y927850D01*
X278120Y927430D01*
X279240Y926370D01*
X279560Y925100D01*
X279400Y923830D01*
X278760Y922770D01*
X275540Y920650D01*
X274090Y919170D01*
X273130Y917050D01*
X272810Y915150D01*
X279560D01*
G01X261800Y1203860D02*
X265820Y1191160D01*
X269850Y1203860D01*
G01X275240Y1191160D02*
Y1203860D01*
X278450D01*
X279740Y1203220D01*
X280710Y1202380D01*
X281510Y1201110D01*
X282150Y1199630D01*
X282310Y1197510D01*
X282150Y1195390D01*
X281510Y1193910D01*
X280710Y1192640D01*
X279740Y1191790D01*
X278450Y1191160D01*
X275240D01*
G01X293660D02*
Y1203860D01*
X287700Y1194760D01*
X295750D01*
G01X301940Y1192640D02*
X303070Y1191580D01*
X304350Y1191160D01*
X305640Y1191580D01*
X306770Y1192850D01*
X307570Y1194760D01*
X307890Y1196660D01*
Y1198990D01*
X307570Y1200900D01*
X306770Y1202590D01*
X305800Y1203440D01*
X304670Y1203860D01*
X303390Y1203440D01*
X302420Y1202590D01*
X301780Y1201320D01*
X301460Y1199630D01*
X301780Y1198150D01*
X302580Y1196660D01*
X303550Y1195820D01*
X304670Y1195600D01*
X305960Y1196030D01*
X306930Y1197090D01*
X307890Y1198990D01*
G01X250280Y1289860D02*
Y1277160D01*
G01X246590Y1289860D02*
X253980D01*
G01X259210D02*
X263230Y1277160D01*
X267260Y1289860D01*
G01X273450Y1278640D02*
X274580Y1277580D01*
X275860Y1277160D01*
X277150Y1277580D01*
X278280Y1278850D01*
X279080Y1280760D01*
X279400Y1282660D01*
Y1284990D01*
X279080Y1286900D01*
X278280Y1288590D01*
X277310Y1289440D01*
X276180Y1289860D01*
X274900Y1289440D01*
X273930Y1288590D01*
X273290Y1287320D01*
X272970Y1285630D01*
X273290Y1284150D01*
X274090Y1282660D01*
X275060Y1281820D01*
X276180Y1281600D01*
X277470Y1282030D01*
X278440Y1283090D01*
X279400Y1284990D01*
G01X261800Y1305860D02*
X265820Y1293160D01*
X269850Y1305860D01*
G01X275240Y1293160D02*
Y1305860D01*
X278450D01*
X279740Y1305220D01*
X280710Y1304380D01*
X281510Y1303110D01*
X282150Y1301630D01*
X282310Y1299510D01*
X282150Y1297390D01*
X281510Y1295910D01*
X280710Y1294640D01*
X279740Y1293790D01*
X278450Y1293160D01*
X275240D01*
G01X293660D02*
Y1305860D01*
X287700Y1296760D01*
X295750D01*
G01X306610Y1293160D02*
Y1305860D01*
X300650Y1296760D01*
X308700D01*
G01X250280Y1389860D02*
Y1377160D01*
G01X246590Y1389860D02*
X253980D01*
G01X259210D02*
X263230Y1377160D01*
X267260Y1389860D01*
G01X276180Y1377160D02*
X277310Y1377370D01*
X278600Y1378010D01*
X279400Y1379060D01*
X279720Y1380550D01*
X279400Y1382030D01*
X278440Y1383300D01*
X276990Y1383930D01*
X275380D01*
X274420Y1384360D01*
X273610Y1385410D01*
X273290Y1386900D01*
X273770Y1388380D01*
X274900Y1389440D01*
X276180Y1389860D01*
X277470Y1389440D01*
X278600Y1388380D01*
X279080Y1386900D01*
X278760Y1385410D01*
X277950Y1384360D01*
X276990Y1383930D01*
X275380D01*
X273930Y1383300D01*
X272970Y1382030D01*
X272650Y1380550D01*
X272970Y1379060D01*
X273770Y1378010D01*
X275060Y1377370D01*
X276180Y1377160D01*
G01X259800Y1405860D02*
X263820Y1393160D01*
X267850Y1405860D01*
G01X273240Y1393160D02*
Y1405860D01*
X276450D01*
X277740Y1405220D01*
X278710Y1404380D01*
X279510Y1403110D01*
X280150Y1401630D01*
X280310Y1399510D01*
X280150Y1397390D01*
X279510Y1395910D01*
X278710Y1394640D01*
X277740Y1393790D01*
X276450Y1393160D01*
X273240D01*
G01X286190Y1395700D02*
X287150Y1394220D01*
X288440Y1393370D01*
X289890Y1393160D01*
X291170Y1393370D01*
X292460Y1394430D01*
X293260Y1395700D01*
X293420Y1396970D01*
X293100Y1398450D01*
X291980Y1399510D01*
X290850Y1399930D01*
X289400D01*
G01X290850D02*
X291820Y1400570D01*
X292620Y1401630D01*
X292940Y1402900D01*
X292620Y1404170D01*
X291820Y1405220D01*
X290370Y1405860D01*
X288920Y1405650D01*
X287470Y1404800D01*
G01X299940Y1394640D02*
X301070Y1393580D01*
X302350Y1393160D01*
X303640Y1393580D01*
X304770Y1394850D01*
X305570Y1396760D01*
X305890Y1398660D01*
Y1400990D01*
X305570Y1402900D01*
X304770Y1404590D01*
X303800Y1405440D01*
X302670Y1405860D01*
X301390Y1405440D01*
X300420Y1404590D01*
X299780Y1403320D01*
X299460Y1401630D01*
X299780Y1400150D01*
X300580Y1398660D01*
X301550Y1397820D01*
X302670Y1397600D01*
X303960Y1398030D01*
X304930Y1399090D01*
X305890Y1400990D01*
G01X250280Y1491860D02*
Y1479160D01*
G01X246590Y1491860D02*
X253980D01*
G01X259210D02*
X263230Y1479160D01*
X267260Y1491860D01*
G01X275860Y1479160D02*
X276180Y1481910D01*
X276670Y1484240D01*
X277310Y1486360D01*
X278120Y1488680D01*
X279400Y1491860D01*
X272970D01*
G01X259800Y1507860D02*
X263820Y1495160D01*
X267850Y1507860D01*
G01X273240Y1495160D02*
Y1507860D01*
X276450D01*
X277740Y1507220D01*
X278710Y1506380D01*
X279510Y1505110D01*
X280150Y1503630D01*
X280310Y1501510D01*
X280150Y1499390D01*
X279510Y1497910D01*
X278710Y1496640D01*
X277740Y1495790D01*
X276450Y1495160D01*
X273240D01*
G01X286190Y1497700D02*
X287150Y1496220D01*
X288440Y1495370D01*
X289890Y1495160D01*
X291170Y1495370D01*
X292460Y1496430D01*
X293260Y1497700D01*
X293420Y1498970D01*
X293100Y1500450D01*
X291980Y1501510D01*
X290850Y1501930D01*
X289400D01*
G01X290850D02*
X291820Y1502570D01*
X292620Y1503630D01*
X292940Y1504900D01*
X292620Y1506170D01*
X291820Y1507220D01*
X290370Y1507860D01*
X288920Y1507650D01*
X287470Y1506800D01*
G01X304610Y1495160D02*
Y1507860D01*
X298650Y1498760D01*
X306700D01*
G01X250280Y1593860D02*
Y1581160D01*
G01X246590Y1593860D02*
X253980D01*
G01X259210D02*
X263230Y1581160D01*
X267260Y1593860D01*
G01X273130Y1586450D02*
X274250Y1587930D01*
X275220Y1588780D01*
X276510Y1589200D01*
X277630Y1588780D01*
X278440Y1587930D01*
X279080Y1586660D01*
X279240Y1585180D01*
X279080Y1583910D01*
X278440Y1582640D01*
X277470Y1581580D01*
X276350Y1581160D01*
X275060Y1581580D01*
X273930Y1582850D01*
X273290Y1584760D01*
X273130Y1586870D01*
X273450Y1589630D01*
X273930Y1591110D01*
X274740Y1592590D01*
X275860Y1593650D01*
X276990Y1593860D01*
X278120Y1593440D01*
X278920Y1592380D01*
G01X261800Y1609860D02*
X265820Y1597160D01*
X269850Y1609860D01*
G01X275240Y1597160D02*
Y1609860D01*
X278450D01*
X279740Y1609220D01*
X280710Y1608380D01*
X281510Y1607110D01*
X282150Y1605630D01*
X282310Y1603510D01*
X282150Y1601390D01*
X281510Y1599910D01*
X280710Y1598640D01*
X279740Y1597790D01*
X278450Y1597160D01*
X275240D01*
G01X288670Y1607740D02*
X289630Y1609010D01*
X290760Y1609650D01*
X292050Y1609860D01*
X293660Y1609440D01*
X294780Y1608380D01*
X295100Y1607110D01*
X294940Y1605840D01*
X294300Y1604780D01*
X291080Y1602660D01*
X289630Y1601180D01*
X288670Y1599060D01*
X288350Y1597160D01*
X295100D01*
G01X301940Y1598640D02*
X303070Y1597580D01*
X304350Y1597160D01*
X305640Y1597580D01*
X306770Y1598850D01*
X307570Y1600760D01*
X307890Y1602660D01*
Y1604990D01*
X307570Y1606900D01*
X306770Y1608590D01*
X305800Y1609440D01*
X304670Y1609860D01*
X303390Y1609440D01*
X302420Y1608590D01*
X301780Y1607320D01*
X301460Y1605630D01*
X301780Y1604150D01*
X302580Y1602660D01*
X303550Y1601820D01*
X304670Y1601600D01*
X305960Y1602030D01*
X306930Y1603090D01*
X307890Y1604990D01*
G01X250280Y1695860D02*
Y1683160D01*
G01X246590Y1695860D02*
X253980D01*
G01X259210D02*
X263230Y1683160D01*
X267260Y1695860D01*
G01X272650Y1685060D02*
X273610Y1684010D01*
X274740Y1683370D01*
X276180Y1683160D01*
X277630Y1683580D01*
X278760Y1684430D01*
X279560Y1685910D01*
X279720Y1687600D01*
X279400Y1689300D01*
X278600Y1690360D01*
X277470Y1691200D01*
X276350Y1691410D01*
X275220Y1691200D01*
X273770Y1690360D01*
X274250Y1695860D01*
X278600D01*
G01X261800Y1711860D02*
X265820Y1699160D01*
X269850Y1711860D01*
G01X275240Y1699160D02*
Y1711860D01*
X278450D01*
X279740Y1711220D01*
X280710Y1710380D01*
X281510Y1709110D01*
X282150Y1707630D01*
X282310Y1705510D01*
X282150Y1703390D01*
X281510Y1701910D01*
X280710Y1700640D01*
X279740Y1699790D01*
X278450Y1699160D01*
X275240D01*
G01X288670Y1709740D02*
X289630Y1711010D01*
X290760Y1711650D01*
X292050Y1711860D01*
X293660Y1711440D01*
X294780Y1710380D01*
X295100Y1709110D01*
X294940Y1707840D01*
X294300Y1706780D01*
X291080Y1704660D01*
X289630Y1703180D01*
X288670Y1701060D01*
X288350Y1699160D01*
X295100D01*
G01X306610D02*
Y1711860D01*
X300650Y1702760D01*
X308700D01*
G01X250280Y1797860D02*
Y1785160D01*
G01X246590Y1797860D02*
X253980D01*
G01X259210D02*
X263230Y1785160D01*
X267260Y1797860D01*
G01X278120Y1785160D02*
Y1797860D01*
X272160Y1788760D01*
X280210D01*
G01X263800Y1813860D02*
X267820Y1801160D01*
X271850Y1813860D01*
G01X277240Y1801160D02*
Y1813860D01*
X280450D01*
X281740Y1813220D01*
X282710Y1812380D01*
X283510Y1811110D01*
X284150Y1809630D01*
X284310Y1807510D01*
X284150Y1805390D01*
X283510Y1803910D01*
X282710Y1802640D01*
X281740Y1801790D01*
X280450Y1801160D01*
X277240D01*
G01X293720D02*
Y1813860D01*
X291790Y1811320D01*
G01Y1801160D02*
X295650D01*
G01X303940Y1802640D02*
X305070Y1801580D01*
X306350Y1801160D01*
X307640Y1801580D01*
X308770Y1802850D01*
X309570Y1804760D01*
X309890Y1806660D01*
Y1808990D01*
X309570Y1810900D01*
X308770Y1812590D01*
X307800Y1813440D01*
X306670Y1813860D01*
X305390Y1813440D01*
X304420Y1812590D01*
X303780Y1811320D01*
X303460Y1809630D01*
X303780Y1808150D01*
X304580Y1806660D01*
X305550Y1805820D01*
X306670Y1805600D01*
X307960Y1806030D01*
X308930Y1807090D01*
X309890Y1808990D01*
G01X250280Y1897860D02*
Y1885160D01*
G01X246590Y1897860D02*
X253980D01*
G01X259210D02*
X263230Y1885160D01*
X267260Y1897860D01*
G01X272650Y1887700D02*
X273610Y1886220D01*
X274900Y1885370D01*
X276350Y1885160D01*
X277630Y1885370D01*
X278920Y1886430D01*
X279720Y1887700D01*
X279880Y1888970D01*
X279560Y1890450D01*
X278440Y1891510D01*
X277310Y1891930D01*
X275860D01*
G01X277310D02*
X278280Y1892570D01*
X279080Y1893630D01*
X279400Y1894900D01*
X279080Y1896170D01*
X278280Y1897220D01*
X276830Y1897860D01*
X275380Y1897650D01*
X273930Y1896800D01*
G01X274260Y1913860D02*
X278280Y1901160D01*
X282310Y1913860D01*
G01X287700Y1901160D02*
Y1913860D01*
X290910D01*
X292200Y1913220D01*
X293170Y1912380D01*
X293970Y1911110D01*
X294610Y1909630D01*
X294770Y1907510D01*
X294610Y1905390D01*
X293970Y1903910D01*
X293170Y1902640D01*
X292200Y1901790D01*
X290910Y1901160D01*
X287700D01*
G01X301450Y1902640D02*
X302580Y1901580D01*
X303860Y1901160D01*
X305150Y1901580D01*
X306280Y1902850D01*
X307080Y1904760D01*
X307400Y1906660D01*
Y1908990D01*
X307080Y1910900D01*
X306280Y1912590D01*
X305310Y1913440D01*
X304180Y1913860D01*
X302900Y1913440D01*
X301930Y1912590D01*
X301290Y1911320D01*
X300970Y1909630D01*
X301290Y1908150D01*
X302090Y1906660D01*
X303060Y1905820D01*
X304180Y1905600D01*
X305470Y1906030D01*
X306440Y1907090D01*
X307400Y1908990D01*
G01X250280Y2001860D02*
Y1989160D01*
G01X246590Y2001860D02*
X253980D01*
G01X259210D02*
X263230Y1989160D01*
X267260Y2001860D01*
G01X276180Y1989160D02*
Y2001860D01*
X274250Y1999320D01*
G01Y1989160D02*
X278110D01*
G01X342610Y243160D02*
Y255860D01*
X346630D01*
X347920Y255220D01*
X348720Y254380D01*
X349040Y252680D01*
X348720Y250990D01*
X347760Y249930D01*
X346630Y249300D01*
X342610D01*
G01X346630D02*
X349040Y243160D01*
G01X358770D02*
Y255860D01*
X356840Y253320D01*
G01Y243160D02*
X360700D01*
G01X371720Y255860D02*
X370440Y255440D01*
X369470Y254380D01*
X368830Y253110D01*
X368350Y251410D01*
X368190Y249510D01*
X368350Y247600D01*
X368830Y245910D01*
X369470Y244640D01*
X370440Y243580D01*
X371720Y243160D01*
X373010Y243580D01*
X373980Y244640D01*
X374620Y245910D01*
X375100Y247600D01*
X375260Y249510D01*
X375100Y251410D01*
X374620Y253110D01*
X373980Y254380D01*
X373010Y255440D01*
X371720Y255860D01*
G01X384670D02*
X383390Y255440D01*
X382420Y254380D01*
X381780Y253110D01*
X381300Y251410D01*
X381140Y249510D01*
X381300Y247600D01*
X381780Y245910D01*
X382420Y244640D01*
X383390Y243580D01*
X384670Y243160D01*
X385960Y243580D01*
X386930Y244640D01*
X387570Y245910D01*
X388050Y247600D01*
X388210Y249510D01*
X388050Y251410D01*
X387570Y253110D01*
X386930Y254380D01*
X385960Y255440D01*
X384670Y255860D01*
G01X347080Y445160D02*
Y457860D01*
X351100D01*
X352390Y457220D01*
X353190Y456380D01*
X353510Y454680D01*
X353190Y452990D01*
X352230Y451930D01*
X351100Y451300D01*
X347080D01*
G01X351100D02*
X353510Y445160D01*
G01X363240D02*
X364370Y445370D01*
X365660Y446010D01*
X366460Y447060D01*
X366780Y448550D01*
X366460Y450030D01*
X365500Y451300D01*
X364050Y451930D01*
X362440D01*
X361480Y452360D01*
X360670Y453410D01*
X360350Y454900D01*
X360830Y456380D01*
X361960Y457440D01*
X363240Y457860D01*
X364530Y457440D01*
X365660Y456380D01*
X366140Y454900D01*
X365820Y453410D01*
X365010Y452360D01*
X364050Y451930D01*
X362440D01*
X360990Y451300D01*
X360030Y450030D01*
X359710Y448550D01*
X360030Y447060D01*
X360830Y446010D01*
X362120Y445370D01*
X363240Y445160D01*
G01X376190D02*
X377320Y445370D01*
X378610Y446010D01*
X379410Y447060D01*
X379730Y448550D01*
X379410Y450030D01*
X378450Y451300D01*
X377000Y451930D01*
X375390D01*
X374430Y452360D01*
X373620Y453410D01*
X373300Y454900D01*
X373780Y456380D01*
X374910Y457440D01*
X376190Y457860D01*
X377480Y457440D01*
X378610Y456380D01*
X379090Y454900D01*
X378770Y453410D01*
X377960Y452360D01*
X377000Y451930D01*
X375390D01*
X373940Y451300D01*
X372980Y450030D01*
X372660Y448550D01*
X372980Y447060D01*
X373780Y446010D01*
X375070Y445370D01*
X376190Y445160D01*
G01X355080Y649160D02*
Y661860D01*
X359100D01*
X360390Y661220D01*
X361190Y660380D01*
X361510Y658680D01*
X361190Y656990D01*
X360230Y655930D01*
X359100Y655300D01*
X355080D01*
G01X359100D02*
X361510Y649160D01*
G01X370920D02*
X371240Y651910D01*
X371730Y654240D01*
X372370Y656360D01*
X373180Y658680D01*
X374460Y661860D01*
X368030D01*
G01X381140Y654450D02*
X382260Y655930D01*
X383230Y656780D01*
X384520Y657200D01*
X385640Y656780D01*
X386450Y655930D01*
X387090Y654660D01*
X387250Y653180D01*
X387090Y651910D01*
X386450Y650640D01*
X385480Y649580D01*
X384360Y649160D01*
X383070Y649580D01*
X381940Y650850D01*
X381300Y652760D01*
X381140Y654870D01*
X381460Y657630D01*
X381940Y659110D01*
X382750Y660590D01*
X383870Y661650D01*
X385000Y661860D01*
X386130Y661440D01*
X386930Y660380D01*
G01X349080Y851160D02*
Y863860D01*
X353100D01*
X354390Y863220D01*
X355190Y862380D01*
X355510Y860680D01*
X355190Y858990D01*
X354230Y857930D01*
X353100Y857300D01*
X349080D01*
G01X353100D02*
X355510Y851160D01*
G01X362190Y856450D02*
X363310Y857930D01*
X364280Y858780D01*
X365570Y859200D01*
X366690Y858780D01*
X367500Y857930D01*
X368140Y856660D01*
X368300Y855180D01*
X368140Y853910D01*
X367500Y852640D01*
X366530Y851580D01*
X365410Y851160D01*
X364120Y851580D01*
X362990Y852850D01*
X362350Y854760D01*
X362190Y856870D01*
X362510Y859630D01*
X362990Y861110D01*
X363800Y862590D01*
X364920Y863650D01*
X366050Y863860D01*
X367180Y863440D01*
X367980Y862380D01*
G01X380130Y851160D02*
Y863860D01*
X374170Y854760D01*
X382220D01*
G01X347090Y1315160D02*
Y1327860D01*
X351110D01*
X352400Y1327220D01*
X353200Y1326380D01*
X353520Y1324680D01*
X353200Y1322990D01*
X352240Y1321930D01*
X351110Y1321300D01*
X347090D01*
G01X351110D02*
X353520Y1315160D01*
G01X359720Y1317060D02*
X360680Y1316010D01*
X361810Y1315370D01*
X363250Y1315160D01*
X364700Y1315580D01*
X365830Y1316430D01*
X366630Y1317910D01*
X366790Y1319600D01*
X366470Y1321300D01*
X365670Y1322360D01*
X364540Y1323200D01*
X363420Y1323410D01*
X362290Y1323200D01*
X360840Y1322360D01*
X361320Y1327860D01*
X365670D01*
G01X376200Y1315160D02*
X377330Y1315370D01*
X378620Y1316010D01*
X379420Y1317060D01*
X379740Y1318550D01*
X379420Y1320030D01*
X378460Y1321300D01*
X377010Y1321930D01*
X375400D01*
X374440Y1322360D01*
X373630Y1323410D01*
X373310Y1324900D01*
X373790Y1326380D01*
X374920Y1327440D01*
X376200Y1327860D01*
X377490Y1327440D01*
X378620Y1326380D01*
X379100Y1324900D01*
X378780Y1323410D01*
X377970Y1322360D01*
X377010Y1321930D01*
X375400D01*
X373950Y1321300D01*
X372990Y1320030D01*
X372670Y1318550D01*
X372990Y1317060D01*
X373790Y1316010D01*
X375080Y1315370D01*
X376200Y1315160D01*
G01X345090Y1517160D02*
Y1529860D01*
X349110D01*
X350400Y1529220D01*
X351200Y1528380D01*
X351520Y1526680D01*
X351200Y1524990D01*
X350240Y1523930D01*
X349110Y1523300D01*
X345090D01*
G01X349110D02*
X351520Y1517160D01*
G01X363190D02*
Y1529860D01*
X357230Y1520760D01*
X365280D01*
G01X371150Y1522450D02*
X372270Y1523930D01*
X373240Y1524780D01*
X374530Y1525200D01*
X375650Y1524780D01*
X376460Y1523930D01*
X377100Y1522660D01*
X377260Y1521180D01*
X377100Y1519910D01*
X376460Y1518640D01*
X375490Y1517580D01*
X374370Y1517160D01*
X373080Y1517580D01*
X371950Y1518850D01*
X371310Y1520760D01*
X371150Y1522870D01*
X371470Y1525630D01*
X371950Y1527110D01*
X372760Y1528590D01*
X373880Y1529650D01*
X375010Y1529860D01*
X376140Y1529440D01*
X376940Y1528380D01*
G01X345090Y1721160D02*
Y1733860D01*
X349110D01*
X350400Y1733220D01*
X351200Y1732380D01*
X351520Y1730680D01*
X351200Y1728990D01*
X350240Y1727930D01*
X349110Y1727300D01*
X345090D01*
G01X349110D02*
X351520Y1721160D01*
G01X357720Y1723700D02*
X358680Y1722220D01*
X359970Y1721370D01*
X361420Y1721160D01*
X362700Y1721370D01*
X363990Y1722430D01*
X364790Y1723700D01*
X364950Y1724970D01*
X364630Y1726450D01*
X363510Y1727510D01*
X362380Y1727930D01*
X360930D01*
G01X362380D02*
X363350Y1728570D01*
X364150Y1729630D01*
X364470Y1730900D01*
X364150Y1732170D01*
X363350Y1733220D01*
X361900Y1733860D01*
X360450Y1733650D01*
X359000Y1732800D01*
G01X376140Y1721160D02*
Y1733860D01*
X370180Y1724760D01*
X378230D01*
G01X346090Y1926160D02*
Y1938860D01*
X350110D01*
X351400Y1938220D01*
X352200Y1937380D01*
X352520Y1935680D01*
X352200Y1933990D01*
X351240Y1932930D01*
X350110Y1932300D01*
X346090D01*
G01X350110D02*
X352520Y1926160D01*
G01X359200Y1936740D02*
X360160Y1938010D01*
X361290Y1938650D01*
X362580Y1938860D01*
X364190Y1938440D01*
X365310Y1937380D01*
X365630Y1936110D01*
X365470Y1934840D01*
X364830Y1933780D01*
X361610Y1931660D01*
X360160Y1930180D01*
X359200Y1928060D01*
X358880Y1926160D01*
X365630D01*
G01X372150Y1936740D02*
X373110Y1938010D01*
X374240Y1938650D01*
X375530Y1938860D01*
X377140Y1938440D01*
X378260Y1937380D01*
X378580Y1936110D01*
X378420Y1934840D01*
X377780Y1933780D01*
X374560Y1931660D01*
X373110Y1930180D01*
X372150Y1928060D01*
X371830Y1926160D01*
X378580D01*
G01X321150Y2127770D02*
Y2140470D01*
X327260D01*
G01X325010Y2134330D02*
X321150D01*
G01X334740Y2133480D02*
X339890D01*
X339410Y2134970D01*
X338600Y2135810D01*
X337480Y2136240D01*
X336350Y2136020D01*
X335390Y2135390D01*
X334740Y2133910D01*
X334420Y2132640D01*
Y2131370D01*
X334740Y2130100D01*
X335550Y2128830D01*
X336510Y2127980D01*
X337640Y2127770D01*
X338760Y2128190D01*
X339890Y2129460D01*
G01X347210Y2127770D02*
Y2140470D01*
G01Y2134120D02*
X348010Y2135390D01*
X348980Y2136020D01*
X349940Y2136240D01*
X351390Y2135810D01*
X352360Y2134970D01*
X353000Y2133480D01*
Y2131790D01*
X352680Y2130100D01*
X352040Y2128830D01*
X350910Y2127980D01*
X349940Y2127770D01*
X348980Y2127980D01*
X348010Y2128620D01*
X347210Y2129670D01*
G01X360800Y2127770D02*
Y2136240D01*
G01Y2134540D02*
X361610Y2135390D01*
X362410Y2136020D01*
X363540Y2136240D01*
X364340Y2136020D01*
X365310Y2135390D01*
G01X373270Y2136240D02*
Y2130310D01*
X373910Y2128830D01*
X374880Y2127980D01*
X376000Y2127770D01*
X377130Y2127980D01*
X378100Y2128830D01*
X378740Y2130310D01*
G01Y2127770D02*
Y2136240D01*
G01X391850Y2127770D02*
Y2136240D01*
G01Y2134760D02*
X391210Y2135600D01*
X390240Y2136020D01*
X389120Y2136240D01*
X387990Y2135810D01*
X387020Y2134970D01*
X386380Y2133700D01*
X386060Y2132000D01*
X386380Y2130310D01*
X387020Y2129040D01*
X387990Y2128190D01*
X389120Y2127770D01*
X390240Y2127980D01*
X391210Y2128620D01*
X391850Y2129460D01*
G01X399650Y2127770D02*
Y2136240D01*
G01Y2134540D02*
X400460Y2135390D01*
X401260Y2136020D01*
X402390Y2136240D01*
X403190Y2136020D01*
X404160Y2135390D01*
G01X411480Y2123960D02*
X412440Y2123540D01*
X413730Y2123960D01*
X414530Y2124810D01*
X415180Y2125870D01*
X416140Y2129250D01*
X418230Y2136240D01*
G01X413090D02*
X416140Y2129250D01*
G01X437700Y2138350D02*
X438660Y2139620D01*
X439790Y2140260D01*
X441080Y2140470D01*
X442690Y2140050D01*
X443810Y2138990D01*
X444130Y2137720D01*
X443970Y2136450D01*
X443330Y2135390D01*
X440110Y2133270D01*
X438660Y2131790D01*
X437700Y2129670D01*
X437380Y2127770D01*
X444130D01*
G01X453700Y2140470D02*
X452420Y2140050D01*
X451450Y2138990D01*
X450810Y2137720D01*
X450330Y2136020D01*
X450170Y2134120D01*
X450330Y2132210D01*
X450810Y2130520D01*
X451450Y2129250D01*
X452420Y2128190D01*
X453700Y2127770D01*
X454990Y2128190D01*
X455960Y2129250D01*
X456600Y2130520D01*
X457080Y2132210D01*
X457240Y2134120D01*
X457080Y2136020D01*
X456600Y2137720D01*
X455960Y2138990D01*
X454990Y2140050D01*
X453700Y2140470D01*
G01X466650Y2127770D02*
Y2140470D01*
X464720Y2137930D01*
G01Y2127770D02*
X468580D01*
G01X481540D02*
Y2140470D01*
X475580Y2131370D01*
X483630D01*
G01X324090Y2150330D02*
Y2163030D01*
G01X330200D02*
X324090Y2155200D01*
G01X331160Y2150330D02*
X326820Y2158800D01*
G01X337360Y2150330D02*
Y2163030D01*
X341220D01*
X342510Y2162390D01*
X343470Y2160910D01*
X343790Y2159220D01*
X343470Y2157530D01*
X342670Y2156260D01*
X341220Y2155620D01*
X337360D01*
G01X350310Y2150330D02*
Y2163030D01*
X354330D01*
X355620Y2162390D01*
X356420Y2161550D01*
X356740Y2159850D01*
X356420Y2158160D01*
X355460Y2157100D01*
X354330Y2156470D01*
X350310D01*
G01X354330D02*
X356740Y2150330D01*
G01X362940D02*
Y2163030D01*
X366150D01*
X367440Y2162390D01*
X368410Y2161550D01*
X369210Y2160280D01*
X369850Y2158800D01*
X370010Y2156680D01*
X369850Y2154560D01*
X369210Y2153080D01*
X368410Y2151810D01*
X367440Y2150960D01*
X366150Y2150330D01*
X362940D01*
G01X374600Y2146100D02*
X384250D01*
G01X392370Y2163030D02*
X391090Y2162610D01*
X390120Y2161550D01*
X389480Y2160280D01*
X389000Y2158580D01*
X388840Y2156680D01*
X389000Y2154770D01*
X389480Y2153080D01*
X390120Y2151810D01*
X391090Y2150750D01*
X392370Y2150330D01*
X393660Y2150750D01*
X394630Y2151810D01*
X395270Y2153080D01*
X395750Y2154770D01*
X395910Y2156680D01*
X395750Y2158580D01*
X395270Y2160280D01*
X394630Y2161550D01*
X393660Y2162610D01*
X392370Y2163030D01*
G01X401790Y2152870D02*
X402750Y2151390D01*
X404040Y2150540D01*
X405490Y2150330D01*
X406770Y2150540D01*
X408060Y2151600D01*
X408860Y2152870D01*
X409020Y2154140D01*
X408700Y2155620D01*
X407580Y2156680D01*
X406450Y2157100D01*
X405000D01*
G01X406450D02*
X407420Y2157740D01*
X408220Y2158800D01*
X408540Y2160070D01*
X408220Y2161340D01*
X407420Y2162390D01*
X405970Y2163030D01*
X404520Y2162820D01*
X403070Y2161970D01*
G01X415380Y2158800D02*
X418270Y2150330D01*
X421170Y2158800D01*
G01X428170Y2160910D02*
X429130Y2162180D01*
X430260Y2162820D01*
X431550Y2163030D01*
X433160Y2162610D01*
X434280Y2161550D01*
X434600Y2160280D01*
X434440Y2159010D01*
X433800Y2157950D01*
X430580Y2155830D01*
X429130Y2154350D01*
X428170Y2152230D01*
X427850Y2150330D01*
X434600D01*
G01X473080Y343160D02*
Y355860D01*
X477100D01*
X478390Y355220D01*
X479190Y354380D01*
X479510Y352680D01*
X479190Y350990D01*
X478230Y349930D01*
X477100Y349300D01*
X473080D01*
G01X477100D02*
X479510Y343160D01*
G01X486510Y344640D02*
X487640Y343580D01*
X488920Y343160D01*
X490210Y343580D01*
X491340Y344850D01*
X492140Y346760D01*
X492460Y348660D01*
Y350990D01*
X492140Y352900D01*
X491340Y354590D01*
X490370Y355440D01*
X489240Y355860D01*
X487960Y355440D01*
X486990Y354590D01*
X486350Y353320D01*
X486030Y351630D01*
X486350Y350150D01*
X487150Y348660D01*
X488120Y347820D01*
X489240Y347600D01*
X490530Y348030D01*
X491500Y349090D01*
X492460Y350990D01*
G01X504130Y343160D02*
Y355860D01*
X498170Y346760D01*
X506220D01*
G01X477080Y547160D02*
Y559860D01*
X481100D01*
X482390Y559220D01*
X483190Y558380D01*
X483510Y556680D01*
X483190Y554990D01*
X482230Y553930D01*
X481100Y553300D01*
X477080D01*
G01X481100D02*
X483510Y547160D01*
G01X493240D02*
X494370Y547370D01*
X495660Y548010D01*
X496460Y549060D01*
X496780Y550550D01*
X496460Y552030D01*
X495500Y553300D01*
X494050Y553930D01*
X492440D01*
X491480Y554360D01*
X490670Y555410D01*
X490350Y556900D01*
X490830Y558380D01*
X491960Y559440D01*
X493240Y559860D01*
X494530Y559440D01*
X495660Y558380D01*
X496140Y556900D01*
X495820Y555410D01*
X495010Y554360D01*
X494050Y553930D01*
X492440D01*
X490990Y553300D01*
X490030Y552030D01*
X489710Y550550D01*
X490030Y549060D01*
X490830Y548010D01*
X492120Y547370D01*
X493240Y547160D01*
G01X503140Y557740D02*
X504100Y559010D01*
X505230Y559650D01*
X506520Y559860D01*
X508130Y559440D01*
X509250Y558380D01*
X509570Y557110D01*
X509410Y555840D01*
X508770Y554780D01*
X505550Y552660D01*
X504100Y551180D01*
X503140Y549060D01*
X502820Y547160D01*
X509570D01*
G01X477080Y749160D02*
Y761860D01*
X481100D01*
X482390Y761220D01*
X483190Y760380D01*
X483510Y758680D01*
X483190Y756990D01*
X482230Y755930D01*
X481100Y755300D01*
X477080D01*
G01X481100D02*
X483510Y749160D01*
G01X492920D02*
X493240Y751910D01*
X493730Y754240D01*
X494370Y756360D01*
X495180Y758680D01*
X496460Y761860D01*
X490030D01*
G01X506190D02*
X504910Y761440D01*
X503940Y760380D01*
X503300Y759110D01*
X502820Y757410D01*
X502660Y755510D01*
X502820Y753600D01*
X503300Y751910D01*
X503940Y750640D01*
X504910Y749580D01*
X506190Y749160D01*
X507480Y749580D01*
X508450Y750640D01*
X509090Y751910D01*
X509570Y753600D01*
X509730Y755510D01*
X509570Y757410D01*
X509090Y759110D01*
X508450Y760380D01*
X507480Y761440D01*
X506190Y761860D01*
G01X475080Y953160D02*
Y965860D01*
X479100D01*
X480390Y965220D01*
X481190Y964380D01*
X481510Y962680D01*
X481190Y960990D01*
X480230Y959930D01*
X479100Y959300D01*
X475080D01*
G01X479100D02*
X481510Y953160D01*
G01X491240D02*
Y965860D01*
X489310Y963320D01*
G01Y953160D02*
X493170D01*
G01X501140Y958450D02*
X502260Y959930D01*
X503230Y960780D01*
X504520Y961200D01*
X505640Y960780D01*
X506450Y959930D01*
X507090Y958660D01*
X507250Y957180D01*
X507090Y955910D01*
X506450Y954640D01*
X505480Y953580D01*
X504360Y953160D01*
X503070Y953580D01*
X501940Y954850D01*
X501300Y956760D01*
X501140Y958870D01*
X501460Y961630D01*
X501940Y963110D01*
X502750Y964590D01*
X503870Y965650D01*
X505000Y965860D01*
X506130Y965440D01*
X506930Y964380D01*
G01X471090Y1417160D02*
Y1429860D01*
X475110D01*
X476400Y1429220D01*
X477200Y1428380D01*
X477520Y1426680D01*
X477200Y1424990D01*
X476240Y1423930D01*
X475110Y1423300D01*
X471090D01*
G01X475110D02*
X477520Y1417160D01*
G01X483720Y1419060D02*
X484680Y1418010D01*
X485810Y1417370D01*
X487250Y1417160D01*
X488700Y1417580D01*
X489830Y1418430D01*
X490630Y1419910D01*
X490790Y1421600D01*
X490470Y1423300D01*
X489670Y1424360D01*
X488540Y1425200D01*
X487420Y1425410D01*
X486290Y1425200D01*
X484840Y1424360D01*
X485320Y1429860D01*
X489670D01*
G01X497150Y1427740D02*
X498110Y1429010D01*
X499240Y1429650D01*
X500530Y1429860D01*
X502140Y1429440D01*
X503260Y1428380D01*
X503580Y1427110D01*
X503420Y1425840D01*
X502780Y1424780D01*
X499560Y1422660D01*
X498110Y1421180D01*
X497150Y1419060D01*
X496830Y1417160D01*
X503580D01*
G01X473090Y1619160D02*
Y1631860D01*
X477110D01*
X478400Y1631220D01*
X479200Y1630380D01*
X479520Y1628680D01*
X479200Y1626990D01*
X478240Y1625930D01*
X477110Y1625300D01*
X473090D01*
G01X477110D02*
X479520Y1619160D01*
G01X491190D02*
Y1631860D01*
X485230Y1622760D01*
X493280D01*
G01X502200Y1631860D02*
X500920Y1631440D01*
X499950Y1630380D01*
X499310Y1629110D01*
X498830Y1627410D01*
X498670Y1625510D01*
X498830Y1623600D01*
X499310Y1621910D01*
X499950Y1620640D01*
X500920Y1619580D01*
X502200Y1619160D01*
X503490Y1619580D01*
X504460Y1620640D01*
X505100Y1621910D01*
X505580Y1623600D01*
X505740Y1625510D01*
X505580Y1627410D01*
X505100Y1629110D01*
X504460Y1630380D01*
X503490Y1631440D01*
X502200Y1631860D01*
G01X471090Y1823160D02*
Y1835860D01*
X475110D01*
X476400Y1835220D01*
X477200Y1834380D01*
X477520Y1832680D01*
X477200Y1830990D01*
X476240Y1829930D01*
X475110Y1829300D01*
X471090D01*
G01X475110D02*
X477520Y1823160D01*
G01X484200Y1833740D02*
X485160Y1835010D01*
X486290Y1835650D01*
X487580Y1835860D01*
X489190Y1835440D01*
X490310Y1834380D01*
X490630Y1833110D01*
X490470Y1831840D01*
X489830Y1830780D01*
X486610Y1828660D01*
X485160Y1827180D01*
X484200Y1825060D01*
X483880Y1823160D01*
X490630D01*
G01X500200D02*
X501330Y1823370D01*
X502620Y1824010D01*
X503420Y1825060D01*
X503740Y1826550D01*
X503420Y1828030D01*
X502460Y1829300D01*
X501010Y1829930D01*
X499400D01*
X498440Y1830360D01*
X497630Y1831410D01*
X497310Y1832900D01*
X497790Y1834380D01*
X498920Y1835440D01*
X500200Y1835860D01*
X501490Y1835440D01*
X502620Y1834380D01*
X503100Y1832900D01*
X502780Y1831410D01*
X501970Y1830360D01*
X501010Y1829930D01*
X499400D01*
X497950Y1829300D01*
X496990Y1828030D01*
X496670Y1826550D01*
X496990Y1825060D01*
X497790Y1824010D01*
X499080Y1823370D01*
X500200Y1823160D01*
G01X479080Y2027160D02*
Y2039860D01*
X483100D01*
X484390Y2039220D01*
X485190Y2038380D01*
X485510Y2036680D01*
X485190Y2034990D01*
X484230Y2033930D01*
X483100Y2033300D01*
X479080D01*
G01X483100D02*
X485510Y2027160D01*
G01X495240D02*
Y2039860D01*
X493310Y2037320D01*
G01Y2027160D02*
X497170D01*
G01X508190Y2039860D02*
X506910Y2039440D01*
X505940Y2038380D01*
X505300Y2037110D01*
X504820Y2035410D01*
X504660Y2033510D01*
X504820Y2031600D01*
X505300Y2029910D01*
X505940Y2028640D01*
X506910Y2027580D01*
X508190Y2027160D01*
X509480Y2027580D01*
X510450Y2028640D01*
X511090Y2029910D01*
X511570Y2031600D01*
X511730Y2033510D01*
X511570Y2035410D01*
X511090Y2037110D01*
X510450Y2038380D01*
X509480Y2039440D01*
X508190Y2039860D01*
G01X601080Y243160D02*
Y255860D01*
X605100D01*
X606390Y255220D01*
X607190Y254380D01*
X607510Y252680D01*
X607190Y250990D01*
X606230Y249930D01*
X605100Y249300D01*
X601080D01*
G01X605100D02*
X607510Y243160D01*
G01X614510Y244640D02*
X615640Y243580D01*
X616920Y243160D01*
X618210Y243580D01*
X619340Y244850D01*
X620140Y246760D01*
X620460Y248660D01*
Y250990D01*
X620140Y252900D01*
X619340Y254590D01*
X618370Y255440D01*
X617240Y255860D01*
X615960Y255440D01*
X614990Y254590D01*
X614350Y253320D01*
X614030Y251630D01*
X614350Y250150D01*
X615150Y248660D01*
X616120Y247820D01*
X617240Y247600D01*
X618530Y248030D01*
X619500Y249090D01*
X620460Y250990D01*
G01X626660Y245060D02*
X627620Y244010D01*
X628750Y243370D01*
X630190Y243160D01*
X631640Y243580D01*
X632770Y244430D01*
X633570Y245910D01*
X633730Y247600D01*
X633410Y249300D01*
X632610Y250360D01*
X631480Y251200D01*
X630360Y251410D01*
X629230Y251200D01*
X627780Y250360D01*
X628260Y255860D01*
X632610D01*
G01X603080Y445160D02*
Y457860D01*
X607100D01*
X608390Y457220D01*
X609190Y456380D01*
X609510Y454680D01*
X609190Y452990D01*
X608230Y451930D01*
X607100Y451300D01*
X603080D01*
G01X607100D02*
X609510Y445160D01*
G01X619240D02*
X620370Y445370D01*
X621660Y446010D01*
X622460Y447060D01*
X622780Y448550D01*
X622460Y450030D01*
X621500Y451300D01*
X620050Y451930D01*
X618440D01*
X617480Y452360D01*
X616670Y453410D01*
X616350Y454900D01*
X616830Y456380D01*
X617960Y457440D01*
X619240Y457860D01*
X620530Y457440D01*
X621660Y456380D01*
X622140Y454900D01*
X621820Y453410D01*
X621010Y452360D01*
X620050Y451930D01*
X618440D01*
X616990Y451300D01*
X616030Y450030D01*
X615710Y448550D01*
X616030Y447060D01*
X616830Y446010D01*
X618120Y445370D01*
X619240Y445160D01*
G01X628660Y447700D02*
X629620Y446220D01*
X630910Y445370D01*
X632360Y445160D01*
X633640Y445370D01*
X634930Y446430D01*
X635730Y447700D01*
X635890Y448970D01*
X635570Y450450D01*
X634450Y451510D01*
X633320Y451930D01*
X631870D01*
G01X633320D02*
X634290Y452570D01*
X635090Y453630D01*
X635410Y454900D01*
X635090Y456170D01*
X634290Y457220D01*
X632840Y457860D01*
X631390Y457650D01*
X629940Y456800D01*
G01X605080Y649160D02*
Y661860D01*
X609100D01*
X610390Y661220D01*
X611190Y660380D01*
X611510Y658680D01*
X611190Y656990D01*
X610230Y655930D01*
X609100Y655300D01*
X605080D01*
G01X609100D02*
X611510Y649160D01*
G01X620920D02*
X621240Y651910D01*
X621730Y654240D01*
X622370Y656360D01*
X623180Y658680D01*
X624460Y661860D01*
X618030D01*
G01X634190Y649160D02*
Y661860D01*
X632260Y659320D01*
G01Y649160D02*
X636120D01*
G01X601080Y851160D02*
Y863860D01*
X605100D01*
X606390Y863220D01*
X607190Y862380D01*
X607510Y860680D01*
X607190Y858990D01*
X606230Y857930D01*
X605100Y857300D01*
X601080D01*
G01X605100D02*
X607510Y851160D01*
G01X613710Y853060D02*
X614670Y852010D01*
X615800Y851370D01*
X617240Y851160D01*
X618690Y851580D01*
X619820Y852430D01*
X620620Y853910D01*
X620780Y855600D01*
X620460Y857300D01*
X619660Y858360D01*
X618530Y859200D01*
X617410Y859410D01*
X616280Y859200D01*
X614830Y858360D01*
X615310Y863860D01*
X619660D01*
G01X627460Y852640D02*
X628590Y851580D01*
X629870Y851160D01*
X631160Y851580D01*
X632290Y852850D01*
X633090Y854760D01*
X633410Y856660D01*
Y858990D01*
X633090Y860900D01*
X632290Y862590D01*
X631320Y863440D01*
X630190Y863860D01*
X628910Y863440D01*
X627940Y862590D01*
X627300Y861320D01*
X626980Y859630D01*
X627300Y858150D01*
X628100Y856660D01*
X629070Y855820D01*
X630190Y855600D01*
X631480Y856030D01*
X632450Y857090D01*
X633410Y858990D01*
G01X601090Y1315160D02*
Y1327860D01*
X605110D01*
X606400Y1327220D01*
X607200Y1326380D01*
X607520Y1324680D01*
X607200Y1322990D01*
X606240Y1321930D01*
X605110Y1321300D01*
X601090D01*
G01X605110D02*
X607520Y1315160D01*
G01X613720Y1317060D02*
X614680Y1316010D01*
X615810Y1315370D01*
X617250Y1315160D01*
X618700Y1315580D01*
X619830Y1316430D01*
X620630Y1317910D01*
X620790Y1319600D01*
X620470Y1321300D01*
X619670Y1322360D01*
X618540Y1323200D01*
X617420Y1323410D01*
X616290Y1323200D01*
X614840Y1322360D01*
X615320Y1327860D01*
X619670D01*
G01X626670Y1317700D02*
X627630Y1316220D01*
X628920Y1315370D01*
X630370Y1315160D01*
X631650Y1315370D01*
X632940Y1316430D01*
X633740Y1317700D01*
X633900Y1318970D01*
X633580Y1320450D01*
X632460Y1321510D01*
X631330Y1321930D01*
X629880D01*
G01X631330D02*
X632300Y1322570D01*
X633100Y1323630D01*
X633420Y1324900D01*
X633100Y1326170D01*
X632300Y1327220D01*
X630850Y1327860D01*
X629400Y1327650D01*
X627950Y1326800D01*
G01X601090Y1519160D02*
Y1531860D01*
X605110D01*
X606400Y1531220D01*
X607200Y1530380D01*
X607520Y1528680D01*
X607200Y1526990D01*
X606240Y1525930D01*
X605110Y1525300D01*
X601090D01*
G01X605110D02*
X607520Y1519160D01*
G01X619190D02*
Y1531860D01*
X613230Y1522760D01*
X621280D01*
G01X630200Y1519160D02*
Y1531860D01*
X628270Y1529320D01*
G01Y1519160D02*
X632130D01*
G01X601090Y1723160D02*
Y1735860D01*
X605110D01*
X606400Y1735220D01*
X607200Y1734380D01*
X607520Y1732680D01*
X607200Y1730990D01*
X606240Y1729930D01*
X605110Y1729300D01*
X601090D01*
G01X605110D02*
X607520Y1723160D01*
G01X614200Y1733740D02*
X615160Y1735010D01*
X616290Y1735650D01*
X617580Y1735860D01*
X619190Y1735440D01*
X620310Y1734380D01*
X620630Y1733110D01*
X620470Y1731840D01*
X619830Y1730780D01*
X616610Y1728660D01*
X615160Y1727180D01*
X614200Y1725060D01*
X613880Y1723160D01*
X620630D01*
G01X627470Y1724640D02*
X628600Y1723580D01*
X629880Y1723160D01*
X631170Y1723580D01*
X632300Y1724850D01*
X633100Y1726760D01*
X633420Y1728660D01*
Y1730990D01*
X633100Y1732900D01*
X632300Y1734590D01*
X631330Y1735440D01*
X630200Y1735860D01*
X628920Y1735440D01*
X627950Y1734590D01*
X627310Y1733320D01*
X626990Y1731630D01*
X627310Y1730150D01*
X628110Y1728660D01*
X629080Y1727820D01*
X630200Y1727600D01*
X631490Y1728030D01*
X632460Y1729090D01*
X633420Y1730990D01*
G01X603090Y1925160D02*
Y1937860D01*
X607110D01*
X608400Y1937220D01*
X609200Y1936380D01*
X609520Y1934680D01*
X609200Y1932990D01*
X608240Y1931930D01*
X607110Y1931300D01*
X603090D01*
G01X607110D02*
X609520Y1925160D01*
G01X619250D02*
Y1937860D01*
X617320Y1935320D01*
G01Y1925160D02*
X621180D01*
G01X631880D02*
X632200Y1927910D01*
X632690Y1930240D01*
X633330Y1932360D01*
X634140Y1934680D01*
X635420Y1937860D01*
X628990D01*
G01X727080Y343160D02*
Y355860D01*
X731100D01*
X732390Y355220D01*
X733190Y354380D01*
X733510Y352680D01*
X733190Y350990D01*
X732230Y349930D01*
X731100Y349300D01*
X727080D01*
G01X731100D02*
X733510Y343160D01*
G01X743240D02*
X744370Y343370D01*
X745660Y344010D01*
X746460Y345060D01*
X746780Y346550D01*
X746460Y348030D01*
X745500Y349300D01*
X744050Y349930D01*
X742440D01*
X741480Y350360D01*
X740670Y351410D01*
X740350Y352900D01*
X740830Y354380D01*
X741960Y355440D01*
X743240Y355860D01*
X744530Y355440D01*
X745660Y354380D01*
X746140Y352900D01*
X745820Y351410D01*
X745010Y350360D01*
X744050Y349930D01*
X742440D01*
X740990Y349300D01*
X740030Y348030D01*
X739710Y346550D01*
X740030Y345060D01*
X740830Y344010D01*
X742120Y343370D01*
X743240Y343160D01*
G01X753460Y344640D02*
X754590Y343580D01*
X755870Y343160D01*
X757160Y343580D01*
X758290Y344850D01*
X759090Y346760D01*
X759410Y348660D01*
Y350990D01*
X759090Y352900D01*
X758290Y354590D01*
X757320Y355440D01*
X756190Y355860D01*
X754910Y355440D01*
X753940Y354590D01*
X753300Y353320D01*
X752980Y351630D01*
X753300Y350150D01*
X754100Y348660D01*
X755070Y347820D01*
X756190Y347600D01*
X757480Y348030D01*
X758450Y349090D01*
X759410Y350990D01*
G01X731080Y547160D02*
Y559860D01*
X735100D01*
X736390Y559220D01*
X737190Y558380D01*
X737510Y556680D01*
X737190Y554990D01*
X736230Y553930D01*
X735100Y553300D01*
X731080D01*
G01X735100D02*
X737510Y547160D01*
G01X746920D02*
X747240Y549910D01*
X747730Y552240D01*
X748370Y554360D01*
X749180Y556680D01*
X750460Y559860D01*
X744030D01*
G01X759870Y547160D02*
X760190Y549910D01*
X760680Y552240D01*
X761320Y554360D01*
X762130Y556680D01*
X763410Y559860D01*
X756980D01*
G01X729080Y749160D02*
Y761860D01*
X733100D01*
X734390Y761220D01*
X735190Y760380D01*
X735510Y758680D01*
X735190Y756990D01*
X734230Y755930D01*
X733100Y755300D01*
X729080D01*
G01X733100D02*
X735510Y749160D01*
G01X742190Y754450D02*
X743310Y755930D01*
X744280Y756780D01*
X745570Y757200D01*
X746690Y756780D01*
X747500Y755930D01*
X748140Y754660D01*
X748300Y753180D01*
X748140Y751910D01*
X747500Y750640D01*
X746530Y749580D01*
X745410Y749160D01*
X744120Y749580D01*
X742990Y750850D01*
X742350Y752760D01*
X742190Y754870D01*
X742510Y757630D01*
X742990Y759110D01*
X743800Y760590D01*
X744920Y761650D01*
X746050Y761860D01*
X747180Y761440D01*
X747980Y760380D01*
G01X754660Y751060D02*
X755620Y750010D01*
X756750Y749370D01*
X758190Y749160D01*
X759640Y749580D01*
X760770Y750430D01*
X761570Y751910D01*
X761730Y753600D01*
X761410Y755300D01*
X760610Y756360D01*
X759480Y757200D01*
X758360Y757410D01*
X757230Y757200D01*
X755780Y756360D01*
X756260Y761860D01*
X760610D01*
G01X731080Y953160D02*
Y965860D01*
X735100D01*
X736390Y965220D01*
X737190Y964380D01*
X737510Y962680D01*
X737190Y960990D01*
X736230Y959930D01*
X735100Y959300D01*
X731080D01*
G01X735100D02*
X737510Y953160D01*
G01X747240D02*
Y965860D01*
X745310Y963320D01*
G01Y953160D02*
X749170D01*
G01X760190D02*
Y965860D01*
X758260Y963320D01*
G01Y953160D02*
X762120D01*
G01X731090Y1417160D02*
Y1429860D01*
X735110D01*
X736400Y1429220D01*
X737200Y1428380D01*
X737520Y1426680D01*
X737200Y1424990D01*
X736240Y1423930D01*
X735110Y1423300D01*
X731090D01*
G01X735110D02*
X737520Y1417160D01*
G01X749190D02*
Y1429860D01*
X743230Y1420760D01*
X751280D01*
G01X759880Y1417160D02*
X760200Y1419910D01*
X760690Y1422240D01*
X761330Y1424360D01*
X762140Y1426680D01*
X763420Y1429860D01*
X756990D01*
G01X729080Y1621160D02*
Y1633860D01*
X733100D01*
X734390Y1633220D01*
X735190Y1632380D01*
X735510Y1630680D01*
X735190Y1628990D01*
X734230Y1627930D01*
X733100Y1627300D01*
X729080D01*
G01X733100D02*
X735510Y1621160D01*
G01X741710Y1623700D02*
X742670Y1622220D01*
X743960Y1621370D01*
X745410Y1621160D01*
X746690Y1621370D01*
X747980Y1622430D01*
X748780Y1623700D01*
X748940Y1624970D01*
X748620Y1626450D01*
X747500Y1627510D01*
X746370Y1627930D01*
X744920D01*
G01X746370D02*
X747340Y1628570D01*
X748140Y1629630D01*
X748460Y1630900D01*
X748140Y1632170D01*
X747340Y1633220D01*
X745890Y1633860D01*
X744440Y1633650D01*
X742990Y1632800D01*
G01X754660Y1623060D02*
X755620Y1622010D01*
X756750Y1621370D01*
X758190Y1621160D01*
X759640Y1621580D01*
X760770Y1622430D01*
X761570Y1623910D01*
X761730Y1625600D01*
X761410Y1627300D01*
X760610Y1628360D01*
X759480Y1629200D01*
X758360Y1629410D01*
X757230Y1629200D01*
X755780Y1628360D01*
X756260Y1633860D01*
X760610D01*
G01X727090Y1823160D02*
Y1835860D01*
X731110D01*
X732400Y1835220D01*
X733200Y1834380D01*
X733520Y1832680D01*
X733200Y1830990D01*
X732240Y1829930D01*
X731110Y1829300D01*
X727090D01*
G01X731110D02*
X733520Y1823160D01*
G01X740200Y1833740D02*
X741160Y1835010D01*
X742290Y1835650D01*
X743580Y1835860D01*
X745190Y1835440D01*
X746310Y1834380D01*
X746630Y1833110D01*
X746470Y1831840D01*
X745830Y1830780D01*
X742610Y1828660D01*
X741160Y1827180D01*
X740200Y1825060D01*
X739880Y1823160D01*
X746630D01*
G01X752670Y1825700D02*
X753630Y1824220D01*
X754920Y1823370D01*
X756370Y1823160D01*
X757650Y1823370D01*
X758940Y1824430D01*
X759740Y1825700D01*
X759900Y1826970D01*
X759580Y1828450D01*
X758460Y1829510D01*
X757330Y1829930D01*
X755880D01*
G01X757330D02*
X758300Y1830570D01*
X759100Y1831630D01*
X759420Y1832900D01*
X759100Y1834170D01*
X758300Y1835220D01*
X756850Y1835860D01*
X755400Y1835650D01*
X753950Y1834800D01*
G01X735560Y2027160D02*
Y2039860D01*
X739580D01*
X740870Y2039220D01*
X741670Y2038380D01*
X741990Y2036680D01*
X741670Y2034990D01*
X740710Y2033930D01*
X739580Y2033300D01*
X735560D01*
G01X739580D02*
X741990Y2027160D01*
G01X748190Y2029060D02*
X749150Y2028010D01*
X750280Y2027370D01*
X751720Y2027160D01*
X753170Y2027580D01*
X754300Y2028430D01*
X755100Y2029910D01*
X755260Y2031600D01*
X754940Y2033300D01*
X754140Y2034360D01*
X753010Y2035200D01*
X751890Y2035410D01*
X750760Y2035200D01*
X749310Y2034360D01*
X749790Y2039860D01*
X754140D01*
G01X890150Y955000D02*
X896900Y967700D01*
G01X890150D02*
X896900Y955000D01*
G01X902940Y957540D02*
X903900Y956060D01*
X905190Y955210D01*
X906640Y955000D01*
X907920Y955210D01*
X909210Y956270D01*
X910010Y957540D01*
X910170Y958810D01*
X909850Y960290D01*
X908730Y961350D01*
X907600Y961770D01*
X906150D01*
G01X907600D02*
X908570Y962410D01*
X909370Y963470D01*
X909690Y964740D01*
X909370Y966010D01*
X908570Y967060D01*
X907120Y967700D01*
X905670Y967490D01*
X904220Y966640D01*
G01X885500Y2034540D02*
X892250Y2047240D01*
G01X885500D02*
X892250Y2034540D01*
G01X898770Y2045120D02*
X899730Y2046390D01*
X900860Y2047030D01*
X902150Y2047240D01*
X903760Y2046820D01*
X904880Y2045760D01*
X905200Y2044490D01*
X905040Y2043220D01*
X904400Y2042160D01*
X901180Y2040040D01*
X899730Y2038560D01*
X898770Y2036440D01*
X898450Y2034540D01*
X905200D01*
G54D13*
G01X67550Y1242850D02*
X97550D01*
Y1182850D01*
X67550D01*
Y1242850D01*
G01X93200Y1103350D02*
G03X91950Y1104600I-1250J0D01*
G01D02*
G03X90700Y1103350I0J-1250D01*
G01D02*
G03X91950Y1102100I1250J0D01*
G01D02*
G03X93200Y1103350I0J1250D01*
G01X273000Y166090D02*
G03X271750Y167340I-1250J0D01*
G01D02*
G03X270500Y166090I0J-1250D01*
G01D02*
G03X271750Y164840I1250J0D01*
G01D02*
G03X273000Y166090I0J1250D01*
G01Y267690D02*
G03X271750Y268940I-1250J0D01*
G01D02*
G03X270500Y267690I0J-1250D01*
G01D02*
G03X271750Y266440I1250J0D01*
G01D02*
G03X273000Y267690I0J1250D01*
G01Y369290D02*
G03X271750Y370540I-1250J0D01*
G01D02*
G03X270500Y369290I0J-1250D01*
G01D02*
G03X271750Y368040I1250J0D01*
G01D02*
G03X273000Y369290I0J1250D01*
G01Y470890D02*
G03X271750Y472140I-1250J0D01*
G01D02*
G03X270500Y470890I0J-1250D01*
G01D02*
G03X271750Y469640I1250J0D01*
G01D02*
G03X273000Y470890I0J1250D01*
G01Y572490D02*
G03X271750Y573740I-1250J0D01*
G01D02*
G03X270500Y572490I0J-1250D01*
G01D02*
G03X271750Y571240I1250J0D01*
G01D02*
G03X273000Y572490I0J1250D01*
G01Y674090D02*
G03X271750Y675340I-1250J0D01*
G01D02*
G03X270500Y674090I0J-1250D01*
G01D02*
G03X271750Y672840I1250J0D01*
G01D02*
G03X273000Y674090I0J1250D01*
G01Y775690D02*
G03X271750Y776940I-1250J0D01*
G01D02*
G03X270500Y775690I0J-1250D01*
G01D02*
G03X271750Y774440I1250J0D01*
G01D02*
G03X273000Y775690I0J1250D01*
G01Y877290D02*
G03X271750Y878540I-1250J0D01*
G01D02*
G03X270500Y877290I0J-1250D01*
G01D02*
G03X271750Y876040I1250J0D01*
G01D02*
G03X273000Y877290I0J1250D01*
G01Y1239240D02*
G03X271750Y1240490I-1250J0D01*
G01D02*
G03X270500Y1239240I0J-1250D01*
G01D02*
G03X271750Y1237990I1250J0D01*
G01D02*
G03X273000Y1239240I0J1250D01*
G01Y1340840D02*
G03X271750Y1342090I-1250J0D01*
G01D02*
G03X270500Y1340840I0J-1250D01*
G01D02*
G03X271750Y1339590I1250J0D01*
G01D02*
G03X273000Y1340840I0J1250D01*
G01Y1442440D02*
G03X271750Y1443690I-1250J0D01*
G01D02*
G03X270500Y1442440I0J-1250D01*
G01D02*
G03X271750Y1441190I1250J0D01*
G01D02*
G03X273000Y1442440I0J1250D01*
G01Y1544040D02*
G03X271750Y1545290I-1250J0D01*
G01D02*
G03X270500Y1544040I0J-1250D01*
G01D02*
G03X271750Y1542790I1250J0D01*
G01D02*
G03X273000Y1544040I0J1250D01*
G01Y1645640D02*
G03X271750Y1646890I-1250J0D01*
G01D02*
G03X270500Y1645640I0J-1250D01*
G01D02*
G03X271750Y1644390I1250J0D01*
G01D02*
G03X273000Y1645640I0J1250D01*
G01Y1747240D02*
G03X271750Y1748490I-1250J0D01*
G01D02*
G03X270500Y1747240I0J-1250D01*
G01D02*
G03X271750Y1745990I1250J0D01*
G01D02*
G03X273000Y1747240I0J1250D01*
G01Y1848840D02*
G03X271750Y1850090I-1250J0D01*
G01D02*
G03X270500Y1848840I0J-1250D01*
G01D02*
G03X271750Y1847590I1250J0D01*
G01D02*
G03X273000Y1848840I0J1250D01*
G01Y1950440D02*
G03X271750Y1951690I-1250J0D01*
G01D02*
G03X270500Y1950440I0J-1250D01*
G01D02*
G03X271750Y1949190I1250J0D01*
G01D02*
G03X273000Y1950440I0J1250D01*
G01X858500Y929640D02*
G03I-1250J0D01*
G01Y2002790D02*
G03I-1250J0D01*
M02*
