M48
METRIC,TZ
T01C.5
T02C1.
T03C1.3
T04C2.
T05C2.7
T06C2.7
;LEADER: 12 
;HEADER: 
;CODE  : ASCII 
;FILE  : KPRD_03v2-1-2.drl for  ... layers TOP and BOTTOM
;T01 Holesize 1. = 0.500000 Tolerance = +0.000000/-0.000000 PLATED MM Quantity = 172
;T02 Holesize 2. = 1.000000 Tolerance = +0.000000/-0.000000 PLATED MM Quantity = 99
;T03 Holesize 3. = 1.300000 Tolerance = +0.000000/-0.000000 PLATED MM Quantity = 64
;T04 Holesize 4. = 2.000000 Tolerance = +0.000000/-0.000000 PLATED MM Quantity = 32
;T05 Holesize 5. = 2.700000 Tolerance = +0.000000/-0.000000 PLATED MM Quantity = 2
;T06 Holesize 6. = 2.700000 Tolerance = +0.000000/-0.000000 NON_PLATED MM Quantity = 2
%
G90
T01
X298450Y1247140
Y173990
Y1856740
Y783590
Y1653540
Y580390
Y1450340
Y377190
Y1348740
Y275590
Y1755140
Y681990
Y1551940
Y478790
X273050Y1958180
Y885030
X298450Y1958340
Y885190
X44450Y1009650
Y1022350
Y1047750
Y996950
Y1035050
X273050Y1247140
Y173990
Y1856740
Y783590
Y1653540
Y580390
Y1450340
Y377190
Y1348580
Y275430
Y1754980
Y681830
Y1551780
Y478630
X-31750Y1955800
X63500Y1974850
X107950Y1913890
X88900Y-12700
X-31750Y-19050
R02Y152400
Y552450
R02Y127000
X57150Y821690
X6350Y876300
X-31750Y869950
Y1009650
X57150Y920750
X-31750Y1301750
Y1504950
Y1733550
X-6350Y1327150
Y1530350
Y1720850
X140000Y1190000
X120650Y787400
R03Y-101600
X124000Y384000
X130000Y281720
X135000Y925000
X144000Y1110000
X139700Y1041400
X107950
X79500Y1097100
X101600Y1162050
X44450Y1149350
Y1111250
X120650Y1250950
R07Y101600
X171450Y2006600
X-31750Y1847850
Y1168400
Y927100
X12700Y920750
X171450Y0
Y63500
X82550Y25400
X127000Y69850
X120650Y889000
X57150Y965200
X19050Y1003300
X-6350Y1149350
Y1231900
X-19050Y1422400
Y1631950
X44450Y1231900
Y1327150
Y1403350
X38100Y1498600
X31750Y1593850
X25400Y1689100
X19050Y1784350
X69850Y1263650
Y1327150
X107950Y1301750
X69850Y1365250
X107950Y1403350
X38100Y1435100
X107950Y1504950
X31750Y1530350
X107950Y1606550
X25400Y1625600
X107950Y1708150
X19050Y1720850
X107950Y1809750
X-6350Y1803400
X63500Y1911350
X6350Y1898650
X12700Y1968500
X76200Y1847850
R03Y-101600
Y1435100
X44450Y876300
X171450Y1905000
Y222250
Y323850
R06Y101600
Y1130300
Y1295400
Y1397000
R04Y101600
Y-38100
X139700Y1149350
X44450Y1066800
X-31750Y419100
X0Y971550
X-4000Y1105000
X95250Y2012950
X146050
X31750
X-31750
X107950Y-38100
X63500
X6350
X158750Y920750
R07Y-101600
Y1790700
R05Y-101600
Y1892300
Y1993900
T02
X-19050Y1028700
X0Y25400
R07Y25400
X0Y254000
R08Y25400
X0Y508000
R08Y25400
X0Y762000
X0Y787400
X50800Y25400
R07Y25400
Y254000
R08Y25400
Y508000
R08Y25400
Y762000
Y787400
X25400Y25400
R07Y25400
Y254000
R08Y25400
Y508000
R08Y25400
Y762000
Y787400
X0Y0
R02X25400
X0Y228600
R02X25400
X0Y482600
R02X25400
X0Y736600
R02X25400
X82550Y1200150
Y1225550
T03
X488950Y1926990
Y1976990
X361950Y142640
Y192640
X742950Y853840
Y903840
X488950Y853840
Y903840
X615950Y1825390
Y1875390
X361950Y1825390
Y1875390
X742950Y1723790
Y1773790
X488950Y1723790
Y1773790
X615950Y1622190
Y1672190
X361950Y1622190
Y1672190
X742950Y1520590
Y1570590
X488950Y1520590
Y1570590
X615950Y1418990
Y1468990
X361950Y1418990
Y1468990
X742950Y1317390
Y1367390
Y1926990
Y1976990
X488950Y1317390
Y1367390
X615950Y1215790
Y1265790
X361950Y1215790
Y1265790
X615950Y752240
Y802240
X361950Y752240
Y802240
X742950Y650640
Y700640
X488950Y650640
Y700640
X615950Y549040
Y599040
X361950Y549040
Y599040
X742950Y447440
Y497440
X488950Y447440
Y497440
X615950Y345840
Y395840
X361950Y345840
Y395840
X742950Y244240
Y294240
X488950Y244240
Y294240
X615950Y142640
Y192640
T04
X857250Y1977390
R15Y-50800
Y904240
R15Y-50800
T05
X-25400Y-50800
Y838200
T06
X940000Y-50800
Y2171700
M30
