G04 ================== begin FILE IDENTIFICATION RECORD ==================*
G04 Layout Name:  D:/Project/Circuit/KPRD/03v2/pcb/KPRD_03v2.brd*
G04 Film Name:    PASTE_BOT*
G04 File Format:  Gerber RS274X*
G04 File Origin:  Cadence Allegro 16.6-2015-S073*
G04 Origin Date:  Tue Nov 29 16:57:26 2016*
G04 *
G04 Layer:  PIN/PASTEMASK_BOTTOM*
G04 Layer:  PACKAGE GEOMETRY/PASTEMASK_BOTTOM*
G04 *
G04 Offset:    (0.000 0.000)*
G04 Mirror:    No*
G04 Mode:      Positive*
G04 Rotation:  0*
G04 FullContactRelief:  No*
G04 UndefLineWidth:     0.000*
G04 ================== end FILE IDENTIFICATION RECORD ====================*
%FSLAX34Y34*MOMM*%
%IR0*IPPOS*OFA0.00000B0.00000*MIA0B0*SFA1.00000B1.00000*%
%ADD15R,2.05X2.05*%
%ADD12R,1.55X.65*%
%ADD11R,1.1X1.4*%
%ADD13R,1.1X2.7*%
%ADD16R,2.7X1.1*%
%ADD10R,1.75X1.*%
%ADD17R,1.8X1.25*%
%ADD14R,.5X.9*%
%LPD*%
G75*
G54D10*
X146050Y163590D03*
Y133590D03*
Y235190D03*
Y265190D03*
Y366790D03*
Y336790D03*
Y468390D03*
Y438390D03*
Y539990D03*
Y569990D03*
Y671590D03*
Y641590D03*
Y773190D03*
Y743190D03*
Y844790D03*
Y874790D03*
Y1206740D03*
Y1236740D03*
Y1338340D03*
Y1308340D03*
Y1439940D03*
Y1409940D03*
Y1511540D03*
Y1541540D03*
Y1643140D03*
Y1613140D03*
Y1744740D03*
Y1714740D03*
Y1816340D03*
Y1846340D03*
Y1947940D03*
Y1917940D03*
G54D11*
X150250Y193040D03*
Y294640D03*
Y396240D03*
Y497840D03*
Y599440D03*
Y701040D03*
Y802640D03*
Y904240D03*
Y1266190D03*
Y1367790D03*
Y1469390D03*
Y1570990D03*
Y1672590D03*
Y1774190D03*
Y1875790D03*
Y1977390D03*
X167250Y193040D03*
Y294640D03*
Y396240D03*
Y497840D03*
Y599440D03*
Y701040D03*
Y802640D03*
Y904240D03*
Y1266190D03*
Y1367790D03*
Y1469390D03*
Y1570990D03*
Y1672590D03*
Y1774190D03*
Y1875790D03*
Y1977390D03*
G54D12*
X170200Y148590D03*
Y161290D03*
Y173990D03*
Y250190D03*
Y262890D03*
Y275590D03*
Y351790D03*
Y364490D03*
Y377190D03*
Y453390D03*
Y466090D03*
Y478790D03*
Y554990D03*
Y567690D03*
Y580390D03*
Y656590D03*
Y669290D03*
Y681990D03*
Y758190D03*
Y770890D03*
Y783590D03*
Y859790D03*
Y872490D03*
Y885190D03*
Y1221740D03*
Y1234440D03*
Y1247140D03*
Y1323340D03*
Y1336040D03*
Y1348740D03*
Y1424940D03*
Y1437640D03*
Y1450340D03*
Y1526540D03*
Y1539240D03*
Y1551940D03*
Y1628140D03*
Y1640840D03*
Y1653540D03*
Y1729740D03*
Y1742440D03*
Y1755140D03*
Y1831340D03*
Y1844040D03*
Y1856740D03*
Y1932940D03*
Y1945640D03*
Y1958340D03*
X236200Y148590D03*
Y173990D03*
Y250190D03*
Y275590D03*
Y351790D03*
Y377190D03*
Y453390D03*
Y478790D03*
Y554990D03*
Y580390D03*
Y656590D03*
Y681990D03*
Y758190D03*
Y783590D03*
Y859790D03*
Y885190D03*
Y1221740D03*
Y1247140D03*
Y1323340D03*
Y1348740D03*
Y1424940D03*
Y1450340D03*
Y1526540D03*
Y1551940D03*
Y1628140D03*
Y1653540D03*
Y1729740D03*
Y1755140D03*
Y1831340D03*
Y1856740D03*
Y1932940D03*
Y1958340D03*
G54D13*
X280800Y148590D03*
Y250190D03*
Y351790D03*
Y453390D03*
Y554990D03*
Y656590D03*
Y758190D03*
Y859790D03*
Y1221740D03*
Y1323340D03*
Y1424940D03*
Y1526540D03*
Y1628140D03*
Y1729740D03*
Y1831340D03*
Y1932940D03*
X328800Y148590D03*
Y250190D03*
Y351790D03*
Y453390D03*
Y554990D03*
Y656590D03*
Y758190D03*
Y859790D03*
Y1221740D03*
Y1323340D03*
Y1424940D03*
Y1526540D03*
Y1628140D03*
Y1729740D03*
Y1831340D03*
Y1932940D03*
G54D14*
X260350Y148290D03*
Y174290D03*
Y249890D03*
Y275890D03*
Y351490D03*
Y377490D03*
Y453090D03*
Y479090D03*
Y554690D03*
Y580690D03*
Y656290D03*
Y682290D03*
Y757890D03*
Y783890D03*
Y859490D03*
Y885490D03*
Y1221440D03*
Y1247440D03*
Y1323040D03*
Y1349040D03*
Y1424640D03*
Y1450640D03*
Y1526240D03*
Y1552240D03*
Y1627840D03*
Y1653840D03*
Y1729440D03*
Y1755440D03*
Y1831040D03*
Y1857040D03*
Y1932640D03*
Y1958640D03*
G54D15*
X283300Y193040D03*
Y294640D03*
Y396240D03*
Y497840D03*
Y599440D03*
Y701040D03*
Y802640D03*
Y904240D03*
Y1266190D03*
Y1367790D03*
Y1469390D03*
Y1570990D03*
Y1672590D03*
Y1774190D03*
Y1875790D03*
Y1977390D03*
X326300Y193040D03*
Y294640D03*
Y396240D03*
Y497840D03*
Y599440D03*
Y701040D03*
Y802640D03*
Y904240D03*
Y1266190D03*
Y1367790D03*
Y1469390D03*
Y1570990D03*
Y1672590D03*
Y1774190D03*
Y1875790D03*
Y1977390D03*
X419100Y139790D03*
Y182790D03*
X431800Y241390D03*
Y284390D03*
X419100Y342990D03*
Y385990D03*
X431800Y444590D03*
Y487590D03*
X419100Y546190D03*
Y589190D03*
X431800Y647790D03*
Y690790D03*
X419100Y749390D03*
Y792390D03*
X431800Y850990D03*
Y893990D03*
X419100Y1212940D03*
Y1255940D03*
X431800Y1314540D03*
Y1357540D03*
X419100Y1416140D03*
Y1459140D03*
X431800Y1517740D03*
Y1560740D03*
X419100Y1619340D03*
Y1662340D03*
X431800Y1720940D03*
Y1763940D03*
X419100Y1822540D03*
Y1865540D03*
X431800Y1924140D03*
Y1967140D03*
G54D16*
X393700Y238890D03*
X355600D03*
X393700Y286890D03*
X355600D03*
X393700Y442090D03*
X355600D03*
X393700Y490090D03*
X355600D03*
X393700Y693290D03*
Y645290D03*
X355600Y693290D03*
Y645290D03*
X393700Y848490D03*
X355600D03*
X393700Y896490D03*
X355600D03*
X393700Y1360040D03*
Y1312040D03*
X355600Y1360040D03*
Y1312040D03*
X393700Y1515240D03*
X355600D03*
X393700Y1563240D03*
X355600D03*
X393700Y1718440D03*
X355600D03*
X393700Y1766440D03*
X355600D03*
X393700Y1969640D03*
Y1921640D03*
X355600Y1969640D03*
Y1921640D03*
X457200Y137290D03*
Y185290D03*
Y388490D03*
Y340490D03*
Y543690D03*
Y591690D03*
Y746890D03*
Y794890D03*
Y1210440D03*
Y1258440D03*
Y1413640D03*
Y1461640D03*
Y1664840D03*
Y1616840D03*
Y1820040D03*
Y1868040D03*
X495300Y137290D03*
Y185290D03*
Y388490D03*
Y340490D03*
Y543690D03*
Y591690D03*
Y746890D03*
Y794890D03*
Y1210440D03*
Y1258440D03*
Y1413640D03*
Y1461640D03*
Y1664840D03*
Y1616840D03*
Y1820040D03*
Y1868040D03*
G54D17*
X527050Y146290D03*
Y176290D03*
Y247890D03*
Y277890D03*
Y349490D03*
Y379490D03*
Y451090D03*
Y481090D03*
Y552690D03*
Y582690D03*
Y654290D03*
Y684290D03*
Y755890D03*
Y785890D03*
Y857490D03*
Y887490D03*
Y1219440D03*
Y1249440D03*
Y1321040D03*
Y1351040D03*
Y1422640D03*
Y1452640D03*
Y1524240D03*
Y1554240D03*
Y1625840D03*
Y1655840D03*
Y1727440D03*
Y1757440D03*
Y1829040D03*
Y1859040D03*
Y1930640D03*
Y1960640D03*
M02*
