G04 ================== begin FILE IDENTIFICATION RECORD ==================*
G04 Layout Name:  D:/Project/Circuit/ORCAD/KPRD/03v2/pcb/KPRD_03v2.brd*
G04 Film Name:    TOP*
G04 File Format:  Gerber RS274X*
G04 File Origin:  Cadence Allegro 16.6-S021*
G04 Origin Date:  Tue Feb 04 10:50:33 2014*
G04 *
G04 Layer:  ETCH/TOP*
G04 Layer:  PIN/TOP*
G04 Layer:  VIA CLASS/TOP*
G04 *
G04 Offset:    (0.000 0.000)*
G04 Mirror:    No*
G04 Mode:      Positive*
G04 Rotation:  0*
G04 FullContactRelief:  No*
G04 UndefLineWidth:     0.250*
G04 ================== end FILE IDENTIFICATION RECORD ====================*
%FSLAX34Y34*MOMM*%
%IR0*IPPOS*OFA0.00000B0.00000*MIA0B0*SFA1.00000B1.00000*%
%ADD21R,1.X.6*%
%ADD20R,1.1X.6*%
%ADD12C,1.*%
%ADD16C,2.*%
%ADD10C,4.*%
%ADD24C,2.5*%
%ADD17C,1.6*%
%ADD13C,1.55*%
%ADD14R,2.05X2.05*%
%ADD23C,1.95*%
%ADD11R,1.55X1.55*%
%ADD22R,1.95X1.95*%
%ADD19R,1.1X1.4*%
%ADD15R,2.7X1.1*%
%ADD25R,2.5X2.5*%
%ADD18R,1.75X1.*%
%ADD26C,.2*%
%ADD27C,1.27*%
%ADD28C,.4*%
%ADD29C,.5*%
%ADD30C,.25*%
%ADD33C,2.104*%
%ADD32C,2.054*%
%ADD31C,2.254*%
G75*
%LPD*%
G75*
G36*
G01X-35540Y859770D02*
X-37540Y861090D01*
G02X-38100Y862130I690J1042D01*
G01Y2018050D01*
G02X-36850Y2019300I1250J0D01*
G01X176550D01*
G02X177800Y2018050I0J-1250D01*
G01Y-43200D01*
G02X176550Y-44450I-1250J0D01*
G01X56050D01*
G02X55160Y-44080I-2J1250D01*
G03X33740I-10710J-10530D01*
G02X32850Y-44450I-888J880D01*
G01X-2230D01*
X-2890Y-43960D01*
X-3010Y-43580D01*
G03X-34620Y-29160I-22387J-7219D01*
G01X-34910Y-29290D01*
X-35540Y-29230D01*
X-37540Y-27910D01*
G02X-38100Y-26870I690J1042D01*
G01Y814270D01*
G02X-37540Y815310I1250J-2D01*
G01X-35540Y816630D01*
X-34910Y816690D01*
X-34620Y816560D01*
G03Y859840I9220J21640D01*
G01X-34910Y859710D01*
X-35540Y859770D01*
G37*
G36*
G01X311150Y130790D02*
Y134840D01*
X312270Y135960D01*
Y153690D01*
G02X313520Y154940I1250J0D01*
G01X538500D01*
G02X539750Y153690I0J-1250D01*
G01Y130790D01*
G02X538500Y129540I-1250J0D01*
G01X312400D01*
G02X311150Y130790I0J1250D01*
G37*
G36*
G01X552770D02*
Y166710D01*
G03X551520Y167960I-1250J0D01*
G01X315610D01*
G02X314640Y168420I-1J1250D01*
G01X313240Y170140D01*
X313100Y170690D01*
X313160Y170960D01*
G03X311330Y181720I-14711J3034D01*
G02X311150Y182360I1069J646D01*
G01Y204490D01*
G02X312400Y205740I1250J0D01*
G01X576600D01*
G02X577850Y204490I0J-1250D01*
G01Y182560D01*
X577500Y181970D01*
X577190Y181810D01*
G03X580960Y166710I3770J-7079D01*
G01X641040D01*
G02X642160Y166020I2J-1250D01*
G01X647350Y155630D01*
G03X648470Y154940I1118J561D01*
G01X843010D01*
G02X844120Y154260I-3J-1250D01*
G01X845300Y151970D01*
X845240Y151270D01*
X845040Y150980D01*
G03Y133500I12210J-8740D01*
G01X845240Y133210D01*
X845300Y132510D01*
X844120Y130220D01*
G02X843010Y129540I-1113J570D01*
G01X636970D01*
G02X635720Y130790I0J1250D01*
G01Y161160D01*
G03X634470Y162410I-1250J0D01*
G01X597430D01*
G03X596180Y161160I0J-1250D01*
G01Y130790D01*
G02X594930Y129540I-1250J0D01*
G01X554020D01*
G02X552770Y130790I0J1250D01*
G37*
G36*
G01X311150Y232390D02*
Y236440D01*
X312270Y237560D01*
Y255290D01*
G02X313520Y256540I1250J0D01*
G01X538500D01*
G02X539750Y255290I0J-1250D01*
G01Y232390D01*
G02X538500Y231140I-1250J0D01*
G01X312400D01*
G02X311150Y232390I0J1250D01*
G37*
G36*
G01X552770D02*
Y268310D01*
G03X551520Y269560I-1250J0D01*
G01X315610D01*
G02X314640Y270020I-1J1250D01*
G01X313240Y271740D01*
X313100Y272290D01*
X313160Y272560D01*
G03X311330Y283320I-14711J3034D01*
G02X311150Y283960I1069J646D01*
G01Y306090D01*
G02X312400Y307340I1250J0D01*
G01X576600D01*
G02X577850Y306090I0J-1250D01*
G01Y257790D01*
G03X579100Y256540I1250J0D01*
G01X710430D01*
G03X711550Y257230I2J1251D01*
G01X716740Y267620D01*
G02X717860Y268310I1118J-560D01*
G01X768040D01*
G02X769160Y267620I2J-1250D01*
G01X774350Y257230D01*
G03X775470Y256540I1118J561D01*
G01X843010D01*
G02X844120Y255860I-3J-1250D01*
G01X845300Y253570D01*
X845240Y252870D01*
X845040Y252580D01*
G03Y235100I12210J-8740D01*
G01X845240Y234810D01*
X845300Y234110D01*
X844120Y231820D01*
G02X843010Y231140I-1113J570D01*
G01X763970D01*
G02X762720Y232390I0J1250D01*
G01Y262760D01*
G03X761470Y264010I-1250J0D01*
G01X724430D01*
G03X723180Y262760I0J-1250D01*
G01Y232390D01*
G02X721930Y231140I-1250J0D01*
G01X554020D01*
G02X552770Y232390I0J1250D01*
G37*
G36*
G01Y333990D02*
Y369910D01*
G03X551520Y371160I-1250J0D01*
G01X315610D01*
G02X314640Y371620I-1J1250D01*
G01X313240Y373340D01*
X313100Y373890D01*
X313160Y374160D01*
G03X311330Y384920I-14711J3034D01*
G02X311150Y385560I1069J646D01*
G01Y407690D01*
G02X312400Y408940I1250J0D01*
G01X576600D01*
G02X577850Y407690I0J-1250D01*
G01Y385760D01*
X577500Y385170D01*
X577190Y385010D01*
G03X580960Y369910I3770J-7079D01*
G01X641040D01*
G02X642160Y369220I2J-1250D01*
G01X647350Y358830D01*
G03X648470Y358140I1118J561D01*
G01X843010D01*
G02X844120Y357460I-3J-1250D01*
G01X845300Y355170D01*
X845240Y354470D01*
X845040Y354180D01*
G03Y336700I12210J-8740D01*
G01X845240Y336410D01*
X845300Y335710D01*
X844120Y333420D01*
G02X843010Y332740I-1113J570D01*
G01X636970D01*
G02X635720Y333990I0J1250D01*
G01Y364360D01*
G03X634470Y365610I-1250J0D01*
G01X597430D01*
G03X596180Y364360I0J-1250D01*
G01Y333990D01*
G02X594930Y332740I-1250J0D01*
G01X554020D01*
G02X552770Y333990I0J1250D01*
G37*
G36*
G01X311150D02*
Y338040D01*
X312270Y339160D01*
Y356890D01*
G02X313520Y358140I1250J0D01*
G01X538500D01*
G02X539750Y356890I0J-1250D01*
G01Y333990D01*
G02X538500Y332740I-1250J0D01*
G01X312400D01*
G02X311150Y333990I0J1250D01*
G37*
G36*
G01Y435590D02*
Y439640D01*
X312270Y440760D01*
Y458490D01*
G02X313520Y459740I1250J0D01*
G01X538500D01*
G02X539750Y458490I0J-1250D01*
G01Y435590D01*
G02X538500Y434340I-1250J0D01*
G01X312400D01*
G02X311150Y435590I0J1250D01*
G37*
G36*
G01X552770D02*
Y471510D01*
G03X551520Y472760I-1250J0D01*
G01X315610D01*
G02X314640Y473220I-1J1250D01*
G01X313240Y474940D01*
X313100Y475490D01*
X313160Y475760D01*
G03X311330Y486520I-14711J3034D01*
G02X311150Y487160I1069J646D01*
G01Y509290D01*
G02X312400Y510540I1250J0D01*
G01X576600D01*
G02X577850Y509290I0J-1250D01*
G01Y460990D01*
G03X579100Y459740I1250J0D01*
G01X710430D01*
G03X711550Y460430I2J1251D01*
G01X716740Y470820D01*
G02X717860Y471510I1118J-560D01*
G01X768040D01*
G02X769160Y470820I2J-1250D01*
G01X774350Y460430D01*
G03X775470Y459740I1118J561D01*
G01X843010D01*
G02X844120Y459060I-3J-1250D01*
G01X845300Y456770D01*
X845240Y456070D01*
X845040Y455780D01*
G03Y438300I12210J-8740D01*
G01X845240Y438010D01*
X845300Y437310D01*
X844120Y435020D01*
G02X843010Y434340I-1113J570D01*
G01X763970D01*
G02X762720Y435590I0J1250D01*
G01Y465960D01*
G03X761470Y467210I-1250J0D01*
G01X724430D01*
G03X723180Y465960I0J-1250D01*
G01Y435590D01*
G02X721930Y434340I-1250J0D01*
G01X554020D01*
G02X552770Y435590I0J1250D01*
G37*
G36*
G01X311150Y537190D02*
Y541240D01*
X312270Y542360D01*
Y560090D01*
G02X313520Y561340I1250J0D01*
G01X538500D01*
G02X539750Y560090I0J-1250D01*
G01Y537190D01*
G02X538500Y535940I-1250J0D01*
G01X312400D01*
G02X311150Y537190I0J1250D01*
G37*
G36*
G01X552770D02*
Y573110D01*
G03X551520Y574360I-1250J0D01*
G01X315610D01*
G02X314640Y574820I-1J1250D01*
G01X313240Y576540D01*
X313100Y577090D01*
X313160Y577360D01*
G03X311330Y588120I-14711J3034D01*
G02X311150Y588760I1069J646D01*
G01Y610890D01*
G02X312400Y612140I1250J0D01*
G01X576600D01*
G02X577850Y610890I0J-1250D01*
G01Y588960D01*
X577500Y588370D01*
X577190Y588210D01*
G03X580960Y573110I3770J-7079D01*
G01X641040D01*
G02X642160Y572420I2J-1250D01*
G01X647350Y562030D01*
G03X648470Y561340I1118J561D01*
G01X843010D01*
G02X844120Y560660I-3J-1250D01*
G01X845300Y558370D01*
X845240Y557670D01*
X845040Y557380D01*
G03Y539900I12210J-8740D01*
G01X845240Y539610D01*
X845300Y538910D01*
X844120Y536620D01*
G02X843010Y535940I-1113J570D01*
G01X636970D01*
G02X635720Y537190I0J1250D01*
G01Y567560D01*
G03X634470Y568810I-1250J0D01*
G01X597430D01*
G03X596180Y567560I0J-1250D01*
G01Y537190D01*
G02X594930Y535940I-1250J0D01*
G01X554020D01*
G02X552770Y537190I0J1250D01*
G37*
G36*
G01X311150Y690360D02*
Y712490D01*
G02X312400Y713740I1250J0D01*
G01X576600D01*
G02X577850Y712490I0J-1250D01*
G01Y664190D01*
G03X579100Y662940I1250J0D01*
G01X710430D01*
G03X711550Y663630I2J1251D01*
G01X716740Y674020D01*
G02X717860Y674710I1118J-560D01*
G01X768040D01*
G02X769160Y674020I2J-1250D01*
G01X774350Y663630D01*
G03X775470Y662940I1118J561D01*
G01X843010D01*
G02X844120Y662260I-3J-1250D01*
G01X845300Y659970D01*
X845240Y659270D01*
X845040Y658980D01*
G03Y641500I12210J-8740D01*
G01X845240Y641210D01*
X845300Y640510D01*
X844120Y638220D01*
G02X843010Y637540I-1113J570D01*
G01X763970D01*
G02X762720Y638790I0J1250D01*
G01Y669160D01*
G03X761470Y670410I-1250J0D01*
G01X724430D01*
G03X723180Y669160I0J-1250D01*
G01Y638790D01*
G02X721930Y637540I-1250J0D01*
G01X554020D01*
G02X552770Y638790I0J1250D01*
G01Y674710D01*
G03X551520Y675960I-1250J0D01*
G01X315610D01*
G02X314640Y676420I-1J1250D01*
G01X313240Y678140D01*
X313100Y678690D01*
X313160Y678960D01*
G03X311330Y689720I-14711J3034D01*
G02X311150Y690360I1069J646D01*
G37*
G36*
G01Y638790D02*
Y642840D01*
X312270Y643960D01*
Y661690D01*
G02X313520Y662940I1250J0D01*
G01X538500D01*
G02X539750Y661690I0J-1250D01*
G01Y638790D01*
G02X538500Y637540I-1250J0D01*
G01X312400D01*
G02X311150Y638790I0J1250D01*
G37*
G36*
G01Y740390D02*
Y744440D01*
X312270Y745560D01*
Y763290D01*
G02X313520Y764540I1250J0D01*
G01X538500D01*
G02X539750Y763290I0J-1250D01*
G01Y740390D01*
G02X538500Y739140I-1250J0D01*
G01X312400D01*
G02X311150Y740390I0J1250D01*
G37*
G36*
G01Y791960D02*
Y814090D01*
G02X312400Y815340I1250J0D01*
G01X576600D01*
G02X577850Y814090I0J-1250D01*
G01Y792160D01*
X577500Y791570D01*
X577190Y791410D01*
G03X580960Y776310I3770J-7079D01*
G01X641040D01*
G02X642160Y775620I2J-1250D01*
G01X647350Y765230D01*
G03X648470Y764540I1118J561D01*
G01X843010D01*
G02X844120Y763860I-3J-1250D01*
G01X845300Y761570D01*
X845240Y760870D01*
X845040Y760580D01*
G03Y743100I12210J-8740D01*
G01X845240Y742810D01*
X845300Y742110D01*
X844120Y739820D01*
G02X843010Y739140I-1113J570D01*
G01X636970D01*
G02X635720Y740390I0J1250D01*
G01Y770760D01*
G03X634470Y772010I-1250J0D01*
G01X597430D01*
G03X596180Y770760I0J-1250D01*
G01Y740390D01*
G02X594930Y739140I-1250J0D01*
G01X554020D01*
G02X552770Y740390I0J1250D01*
G01Y776310D01*
G03X551520Y777560I-1250J0D01*
G01X315610D01*
G02X314640Y778020I-1J1250D01*
G01X313240Y779740D01*
X313100Y780290D01*
X313160Y780560D01*
G03X311330Y791320I-14711J3034D01*
G02X311150Y791960I1069J646D01*
G37*
G36*
G01Y841990D02*
Y846040D01*
X312270Y847160D01*
Y864890D01*
G02X313520Y866140I1250J0D01*
G01X538500D01*
G02X539750Y864890I0J-1250D01*
G01Y841990D01*
G02X538500Y840740I-1250J0D01*
G01X312400D01*
G02X311150Y841990I0J1250D01*
G37*
G36*
G01Y893560D02*
Y915690D01*
G02X312400Y916940I1250J0D01*
G01X576600D01*
G02X577850Y915690I0J-1250D01*
G01Y867390D01*
G03X579100Y866140I1250J0D01*
G01X710430D01*
G03X711550Y866830I2J1251D01*
G01X716740Y877220D01*
G02X717860Y877910I1118J-560D01*
G01X768040D01*
G02X769160Y877220I2J-1250D01*
G01X774350Y866830D01*
G03X775470Y866140I1118J561D01*
G01X843010D01*
G02X844120Y865460I-3J-1250D01*
G01X845300Y863170D01*
X845240Y862470D01*
X845040Y862180D01*
G03Y844700I12210J-8740D01*
G01X845240Y844410D01*
X845300Y843710D01*
X844120Y841420D01*
G02X843010Y840740I-1113J570D01*
G01X763970D01*
G02X762720Y841990I0J1250D01*
G01Y872360D01*
G03X761470Y873610I-1250J0D01*
G01X724430D01*
G03X723180Y872360I0J-1250D01*
G01Y841990D01*
G02X721930Y840740I-1250J0D01*
G01X554020D01*
G02X552770Y841990I0J1250D01*
G01Y877910D01*
G03X551520Y879160I-1250J0D01*
G01X315610D01*
G02X314640Y879620I-1J1250D01*
G01X313240Y881340D01*
X313100Y881890D01*
X313160Y882160D01*
G03X311330Y892920I-14711J3034D01*
G02X311150Y893560I1069J646D01*
G37*
G36*
G01Y1203940D02*
Y1207990D01*
X312270Y1209110D01*
Y1226840D01*
G02X313520Y1228090I1250J0D01*
G01X538500D01*
G02X539750Y1226840I0J-1250D01*
G01Y1203940D01*
G02X538500Y1202690I-1250J0D01*
G01X312400D01*
G02X311150Y1203940I0J1250D01*
G37*
G36*
G01Y1255510D02*
Y1277640D01*
G02X312400Y1278890I1250J0D01*
G01X576600D01*
G02X577850Y1277640I0J-1250D01*
G01Y1255710D01*
X577500Y1255120D01*
X577190Y1254960D01*
G03X580960Y1239860I3770J-7079D01*
G01X641040D01*
G02X642160Y1239170I2J-1250D01*
G01X647350Y1228780D01*
G03X648470Y1228090I1118J561D01*
G01X843010D01*
G02X844120Y1227410I-3J-1250D01*
G01X845300Y1225120D01*
X845240Y1224420D01*
X845040Y1224130D01*
G03Y1206650I12210J-8740D01*
G01X845240Y1206360D01*
X845300Y1205660D01*
X844120Y1203370D01*
G02X843010Y1202690I-1113J570D01*
G01X636970D01*
G02X635720Y1203940I0J1250D01*
G01Y1234310D01*
G03X634470Y1235560I-1250J0D01*
G01X597430D01*
G03X596180Y1234310I0J-1250D01*
G01Y1203940D01*
G02X594930Y1202690I-1250J0D01*
G01X554020D01*
G02X552770Y1203940I0J1250D01*
G01Y1239860D01*
G03X551520Y1241110I-1250J0D01*
G01X315610D01*
G02X314640Y1241570I-1J1250D01*
G01X313240Y1243290D01*
X313100Y1243840D01*
X313160Y1244110D01*
G03X311330Y1254870I-14711J3034D01*
G02X311150Y1255510I1069J646D01*
G37*
G36*
G01X552770Y1305540D02*
Y1341460D01*
G03X551520Y1342710I-1250J0D01*
G01X315610D01*
G02X314640Y1343170I-1J1250D01*
G01X313240Y1344890D01*
X313100Y1345440D01*
X313160Y1345710D01*
G03X311330Y1356470I-14711J3034D01*
G02X311150Y1357110I1069J646D01*
G01Y1379240D01*
G02X312400Y1380490I1250J0D01*
G01X576600D01*
G02X577850Y1379240I0J-1250D01*
G01Y1330940D01*
G03X579100Y1329690I1250J0D01*
G01X710430D01*
G03X711550Y1330380I2J1251D01*
G01X716740Y1340770D01*
G02X717860Y1341460I1118J-560D01*
G01X768040D01*
G02X769160Y1340770I2J-1250D01*
G01X774350Y1330380D01*
G03X775470Y1329690I1118J561D01*
G01X843010D01*
G02X844120Y1329010I-3J-1250D01*
G01X845300Y1326720D01*
X845240Y1326020D01*
X845040Y1325730D01*
G03Y1308250I12210J-8740D01*
G01X845240Y1307960D01*
X845300Y1307260D01*
X844120Y1304970D01*
G02X843010Y1304290I-1113J570D01*
G01X763970D01*
G02X762720Y1305540I0J1250D01*
G01Y1335910D01*
G03X761470Y1337160I-1250J0D01*
G01X724430D01*
G03X723180Y1335910I0J-1250D01*
G01Y1305540D01*
G02X721930Y1304290I-1250J0D01*
G01X554020D01*
G02X552770Y1305540I0J1250D01*
G37*
G36*
G01X311150D02*
Y1309590D01*
X312270Y1310710D01*
Y1328440D01*
G02X313520Y1329690I1250J0D01*
G01X538500D01*
G02X539750Y1328440I0J-1250D01*
G01Y1305540D01*
G02X538500Y1304290I-1250J0D01*
G01X312400D01*
G02X311150Y1305540I0J1250D01*
G37*
G36*
G01X577850Y1480840D02*
Y1458910D01*
X577500Y1458330D01*
X577190Y1458160D01*
G03X580950Y1443060I3760J-7082D01*
G01X641040D01*
G02X642160Y1442370I2J-1250D01*
G01X647350Y1431980D01*
G03X648470Y1431290I1118J561D01*
G01X843010D01*
G02X844120Y1430610I-3J-1250D01*
G01X845300Y1428320D01*
X845240Y1427620D01*
X845040Y1427330D01*
G03Y1409850I12210J-8740D01*
G01X845240Y1409560D01*
X845300Y1408860D01*
X844120Y1406570D01*
G02X843010Y1405890I-1113J570D01*
G01X636970D01*
G02X635720Y1407140I0J1250D01*
G01Y1437510D01*
G03X634470Y1438760I-1250J0D01*
G01X597430D01*
G03X596180Y1437510I0J-1250D01*
G01Y1407140D01*
G02X594930Y1405890I-1250J0D01*
G01X554020D01*
G02X552770Y1407140I0J1250D01*
G01Y1443060D01*
G03X551520Y1444310I-1250J0D01*
G01X315610D01*
G02X314640Y1444770I-1J1250D01*
G01X313240Y1446490D01*
X313100Y1447040D01*
X313160Y1447310D01*
G03X311330Y1458070I-14711J3034D01*
G02X311150Y1458710I1069J646D01*
G01Y1480840D01*
G02X312400Y1482090I1250J0D01*
G01X576600D01*
G02X577850Y1480840I0J-1250D01*
G37*
G36*
G01X311150Y1407140D02*
Y1411190D01*
X312270Y1412310D01*
Y1430040D01*
G02X313520Y1431290I1250J0D01*
G01X538500D01*
G02X539750Y1430040I0J-1250D01*
G01Y1407140D01*
G02X538500Y1405890I-1250J0D01*
G01X312400D01*
G02X311150Y1407140I0J1250D01*
G37*
G36*
G01Y1508740D02*
Y1512790D01*
X312270Y1513910D01*
Y1531640D01*
G02X313520Y1532890I1250J0D01*
G01X538500D01*
G02X539750Y1531640I0J-1250D01*
G01Y1508740D01*
G02X538500Y1507490I-1250J0D01*
G01X312400D01*
G02X311150Y1508740I0J1250D01*
G37*
G36*
G01X552770D02*
Y1544660D01*
G03X551520Y1545910I-1250J0D01*
G01X315610D01*
G02X314640Y1546370I-1J1250D01*
G01X313240Y1548090D01*
X313100Y1548640D01*
X313160Y1548910D01*
G03X311330Y1559670I-14711J3034D01*
G02X311150Y1560310I1069J646D01*
G01Y1582440D01*
G02X312400Y1583690I1250J0D01*
G01X576600D01*
G02X577850Y1582440I0J-1250D01*
G01Y1534140D01*
G03X579100Y1532890I1250J0D01*
G01X710430D01*
G03X711550Y1533580I2J1251D01*
G01X716730Y1543960D01*
G02X717850Y1544650I1118J-561D01*
G01X768050D01*
G02X769170Y1543960I2J-1251D01*
G01X774350Y1533580D01*
G03X775470Y1532890I1118J561D01*
G01X843010D01*
G02X844120Y1532210I-3J-1250D01*
G01X845300Y1529920D01*
X845240Y1529220D01*
X845040Y1528930D01*
G03Y1511450I12210J-8740D01*
G01X845240Y1511160D01*
X845300Y1510460D01*
X844120Y1508170D01*
G02X843010Y1507490I-1113J570D01*
G01X763970D01*
G02X762720Y1508740I0J1250D01*
G01Y1539110D01*
G03X761470Y1540360I-1250J0D01*
G01X724430D01*
G03X723180Y1539110I0J-1250D01*
G01Y1508740D01*
G02X721930Y1507490I-1250J0D01*
G01X554020D01*
G02X552770Y1508740I0J1250D01*
G37*
G36*
G01X577850Y1684040D02*
Y1662120D01*
X577500Y1661540D01*
X577190Y1661370D01*
G03X580950Y1646270I3760J-7082D01*
G01X641040D01*
G02X642160Y1645580I2J-1251D01*
G01X647350Y1635180D01*
G03X648470Y1634490I1118J561D01*
G01X843010D01*
G02X844120Y1633810I-3J-1250D01*
G01X845300Y1631520D01*
X845240Y1630820D01*
X845040Y1630530D01*
G03Y1613050I12210J-8740D01*
G01X845240Y1612760D01*
X845300Y1612060D01*
X844120Y1609770D01*
G02X843010Y1609090I-1113J570D01*
G01X636970D01*
G02X635720Y1610340I0J1250D01*
G01Y1640710D01*
G03X634470Y1641960I-1250J0D01*
G01X597430D01*
G03X596180Y1640710I0J-1250D01*
G01Y1610340D01*
G02X594930Y1609090I-1250J0D01*
G01X554020D01*
G02X552770Y1610340I0J1250D01*
G01Y1646260D01*
G03X551520Y1647510I-1250J0D01*
G01X315610D01*
G02X314640Y1647970I-1J1250D01*
G01X313240Y1649690D01*
X313100Y1650240D01*
X313160Y1650510D01*
G03X311330Y1661270I-14711J3034D01*
G02X311150Y1661910I1069J646D01*
G01Y1684040D01*
G02X312400Y1685290I1250J0D01*
G01X576600D01*
G02X577850Y1684040I0J-1250D01*
G37*
G36*
G01X311150Y1610340D02*
Y1614390D01*
X312270Y1615510D01*
Y1633240D01*
G02X313520Y1634490I1250J0D01*
G01X538500D01*
G02X539750Y1633240I0J-1250D01*
G01Y1610340D01*
G02X538500Y1609090I-1250J0D01*
G01X312400D01*
G02X311150Y1610340I0J1250D01*
G37*
G36*
G01X552770Y1711940D02*
Y1747860D01*
G03X551520Y1749110I-1250J0D01*
G01X315610D01*
G02X314640Y1749570I-1J1250D01*
G01X313240Y1751290D01*
X313100Y1751840D01*
X313160Y1752110D01*
G03X311330Y1762870I-14711J3034D01*
G02X311150Y1763510I1069J646D01*
G01Y1785640D01*
G02X312400Y1786890I1250J0D01*
G01X576600D01*
G02X577850Y1785640I0J-1250D01*
G01Y1737340D01*
G03X579100Y1736090I1250J0D01*
G01X710430D01*
G03X711550Y1736780I2J1251D01*
G01X716740Y1747180D01*
G02X717860Y1747870I1118J-561D01*
G01X768040D01*
G02X769160Y1747180I2J-1251D01*
G01X774350Y1736780D01*
G03X775470Y1736090I1118J561D01*
G01X843010D01*
G02X844120Y1735410I-3J-1250D01*
G01X845300Y1733120D01*
X845240Y1732420D01*
X845040Y1732130D01*
G03Y1714650I12210J-8740D01*
G01X845240Y1714360D01*
X845300Y1713660D01*
X844120Y1711370D01*
G02X843010Y1710690I-1113J570D01*
G01X763970D01*
G02X762720Y1711940I0J1250D01*
G01Y1742310D01*
G03X761470Y1743560I-1250J0D01*
G01X724430D01*
G03X723180Y1742310I0J-1250D01*
G01Y1711940D01*
G02X721930Y1710690I-1250J0D01*
G01X554020D01*
G02X552770Y1711940I0J1250D01*
G37*
G36*
G01X311150D02*
Y1715990D01*
X312270Y1717110D01*
Y1734840D01*
G02X313520Y1736090I1250J0D01*
G01X538500D01*
G02X539750Y1734840I0J-1250D01*
G01Y1711940D01*
G02X538500Y1710690I-1250J0D01*
G01X312400D01*
G02X311150Y1711940I0J1250D01*
G37*
G36*
G01Y1813540D02*
Y1817590D01*
X312270Y1818710D01*
Y1836440D01*
G02X313520Y1837690I1250J0D01*
G01X538500D01*
G02X539750Y1836440I0J-1250D01*
G01Y1813540D01*
G02X538500Y1812290I-1250J0D01*
G01X312400D01*
G02X311150Y1813540I0J1250D01*
G37*
G36*
G01X577850Y1887240D02*
Y1865320D01*
X577500Y1864740D01*
X577190Y1864570D01*
G03X580950Y1849470I3760J-7082D01*
G01X641040D01*
G02X642160Y1848780I2J-1251D01*
G01X647350Y1838380D01*
G03X648470Y1837690I1118J561D01*
G01X843010D01*
G02X844120Y1837010I-3J-1250D01*
G01X845300Y1834720D01*
X845240Y1834020D01*
X845040Y1833730D01*
G03Y1816250I12210J-8740D01*
G01X845240Y1815960D01*
X845300Y1815260D01*
X844120Y1812970D01*
G02X843010Y1812290I-1113J570D01*
G01X636970D01*
G02X635720Y1813540I0J1250D01*
G01Y1843910D01*
G03X634470Y1845160I-1250J0D01*
G01X597430D01*
G03X596180Y1843910I0J-1250D01*
G01Y1813540D01*
G02X594930Y1812290I-1250J0D01*
G01X554020D01*
G02X552770Y1813540I0J1250D01*
G01Y1849460D01*
G03X551520Y1850710I-1250J0D01*
G01X315610D01*
G02X314640Y1851170I-1J1250D01*
G01X313240Y1852890D01*
X313100Y1853440D01*
X313160Y1853710D01*
G03X311330Y1864470I-14711J3034D01*
G02X311150Y1865110I1069J646D01*
G01Y1887240D01*
G02X312400Y1888490I1250J0D01*
G01X576600D01*
G02X577850Y1887240I0J-1250D01*
G37*
G36*
G01X552770Y1915890D02*
Y1950310D01*
G03X550770Y1952310I-2000J0D01*
G01X317360D01*
G02X315870Y1952970I-5J2002D01*
G01X313600Y1955510D01*
X313340Y1956310D01*
X313380Y1956740D01*
G03X311420Y1965910I-14932J1603D01*
G02X311150Y1966920I1731J1004D01*
G01Y1988090D01*
G02X313150Y1990090I2000J0D01*
G01X575850D01*
G02X577850Y1988090I0J-2000D01*
G01Y1941290D01*
G03X579850Y1939290I2000J0D01*
G01X709960D01*
G03X711750Y1940400I0J1999D01*
G01X716540Y1949960D01*
G02X718330Y1951070I1790J-889D01*
G01X767570D01*
G02X769360Y1949960I0J-1999D01*
G01X774150Y1940400D01*
G03X775940Y1939290I1790J889D01*
G01X840340D01*
G02X842040Y1938330I-8J-1999D01*
G01X844100Y1934960D01*
X844140Y1933930D01*
X843890Y1933460D01*
G03Y1919720I13360J-6870D01*
G01X844140Y1919250D01*
X844100Y1918220D01*
X842040Y1914850D01*
G02X840340Y1913890I-1708J1039D01*
G01X764720D01*
G02X762720Y1915890I0J2000D01*
G01Y1944760D01*
G03X760720Y1946760I-2000J0D01*
G01X725180D01*
G03X723180Y1944760I0J-2000D01*
G01Y1915890D01*
G02X721180Y1913890I-2000J0D01*
G01X554770D01*
G02X552770Y1915890I0J2000D01*
G37*
G36*
G01X311150Y1915140D02*
Y1919190D01*
X312270Y1920310D01*
Y1938040D01*
G02X313520Y1939290I1250J0D01*
G01X538500D01*
G02X539750Y1938040I0J-1250D01*
G01Y1915140D01*
G02X538500Y1913890I-1250J0D01*
G01X312400D01*
G02X311150Y1915140I0J1250D01*
G37*
G36*
G01X656350Y180660D02*
G03X650960Y182750I-5398J-5927D01*
G01X604500D01*
G02X603250Y184000I0J1250D01*
G01Y204490D01*
G02X604500Y205740I1250J0D01*
G01X843010D01*
G02X844120Y205060I-3J-1250D01*
G01X845300Y202770D01*
X845240Y202070D01*
X845040Y201780D01*
G03Y184300I12210J-8740D01*
G01X845240Y184010D01*
X845300Y183310D01*
X844120Y181020D01*
G02X843010Y180340I-1113J570D01*
G01X657190D01*
G02X656350Y180660I-4J1252D01*
G37*
G36*
G01X603250Y283190D02*
Y306090D01*
G02X604500Y307340I1250J0D01*
G01X843010D01*
G02X844120Y306660I-3J-1250D01*
G01X845300Y304370D01*
X845240Y303670D01*
X845040Y303380D01*
G03Y285900I12210J-8740D01*
G01X845240Y285610D01*
X845300Y284910D01*
X844120Y282620D01*
G02X843010Y281940I-1113J570D01*
G01X784190D01*
G02X783350Y282260I-4J1252D01*
G03X777960Y284350I-5398J-5927D01*
G01X707960D01*
G03X702570Y282260I8J-8017D01*
G02X701730Y281940I-836J932D01*
G01X604500D01*
G02X603250Y283190I0J1250D01*
G37*
G36*
G01X656350Y383860D02*
G03X650960Y385950I-5398J-5927D01*
G01X604500D01*
G02X603250Y387200I0J1250D01*
G01Y407690D01*
G02X604500Y408940I1250J0D01*
G01X843010D01*
G02X844120Y408260I-3J-1250D01*
G01X845300Y405970D01*
X845240Y405270D01*
X845040Y404980D01*
G03Y387500I12210J-8740D01*
G01X845240Y387210D01*
X845300Y386510D01*
X844120Y384220D01*
G02X843010Y383540I-1113J570D01*
G01X657190D01*
G02X656350Y383860I-4J1252D01*
G37*
G36*
G01X603250Y486390D02*
Y509290D01*
G02X604500Y510540I1250J0D01*
G01X843010D01*
G02X844120Y509860I-3J-1250D01*
G01X845300Y507570D01*
X845240Y506870D01*
X845040Y506580D01*
G03Y489100I12210J-8740D01*
G01X845240Y488810D01*
X845300Y488110D01*
X844120Y485820D01*
G02X843010Y485140I-1113J570D01*
G01X787920D01*
G02X787030Y485510I-2J1250D01*
G01X781420Y491120D01*
G03X780530Y491490I-888J-880D01*
G01X705370D01*
G03X704480Y491120I-2J-1250D01*
G01X698870Y485510D01*
G02X697980Y485140I-888J880D01*
G01X604500D01*
G02X603250Y486390I0J1250D01*
G37*
G36*
G01X656350Y587060D02*
G03X650960Y589150I-5398J-5927D01*
G01X604500D01*
G02X603250Y590400I0J1250D01*
G01Y610890D01*
G02X604500Y612140I1250J0D01*
G01X843010D01*
G02X844120Y611460I-3J-1250D01*
G01X845300Y609170D01*
X845240Y608470D01*
X845040Y608180D01*
G03Y590700I12210J-8740D01*
G01X845240Y590410D01*
X845300Y589710D01*
X844120Y587420D01*
G02X843010Y586740I-1113J570D01*
G01X657190D01*
G02X656350Y587060I-4J1252D01*
G37*
G36*
G01X603250Y689590D02*
Y712490D01*
G02X604500Y713740I1250J0D01*
G01X843010D01*
G02X844120Y713060I-3J-1250D01*
G01X845300Y710770D01*
X845240Y710070D01*
X845040Y709780D01*
G03Y692300I12210J-8740D01*
G01X845240Y692010D01*
X845300Y691310D01*
X844120Y689020D01*
G02X843010Y688340I-1113J570D01*
G01X784190D01*
G02X783350Y688660I-4J1252D01*
G03X777960Y690750I-5398J-5927D01*
G01X707960D01*
G03X702570Y688660I8J-8017D01*
G02X701730Y688340I-836J932D01*
G01X604500D01*
G02X603250Y689590I0J1250D01*
G37*
G36*
G01X656350Y790260D02*
G03X650960Y792350I-5398J-5927D01*
G01X604500D01*
G02X603250Y793600I0J1250D01*
G01Y814090D01*
G02X604500Y815340I1250J0D01*
G01X843010D01*
G02X844120Y814660I-3J-1250D01*
G01X845300Y812370D01*
X845240Y811670D01*
X845040Y811380D01*
G03Y793900I12210J-8740D01*
G01X845240Y793610D01*
X845300Y792910D01*
X844120Y790620D01*
G02X843010Y789940I-1113J570D01*
G01X657190D01*
G02X656350Y790260I-4J1252D01*
G37*
G36*
G01X603250Y892790D02*
Y915690D01*
G02X604500Y916940I1250J0D01*
G01X840980D01*
G02X842230Y915690I0J-1250D01*
G01Y892790D01*
G02X840980Y891540I-1250J0D01*
G01X784190D01*
G02X783350Y891860I-4J1252D01*
G03X777960Y893950I-5398J-5927D01*
G01X707960D01*
G03X702570Y891860I8J-8017D01*
G02X701730Y891540I-836J932D01*
G01X604500D01*
G02X603250Y892790I0J1250D01*
G37*
G36*
G01X656350Y1253810D02*
G03X650960Y1255900I-5398J-5927D01*
G01X604500D01*
G02X603250Y1257150I0J1250D01*
G01Y1277640D01*
G02X604500Y1278890I1250J0D01*
G01X843010D01*
G02X844120Y1278210I-3J-1250D01*
G01X845300Y1275920D01*
X845240Y1275220D01*
X845040Y1274930D01*
G03Y1257450I12210J-8740D01*
G01X845240Y1257160D01*
X845300Y1256460D01*
X844120Y1254170D01*
G02X843010Y1253490I-1113J570D01*
G01X657190D01*
G02X656350Y1253810I-4J1252D01*
G37*
G36*
G01X603250Y1356340D02*
Y1379240D01*
G02X604500Y1380490I1250J0D01*
G01X843010D01*
G02X844120Y1379810I-3J-1250D01*
G01X845300Y1377520D01*
X845240Y1376820D01*
X845040Y1376530D01*
G03Y1359050I12210J-8740D01*
G01X845240Y1358760D01*
X845300Y1358060D01*
X844120Y1355770D01*
G02X843010Y1355090I-1113J570D01*
G01X784190D01*
G02X783350Y1355410I-4J1252D01*
G03X777960Y1357500I-5398J-5927D01*
G01X707960D01*
G03X702570Y1355410I8J-8017D01*
G02X701730Y1355090I-836J932D01*
G01X604500D01*
G02X603250Y1356340I0J1250D01*
G37*
G36*
G01X656340Y1457010D02*
G03X650950Y1459100I-5398J-5927D01*
G01X604500D01*
G02X603250Y1460350I0J1250D01*
G01Y1480840D01*
G02X604500Y1482090I1250J0D01*
G01X843010D01*
G02X844120Y1481410I-3J-1250D01*
G01X845300Y1479120D01*
X845240Y1478420D01*
X845040Y1478130D01*
G03Y1460650I12210J-8740D01*
G01X845240Y1460360D01*
X845300Y1459660D01*
X844120Y1457370D01*
G02X843010Y1456690I-1113J570D01*
G01X657180D01*
G02X656340Y1457010I-4J1252D01*
G37*
G36*
G01X603250Y1559540D02*
Y1582440D01*
G02X604500Y1583690I1250J0D01*
G01X843010D01*
G02X844120Y1583010I-3J-1250D01*
G01X845300Y1580720D01*
X845240Y1580020D01*
X845040Y1579730D01*
G03Y1562250I12210J-8740D01*
G01X845240Y1561960D01*
X845300Y1561260D01*
X844120Y1558970D01*
G02X843010Y1558290I-1113J570D01*
G01X784190D01*
G02X783350Y1558610I-4J1252D01*
G03X777970Y1560690I-5387J-5937D01*
G01X707970D01*
G03X702590Y1558610I7J-8017D01*
G02X701750Y1558290I-836J932D01*
G01X604500D01*
G02X603250Y1559540I0J1250D01*
G37*
G36*
G01X656350Y1660220D02*
G03X650950Y1662310I-5400J-5931D01*
G01X604500D01*
G02X603250Y1663560I0J1250D01*
G01Y1684040D01*
G02X604500Y1685290I1250J0D01*
G01X843010D01*
G02X844120Y1684610I-3J-1250D01*
G01X845300Y1682320D01*
X845240Y1681620D01*
X845040Y1681330D01*
G03Y1663850I12210J-8740D01*
G01X845240Y1663560D01*
X845300Y1662860D01*
X844120Y1660570D01*
G02X843010Y1659890I-1113J570D01*
G01X657200D01*
G02X656350Y1660220I-4J1250D01*
G37*
G36*
G01X603250Y1762740D02*
Y1785640D01*
G02X604500Y1786890I1250J0D01*
G01X843010D01*
G02X844120Y1786210I-3J-1250D01*
G01X845300Y1783920D01*
X845240Y1783220D01*
X845040Y1782930D01*
G03Y1765450I12210J-8740D01*
G01X845240Y1765160D01*
X845300Y1764460D01*
X844120Y1762170D01*
G02X843010Y1761490I-1113J570D01*
G01X784200D01*
G02X783350Y1761820I-4J1250D01*
G03X777950Y1763910I-5400J-5931D01*
G01X707950D01*
G03X702550Y1761820I0J-8021D01*
G02X701700Y1761490I-846J920D01*
G01X604500D01*
G02X603250Y1762740I0J1250D01*
G37*
G36*
G01X656350Y1863420D02*
G03X650950Y1865510I-5400J-5931D01*
G01X604500D01*
G02X603250Y1866760I0J1250D01*
G01Y1887240D01*
G02X604500Y1888490I1250J0D01*
G01X843010D01*
G02X844120Y1887810I-3J-1250D01*
G01X845300Y1885520D01*
X845240Y1884820D01*
X845040Y1884530D01*
G03Y1867050I12210J-8740D01*
G01X845240Y1866760D01*
X845300Y1866060D01*
X844120Y1863770D01*
G02X843010Y1863090I-1113J570D01*
G01X657200D01*
G02X656350Y1863420I-4J1250D01*
G37*
G36*
G01X603250Y1966690D02*
Y1988090D01*
G02X605250Y1990090I2000J0D01*
G01X840230D01*
G02X842230Y1988090I0J-2000D01*
G01Y1966690D01*
G02X840230Y1964690I-2000J0D01*
G01X784480D01*
G02X783180Y1965170I0J2000D01*
G03X777950Y1967110I-5230J-6080D01*
G01X707950D01*
G03X702720Y1965170I0J-8020D01*
G02X701420Y1964690I-1300J1520D01*
G01X605250D01*
G02X603250Y1966690I0J2000D01*
G37*
%LPC*%
G75*
G36*
G01X113720Y42570D02*
X118970D01*
G02X120220Y41320I0J-1250D01*
G01Y26780D01*
G02X118970Y25530I-1250J0D01*
G01X96930D01*
G02X95680Y26780I0J1250D01*
G01Y41320D01*
G02X96930Y42570I1250J0D01*
G01X102180D01*
G03X103430Y43820I0J1250D01*
G01Y1005510D01*
G03X101820Y1009380I-5478J-9D01*
G01X94980Y1016220D01*
G02X90730Y1026480I10272J10265D01*
G01Y1067160D01*
X90550Y1067600D01*
X90430Y1067720D01*
Y1068580D01*
G03X89180Y1069830I-1250J0D01*
G01X87180D01*
G02X85930Y1071080I0J1250D01*
G01Y1082140D01*
X86660Y1082870D01*
X86930D01*
Y1088100D01*
X86200Y1088830D01*
X85930D01*
Y1099240D01*
G03X85710Y1099950I-1250J2D01*
G02X83440Y1104860I13196J9081D01*
G01X83330Y1105270D01*
X82660Y1105780D01*
X73130D01*
G02X71880Y1107030I0J1250D01*
G01Y1120760D01*
G03X70630Y1122010I-1250J0D01*
G01X4130D01*
G03X3540Y1121810I4J-982D01*
G01X-9830Y1108440D01*
G03X-10030Y1107850I782J-594D01*
G01Y1039310D01*
G03X-9650Y1038420I1249J7D01*
G02X-5530Y1028480I-9399J-9720D01*
G01Y1028220D01*
X-5350Y1027760D01*
X3450Y1018960D01*
G02X9020Y1005510I-13451J-13449D01*
G01Y997320D01*
G03X10270Y996070I1250J0D01*
G01X15770D01*
G02X17020Y994820I0J-1250D01*
G01Y993980D01*
X17570Y993300D01*
X18010Y993210D01*
G02X22640Y991450I-3488J-16147D01*
G03X23050Y991310I603J1096D01*
G02X23820Y991140I-1232J-7411D01*
G01X28010Y990000D01*
X28020D01*
G02X34750Y983910I-2616J-9654D01*
G01X34840Y983670D01*
X37650Y980860D01*
G02X43220Y967410I-13451J-13449D01*
G01Y935770D01*
G03X44470Y934520I1250J0D01*
G01X46720D01*
G02X47970Y933270I0J-1250D01*
G01Y908230D01*
G02X46720Y906980I-1250J0D01*
G01X44470D01*
G03X43220Y905730I0J-1250D01*
G01Y905600D01*
G02X37650Y892150I-19021J-1D01*
G01X34620Y889120D01*
G03X34420Y888530I782J-594D01*
G01Y816760D01*
G03X35670Y815510I1250J0D01*
G01X44450D01*
G02X57320Y802640I0J-12870D01*
G01Y797210D01*
G03X57790Y796230I1252J-2D01*
G02X41970Y780410I-6990J-8830D01*
G03X40990Y780880I-978J-782D01*
G01X35210D01*
G03X34230Y780410I-2J-1252D01*
G02X16570I-8830J6990D01*
G03X15590Y780880I-978J-782D01*
G01X9810D01*
G03X8830Y780410I-2J-1252D01*
G02X-6990Y796230I-8830J6990D01*
G03X-6520Y797210I-782J978D01*
G01Y802640D01*
G02X6350Y815510I12870J0D01*
G01X15130D01*
G03X16380Y816760I0J1250D01*
G01Y888520D01*
G02X21950Y901970I19021J1D01*
G01X24980Y905000D01*
G03X25180Y905590I-782J594D01*
G01Y905730D01*
G03X23930Y906980I-1250J0D01*
G01X21680D01*
G02X20430Y908230I0J1250D01*
G01Y933270D01*
G02X21680Y934520I1250J0D01*
G01X23930D01*
G03X25180Y935770I0J1250D01*
G01Y967420D01*
G03X24980Y968010I-982J-4D01*
G01X22080Y970910D01*
X21840Y971000D01*
G02X15910Y977180I3559J9350D01*
G01X15780Y977560D01*
X15140Y978030D01*
X-15770D01*
G02X-17020Y979280I0J1250D01*
G01Y994820D01*
G02X-15770Y996070I1250J0D01*
G01X-10270D01*
G03X-9020Y997320I0J1250D01*
G01Y1005520D01*
G03X-9220Y1006110I-982J-4D01*
G01X-18110Y1015000D01*
X-18570Y1015180D01*
X-18830D01*
G02X-28450Y1038420I-222J13519D01*
G03X-28070Y1039310I-869J897D01*
G01Y1107840D01*
G02X-22500Y1121290I19021J1D01*
G01X-9310Y1134480D01*
G02X4140Y1140050I13449J-13451D01*
G01X71630D01*
G03X72880Y1141300I0J1250D01*
G01Y1152570D01*
G02X74130Y1153820I1250J0D01*
G01X103670D01*
G02X104920Y1152570I0J-1250D01*
G01Y1141300D01*
G03X106170Y1140050I1250J0D01*
G01X107130D01*
G03X108380Y1141300I0J1250D01*
G01Y1152570D01*
G02X109630Y1153820I1250J0D01*
G01X114880D01*
G03X116130Y1155070I0J1250D01*
G01Y1235340D01*
G02X125400Y1245290I9975J0D01*
G03X126200Y1245660I-91J1246D01*
G01X126720Y1246200D01*
G03X127080Y1247070I-888J877D01*
G01Y1248060D01*
G02X128330Y1249310I1250J0D01*
G01X148480D01*
G03X149730Y1250560I0J1250D01*
G01Y1256420D01*
G03X148480Y1257670I-1250J0D01*
G01X128330D01*
G02X127080Y1258920I0J1250D01*
G01Y1259910D01*
G03X126720Y1260780I-1248J-7D01*
G01X126200Y1261320D01*
G03X125400Y1261690I-891J-876D01*
G02X116130Y1271640I705J9950D01*
G01Y1336940D01*
G02X125400Y1346890I9975J0D01*
G03X126200Y1347260I-91J1246D01*
G01X126720Y1347800D01*
G03X127080Y1348670I-888J877D01*
G01Y1349660D01*
G02X128330Y1350910I1250J0D01*
G01X148480D01*
G03X149730Y1352160I0J1250D01*
G01Y1358020D01*
G03X148480Y1359270I-1250J0D01*
G01X128330D01*
G02X127080Y1360520I0J1250D01*
G01Y1361510D01*
G03X126720Y1362380I-1248J-7D01*
G01X126200Y1362920D01*
G03X125400Y1363290I-891J-876D01*
G02X116130Y1373240I705J9950D01*
G01Y1438540D01*
G02X125400Y1448490I9975J0D01*
G03X126200Y1448860I-91J1246D01*
G01X126720Y1449400D01*
G03X127080Y1450270I-888J877D01*
G01Y1451260D01*
G02X128330Y1452510I1250J0D01*
G01X148480D01*
G03X149730Y1453760I0J1250D01*
G01Y1459620D01*
G03X148480Y1460870I-1250J0D01*
G01X128330D01*
G02X127080Y1462120I0J1250D01*
G01Y1463110D01*
G03X126720Y1463980I-1248J-7D01*
G01X126200Y1464520D01*
G03X125400Y1464890I-891J-876D01*
G02X116130Y1474840I705J9950D01*
G01Y1540140D01*
G02X125400Y1550090I9975J0D01*
G03X126200Y1550460I-91J1246D01*
G01X126720Y1551000D01*
G03X127080Y1551870I-888J877D01*
G01Y1552860D01*
G02X128330Y1554110I1250J0D01*
G01X148480D01*
G03X149730Y1555360I0J1250D01*
G01Y1561220D01*
G03X148480Y1562470I-1250J0D01*
G01X128330D01*
G02X127080Y1563720I0J1250D01*
G01Y1564710D01*
G03X126720Y1565580I-1248J-7D01*
G01X126200Y1566120D01*
G03X125400Y1566490I-891J-876D01*
G02X116130Y1576440I705J9950D01*
G01Y1641740D01*
G02X125400Y1651690I9975J0D01*
G03X126200Y1652060I-91J1246D01*
G01X126720Y1652600D01*
G03X127080Y1653470I-888J877D01*
G01Y1654460D01*
G02X128330Y1655710I1250J0D01*
G01X148480D01*
G03X149730Y1656960I0J1250D01*
G01Y1662820D01*
G03X148480Y1664070I-1250J0D01*
G01X128330D01*
G02X127080Y1665320I0J1250D01*
G01Y1666310D01*
G03X126720Y1667180I-1248J-7D01*
G01X126200Y1667720D01*
G03X125400Y1668090I-891J-876D01*
G02X116130Y1678040I705J9950D01*
G01Y1743340D01*
G02X125400Y1753290I9975J0D01*
G03X126200Y1753660I-91J1246D01*
G01X126720Y1754200D01*
G03X127080Y1755070I-888J877D01*
G01Y1756060D01*
G02X128330Y1757310I1250J0D01*
G01X148480D01*
G03X149730Y1758560I0J1250D01*
G01Y1764420D01*
G03X148480Y1765670I-1250J0D01*
G01X128330D01*
G02X127080Y1766920I0J1250D01*
G01Y1767910D01*
G03X126720Y1768780I-1248J-7D01*
G01X126200Y1769320D01*
G03X125400Y1769690I-891J-876D01*
G02X116130Y1779640I705J9950D01*
G01Y1844940D01*
G02X125400Y1854890I9975J0D01*
G03X126200Y1855260I-91J1246D01*
G01X126720Y1855800D01*
G03X127080Y1856670I-888J877D01*
G01Y1857660D01*
G02X128330Y1858910I1250J0D01*
G01X148480D01*
G03X149730Y1860160I0J1250D01*
G01Y1866020D01*
G03X148480Y1867270I-1250J0D01*
G01X128330D01*
G02X127080Y1868520I0J1250D01*
G01Y1869510D01*
G03X126720Y1870380I-1248J-7D01*
G01X126200Y1870920D01*
G03X125400Y1871290I-891J-876D01*
G02X116130Y1881240I705J9950D01*
G01Y1946540D01*
G02X125400Y1956490I9975J0D01*
G03X126200Y1956860I-91J1246D01*
G01X126720Y1957400D01*
G03X127080Y1958270I-888J877D01*
G01Y1959260D01*
G02X128330Y1960510I1250J0D01*
G01X148480D01*
G03X149730Y1961760I0J1250D01*
G01Y1967620D01*
G03X148480Y1968870I-1250J0D01*
G01X128330D01*
G02X127080Y1970120I0J1250D01*
G01Y1971620D01*
G03X125830Y1972870I-1250J0D01*
G01X118680D01*
G03X117790Y1972500I-2J-1250D01*
G01X115990Y1970700D01*
G02X115100Y1970330I-888J880D01*
G01X114020D01*
G03X112770Y1969080I0J-1250D01*
G01Y1946530D01*
G02X111520Y1945280I-1250J0D01*
G01X95460D01*
X94730Y1946010D01*
Y1946280D01*
X79980D01*
G02X78730Y1947530I0J1250D01*
G01Y1963600D01*
X78000Y1964330D01*
X77730D01*
Y1984120D01*
G02X78980Y1985370I1250J0D01*
G01X79480D01*
G03X80730Y1986620I0J1250D01*
G01Y1990070D01*
X80630Y1990310D01*
G02X88900Y2002920I8270J3593D01*
G01X158750D01*
G02X167770Y1993900I0J-9020D01*
G01Y1921840D01*
G02X162200Y1908390I-19021J-1D01*
G01X161620Y1907810D01*
G03X161420Y1907220I782J-594D01*
G01Y1902780D01*
G03X161620Y1902190I982J4D01*
G01X165130Y1898680D01*
G02X167770Y1892300I-6389J-6380D01*
G01Y1820240D01*
G02X162200Y1806790I-19021J-1D01*
G01X161620Y1806210D01*
G03X161420Y1805620I782J-594D01*
G01Y1801180D01*
G03X161620Y1800590I982J4D01*
G01X165130Y1797080D01*
G02X167770Y1790700I-6389J-6380D01*
G01Y1718640D01*
G02X162200Y1705190I-19021J-1D01*
G01X161620Y1704610D01*
G03X161420Y1704020I782J-594D01*
G01Y1699580D01*
G03X161620Y1698990I982J4D01*
G01X165130Y1695480D01*
G02X167770Y1689100I-6389J-6380D01*
G01Y1617040D01*
G02X162200Y1603590I-19021J-1D01*
G01X161620Y1603010D01*
G03X161420Y1602420I782J-594D01*
G01Y1597980D01*
G03X161620Y1597390I982J4D01*
G01X165130Y1593880D01*
G02X167770Y1587500I-6389J-6380D01*
G01Y1515440D01*
G02X162200Y1501990I-19021J-1D01*
G01X161620Y1501410D01*
G03X161420Y1500820I782J-594D01*
G01Y1496380D01*
G03X161620Y1495790I982J4D01*
G01X165130Y1492280D01*
G02X167770Y1485900I-6389J-6380D01*
G01Y1413840D01*
G02X162200Y1400390I-19021J-1D01*
G01X161620Y1399810D01*
G03X161420Y1399220I782J-594D01*
G01Y1394780D01*
G03X161620Y1394190I982J4D01*
G01X165130Y1390680D01*
G02X167770Y1384300I-6389J-6380D01*
G01Y1312240D01*
G02X162200Y1298790I-19021J-1D01*
G01X161620Y1298210D01*
G03X161420Y1297620I782J-594D01*
G01Y1293180D01*
G03X161620Y1292590I982J4D01*
G01X165130Y1289080D01*
G02X167770Y1282700I-6389J-6380D01*
G01Y1147140D01*
G02X162200Y1133690I-19021J-1D01*
G01X159690Y1131180D01*
G03Y1129420I888J-880D01*
G01X162200Y1126910D01*
G02X167770Y1113460I-13451J-13449D01*
G01Y950290D01*
G02X162200Y936840I-19021J-1D01*
G01X161620Y936260D01*
G03X161420Y935670I782J-594D01*
G01Y931230D01*
G03X161620Y930640I982J4D01*
G01X165130Y927130D01*
G02X167770Y920750I-6389J-6380D01*
G01Y848690D01*
G02X162200Y835240I-19021J-1D01*
G01X161620Y834660D01*
G03X161420Y834070I782J-594D01*
G01Y829630D01*
G03X161620Y829040I982J4D01*
G01X165130Y825530D01*
G02X167770Y819150I-6389J-6380D01*
G01Y747090D01*
G02X162200Y733640I-19021J-1D01*
G01X161620Y733060D01*
G03X161420Y732470I782J-594D01*
G01Y728030D01*
G03X161620Y727440I982J4D01*
G01X165130Y723930D01*
G02X167770Y717550I-6389J-6380D01*
G01Y645490D01*
G02X162200Y632040I-19021J-1D01*
G01X161620Y631460D01*
G03X161420Y630870I782J-594D01*
G01Y626430D01*
G03X161620Y625840I982J4D01*
G01X165130Y622330D01*
G02X167770Y615950I-6389J-6380D01*
G01Y543890D01*
G02X162200Y530440I-19021J-1D01*
G01X161620Y529860D01*
G03X161420Y529270I782J-594D01*
G01Y524830D01*
G03X161620Y524240I982J4D01*
G01X165130Y520730D01*
G02X167770Y514350I-6389J-6380D01*
G01Y442290D01*
G02X162200Y428840I-19021J-1D01*
G01X161620Y428260D01*
G03X161420Y427670I782J-594D01*
G01Y423230D01*
G03X161620Y422640I982J4D01*
G01X165130Y419130D01*
G02X167770Y412750I-6389J-6380D01*
G01Y340690D01*
G02X162200Y327240I-19021J-1D01*
G01X161620Y326660D01*
G03X161420Y326070I782J-594D01*
G01Y321630D01*
G03X161620Y321040I982J4D01*
G01X165130Y317530D01*
G02X167770Y311150I-6389J-6380D01*
G01Y239090D01*
G02X162200Y225640I-19021J-1D01*
G01X161620Y225060D01*
G03X161420Y224470I782J-594D01*
G01Y220030D01*
G03X161620Y219440I982J4D01*
G01X165130Y215930D01*
G02X167770Y209550I-6389J-6380D01*
G01Y125000D01*
X167880Y124760D01*
G02X167420Y115640I-9129J-4111D01*
G01X167090Y115070D01*
G03X166920Y114440I1080J-629D01*
G01Y113370D01*
G03X168170Y112120I1250J0D01*
G01X168670D01*
G02X169920Y110870I0J-1250D01*
G01Y91810D01*
X169190Y91080D01*
X168920D01*
Y74280D01*
G02X167670Y73030I-1250J0D01*
G01X153650D01*
X152920Y72300D01*
Y72030D01*
X136130D01*
G02X134880Y73280I0J1250D01*
G01Y95830D01*
G03X133630Y97080I-1250J0D01*
G01X127000D01*
G02X116130Y107950I0J10870D01*
G01Y162690D01*
G02X125600Y172160I9470J0D01*
G01X125830D01*
G03X127080Y173410I0J1250D01*
G01Y174910D01*
G02X128330Y176160I1250J0D01*
G01X148480D01*
G03X149730Y177410I0J1250D01*
G01Y183270D01*
G03X148480Y184520I-1250J0D01*
G01X128330D01*
G02X127080Y185770I0J1250D01*
G01Y186760D01*
G03X126720Y187630I-1248J-7D01*
G01X126200Y188170D01*
G03X125400Y188540I-891J-876D01*
G02X116130Y198490I705J9950D01*
G01Y263790D01*
G02X125400Y273740I9975J0D01*
G03X126200Y274110I-91J1246D01*
G01X126720Y274650D01*
G03X127080Y275520I-888J877D01*
G01Y276510D01*
G02X128330Y277760I1250J0D01*
G01X148480D01*
G03X149730Y279010I0J1250D01*
G01Y284870D01*
G03X148480Y286120I-1250J0D01*
G01X128330D01*
G02X127080Y287370I0J1250D01*
G01Y288360D01*
G03X126720Y289230I-1248J-7D01*
G01X126200Y289770D01*
G03X125400Y290140I-891J-876D01*
G02X116130Y300090I705J9950D01*
G01Y365390D01*
G02X125400Y375340I9975J0D01*
G03X126200Y375710I-91J1246D01*
G01X126720Y376250D01*
G03X127080Y377120I-888J877D01*
G01Y378110D01*
G02X128330Y379360I1250J0D01*
G01X148480D01*
G03X149730Y380610I0J1250D01*
G01Y386470D01*
G03X148480Y387720I-1250J0D01*
G01X128330D01*
G02X127080Y388970I0J1250D01*
G01Y389960D01*
G03X126720Y390830I-1248J-7D01*
G01X126200Y391370D01*
G03X125400Y391740I-891J-876D01*
G02X116130Y401690I705J9950D01*
G01Y466990D01*
G02X125400Y476940I9975J0D01*
G03X126200Y477310I-91J1246D01*
G01X126720Y477850D01*
G03X127080Y478720I-888J877D01*
G01Y479710D01*
G02X128330Y480960I1250J0D01*
G01X148480D01*
G03X149730Y482210I0J1250D01*
G01Y488070D01*
G03X148480Y489320I-1250J0D01*
G01X128330D01*
G02X127080Y490570I0J1250D01*
G01Y491560D01*
G03X126720Y492430I-1248J-7D01*
G01X126200Y492970D01*
G03X125400Y493340I-891J-876D01*
G02X116130Y503290I705J9950D01*
G01Y568590D01*
G02X125400Y578540I9975J0D01*
G03X126200Y578910I-91J1246D01*
G01X126720Y579450D01*
G03X127080Y580320I-888J877D01*
G01Y581310D01*
G02X128330Y582560I1250J0D01*
G01X148480D01*
G03X149730Y583810I0J1250D01*
G01Y589670D01*
G03X148480Y590920I-1250J0D01*
G01X128330D01*
G02X127080Y592170I0J1250D01*
G01Y593160D01*
G03X126720Y594030I-1248J-7D01*
G01X126200Y594570D01*
G03X125400Y594940I-891J-876D01*
G02X116130Y604890I705J9950D01*
G01Y670190D01*
G02X125400Y680140I9975J0D01*
G03X126200Y680510I-91J1246D01*
G01X126720Y681050D01*
G03X127080Y681920I-888J877D01*
G01Y682910D01*
G02X128330Y684160I1250J0D01*
G01X148480D01*
G03X149730Y685410I0J1250D01*
G01Y691270D01*
G03X148480Y692520I-1250J0D01*
G01X128330D01*
G02X127080Y693770I0J1250D01*
G01Y694760D01*
G03X126720Y695630I-1248J-7D01*
G01X126200Y696170D01*
G03X125400Y696540I-891J-876D01*
G02X116130Y706490I705J9950D01*
G01Y771790D01*
G02X125400Y781740I9975J0D01*
G03X126200Y782110I-91J1246D01*
G01X126720Y782650D01*
G03X127080Y783520I-888J877D01*
G01Y784510D01*
G02X128330Y785760I1250J0D01*
G01X148480D01*
G03X149730Y787010I0J1250D01*
G01Y792870D01*
G03X148480Y794120I-1250J0D01*
G01X128330D01*
G02X127080Y795370I0J1250D01*
G01Y796360D01*
G03X126720Y797230I-1248J-7D01*
G01X126200Y797770D01*
G03X125400Y798140I-891J-876D01*
G02X116130Y808090I705J9950D01*
G01Y873390D01*
G02X125400Y883340I9975J0D01*
G03X126200Y883710I-91J1246D01*
G01X126720Y884250D01*
G03X127080Y885120I-888J877D01*
G01Y886110D01*
G02X128330Y887360I1250J0D01*
G01X148480D01*
G03X149730Y888610I0J1250D01*
G01Y894470D01*
G03X148480Y895720I-1250J0D01*
G01X128330D01*
G02X127080Y896970I0J1250D01*
G01Y897960D01*
G03X126720Y898830I-1248J-7D01*
G01X126200Y899370D01*
G03X125400Y899740I-891J-876D01*
G02X116130Y909690I705J9950D01*
G01Y1016630D01*
G03X114880Y1017880I-1250J0D01*
G01X111810D01*
G03X110700Y1017200I3J-1250D01*
G01X109690Y1015230D01*
G03X109780Y1013930I1109J-576D01*
G02X112470Y1005510I-11831J-8419D01*
G01Y43820D01*
G03X113720Y42570I1250J0D01*
G37*
G36*
G01X99020Y200980D02*
G02X94990Y191250I-13772J5D01*
G01X69100Y165360D01*
G02X62260Y161640I-9732J9745D01*
G01X62240D01*
G03X61370Y160930I273J-1222D01*
G01X60550Y159090D01*
G03X60600Y157960I1139J-516D01*
G02X40830Y157660I-9803J-5560D01*
G01Y157670D01*
G03X40800Y158890I-1104J583D01*
G01X39690Y160720D01*
G03X38620Y161330I-1073J-638D01*
G01X36430D01*
G03X35350Y160700I5J-1249D01*
G01X34270Y158820D01*
G03Y157580I1082J-620D01*
G01Y157570D01*
G02X17280Y158680I-8869J-5172D01*
G03X17430Y159960I-991J765D01*
G01X17170Y160530D01*
G03X15830Y161250I-1140J-515D01*
G03X12440Y159500I1025J-6144D01*
G01X10510Y157580D01*
X10360Y156860D01*
X10500Y156510D01*
G02X4110Y162900I-10500J-4110D01*
G01X4460Y162760D01*
X5180Y162910D01*
X7100Y164840D01*
G02X14830Y168720I9730J-9745D01*
G01X14840D01*
G03X15780Y169420I-189J1235D01*
G01X16810Y171600D01*
X16780Y172220D01*
X16610Y172490D01*
G02X17280Y184080I8791J5306D01*
G03X17430Y185360I-991J765D01*
G01X17170Y185930D01*
G03X15830Y186650I-1140J-515D01*
G03X12440Y184900I1025J-6144D01*
G01X10510Y182980D01*
X10360Y182260D01*
X10500Y181910D01*
G02X4110Y188300I-10500J-4110D01*
G01X4460Y188160D01*
X5180Y188310D01*
X7100Y190240D01*
G02X14830Y194120I9730J-9745D01*
G01X14840D01*
G03X15780Y194820I-189J1235D01*
G01X16810Y197000D01*
X16780Y197620D01*
X16610Y197890D01*
G02X17280Y209480I8791J5306D01*
G03X17430Y210760I-991J765D01*
G01X17170Y211330D01*
G03X15830Y212050I-1140J-515D01*
G03X12440Y210300I1025J-6144D01*
G01X10510Y208380D01*
X10360Y207660D01*
X10500Y207310D01*
G02X4110Y213700I-10500J-4110D01*
G01X4460Y213560D01*
X5180Y213710D01*
X6670Y215200D01*
G03X6940Y216560I-885J883D01*
G01X6790Y216910D01*
X6170Y217330D01*
X-10020D01*
G02X-11270Y218580I0J1250D01*
G01Y238620D01*
G02X-10020Y239870I1250J0D01*
G01X10020D01*
G02X11270Y238620I0J-1250D01*
G01Y220280D01*
G03X12520Y219030I1250J0D01*
G01X12700D01*
X12880Y219090D01*
G02X14130Y219400I3936J-13196D01*
G01X14570Y219490D01*
X15130Y220170D01*
Y237620D01*
G02X16380Y238870I1250J0D01*
G01X34420D01*
G02X35670Y237620I0J-1250D01*
G01Y220920D01*
G03X36920Y219670I1250J0D01*
G01X38280D01*
G03X39530Y220920I0J1250D01*
G01Y238620D01*
G02X40780Y239870I1250J0D01*
G01X60820D01*
G02X62070Y238620I0J-1250D01*
G01Y220920D01*
G03X63320Y219670I1250J0D01*
G01X63500D01*
G03X66080Y222250I0J2580D01*
G01Y967410D01*
G03X64250Y971810I-6228J-10D01*
G01X46870Y989200D01*
G03X45770Y989550I-886J-882D01*
G02X38630Y1001720I-1323J7403D01*
G01X38770Y1001890D01*
X38920Y1002290D01*
Y1004310D01*
X38770Y1004710D01*
X38630Y1004880D01*
G02Y1014420I5820J4770D01*
G01X38770Y1014590D01*
X38920Y1014990D01*
Y1017010D01*
X38770Y1017410D01*
X38630Y1017580D01*
G02Y1027120I5820J4770D01*
G01X38770Y1027290D01*
X38920Y1027690D01*
Y1029710D01*
X38770Y1030110D01*
X38630Y1030280D01*
G02Y1039820I5820J4770D01*
G01X38770Y1039990D01*
X38920Y1040390D01*
Y1042410D01*
X38770Y1042810D01*
X38630Y1042980D01*
G02X51850Y1046430I5816J4768D01*
G01X51800Y1046130D01*
X51980Y1045550D01*
X94990Y1002550D01*
G02X99020Y992820I-9742J-9735D01*
G01Y200980D01*
G37*
G36*
G01X87810Y-4520D02*
X63320D01*
G03X62070Y-5770I0J-1250D01*
G01Y-10020D01*
G02X60820Y-11270I-1250J0D01*
G01X56570D01*
G03X55320Y-12520I0J-1250D01*
G01Y-12700D01*
G02X44450Y-23570I-10870J0D01*
G01X6350D01*
G02X-4520Y-12700I0J10870D01*
G01Y-12520D01*
G03X-5770Y-11270I-1250J0D01*
G01X-10020D01*
G02X-11270Y-10020I0J1250D01*
G01Y10020D01*
G02X-10020Y11270I1250J0D01*
G01X10020D01*
G02X11270Y10020I0J-1250D01*
G01Y-10020D01*
G02X10020Y-11270I-1250J0D01*
G01X5770D01*
G03X4520Y-12520I0J-1250D01*
G01Y-12700D01*
G03X6350Y-14530I1830J0D01*
G01X44450D01*
G03X46280Y-12700I0J1830D01*
G01Y-12520D01*
G03X45030Y-11270I-1250J0D01*
G01X40780D01*
G02X39530Y-10020I0J1250D01*
G01Y10020D01*
G02X40780Y11270I1250J0D01*
G01X60820D01*
G02X62070Y10020I0J-1250D01*
G01Y5770D01*
G03X63320Y4520I1250J0D01*
G01X87790D01*
G03X89470Y5220I-5J2378D01*
G02X94740Y8220I8094J-8089D01*
G01X95160Y8330D01*
X95680Y9000D01*
Y11320D01*
G02X96930Y12570I1250J0D01*
G01X118970D01*
G02X120220Y11320I0J-1250D01*
G01Y-3220D01*
G02X118970Y-4470I-1250J0D01*
G01X95680D01*
Y-4280D01*
X95340Y-3700D01*
X94400Y-3170D01*
G03X93200Y-3160I-609J-1095D01*
G02X87810Y-4520I-5405J10061D01*
G37*
G36*
G01X10020Y471330D02*
X-10020D01*
G02X-11270Y472580I0J1250D01*
G01Y492620D01*
G02X-10020Y493870I1250J0D01*
G01X10020D01*
G02X11270Y492620I0J-1250D01*
G01Y472580D01*
G02X10020Y471330I-1250J0D01*
G37*
G36*
G01Y725330D02*
X-10020D01*
G02X-11270Y726580I0J1250D01*
G01Y746620D01*
G02X-10020Y747870I1250J0D01*
G01X10020D01*
G02X11270Y746620I0J-1250D01*
G01Y726580D01*
G02X10020Y725330I-1250J0D01*
G37*
G36*
G01X2720Y907980D02*
X-20320D01*
G02X-21570Y909230I0J1250D01*
G01Y932270D01*
G02X-20320Y933520I1250J0D01*
G01X2720D01*
G02X3970Y932270I0J-1250D01*
G01Y909230D01*
G02X2720Y907980I-1250J0D01*
G37*
G36*
G01X14770Y948030D02*
X-14770D01*
G02X-16020Y949280I0J1250D01*
G01Y962820D01*
G02X-14770Y964070I1250J0D01*
G01X14770D01*
G02X16020Y962820I0J-1250D01*
G01Y949280D01*
G02X14770Y948030I-1250J0D01*
G37*
G36*
G01X34420Y-10270D02*
X16380D01*
G02X15130Y-9020I0J1250D01*
G01Y9020D01*
G02X16380Y10270I1250J0D01*
G01X34420D01*
G02X35670Y9020I0J-1250D01*
G01Y-9020D01*
G02X34420Y-10270I-1250J0D01*
G37*
G36*
G01X60820Y471330D02*
X40780D01*
G02X39530Y472580I0J1250D01*
G01Y492620D01*
G02X40780Y493870I1250J0D01*
G01X60820D01*
G02X62070Y492620I0J-1250D01*
G01Y472580D01*
G02X60820Y471330I-1250J0D01*
G37*
G36*
G01X34420Y472330D02*
X16380D01*
G02X15130Y473580I0J1250D01*
G01Y491620D01*
G02X16380Y492870I1250J0D01*
G01X34420D01*
G02X35670Y491620I0J-1250D01*
G01Y473580D01*
G02X34420Y472330I-1250J0D01*
G37*
G36*
G01X60820Y725330D02*
X40780D01*
G02X39530Y726580I0J1250D01*
G01Y746620D01*
G02X40780Y747870I1250J0D01*
G01X60820D01*
G02X62070Y746620I0J-1250D01*
G01Y726580D01*
G02X60820Y725330I-1250J0D01*
G37*
G36*
G01X34420Y726330D02*
X16380D01*
G02X15130Y727580I0J1250D01*
G01Y745620D01*
G02X16380Y746870I1250J0D01*
G01X34420D01*
G02X35670Y745620I0J-1250D01*
G01Y727580D01*
G02X34420Y726330I-1250J0D01*
G37*
G36*
G01X91570Y1189880D02*
X73530D01*
G02X72280Y1191130I0J1250D01*
G01Y1209170D01*
G02X73530Y1210420I1250J0D01*
G01X91570D01*
G02X92820Y1209170I0J-1250D01*
G01Y1191130D01*
G02X91570Y1189880I-1250J0D01*
G37*
G54D33*
X82550Y1225550D03*
G54D32*
X0Y762000D03*
X25400Y76200D03*
Y50800D03*
Y25400D03*
Y127000D03*
Y101600D03*
Y304800D03*
Y279400D03*
Y254000D03*
Y381000D03*
Y355600D03*
Y330200D03*
Y457200D03*
Y431800D03*
Y406400D03*
Y533400D03*
Y508000D03*
Y609600D03*
Y584200D03*
Y558800D03*
Y685800D03*
Y660400D03*
Y635000D03*
Y762000D03*
Y711200D03*
X50800Y762000D03*
G54D31*
X0Y76200D03*
Y50800D03*
Y25400D03*
Y127000D03*
Y101600D03*
Y304800D03*
Y279400D03*
Y254000D03*
Y381000D03*
Y355600D03*
Y330200D03*
Y457200D03*
Y431800D03*
Y406400D03*
Y533400D03*
Y508000D03*
Y609600D03*
Y584200D03*
Y558800D03*
Y685800D03*
Y660400D03*
Y635000D03*
Y711200D03*
X50800Y76200D03*
Y50800D03*
Y25400D03*
Y127000D03*
Y101600D03*
Y304800D03*
Y279400D03*
Y254000D03*
Y381000D03*
Y355600D03*
Y330200D03*
Y457200D03*
Y431800D03*
Y406400D03*
Y533400D03*
Y508000D03*
Y609600D03*
Y584200D03*
Y558800D03*
Y685800D03*
Y660400D03*
Y635000D03*
Y711200D03*
%LPD*%
G75*
G36*
G01X19450Y983240D02*
X20590Y979050D01*
G03X26700Y985160I4810J1300D01*
G01X22510Y986300D01*
G03X19450Y983240I-650J-2410D01*
G37*
G36*
G01X143380Y931240D02*
G03X148950Y917790I19021J-1D01*
G01X149360Y917380D01*
G02X149730Y916490I-880J-888D01*
G01Y914010D01*
G02X148480Y912760I-1250J0D01*
G01X126420D01*
G02X125170Y914010I0J1250D01*
G01Y1016630D01*
G02X126420Y1017880I1250J0D01*
G01X131670D01*
G03X132920Y1019130I0J1250D01*
G01Y1033670D01*
G03X131670Y1034920I-1250J0D01*
G01X109630D01*
G03X108380Y1033670I0J-1250D01*
G01Y1018620D01*
G02X107610Y1017470I-1250J4D01*
G01X107260Y1017320D01*
X106520Y1017470D01*
X101380Y1022620D01*
G02X99770Y1026490I3868J3879D01*
G01Y1068580D01*
G02X101020Y1069830I1250J0D01*
G01X102720D01*
G03X103970Y1071080I0J1250D01*
G01Y1082140D01*
X103240Y1082870D01*
X102970D01*
Y1088100D01*
X103700Y1088830D01*
X103970D01*
X104470Y1089330D01*
X111430D01*
X111560Y1089200D01*
G03X112450Y1088830I888J880D01*
G01X127950D01*
G02X129200Y1087580I0J-1250D01*
G01Y1084120D01*
G02X127950Y1082870I-1250J0D01*
G01X113180D01*
G03X111930Y1081620I0J-1250D01*
G01Y1071080D01*
G03X113180Y1069830I1250J0D01*
G01X115180D01*
G02X116430Y1068580I0J-1250D01*
G01Y1066170D01*
G02X115180Y1064920I-1250J0D01*
G01X109630D01*
G03X108380Y1063670I0J-1250D01*
G01Y1049130D01*
G03X109630Y1047880I1250J0D01*
G01X131670D01*
G03X132920Y1049130I0J1250D01*
G01Y1063670D01*
G03X131670Y1064920I-1250J0D01*
G01X126720D01*
G02X125470Y1066170I0J1250D01*
G01Y1068580D01*
G02X126720Y1069830I1250J0D01*
G01X129240D01*
X129970Y1070560D01*
Y1070580D01*
X130840Y1071480D01*
G02X131630Y1071860I903J-866D01*
G03X138240Y1079120I-682J7260D01*
G01Y1110880D01*
G03X133570Y1118730I-8933J0D01*
G01X133560D01*
G02X132920Y1119830I612J1092D01*
G01Y1120760D01*
G02X134170Y1122010I1250J0D01*
G01X141060D01*
G02X141950Y1121640I2J-1250D01*
G01X149530Y1114060D01*
G02X149730Y1113470I-782J-594D01*
G01Y950280D01*
G02X149530Y949690I-982J4D01*
G01X148950Y949110D01*
G03X143380Y935660I13451J-13449D01*
G01Y931240D01*
G37*
G36*
G01X142520Y1140050D02*
X134170D01*
G02X132920Y1141300I0J1250D01*
G01Y1152570D01*
G03X131670Y1153820I-1250J0D01*
G01X126420D01*
G02X125170Y1155070I0J1250D01*
G01Y1205620D01*
G02X126420Y1206870I1250J0D01*
G01X148480D01*
G02X149730Y1205620I0J-1250D01*
G01Y1147130D01*
G02X149530Y1146540I-982J4D01*
G01X143410Y1140420D01*
G02X142520Y1140050I-888J880D01*
G37*
G36*
G01X160480Y113650D02*
X163070Y118150D01*
G03X154430I-4320J2500D01*
G01X157020Y113650D01*
G03X160480I1730J1000D01*
G37*
G54D10*
X-25400Y-50800D03*
Y838200D03*
G54D11*
X0Y0D03*
Y228600D03*
Y482600D03*
Y736600D03*
X50800Y0D03*
X25400D03*
X50800Y228600D03*
X25400D03*
X50800Y482600D03*
X25400D03*
X50800Y736600D03*
X25400D03*
X82550Y1200150D03*
G54D20*
X120950Y1076350D03*
X94950D03*
X120950Y1095350D03*
X94950Y1085850D03*
Y1095350D03*
G54D30*
G01X0Y152400D02*
X9770Y162170D01*
G02X16840Y165100I7072J-7070D01*
G01X59360D01*
G03X66430Y168030I-2J10000D01*
G01X92320Y193920D01*
G03X95250Y200990I-7070J7072D01*
G01Y992810D01*
G03X92320Y999880I-10000J-2D01*
G01X44450Y1047750D01*
G01X0Y203200D02*
X9770Y212970D01*
G02X16840Y215900I7072J-7070D01*
G01X63500D01*
G03X69850Y222250I0J6350D01*
G01Y967410D01*
G03X66920Y974480I-10000J-2D01*
G01X44450Y996950D01*
G01X0Y177800D02*
X9770Y187570D01*
G02X16840Y190500I7072J-7070D01*
G01X59360D01*
G03X66430Y193430I-2J10000D01*
G01X79620Y206620D01*
G03X82550Y213690I-7070J7072D01*
G01Y980110D01*
G03X79620Y987180I-10000J-2D01*
G01X44450Y1022350D01*
G01X50800Y177800D02*
X59360D01*
G03X66430Y180730I-2J10000D01*
G01X85970Y200270D01*
G03X88900Y207340I-7070J7072D01*
G01Y986460D01*
G03X85970Y993530I-10000J-2D01*
G01X44450Y1035050D01*
G01X50800Y203200D02*
X59360D01*
G03X66430Y206130I-2J10000D01*
G01X73270Y212970D01*
G03X76200Y220040I-7070J7072D01*
G01Y973760D01*
G03X73270Y980830I-10000J-2D01*
G01X44450Y1009650D01*
G54D12*
G01X0Y987050D02*
Y1005510D01*
G03X-2930Y1012580I-10000J-2D01*
G01X-19050Y1028700D01*
G01X88900Y1131030D02*
X4140D01*
G03X-2930Y1128100I2J-10000D01*
G01X-16120Y1114910D01*
G03X-19050Y1107840I7070J-7072D01*
G01Y1028700D01*
G01X25400Y808990D02*
Y888520D01*
G02X28330Y895590I10000J-2D01*
G01X31270Y898530D01*
G03X34200Y905600I-7070J7072D01*
G01Y920750D01*
G01X25400Y980350D02*
X31270Y974480D01*
G02X34200Y967410I-7070J-7072D01*
G01Y920750D01*
G01X158750Y209550D02*
X155330Y212970D01*
G02X152400Y220040I7070J7072D01*
G01Y224460D01*
G02X155330Y231530I10000J-2D01*
G01X155820Y232020D01*
G03X158750Y239090I-7070J7072D01*
G01Y311150D01*
G01D02*
X155330Y314570D01*
G02X152400Y321640I7070J7072D01*
G01Y326060D01*
G02X155330Y333130I10000J-2D01*
G01X155820Y333620D01*
G03X158750Y340690I-7070J7072D01*
G01Y412750D01*
G01D02*
X155330Y416170D01*
G02X152400Y423240I7070J7072D01*
G01Y427660D01*
G02X155330Y434730I10000J-2D01*
G01X155820Y435220D01*
G03X158750Y442290I-7070J7072D01*
G01Y514350D01*
G01D02*
X155330Y517770D01*
G02X152400Y524840I7070J7072D01*
G01Y529260D01*
G02X155330Y536330I10000J-2D01*
G01X155820Y536820D01*
G03X158750Y543890I-7070J7072D01*
G01Y615950D01*
G01D02*
X155330Y619370D01*
G02X152400Y626440I7070J7072D01*
G01Y630860D01*
G02X155330Y637930I10000J-2D01*
G01X155820Y638420D01*
G03X158750Y645490I-7070J7072D01*
G01Y717550D01*
G01D02*
X155330Y720970D01*
G02X152400Y728040I7070J7072D01*
G01Y732460D01*
G02X155330Y739530I10000J-2D01*
G01X155820Y740020D01*
G03X158750Y747090I-7070J7072D01*
G01Y819150D01*
G01D02*
X155330Y822570D01*
G02X152400Y829640I7070J7072D01*
G01Y834060D01*
G02X155330Y841130I10000J-2D01*
G01X155820Y841620D01*
G03X158750Y848690I-7070J7072D01*
G01Y920750D01*
G01D02*
X155330Y924170D01*
G02X152400Y931240I7070J7072D01*
G01Y935660D01*
G02X155330Y942730I10000J-2D01*
G01X155820Y943220D01*
G03X158750Y950290I-7070J7072D01*
G01Y1113460D01*
G03X155820Y1120530I-10000J-2D01*
G01X146250Y1130100D01*
Y1130500D01*
G01X158750Y1282700D02*
Y1147140D01*
G02X155820Y1140070I-10000J2D01*
G01X146250Y1130500D01*
G01X88900Y1114800D02*
Y1131030D01*
G01X146250Y1130500D02*
Y1131030D01*
X88900D01*
G01X158750Y1282700D02*
X155330Y1286120D01*
G02X152400Y1293190I7070J7072D01*
G01Y1297610D01*
G02X155330Y1304680I10000J-2D01*
G01X155820Y1305170D01*
G03X158750Y1312240I-7070J7072D01*
G01Y1384300D01*
G01D02*
X155330Y1387720D01*
G02X152400Y1394790I7070J7072D01*
G01Y1399210D01*
G02X155330Y1406280I10000J-2D01*
G01X155820Y1406770D01*
G03X158750Y1413840I-7070J7072D01*
G01Y1485900D01*
G01D02*
X155330Y1489320D01*
G02X152400Y1496390I7070J7072D01*
G01Y1500810D01*
G02X155330Y1507880I10000J-2D01*
G01X155820Y1508370D01*
G03X158750Y1515440I-7070J7072D01*
G01Y1587500D01*
G01D02*
X155330Y1590920D01*
G02X152400Y1597990I7070J7072D01*
G01Y1602410D01*
G02X155330Y1609480I10000J-2D01*
G01X155820Y1609970D01*
G03X158750Y1617040I-7070J7072D01*
G01Y1689100D01*
G01D02*
X155330Y1692520D01*
G02X152400Y1699590I7070J7072D01*
G01Y1704010D01*
G02X155330Y1711080I10000J-2D01*
G01X155820Y1711570D01*
G03X158750Y1718640I-7070J7072D01*
G01Y1790700D01*
G01D02*
X155330Y1794120D01*
G02X152400Y1801190I7070J7072D01*
G01Y1805610D01*
G02X155330Y1812680I10000J-2D01*
G01X155820Y1813170D01*
G03X158750Y1820240I-7070J7072D01*
G01Y1892300D01*
G01D02*
X155330Y1895720D01*
G02X152400Y1902790I7070J7072D01*
G01Y1907210D01*
G02X155330Y1914280I10000J-2D01*
G01X155820Y1914770D01*
G03X158750Y1921840I-7070J7072D01*
G01Y1993900D01*
G01X88900D02*
X158750D01*
G01Y209550D02*
Y120650D01*
X-31750Y-19050D03*
Y133350D03*
Y285750D03*
Y419100D03*
Y552450D03*
Y679450D03*
Y806450D03*
Y927100D03*
Y869950D03*
X0Y971550D03*
X-31750Y1009650D03*
X-4000Y1105000D03*
X-6350Y1149350D03*
Y1231900D03*
X-31750Y1168400D03*
Y1301750D03*
X-6350Y1327150D03*
X-19050Y1422400D03*
X-6350Y1530350D03*
X-31750Y1504950D03*
X-19050Y1631950D03*
X-6350Y1720850D03*
X-31750Y1733550D03*
X-6350Y1803400D03*
X-31750Y1847850D03*
Y1955800D03*
Y2012950D03*
X-6350Y2104390D03*
X44450Y-54610D03*
X6350Y-38100D03*
X63500D03*
X57150Y821690D03*
X44450Y876300D03*
X12700Y920750D03*
X57150D03*
X6350Y876300D03*
X19050Y1003300D03*
X57150Y965200D03*
X44450Y996950D03*
Y1066800D03*
Y1035050D03*
Y1047750D03*
Y1022350D03*
Y1009650D03*
Y1111250D03*
Y1149350D03*
X79500Y1097100D03*
X44450Y1231900D03*
X69850Y1263650D03*
Y1365250D03*
Y1327150D03*
X44450D03*
X76200Y1435100D03*
X38100D03*
X44450Y1403350D03*
X31750Y1530350D03*
X38100Y1498600D03*
X76200Y1543050D03*
X31750Y1593850D03*
X76200Y1644650D03*
X25400Y1625600D03*
Y1689100D03*
X76200Y1746250D03*
X19050Y1720850D03*
Y1784350D03*
X76200Y1847850D03*
X6350Y1898650D03*
X63500Y1911350D03*
X12700Y1968500D03*
X63500Y1974850D03*
X31750Y2012950D03*
X107950Y-38100D03*
X88900Y-12700D03*
X127000Y69850D03*
X82550Y25400D03*
X130000Y281720D03*
X124000Y384000D03*
X120650Y482600D03*
Y584200D03*
Y685800D03*
Y787400D03*
Y889000D03*
X135000Y925000D03*
X107950Y1041400D03*
X139700D03*
Y1149350D03*
X144000Y1110000D03*
X101600Y1162050D03*
X140000Y1190000D03*
X107950Y1301750D03*
X120650Y1250950D03*
Y1352550D03*
X107950Y1403350D03*
X120650Y1454150D03*
X107950Y1504950D03*
Y1606550D03*
X120650Y1555750D03*
Y1657350D03*
X107950Y1708150D03*
X120650Y1758950D03*
X107950Y1809750D03*
X120650Y1860550D03*
X107950Y1913890D03*
X120650Y1962150D03*
X146050Y2012950D03*
X95250D03*
X171450Y-38100D03*
Y0D03*
Y63500D03*
X158750Y209550D03*
X171450Y222250D03*
X158750Y311150D03*
X171450Y323850D03*
X158750Y412750D03*
X171450Y425450D03*
X158750Y514350D03*
X171450Y527050D03*
X158750Y615950D03*
X171450Y628650D03*
X158750Y717550D03*
X171450Y730250D03*
X158750Y819150D03*
X171450Y831850D03*
X158750Y920750D03*
X171450Y933450D03*
Y1130300D03*
X158750Y1282700D03*
X171450Y1295400D03*
X158750Y1384300D03*
X171450Y1397000D03*
X158750Y1485900D03*
X171450Y1498600D03*
X158750Y1587500D03*
X171450Y1600200D03*
X158750Y1689100D03*
X171450Y1701800D03*
X158750Y1790700D03*
X171450Y1803400D03*
X158750Y1892300D03*
X171450Y1905000D03*
X158750Y1993900D03*
X171450Y2006600D03*
X273050Y173990D03*
X298450D03*
X273050Y275430D03*
X298450Y275590D03*
X273050Y377190D03*
X298450D03*
X273050Y478630D03*
X298450Y478790D03*
X273050Y580390D03*
X298450D03*
X273050Y681830D03*
X298450Y681990D03*
X273050Y783590D03*
X298450D03*
Y885190D03*
X273050Y885030D03*
Y1247140D03*
X298450D03*
X273050Y1348580D03*
X298450Y1348740D03*
X273050Y1450340D03*
X298450D03*
X273050Y1551780D03*
X298450Y1551940D03*
X273050Y1653540D03*
X298450D03*
X273050Y1754980D03*
X298450Y1755140D03*
X273050Y1856740D03*
X298450D03*
Y1958340D03*
X273050Y1958180D03*
X857250Y-54610D03*
Y2104390D03*
G54D21*
X297250Y148590D03*
X274250Y139090D03*
Y158090D03*
X297250Y250190D03*
X274250Y240690D03*
Y259690D03*
X297250Y351790D03*
X274250Y342290D03*
Y361290D03*
X297250Y453390D03*
X274250Y443890D03*
Y462890D03*
X297250Y554990D03*
X274250Y545490D03*
Y564490D03*
X297250Y656590D03*
X274250Y647090D03*
Y666090D03*
X297250Y758190D03*
X274250Y748690D03*
Y767690D03*
X297250Y859790D03*
X274250Y850290D03*
Y869290D03*
X297250Y1221740D03*
X274250Y1212240D03*
Y1231240D03*
X297250Y1323340D03*
X274250Y1313840D03*
Y1332840D03*
X297250Y1424940D03*
X274250Y1415440D03*
Y1434440D03*
X297250Y1526540D03*
X274250Y1517040D03*
Y1536040D03*
X297250Y1628140D03*
X274250Y1618640D03*
Y1637640D03*
X297250Y1729740D03*
X274250Y1720240D03*
Y1739240D03*
X297250Y1831340D03*
X274250Y1821840D03*
Y1840840D03*
X297250Y1932940D03*
X274250Y1923440D03*
Y1942440D03*
G54D22*
X361950Y142640D03*
Y345840D03*
Y549040D03*
Y752240D03*
Y1215790D03*
Y1418990D03*
Y1622190D03*
Y1825390D03*
X488950Y244240D03*
Y447440D03*
Y650640D03*
Y853840D03*
Y1317390D03*
Y1520590D03*
Y1723790D03*
Y1926990D03*
X615950Y142640D03*
Y345840D03*
Y549040D03*
Y752240D03*
Y1215790D03*
Y1418990D03*
Y1622190D03*
Y1825390D03*
X742950Y244240D03*
Y447440D03*
Y650640D03*
Y853840D03*
Y1317390D03*
Y1520590D03*
Y1723790D03*
Y1926990D03*
G54D13*
X0Y76200D03*
Y50800D03*
Y25400D03*
Y152400D03*
Y127000D03*
Y101600D03*
Y203200D03*
Y177800D03*
Y304800D03*
Y279400D03*
Y254000D03*
Y381000D03*
Y355600D03*
Y330200D03*
Y457200D03*
Y431800D03*
Y406400D03*
Y533400D03*
Y508000D03*
Y609600D03*
Y584200D03*
Y558800D03*
Y685800D03*
Y660400D03*
Y635000D03*
Y762000D03*
Y711200D03*
Y787400D03*
X25400Y76200D03*
Y50800D03*
Y25400D03*
X50800Y76200D03*
Y50800D03*
Y25400D03*
X25400Y152400D03*
Y127000D03*
Y101600D03*
X50800Y152400D03*
Y127000D03*
Y101600D03*
X25400Y203200D03*
Y177800D03*
X50800Y203200D03*
Y177800D03*
X25400Y304800D03*
Y279400D03*
Y254000D03*
X50800Y304800D03*
Y279400D03*
Y254000D03*
X25400Y381000D03*
Y355600D03*
Y330200D03*
X50800Y381000D03*
Y355600D03*
Y330200D03*
X25400Y457200D03*
Y431800D03*
Y406400D03*
X50800Y457200D03*
Y431800D03*
Y406400D03*
X25400Y533400D03*
Y508000D03*
X50800Y533400D03*
Y508000D03*
X25400Y609600D03*
Y584200D03*
Y558800D03*
X50800Y609600D03*
Y584200D03*
Y558800D03*
X25400Y685800D03*
Y660400D03*
Y635000D03*
X50800Y685800D03*
Y660400D03*
Y635000D03*
X25400Y762000D03*
Y711200D03*
X50800Y762000D03*
Y711200D03*
X25400Y787400D03*
X50800D03*
G54D23*
X361950Y192640D03*
Y395840D03*
Y599040D03*
Y802240D03*
Y1265790D03*
Y1468990D03*
Y1672190D03*
Y1875390D03*
X488950Y294240D03*
Y497440D03*
Y700640D03*
Y903840D03*
Y1367390D03*
Y1570590D03*
Y1773790D03*
Y1976990D03*
X615950Y192640D03*
Y395840D03*
Y599040D03*
Y802240D03*
Y1265790D03*
Y1468990D03*
Y1672190D03*
Y1875390D03*
X742950Y294240D03*
Y497440D03*
Y700640D03*
Y903840D03*
Y1367390D03*
Y1570590D03*
Y1773790D03*
Y1976990D03*
G54D14*
X-8800Y920750D03*
X34200D03*
G54D15*
X0Y956050D03*
Y987050D03*
X88900Y1145800D03*
Y1114800D03*
G54D24*
X857250Y142240D03*
Y243840D03*
Y193040D03*
Y294640D03*
Y396240D03*
Y345440D03*
Y447040D03*
Y548640D03*
Y497840D03*
Y599440D03*
Y701040D03*
Y650240D03*
Y751840D03*
Y853440D03*
Y802640D03*
Y1215390D03*
Y1266190D03*
Y1367790D03*
Y1316990D03*
Y1418590D03*
Y1520190D03*
Y1469390D03*
Y1570990D03*
Y1672590D03*
Y1621790D03*
Y1723390D03*
Y1824990D03*
Y1774190D03*
Y1875790D03*
Y1926590D03*
G54D25*
Y904240D03*
Y1977390D03*
G54D16*
X-19050Y1028700D03*
G54D26*
X940000Y-50800D03*
Y2171700D03*
G54D17*
X82550Y1225550D03*
G54D27*
G01X840980Y142240D02*
X857250D01*
G01X840980Y193040D02*
X857250D01*
G01X840980Y294640D02*
X857250D01*
G01X840980Y243840D02*
X857250D01*
G01X840980Y345440D02*
X857250D01*
G01X840980Y447040D02*
X857250D01*
G01X840980Y396240D02*
X857250D01*
G01X840980Y497840D02*
X857250D01*
G01X840980Y599440D02*
X857250D01*
G01X840980Y548640D02*
X857250D01*
G01X840980Y650240D02*
X857250D01*
G01X840980Y751840D02*
X857250D01*
G01X840980Y701040D02*
X857250D01*
G01X840980Y802640D02*
X857250D01*
G01X840980Y853440D02*
X857250D01*
G01X840980Y904240D02*
X857250D01*
G01X840980Y1215390D02*
X857250D01*
G01X840980Y1266190D02*
X857250D01*
G01X840980Y1316990D02*
X857250D01*
G01X840980Y1367790D02*
X857250D01*
G01X840980Y1418590D02*
X857250D01*
G01X840980Y1520190D02*
X857250D01*
G01X840980Y1469390D02*
X857250D01*
G01X840980Y1570990D02*
X857250D01*
G01X840980Y1672590D02*
X857250D01*
G01X840980Y1621790D02*
X857250D01*
G01X840980Y1723390D02*
X857250D01*
G01X840980Y1824990D02*
X857250D01*
G01X840980Y1774190D02*
X857250D01*
G01X840980Y1875790D02*
X857250D01*
G01X840230Y1977390D02*
X857250D01*
G01X840230Y1926590D02*
X857250D01*
G54D18*
X107950Y4050D03*
Y34050D03*
X139350Y142240D03*
Y167640D03*
Y193040D03*
Y243840D03*
Y269240D03*
Y294640D03*
Y345440D03*
Y370840D03*
Y447040D03*
Y396240D03*
Y472440D03*
Y497840D03*
Y548640D03*
Y574040D03*
Y599440D03*
Y650240D03*
Y675640D03*
Y751840D03*
Y701040D03*
Y777240D03*
Y802640D03*
Y853440D03*
Y878840D03*
Y904240D03*
X120650Y1056400D03*
Y1026400D03*
Y1145300D03*
Y1115300D03*
X139350Y1215390D03*
Y1240790D03*
Y1266190D03*
Y1316990D03*
Y1342390D03*
Y1367790D03*
Y1418590D03*
Y1443990D03*
Y1520190D03*
Y1469390D03*
Y1545590D03*
Y1570990D03*
Y1621790D03*
Y1647190D03*
Y1672590D03*
Y1723390D03*
Y1748790D03*
Y1824990D03*
Y1774190D03*
Y1850390D03*
Y1875790D03*
Y1926590D03*
Y1951990D03*
Y1977390D03*
X254350Y142240D03*
Y167640D03*
Y193040D03*
Y243840D03*
Y269240D03*
Y294640D03*
Y345440D03*
Y370840D03*
Y447040D03*
Y396240D03*
Y472440D03*
Y497840D03*
Y548640D03*
Y574040D03*
Y599440D03*
Y650240D03*
Y675640D03*
Y751840D03*
Y701040D03*
Y777240D03*
Y802640D03*
Y853440D03*
Y878840D03*
Y904240D03*
Y1215390D03*
Y1240790D03*
Y1266190D03*
Y1316990D03*
Y1342390D03*
Y1367790D03*
Y1418590D03*
Y1443990D03*
Y1520190D03*
Y1469390D03*
Y1545590D03*
Y1570990D03*
Y1621790D03*
Y1647190D03*
Y1672590D03*
Y1723390D03*
Y1748790D03*
Y1824990D03*
Y1774190D03*
Y1850390D03*
Y1875790D03*
Y1926590D03*
Y1951990D03*
Y1977390D03*
G54D28*
G01X0Y0D02*
Y-12700D01*
G03X6350Y-19050I6350J0D01*
G01X44450D01*
G03X50800Y-12700I0J6350D01*
G01Y0D01*
G01D02*
X87790D01*
G03X92670Y2020I2J6900D01*
G02X97570Y4050I4896J-4890D01*
G01X107950D01*
G01X94950Y1076350D02*
Y1069590D01*
X95250Y1069290D01*
Y1026490D01*
G03X98180Y1019420I10000J2D01*
G01X105020Y1012580D01*
G02X107950Y1005510I-7070J-7072D01*
G01Y34050D01*
G01X143900Y101600D02*
X127000D01*
G02X120650Y107950I0J6350D01*
G01Y162690D01*
G02X125600Y167640I4950J0D01*
G01X139350D01*
G01Y269240D02*
X126100D01*
G03X120650Y263790I0J-5450D01*
G01Y198490D01*
G03X126100Y193040I5450J0D01*
G01X139350D01*
G01Y370840D02*
X126100D01*
G03X120650Y365390I0J-5450D01*
G01Y300090D01*
G03X126100Y294640I5450J0D01*
G01X139350D01*
G01Y472440D02*
X126100D01*
G03X120650Y466990I0J-5450D01*
G01Y401690D01*
G03X126100Y396240I5450J0D01*
G01X139350D01*
G01Y574040D02*
X126100D01*
G03X120650Y568590I0J-5450D01*
G01Y503290D01*
G03X126100Y497840I5450J0D01*
G01X139350D01*
G01Y675640D02*
X126100D01*
G03X120650Y670190I0J-5450D01*
G01Y604890D01*
G03X126100Y599440I5450J0D01*
G01X139350D01*
G01Y701040D02*
X126100D01*
G02X120650Y706490I0J5450D01*
G01Y771790D01*
G02X126100Y777240I5450J0D01*
G01X139350D01*
G01Y802640D02*
X126100D01*
G02X120650Y808090I0J5450D01*
G01Y873390D01*
G02X126100Y878840I5450J0D01*
G01X139350D01*
G01X120650Y1026400D02*
Y909690D01*
G03X126100Y904240I5450J0D01*
G01X139350D01*
G01X120950Y1076350D02*
Y1056700D01*
X120650Y1056400D01*
G01X94950Y1095350D02*
G03X92480Y1101320I-8440J4D01*
G01X91830Y1101970D01*
G02X88900Y1109040I7070J7072D01*
G01Y1114800D01*
G01X94950Y1095350D02*
X120950D01*
G01X120650Y1115300D02*
X129300D01*
G02X133720Y1110880I0J-4420D01*
G01Y1079120D01*
G02X130950Y1076350I-2770J0D01*
G01X120950D01*
G01X120650Y1145300D02*
Y1235340D01*
G02X126100Y1240790I5450J0D01*
G01X139350D01*
G01Y1342390D02*
X126100D01*
G03X120650Y1336940I0J-5450D01*
G01Y1271640D01*
G03X126100Y1266190I5450J0D01*
G01X139350D01*
G01Y1443990D02*
X126100D01*
G03X120650Y1438540I0J-5450D01*
G01Y1373240D01*
G03X126100Y1367790I5450J0D01*
G01X139350D01*
G01Y1545590D02*
X126100D01*
G03X120650Y1540140I0J-5450D01*
G01Y1474840D01*
G03X126100Y1469390I5450J0D01*
G01X139350D01*
G01Y1647190D02*
X126100D01*
G03X120650Y1641740I0J-5450D01*
G01Y1576440D01*
G03X126100Y1570990I5450J0D01*
G01X139350D01*
G01Y1748790D02*
X126100D01*
G03X120650Y1743340I0J-5450D01*
G01Y1678040D01*
G03X126100Y1672590I5450J0D01*
G01X139350D01*
G01Y1850390D02*
X126100D01*
G03X120650Y1844940I0J-5450D01*
G01Y1779640D01*
G03X126100Y1774190I5450J0D01*
G01X139350D01*
G01Y1951990D02*
X126100D01*
G03X120650Y1946540I0J-5450D01*
G01Y1881240D01*
G03X126100Y1875790I5450J0D01*
G01X139350D01*
G01X86750Y1974850D02*
Y1991750D01*
G02X88900Y1993900I2150J0D01*
G01X103750Y1974850D02*
Y1955800D01*
G01X139350Y1977390D02*
X116290D01*
X113750Y1974850D01*
X103750D01*
G01X158750Y120650D02*
Y114300D01*
X160900Y112150D01*
Y101600D01*
G01X254350Y193040D02*
X276860D01*
G02X285750Y184150I0J-8890D01*
G01Y165100D01*
G02X278740Y158090I-7010J0D01*
G01X274250D01*
G01X254350Y142240D02*
X261940D01*
G02X265730Y140670I4J-5350D01*
G03X269540Y139090I3808J3800D01*
G01X274250D01*
G01X297250Y148590D02*
Y172790D01*
X298450Y173990D01*
G01X254350Y167640D02*
X262560D01*
G03X269630Y170570I-2J10000D01*
G01X273050Y173990D01*
G01X254350Y294640D02*
X276860D01*
G02X285750Y285750I0J-8890D01*
G01Y266700D01*
G02X278740Y259690I-7010J0D01*
G01X274250D01*
G01X254350Y269240D02*
X262720D01*
G03X269790Y272170I-2J10000D01*
G01X273050Y275430D01*
G01X254350Y243840D02*
X261940D01*
G02X265730Y242270I4J-5350D01*
G03X269540Y240690I3808J3800D01*
G01X274250D01*
G01X297250Y250190D02*
Y274390D01*
X298450Y275590D01*
G01X254350Y396240D02*
X276860D01*
G02X285750Y387350I0J-8890D01*
G01Y368300D01*
G02X278740Y361290I-7010J0D01*
G01X274250D01*
G01X254350Y370840D02*
X262560D01*
G03X269630Y373770I-2J10000D01*
G01X273050Y377190D01*
G01X254350Y345440D02*
X261940D01*
G02X265730Y343870I4J-5350D01*
G03X269540Y342290I3808J3800D01*
G01X274250D01*
G01X297250Y351790D02*
Y375990D01*
X298450Y377190D01*
G01X254350Y497840D02*
X276860D01*
G02X285750Y488950I0J-8890D01*
G01Y469900D01*
G02X278740Y462890I-7010J0D01*
G01X274250D01*
G01X254350Y447040D02*
X261940D01*
G02X265730Y445470I4J-5350D01*
G03X269540Y443890I3808J3800D01*
G01X274250D01*
G01X297250Y453390D02*
Y477590D01*
X298450Y478790D01*
G01X254350Y472440D02*
X262720D01*
G03X269790Y475370I-2J10000D01*
G01X273050Y478630D01*
G01X254350Y599440D02*
X276860D01*
G02X285750Y590550I0J-8890D01*
G01Y571500D01*
G02X278740Y564490I-7010J0D01*
G01X274250D01*
G01X254350Y574040D02*
X262560D01*
G03X269630Y576970I-2J10000D01*
G01X273050Y580390D01*
G01X254350Y548640D02*
X261940D01*
G02X265730Y547070I4J-5350D01*
G03X269540Y545490I3808J3800D01*
G01X274250D01*
G01X297250Y554990D02*
Y579190D01*
X298450Y580390D01*
G01X254350Y701040D02*
X276860D01*
G02X285750Y692150I0J-8890D01*
G01Y673100D01*
G02X278740Y666090I-7010J0D01*
G01X274250D01*
G01X254350Y675640D02*
X262720D01*
G03X269790Y678570I-2J10000D01*
G01X273050Y681830D01*
G01X254350Y650240D02*
X261940D01*
G02X265730Y648670I4J-5350D01*
G03X269540Y647090I3808J3800D01*
G01X274250D01*
G01X297250Y656590D02*
Y680790D01*
X298450Y681990D01*
G01X254350Y802640D02*
X276860D01*
G02X285750Y793750I0J-8890D01*
G01Y774700D01*
G02X278740Y767690I-7010J0D01*
G01X274250D01*
G01X254350Y751840D02*
X261940D01*
G02X265730Y750270I4J-5350D01*
G03X269540Y748690I3808J3800D01*
G01X274250D01*
G01X297250Y758190D02*
Y782390D01*
X298450Y783590D01*
G01X254350Y777240D02*
X262560D01*
G03X269630Y780170I-2J10000D01*
G01X273050Y783590D01*
G01X297250Y859790D02*
Y883990D01*
X298450Y885190D01*
G01X254350Y904240D02*
X276860D01*
G02X285750Y895350I0J-8890D01*
G01Y876300D01*
G02X278740Y869290I-7010J0D01*
G01X274250D01*
G01X254350Y878840D02*
X262720D01*
G03X269790Y881770I-2J10000D01*
G01X273050Y885030D01*
G01X254350Y853440D02*
X261940D01*
G02X265730Y851870I4J-5350D01*
G03X269540Y850290I3808J3800D01*
G01X274250D01*
G01X254350Y1215390D02*
X261940D01*
G02X265730Y1213820I4J-5350D01*
G03X269540Y1212240I3808J3800D01*
G01X274250D01*
G01X297250Y1221740D02*
Y1245940D01*
X298450Y1247140D01*
G01X254350Y1266190D02*
X276860D01*
G02X285750Y1257300I0J-8890D01*
G01Y1238250D01*
G02X278740Y1231240I-7010J0D01*
G01X274250D01*
G01X254350Y1240790D02*
X262560D01*
G03X269630Y1243720I-2J10000D01*
G01X273050Y1247140D01*
G01X254350Y1367790D02*
X276860D01*
G02X285750Y1358900I0J-8890D01*
G01Y1339850D01*
G02X278740Y1332840I-7010J0D01*
G01X274250D01*
G01X254350Y1342390D02*
X262720D01*
G03X269790Y1345320I-2J10000D01*
G01X273050Y1348580D01*
G01X254350Y1316990D02*
X261940D01*
G02X265730Y1315420I4J-5350D01*
G03X269540Y1313840I3808J3800D01*
G01X274250D01*
G01X297250Y1323340D02*
Y1347540D01*
X298450Y1348740D01*
G01X254350Y1469390D02*
X276860D01*
G02X285750Y1460500I0J-8890D01*
G01Y1441450D01*
G02X278740Y1434440I-7010J0D01*
G01X274250D01*
G01X254350Y1443990D02*
X262560D01*
G03X269630Y1446920I-2J10000D01*
G01X273050Y1450340D01*
G01X254350Y1418590D02*
X261940D01*
G02X265730Y1417020I4J-5350D01*
G03X269540Y1415440I3808J3800D01*
G01X274250D01*
G01X297250Y1424940D02*
Y1449140D01*
X298450Y1450340D01*
G01X254350Y1520190D02*
X261940D01*
G02X265730Y1518620I4J-5350D01*
G03X269540Y1517040I3808J3800D01*
G01X274250D01*
G01X297250Y1526540D02*
Y1550740D01*
X298450Y1551940D01*
G01X254350Y1570990D02*
X276860D01*
G02X285750Y1562100I0J-8890D01*
G01Y1543050D01*
G02X278740Y1536040I-7010J0D01*
G01X274250D01*
G01X254350Y1545590D02*
X262720D01*
G03X269790Y1548520I-2J10000D01*
G01X273050Y1551780D01*
G01X254350Y1672590D02*
X276860D01*
G02X285750Y1663700I0J-8890D01*
G01Y1644650D01*
G02X278740Y1637640I-7010J0D01*
G01X274250D01*
G01X254350Y1647190D02*
X262560D01*
G03X269630Y1650120I-2J10000D01*
G01X273050Y1653540D01*
G01X254350Y1621790D02*
X261940D01*
G02X265730Y1620220I4J-5350D01*
G03X269540Y1618640I3808J3800D01*
G01X274250D01*
G01X297250Y1628140D02*
Y1652340D01*
X298450Y1653540D01*
G01X254350Y1774190D02*
X276860D01*
G02X285750Y1765300I0J-8890D01*
G01Y1746250D01*
G02X278740Y1739240I-7010J0D01*
G01X274250D01*
G01X254350Y1748790D02*
X262720D01*
G03X269790Y1751720I-2J10000D01*
G01X273050Y1754980D01*
G01X254350Y1723390D02*
X261940D01*
G02X265730Y1721820I4J-5350D01*
G03X269540Y1720240I3808J3800D01*
G01X274250D01*
G01X297250Y1729740D02*
Y1753940D01*
X298450Y1755140D01*
G01X254350Y1824990D02*
X261940D01*
G02X265730Y1823420I4J-5350D01*
G03X269540Y1821840I3808J3800D01*
G01X274250D01*
G01X297250Y1831340D02*
Y1855540D01*
X298450Y1856740D01*
G01X254350Y1875790D02*
X276860D01*
G02X285750Y1866900I0J-8890D01*
G01Y1847850D01*
G02X278740Y1840840I-7010J0D01*
G01X274250D01*
G01X254350Y1850390D02*
X262560D01*
G03X269630Y1853320I-2J10000D01*
G01X273050Y1856740D01*
G01X297250Y1932940D02*
Y1957140D01*
X298450Y1958340D01*
G01X254350Y1977390D02*
X276860D01*
G02X285750Y1968500I0J-8890D01*
G01Y1949450D01*
G02X278740Y1942440I-7010J0D01*
G01X274250D01*
G01X254350Y1951990D02*
X262720D01*
G03X269790Y1954920I-2J10000D01*
G01X273050Y1958180D01*
G01X254350Y1926590D02*
X261940D01*
G02X265730Y1925020I4J-5350D01*
G03X269540Y1923440I3808J3800D01*
G01X274250D01*
G54D19*
X143900Y82550D03*
Y101600D03*
X86750Y1974850D03*
X103750D03*
X86750Y1955800D03*
X103750D03*
X160900Y82550D03*
Y101600D03*
G54D29*
G01X0Y750480D02*
Y762000D01*
G01D02*
Y773520D01*
G01X-11520Y762000D02*
X0D01*
G01D02*
X11520D01*
G01X0Y787400D02*
X25400D01*
G01X0D02*
Y802640D01*
G02X6350Y808990I6350J0D01*
G01X25400D01*
G01X-8800Y906730D02*
Y920750D01*
G01D02*
Y934770D01*
G01X-22820Y920750D02*
X-8800D01*
G01D02*
X5220D01*
G01X0Y987050D02*
X14560D01*
G02X21630Y984120I-2J-10000D01*
G01X25400Y980350D01*
G01X0Y946780D02*
Y956050D01*
G01D02*
Y965320D01*
G01X-17270Y956050D02*
X0D01*
G01D02*
X17270D01*
G01X25400Y-11520D02*
Y0D01*
G01D02*
Y11520D01*
G01X13880Y0D02*
X25400D01*
G01D02*
X36920D01*
G01X25400Y13880D02*
Y25400D01*
G01D02*
Y36920D01*
G01X13880Y25400D02*
X25400D01*
G01D02*
X36920D01*
G01X25400Y39280D02*
Y50800D01*
G01D02*
Y62320D01*
G01X13880Y50800D02*
X25400D01*
G01D02*
X36920D01*
G01X25400Y64680D02*
Y76200D01*
G01D02*
Y87720D01*
G01X13880Y76200D02*
X25400D01*
G01D02*
X36920D01*
G01X25400Y90080D02*
Y101600D01*
G01D02*
Y113120D01*
G01X13880Y101600D02*
X25400D01*
G01D02*
X36920D01*
G01X25400Y115480D02*
Y127000D01*
G01D02*
Y138520D01*
G01X13880Y127000D02*
X25400D01*
G01D02*
X36920D01*
G01X25400Y140880D02*
Y152400D01*
G01X13880D02*
X25400D01*
G01D02*
X36920D01*
G01X13880Y177800D02*
X25400D01*
G01X13270Y172350D02*
X25400Y177800D01*
G01X13880Y203200D02*
X25400D01*
G01X13270Y197750D02*
X25400Y203200D01*
G01Y228600D02*
Y240120D01*
G01X13880Y228600D02*
X25400D01*
G01D02*
X36920D01*
G01X25400Y242480D02*
Y254000D01*
G01D02*
Y265520D01*
G01X13880Y254000D02*
X25400D01*
G01D02*
X36920D01*
G01X25400Y267880D02*
Y279400D01*
G01D02*
Y290920D01*
G01X13880Y279400D02*
X25400D01*
G01D02*
X36920D01*
G01X25400Y293280D02*
Y304800D01*
G01D02*
Y316320D01*
G01X13880Y304800D02*
X25400D01*
G01D02*
X36920D01*
G01X25400Y318680D02*
Y330200D01*
G01D02*
Y341720D01*
G01X13880Y330200D02*
X25400D01*
G01D02*
X36920D01*
G01X25400Y344080D02*
Y355600D01*
G01D02*
Y367120D01*
G01X13880Y355600D02*
X25400D01*
G01D02*
X36920D01*
G01X25400Y369480D02*
Y381000D01*
G01D02*
Y392520D01*
G01X13880Y381000D02*
X25400D01*
G01D02*
X36920D01*
G01X25400Y394880D02*
Y406400D01*
G01D02*
Y417920D01*
G01X13880Y406400D02*
X25400D01*
G01D02*
X36920D01*
G01X25400Y420280D02*
Y431800D01*
G01D02*
Y443320D01*
G01X13880Y431800D02*
X25400D01*
G01D02*
X36920D01*
G01X25400Y445680D02*
Y457200D01*
G01D02*
Y468720D01*
G01X13880Y457200D02*
X25400D01*
G01D02*
X36920D01*
G01X25400Y496480D02*
Y508000D01*
G01D02*
Y519520D01*
G01X13880Y508000D02*
X25400D01*
G01D02*
X36920D01*
G01X25400Y521880D02*
Y533400D01*
G01D02*
Y544920D01*
G01X13880Y533400D02*
X25400D01*
G01D02*
X36920D01*
G01X25400Y471080D02*
Y482600D01*
G01D02*
Y494120D01*
G01X13880Y482600D02*
X25400D01*
G01D02*
X36920D01*
G01X25400Y547280D02*
Y558800D01*
G01D02*
Y570320D01*
G01X13880Y558800D02*
X25400D01*
G01D02*
X36920D01*
G01X25400Y572680D02*
Y584200D01*
G01D02*
Y595720D01*
G01X13880Y584200D02*
X25400D01*
G01D02*
X36920D01*
G01X25400Y598080D02*
Y609600D01*
G01D02*
Y621120D01*
G01X13880Y609600D02*
X25400D01*
G01D02*
X36920D01*
G01X25400Y623480D02*
Y635000D01*
G01D02*
Y646520D01*
G01X13880Y635000D02*
X25400D01*
G01D02*
X36920D01*
G01X25400Y648880D02*
Y660400D01*
G01D02*
Y671920D01*
G01X13880Y660400D02*
X25400D01*
G01D02*
X36920D01*
G01X25400Y674280D02*
Y685800D01*
G01D02*
Y697320D01*
G01X13880Y685800D02*
X25400D01*
G01D02*
X36920D01*
G01X50800Y750480D02*
Y762000D01*
G01D02*
Y773520D01*
G01X39280Y762000D02*
X50800D01*
G01D02*
X62320D01*
G01X25400Y699680D02*
Y711200D01*
G01D02*
Y722720D01*
G01X13880Y711200D02*
X25400D01*
G01D02*
X36920D01*
G01X25400Y750480D02*
Y762000D01*
G01D02*
Y773520D01*
G01X13880Y762000D02*
X25400D01*
G01D02*
X36920D01*
G01X25400Y725080D02*
Y736600D01*
G01D02*
Y748120D01*
G01X13880Y736600D02*
X25400D01*
G01D02*
X36920D01*
G01X25400Y787400D02*
X50800D01*
G01X25400D02*
Y808990D01*
G01X50800Y787400D02*
Y802640D01*
G03X44450Y808990I-6350J0D01*
G01X25400D01*
G01X71630Y1145800D02*
X88900D01*
G01X70780Y1225550D02*
X82550D01*
G01X71030Y1200150D02*
X82550D01*
G01X143900Y101600D02*
Y82550D01*
G01X85680Y1085850D02*
X94950D01*
G01D02*
X104220D01*
G01X88900Y1145800D02*
Y1155070D01*
G01Y1145800D02*
X106170D01*
G01X82550Y1213780D02*
Y1225550D01*
G01D02*
Y1237320D01*
G01Y1225550D02*
X94320D01*
G01X82550Y1188630D02*
Y1200150D01*
G01D02*
Y1211670D01*
G01Y1200150D02*
X94070D01*
G01X86750Y1945030D02*
Y1955800D01*
G01X77480D02*
X86750D01*
G01X160900Y71780D02*
Y82550D01*
G01D02*
X170170D01*
M02*
